%TF.GenerationSoftware,KiCad,Pcbnew,5.0.1*%
%TF.CreationDate,2019-01-19T14:59:35-06:00*%
%TF.ProjectId,NFCJig,4E46434A69672E6B696361645F706362,rev?*%
%TF.SameCoordinates,Original*%
%TF.FileFunction,Copper,L2,Bot,Signal*%
%TF.FilePolarity,Positive*%
%FSLAX46Y46*%
G04 Gerber Fmt 4.6, Leading zero omitted, Abs format (unit mm)*
G04 Created by KiCad (PCBNEW 5.0.1) date Sat 19 Jan 2019 02:59:35 PM CST*
%MOMM*%
%LPD*%
G01*
G04 APERTURE LIST*
%ADD10C,0.150000*%
%ADD11R,1.700000X1.700000*%
%ADD12O,1.700000X1.700000*%
%ADD13C,2.100000*%
%ADD14R,2.100000X10.000000*%
%ADD15R,10.000000X2.100000*%
%ADD16C,0.250000*%
G04 APERTURE END LIST*
D10*
X207000000Y-131500000D02*
X207000000Y-131000000D01*
X107000000Y-131500000D02*
X107000000Y-131000000D01*
X107000000Y-62000000D02*
X107000000Y-67000000D01*
X207000000Y-62000000D02*
X207000000Y-67000000D01*
X204000000Y-134500000D02*
X110000000Y-134500000D01*
X110000000Y-59000000D02*
X204000000Y-59000000D01*
X107000000Y-131000000D02*
X107000000Y-67000000D01*
X207000000Y-67000000D02*
X207000000Y-131000000D01*
X207000000Y-131500000D02*
G75*
G02X204000000Y-134500000I-3000000J0D01*
G01*
X110000000Y-134500000D02*
G75*
G02X107000000Y-131500000I0J3000000D01*
G01*
X107000000Y-62000000D02*
G75*
G02X110000000Y-59000000I3000000J0D01*
G01*
X204000000Y-59000000D02*
G75*
G02X207000000Y-62000000I0J-3000000D01*
G01*
D11*
X119040000Y-132500000D03*
D12*
X116500000Y-132500000D03*
D11*
X116680000Y-65740000D03*
D12*
X119220000Y-65740000D03*
X121760000Y-65740000D03*
X124300000Y-65740000D03*
X126840000Y-65740000D03*
X129380000Y-65740000D03*
D13*
X135500000Y-115990000D03*
X131500000Y-115990000D03*
X135500000Y-89990000D03*
X131500000Y-89990000D03*
X135500000Y-86990000D03*
X131500000Y-86990000D03*
X135500000Y-83990000D03*
X131500000Y-83990000D03*
D14*
X108550000Y-116800000D03*
D15*
X158450000Y-128050000D03*
X190500000Y-128050000D03*
D14*
X205500000Y-116800000D03*
X205500000Y-80150000D03*
D15*
X190350000Y-67650000D03*
X158450000Y-67500000D03*
D14*
X108550000Y-80000000D03*
D16*
X119220000Y-70740000D02*
X119220000Y-65740000D01*
X119220000Y-76745002D02*
X119220000Y-70740000D01*
X131089997Y-88614999D02*
X119220000Y-76745002D01*
X135500000Y-89990000D02*
X134124999Y-88614999D01*
X134124999Y-88614999D02*
X131089997Y-88614999D01*
X134450001Y-85940001D02*
X135500000Y-86990000D01*
X134450001Y-84975003D02*
X134450001Y-85940001D01*
X124300000Y-74825002D02*
X134450001Y-84975003D01*
X124300000Y-70740000D02*
X124300000Y-74825002D01*
X124300000Y-70740000D02*
X124300000Y-65740000D01*
X126840000Y-75330000D02*
X135500000Y-83990000D01*
X126840000Y-70740000D02*
X126840000Y-75330000D01*
X126840000Y-70740000D02*
X126840000Y-65740000D01*
M02*
