%TF.GenerationSoftware,KiCad,Pcbnew,5.0.1*%
%TF.CreationDate,2019-01-19T14:59:35-06:00*%
%TF.ProjectId,NFCJig,4E46434A69672E6B696361645F706362,rev?*%
%TF.SameCoordinates,Original*%
%TF.FileFunction,Legend,Top*%
%TF.FilePolarity,Positive*%
%FSLAX46Y46*%
G04 Gerber Fmt 4.6, Leading zero omitted, Abs format (unit mm)*
G04 Created by KiCad (PCBNEW 5.0.1) date Sat 19 Jan 2019 02:59:35 PM CST*
%MOMM*%
%LPD*%
G01*
G04 APERTURE LIST*
%ADD10C,0.150000*%
%ADD11C,0.250000*%
%ADD12C,0.300000*%
%ADD13C,0.010000*%
%ADD14C,0.120000*%
G04 APERTURE END LIST*
D10*
X207000000Y-131500000D02*
X207000000Y-131000000D01*
X107000000Y-131500000D02*
X107000000Y-131000000D01*
D11*
X168380952Y-131952380D02*
X168380952Y-132666666D01*
X168333333Y-132809523D01*
X168238095Y-132904761D01*
X168095238Y-132952380D01*
X168000000Y-132952380D01*
X169333333Y-132952380D02*
X168857142Y-132952380D01*
X168857142Y-131952380D01*
X170238095Y-132857142D02*
X170190476Y-132904761D01*
X170047619Y-132952380D01*
X169952380Y-132952380D01*
X169809523Y-132904761D01*
X169714285Y-132809523D01*
X169666666Y-132714285D01*
X169619047Y-132523809D01*
X169619047Y-132380952D01*
X169666666Y-132190476D01*
X169714285Y-132095238D01*
X169809523Y-132000000D01*
X169952380Y-131952380D01*
X170047619Y-131952380D01*
X170190476Y-132000000D01*
X170238095Y-132047619D01*
X170952380Y-131952380D02*
X170952380Y-132666666D01*
X170904761Y-132809523D01*
X170809523Y-132904761D01*
X170666666Y-132952380D01*
X170571428Y-132952380D01*
X171904761Y-132952380D02*
X171428571Y-132952380D01*
X171428571Y-131952380D01*
X172809523Y-132857142D02*
X172761904Y-132904761D01*
X172619047Y-132952380D01*
X172523809Y-132952380D01*
X172380952Y-132904761D01*
X172285714Y-132809523D01*
X172238095Y-132714285D01*
X172190476Y-132523809D01*
X172190476Y-132380952D01*
X172238095Y-132190476D01*
X172285714Y-132095238D01*
X172380952Y-132000000D01*
X172523809Y-131952380D01*
X172619047Y-131952380D01*
X172761904Y-132000000D01*
X172809523Y-132047619D01*
X173523809Y-131952380D02*
X173523809Y-132666666D01*
X173476190Y-132809523D01*
X173380952Y-132904761D01*
X173238095Y-132952380D01*
X173142857Y-132952380D01*
X174476190Y-132952380D02*
X174000000Y-132952380D01*
X174000000Y-131952380D01*
X175380952Y-132857142D02*
X175333333Y-132904761D01*
X175190476Y-132952380D01*
X175095238Y-132952380D01*
X174952380Y-132904761D01*
X174857142Y-132809523D01*
X174809523Y-132714285D01*
X174761904Y-132523809D01*
X174761904Y-132380952D01*
X174809523Y-132190476D01*
X174857142Y-132095238D01*
X174952380Y-132000000D01*
X175095238Y-131952380D01*
X175190476Y-131952380D01*
X175333333Y-132000000D01*
X175380952Y-132047619D01*
X176095238Y-131952380D02*
X176095238Y-132666666D01*
X176047619Y-132809523D01*
X175952380Y-132904761D01*
X175809523Y-132952380D01*
X175714285Y-132952380D01*
X177047619Y-132952380D02*
X176571428Y-132952380D01*
X176571428Y-131952380D01*
X177952380Y-132857142D02*
X177904761Y-132904761D01*
X177761904Y-132952380D01*
X177666666Y-132952380D01*
X177523809Y-132904761D01*
X177428571Y-132809523D01*
X177380952Y-132714285D01*
X177333333Y-132523809D01*
X177333333Y-132380952D01*
X177380952Y-132190476D01*
X177428571Y-132095238D01*
X177523809Y-132000000D01*
X177666666Y-131952380D01*
X177761904Y-131952380D01*
X177904761Y-132000000D01*
X177952380Y-132047619D01*
D10*
X107000000Y-62000000D02*
X107000000Y-67000000D01*
X207000000Y-62000000D02*
X207000000Y-67000000D01*
X204000000Y-134500000D02*
X110000000Y-134500000D01*
X110000000Y-59000000D02*
X204000000Y-59000000D01*
X107000000Y-131000000D02*
X107000000Y-67000000D01*
X207000000Y-67000000D02*
X207000000Y-131000000D01*
X207000000Y-131500000D02*
G75*
G02X204000000Y-134500000I-3000000J0D01*
G01*
X110000000Y-134500000D02*
G75*
G02X107000000Y-131500000I0J3000000D01*
G01*
X107000000Y-62000000D02*
G75*
G02X110000000Y-59000000I3000000J0D01*
G01*
X204000000Y-59000000D02*
G75*
G02X207000000Y-62000000I0J-3000000D01*
G01*
D12*
X117771428Y-128878571D02*
X118271428Y-130378571D01*
X118771428Y-128878571D01*
X119200000Y-130307142D02*
X119414285Y-130378571D01*
X119771428Y-130378571D01*
X119914285Y-130307142D01*
X119985714Y-130235714D01*
X120057142Y-130092857D01*
X120057142Y-129950000D01*
X119985714Y-129807142D01*
X119914285Y-129735714D01*
X119771428Y-129664285D01*
X119485714Y-129592857D01*
X119342857Y-129521428D01*
X119271428Y-129450000D01*
X119200000Y-129307142D01*
X119200000Y-129164285D01*
X119271428Y-129021428D01*
X119342857Y-128950000D01*
X119485714Y-128878571D01*
X119842857Y-128878571D01*
X120057142Y-128950000D01*
X120628571Y-130307142D02*
X120842857Y-130378571D01*
X121200000Y-130378571D01*
X121342857Y-130307142D01*
X121414285Y-130235714D01*
X121485714Y-130092857D01*
X121485714Y-129950000D01*
X121414285Y-129807142D01*
X121342857Y-129735714D01*
X121200000Y-129664285D01*
X120914285Y-129592857D01*
X120771428Y-129521428D01*
X120700000Y-129450000D01*
X120628571Y-129307142D01*
X120628571Y-129164285D01*
X120700000Y-129021428D01*
X120771428Y-128950000D01*
X120914285Y-128878571D01*
X121271428Y-128878571D01*
X121485714Y-128950000D01*
X112900000Y-128878571D02*
X113400000Y-130378571D01*
X113900000Y-128878571D01*
X114400000Y-130378571D02*
X114400000Y-128878571D01*
X114757142Y-128878571D01*
X114971428Y-128950000D01*
X115114285Y-129092857D01*
X115185714Y-129235714D01*
X115257142Y-129521428D01*
X115257142Y-129735714D01*
X115185714Y-130021428D01*
X115114285Y-130164285D01*
X114971428Y-130307142D01*
X114757142Y-130378571D01*
X114400000Y-130378571D01*
X115900000Y-130378571D02*
X115900000Y-128878571D01*
X116257142Y-128878571D01*
X116471428Y-128950000D01*
X116614285Y-129092857D01*
X116685714Y-129235714D01*
X116757142Y-129521428D01*
X116757142Y-129735714D01*
X116685714Y-130021428D01*
X116614285Y-130164285D01*
X116471428Y-130307142D01*
X116257142Y-130378571D01*
X115900000Y-130378571D01*
X117321428Y-60364285D02*
X117321428Y-61221428D01*
X115821428Y-60792857D02*
X117321428Y-60792857D01*
X115821428Y-61721428D02*
X117321428Y-61721428D01*
X117321428Y-62078571D01*
X117250000Y-62292857D01*
X117107142Y-62435714D01*
X116964285Y-62507142D01*
X116678571Y-62578571D01*
X116464285Y-62578571D01*
X116178571Y-62507142D01*
X116035714Y-62435714D01*
X115892857Y-62292857D01*
X115821428Y-62078571D01*
X115821428Y-61721428D01*
X115821428Y-63221428D02*
X117321428Y-63221428D01*
X119921428Y-59700000D02*
X119921428Y-60557142D01*
X118421428Y-60128571D02*
X119921428Y-60128571D01*
X118421428Y-61057142D02*
X119921428Y-61057142D01*
X118850000Y-61557142D01*
X119921428Y-62057142D01*
X118421428Y-62057142D01*
X118492857Y-62700000D02*
X118421428Y-62914285D01*
X118421428Y-63271428D01*
X118492857Y-63414285D01*
X118564285Y-63485714D01*
X118707142Y-63557142D01*
X118850000Y-63557142D01*
X118992857Y-63485714D01*
X119064285Y-63414285D01*
X119135714Y-63271428D01*
X119207142Y-62985714D01*
X119278571Y-62842857D01*
X119350000Y-62771428D01*
X119492857Y-62700000D01*
X119635714Y-62700000D01*
X119778571Y-62771428D01*
X119850000Y-62842857D01*
X119921428Y-62985714D01*
X119921428Y-63342857D01*
X119850000Y-63557142D01*
X121021428Y-61128571D02*
X121735714Y-60628571D01*
X121021428Y-60271428D02*
X122521428Y-60271428D01*
X122521428Y-60842857D01*
X122450000Y-60985714D01*
X122378571Y-61057142D01*
X122235714Y-61128571D01*
X122021428Y-61128571D01*
X121878571Y-61057142D01*
X121807142Y-60985714D01*
X121735714Y-60842857D01*
X121735714Y-60271428D01*
X121092857Y-61700000D02*
X121021428Y-61842857D01*
X121021428Y-62128571D01*
X121092857Y-62271428D01*
X121235714Y-62342857D01*
X121307142Y-62342857D01*
X121450000Y-62271428D01*
X121521428Y-62128571D01*
X121521428Y-61914285D01*
X121592857Y-61771428D01*
X121735714Y-61700000D01*
X121807142Y-61700000D01*
X121950000Y-61771428D01*
X122021428Y-61914285D01*
X122021428Y-62128571D01*
X121950000Y-62271428D01*
X122021428Y-62771428D02*
X122021428Y-63342857D01*
X122521428Y-62985714D02*
X121235714Y-62985714D01*
X121092857Y-63057142D01*
X121021428Y-63200000D01*
X121021428Y-63342857D01*
X125091428Y-59761428D02*
X125091428Y-60618571D01*
X123591428Y-60190000D02*
X125091428Y-60190000D01*
X123734285Y-61975714D02*
X123662857Y-61904285D01*
X123591428Y-61690000D01*
X123591428Y-61547142D01*
X123662857Y-61332857D01*
X123805714Y-61190000D01*
X123948571Y-61118571D01*
X124234285Y-61047142D01*
X124448571Y-61047142D01*
X124734285Y-61118571D01*
X124877142Y-61190000D01*
X125020000Y-61332857D01*
X125091428Y-61547142D01*
X125091428Y-61690000D01*
X125020000Y-61904285D01*
X124948571Y-61975714D01*
X123591428Y-62618571D02*
X125091428Y-62618571D01*
X123591428Y-63475714D02*
X124448571Y-62832857D01*
X125091428Y-63475714D02*
X124234285Y-62618571D01*
X127721428Y-59735714D02*
X127721428Y-60592857D01*
X126221428Y-60164285D02*
X127721428Y-60164285D01*
X126221428Y-61092857D02*
X127721428Y-61092857D01*
X127721428Y-61450000D01*
X127650000Y-61664285D01*
X127507142Y-61807142D01*
X127364285Y-61878571D01*
X127078571Y-61950000D01*
X126864285Y-61950000D01*
X126578571Y-61878571D01*
X126435714Y-61807142D01*
X126292857Y-61664285D01*
X126221428Y-61450000D01*
X126221428Y-61092857D01*
X127721428Y-62878571D02*
X127721428Y-63164285D01*
X127650000Y-63307142D01*
X127507142Y-63450000D01*
X127221428Y-63521428D01*
X126721428Y-63521428D01*
X126435714Y-63450000D01*
X126292857Y-63307142D01*
X126221428Y-63164285D01*
X126221428Y-62878571D01*
X126292857Y-62735714D01*
X126435714Y-62592857D01*
X126721428Y-62521428D01*
X127221428Y-62521428D01*
X127507142Y-62592857D01*
X127650000Y-62735714D01*
X127721428Y-62878571D01*
X130050000Y-60735714D02*
X130121428Y-60592857D01*
X130121428Y-60378571D01*
X130050000Y-60164285D01*
X129907142Y-60021428D01*
X129764285Y-59950000D01*
X129478571Y-59878571D01*
X129264285Y-59878571D01*
X128978571Y-59950000D01*
X128835714Y-60021428D01*
X128692857Y-60164285D01*
X128621428Y-60378571D01*
X128621428Y-60521428D01*
X128692857Y-60735714D01*
X128764285Y-60807142D01*
X129264285Y-60807142D01*
X129264285Y-60521428D01*
X129621428Y-61450000D02*
X128621428Y-61450000D01*
X129478571Y-61450000D02*
X129550000Y-61521428D01*
X129621428Y-61664285D01*
X129621428Y-61878571D01*
X129550000Y-62021428D01*
X129407142Y-62092857D01*
X128621428Y-62092857D01*
X128621428Y-63450000D02*
X130121428Y-63450000D01*
X128692857Y-63450000D02*
X128621428Y-63307142D01*
X128621428Y-63021428D01*
X128692857Y-62878571D01*
X128764285Y-62807142D01*
X128907142Y-62735714D01*
X129335714Y-62735714D01*
X129478571Y-62807142D01*
X129550000Y-62878571D01*
X129621428Y-63021428D01*
X129621428Y-63307142D01*
X129550000Y-63450000D01*
X201785714Y-129678571D02*
X202285714Y-131178571D01*
X202785714Y-129678571D01*
X204071428Y-131178571D02*
X203214285Y-131178571D01*
X203642857Y-131178571D02*
X203642857Y-129678571D01*
X203500000Y-129892857D01*
X203357142Y-130035714D01*
X203214285Y-130107142D01*
D10*
X112000000Y-122000000D02*
X112000000Y-76000000D01*
X198500000Y-124500000D02*
X114500000Y-124500000D01*
X201000000Y-76000000D02*
X201000000Y-122000000D01*
X114500000Y-73500000D02*
X198500000Y-73500000D01*
X201000000Y-122000000D02*
G75*
G02X198500000Y-124500000I-2500000J0D01*
G01*
X114500000Y-124500000D02*
G75*
G02X112000000Y-122000000I0J2500000D01*
G01*
X112000000Y-76000000D02*
G75*
G02X114500000Y-73500000I2500000J0D01*
G01*
X198500000Y-73500000D02*
G75*
G02X201000000Y-76000000I0J-2500000D01*
G01*
D13*
G36*
X179324184Y-75913250D02*
X179311882Y-76026255D01*
X179279926Y-76080139D01*
X179202963Y-76100255D01*
X179131250Y-76106184D01*
X178951334Y-76119201D01*
X178951334Y-75733333D01*
X179337202Y-75733333D01*
X179324184Y-75913250D01*
X179324184Y-75913250D01*
G37*
X179324184Y-75913250D02*
X179311882Y-76026255D01*
X179279926Y-76080139D01*
X179202963Y-76100255D01*
X179131250Y-76106184D01*
X178951334Y-76119201D01*
X178951334Y-75733333D01*
X179337202Y-75733333D01*
X179324184Y-75913250D01*
G36*
X159393334Y-76114333D02*
X159222672Y-76114333D01*
X159092637Y-76099179D01*
X159029895Y-76056531D01*
X159029015Y-76054409D01*
X159016472Y-75969332D01*
X159019760Y-75874492D01*
X159037548Y-75797838D01*
X159084482Y-75760016D01*
X159185915Y-75743613D01*
X159213417Y-75741482D01*
X159393334Y-75728465D01*
X159393334Y-76114333D01*
X159393334Y-76114333D01*
G37*
X159393334Y-76114333D02*
X159222672Y-76114333D01*
X159092637Y-76099179D01*
X159029895Y-76056531D01*
X159029015Y-76054409D01*
X159016472Y-75969332D01*
X159019760Y-75874492D01*
X159037548Y-75797838D01*
X159084482Y-75760016D01*
X159185915Y-75743613D01*
X159213417Y-75741482D01*
X159393334Y-75728465D01*
X159393334Y-76114333D01*
G36*
X151350000Y-76114333D02*
X151187722Y-76114333D01*
X151075852Y-76107570D01*
X151004241Y-76090837D01*
X150997222Y-76086111D01*
X150978943Y-76028944D01*
X150969399Y-75923186D01*
X150969000Y-75895611D01*
X150969000Y-75733333D01*
X151350000Y-75733333D01*
X151350000Y-76114333D01*
X151350000Y-76114333D01*
G37*
X151350000Y-76114333D02*
X151187722Y-76114333D01*
X151075852Y-76107570D01*
X151004241Y-76090837D01*
X150997222Y-76086111D01*
X150978943Y-76028944D01*
X150969399Y-75923186D01*
X150969000Y-75895611D01*
X150969000Y-75733333D01*
X151350000Y-75733333D01*
X151350000Y-76114333D01*
G36*
X192709667Y-76745909D02*
X193058917Y-76758204D01*
X193408167Y-76770500D01*
X193421184Y-76950416D01*
X193434202Y-77130333D01*
X192707877Y-77130333D01*
X192719355Y-77966416D01*
X192730834Y-78802500D01*
X192900167Y-78823666D01*
X193008388Y-78842148D01*
X193056620Y-78879192D01*
X193069095Y-78962058D01*
X193069500Y-79014166D01*
X193069500Y-79183500D01*
X192872349Y-79196242D01*
X192736489Y-79195617D01*
X192636296Y-79161700D01*
X192527276Y-79079098D01*
X192523099Y-79075440D01*
X192371000Y-78941895D01*
X192371000Y-77130333D01*
X191651334Y-77130333D01*
X191651334Y-76749333D01*
X192371000Y-76749333D01*
X192371000Y-75733333D01*
X192709667Y-75733333D01*
X192709667Y-76745909D01*
X192709667Y-76745909D01*
G37*
X192709667Y-76745909D02*
X193058917Y-76758204D01*
X193408167Y-76770500D01*
X193421184Y-76950416D01*
X193434202Y-77130333D01*
X192707877Y-77130333D01*
X192719355Y-77966416D01*
X192730834Y-78802500D01*
X192900167Y-78823666D01*
X193008388Y-78842148D01*
X193056620Y-78879192D01*
X193069095Y-78962058D01*
X193069500Y-79014166D01*
X193069500Y-79183500D01*
X192872349Y-79196242D01*
X192736489Y-79195617D01*
X192636296Y-79161700D01*
X192527276Y-79079098D01*
X192523099Y-79075440D01*
X192371000Y-78941895D01*
X192371000Y-77130333D01*
X191651334Y-77130333D01*
X191651334Y-76749333D01*
X192371000Y-76749333D01*
X192371000Y-75733333D01*
X192709667Y-75733333D01*
X192709667Y-76745909D01*
G36*
X190515107Y-76996560D02*
X190656035Y-77148292D01*
X190735758Y-77262853D01*
X190762261Y-77351865D01*
X190762334Y-77356393D01*
X190755345Y-77425766D01*
X190719166Y-77458632D01*
X190630972Y-77468481D01*
X190571834Y-77469000D01*
X190438289Y-77457983D01*
X190383242Y-77424284D01*
X190381334Y-77413420D01*
X190344622Y-77323837D01*
X190252242Y-77233866D01*
X190130829Y-77162990D01*
X190007014Y-77130693D01*
X189994379Y-77130333D01*
X189915570Y-77138131D01*
X189840927Y-77169275D01*
X189753280Y-77235391D01*
X189635459Y-77348104D01*
X189562779Y-77422550D01*
X189280667Y-77714767D01*
X189280667Y-79204666D01*
X188942000Y-79204666D01*
X188942000Y-78215016D01*
X188941559Y-77889282D01*
X188939059Y-77638094D01*
X188932733Y-77451333D01*
X188920815Y-77318879D01*
X188901538Y-77230613D01*
X188873136Y-77176416D01*
X188833842Y-77146167D01*
X188781889Y-77129747D01*
X188751500Y-77123725D01*
X188694840Y-77095442D01*
X188670492Y-77023162D01*
X188666834Y-76939253D01*
X188671925Y-76830534D01*
X188701542Y-76780250D01*
X188777198Y-76762223D01*
X188815000Y-76758964D01*
X188981905Y-76778401D01*
X189129918Y-76852358D01*
X189234279Y-76965041D01*
X189266046Y-77046646D01*
X189291632Y-77174577D01*
X189516449Y-76961955D01*
X189635879Y-76852190D01*
X189723571Y-76788695D01*
X189808583Y-76758815D01*
X189919972Y-76749893D01*
X190004573Y-76749333D01*
X190267880Y-76749333D01*
X190515107Y-76996560D01*
X190515107Y-76996560D01*
G37*
X190515107Y-76996560D02*
X190656035Y-77148292D01*
X190735758Y-77262853D01*
X190762261Y-77351865D01*
X190762334Y-77356393D01*
X190755345Y-77425766D01*
X190719166Y-77458632D01*
X190630972Y-77468481D01*
X190571834Y-77469000D01*
X190438289Y-77457983D01*
X190383242Y-77424284D01*
X190381334Y-77413420D01*
X190344622Y-77323837D01*
X190252242Y-77233866D01*
X190130829Y-77162990D01*
X190007014Y-77130693D01*
X189994379Y-77130333D01*
X189915570Y-77138131D01*
X189840927Y-77169275D01*
X189753280Y-77235391D01*
X189635459Y-77348104D01*
X189562779Y-77422550D01*
X189280667Y-77714767D01*
X189280667Y-79204666D01*
X188942000Y-79204666D01*
X188942000Y-78215016D01*
X188941559Y-77889282D01*
X188939059Y-77638094D01*
X188932733Y-77451333D01*
X188920815Y-77318879D01*
X188901538Y-77230613D01*
X188873136Y-77176416D01*
X188833842Y-77146167D01*
X188781889Y-77129747D01*
X188751500Y-77123725D01*
X188694840Y-77095442D01*
X188670492Y-77023162D01*
X188666834Y-76939253D01*
X188671925Y-76830534D01*
X188701542Y-76780250D01*
X188777198Y-76762223D01*
X188815000Y-76758964D01*
X188981905Y-76778401D01*
X189129918Y-76852358D01*
X189234279Y-76965041D01*
X189266046Y-77046646D01*
X189291632Y-77174577D01*
X189516449Y-76961955D01*
X189635879Y-76852190D01*
X189723571Y-76788695D01*
X189808583Y-76758815D01*
X189919972Y-76749893D01*
X190004573Y-76749333D01*
X190267880Y-76749333D01*
X190515107Y-76996560D01*
G36*
X187808356Y-76991424D02*
X188053000Y-77233516D01*
X188053000Y-78146333D01*
X186317334Y-78146333D01*
X186317334Y-78371246D01*
X186324722Y-78516239D01*
X186355112Y-78612436D01*
X186420845Y-78695033D01*
X186436067Y-78709913D01*
X186554800Y-78823666D01*
X188053000Y-78823666D01*
X188053000Y-79204666D01*
X186494270Y-79204666D01*
X186280470Y-79035667D01*
X186160944Y-78933992D01*
X186066121Y-78840341D01*
X186022669Y-78784450D01*
X186006995Y-78712877D01*
X185994101Y-78569806D01*
X185984696Y-78368379D01*
X185979487Y-78121739D01*
X185978667Y-77967874D01*
X185978667Y-77566566D01*
X186359667Y-77566566D01*
X186359667Y-77765333D01*
X187714334Y-77765333D01*
X187714334Y-77589412D01*
X187681013Y-77400653D01*
X187606346Y-77271912D01*
X187498358Y-77130333D01*
X187042766Y-77130333D01*
X186840528Y-77131286D01*
X186704165Y-77136759D01*
X186614885Y-77150670D01*
X186553899Y-77176937D01*
X186502416Y-77219480D01*
X186473420Y-77249066D01*
X186396485Y-77351690D01*
X186364000Y-77469860D01*
X186359667Y-77566566D01*
X185978667Y-77566566D01*
X185978667Y-77233516D01*
X186223311Y-76991424D01*
X186467955Y-76749333D01*
X187563712Y-76749333D01*
X187808356Y-76991424D01*
X187808356Y-76991424D01*
G37*
X187808356Y-76991424D02*
X188053000Y-77233516D01*
X188053000Y-78146333D01*
X186317334Y-78146333D01*
X186317334Y-78371246D01*
X186324722Y-78516239D01*
X186355112Y-78612436D01*
X186420845Y-78695033D01*
X186436067Y-78709913D01*
X186554800Y-78823666D01*
X188053000Y-78823666D01*
X188053000Y-79204666D01*
X186494270Y-79204666D01*
X186280470Y-79035667D01*
X186160944Y-78933992D01*
X186066121Y-78840341D01*
X186022669Y-78784450D01*
X186006995Y-78712877D01*
X185994101Y-78569806D01*
X185984696Y-78368379D01*
X185979487Y-78121739D01*
X185978667Y-77967874D01*
X185978667Y-77566566D01*
X186359667Y-77566566D01*
X186359667Y-77765333D01*
X187714334Y-77765333D01*
X187714334Y-77589412D01*
X187681013Y-77400653D01*
X187606346Y-77271912D01*
X187498358Y-77130333D01*
X187042766Y-77130333D01*
X186840528Y-77131286D01*
X186704165Y-77136759D01*
X186614885Y-77150670D01*
X186553899Y-77176937D01*
X186502416Y-77219480D01*
X186473420Y-77249066D01*
X186396485Y-77351690D01*
X186364000Y-77469860D01*
X186359667Y-77566566D01*
X185978667Y-77566566D01*
X185978667Y-77233516D01*
X186223311Y-76991424D01*
X186467955Y-76749333D01*
X187563712Y-76749333D01*
X187808356Y-76991424D01*
G36*
X183660164Y-76759916D02*
X183671500Y-77786500D01*
X183879930Y-77799702D01*
X184088359Y-77812905D01*
X184609143Y-77293372D01*
X185129926Y-76773839D01*
X185258984Y-76897484D01*
X185388041Y-77021128D01*
X184914849Y-77495667D01*
X184441656Y-77970205D01*
X184882078Y-78442307D01*
X185035609Y-78608047D01*
X185167350Y-78752477D01*
X185266988Y-78864116D01*
X185324211Y-78931483D01*
X185333756Y-78945140D01*
X185313339Y-78991055D01*
X185248624Y-79067361D01*
X185224558Y-79091273D01*
X185104103Y-79206676D01*
X184606290Y-78676504D01*
X184108476Y-78146333D01*
X183650334Y-78146333D01*
X183650334Y-79204666D01*
X183311667Y-79204666D01*
X183311667Y-75733333D01*
X183648828Y-75733333D01*
X183660164Y-76759916D01*
X183660164Y-76759916D01*
G37*
X183660164Y-76759916D02*
X183671500Y-77786500D01*
X183879930Y-77799702D01*
X184088359Y-77812905D01*
X184609143Y-77293372D01*
X185129926Y-76773839D01*
X185258984Y-76897484D01*
X185388041Y-77021128D01*
X184914849Y-77495667D01*
X184441656Y-77970205D01*
X184882078Y-78442307D01*
X185035609Y-78608047D01*
X185167350Y-78752477D01*
X185266988Y-78864116D01*
X185324211Y-78931483D01*
X185333756Y-78945140D01*
X185313339Y-78991055D01*
X185248624Y-79067361D01*
X185224558Y-79091273D01*
X185104103Y-79206676D01*
X184606290Y-78676504D01*
X184108476Y-78146333D01*
X183650334Y-78146333D01*
X183650334Y-79204666D01*
X183311667Y-79204666D01*
X183311667Y-75733333D01*
X183648828Y-75733333D01*
X183660164Y-76759916D01*
G36*
X182068666Y-76758757D02*
X182697834Y-76770500D01*
X182697834Y-77109166D01*
X182126334Y-77120969D01*
X181554834Y-77132771D01*
X181269084Y-77416167D01*
X180983334Y-77699562D01*
X180983334Y-78254437D01*
X181269084Y-78537832D01*
X181554834Y-78821228D01*
X182126334Y-78833030D01*
X182697834Y-78844833D01*
X182697834Y-79183500D01*
X182105167Y-79191318D01*
X181885417Y-79192564D01*
X181693026Y-79190567D01*
X181545376Y-79185735D01*
X181459847Y-79178476D01*
X181449000Y-79175922D01*
X181396111Y-79138620D01*
X181297132Y-79053342D01*
X181165580Y-78932240D01*
X181014972Y-78787469D01*
X180993917Y-78766773D01*
X180602334Y-78380838D01*
X180602334Y-77569514D01*
X181020916Y-77158265D01*
X181439499Y-76747015D01*
X182068666Y-76758757D01*
X182068666Y-76758757D01*
G37*
X182068666Y-76758757D02*
X182697834Y-76770500D01*
X182697834Y-77109166D01*
X182126334Y-77120969D01*
X181554834Y-77132771D01*
X181269084Y-77416167D01*
X180983334Y-77699562D01*
X180983334Y-78254437D01*
X181269084Y-78537832D01*
X181554834Y-78821228D01*
X182126334Y-78833030D01*
X182697834Y-78844833D01*
X182697834Y-79183500D01*
X182105167Y-79191318D01*
X181885417Y-79192564D01*
X181693026Y-79190567D01*
X181545376Y-79185735D01*
X181459847Y-79178476D01*
X181449000Y-79175922D01*
X181396111Y-79138620D01*
X181297132Y-79053342D01*
X181165580Y-78932240D01*
X181014972Y-78787469D01*
X180993917Y-78766773D01*
X180602334Y-78380838D01*
X180602334Y-77569514D01*
X181020916Y-77158265D01*
X181439499Y-76747015D01*
X182068666Y-76758757D01*
G36*
X179131250Y-76757482D02*
X179311167Y-76770500D01*
X179311167Y-79183500D01*
X179131250Y-79196517D01*
X178951334Y-79209534D01*
X178951334Y-76744465D01*
X179131250Y-76757482D01*
X179131250Y-76757482D01*
G37*
X179131250Y-76757482D02*
X179311167Y-76770500D01*
X179311167Y-79183500D01*
X179131250Y-79196517D01*
X178951334Y-79209534D01*
X178951334Y-76744465D01*
X179131250Y-76757482D01*
G36*
X177446105Y-76327102D02*
X177689431Y-76582204D01*
X177674799Y-76985982D01*
X177660167Y-77389761D01*
X177441064Y-77598714D01*
X177221962Y-77807666D01*
X176518343Y-77807666D01*
X177078672Y-78369150D01*
X177278594Y-78571111D01*
X177425316Y-78724301D01*
X177526734Y-78838564D01*
X177590744Y-78923744D01*
X177625244Y-78989685D01*
X177638128Y-79046229D01*
X177639000Y-79067650D01*
X177633136Y-79155424D01*
X177599307Y-79194438D01*
X177513159Y-79204397D01*
X177469667Y-79204666D01*
X177349186Y-79192162D01*
X177300854Y-79156569D01*
X177300334Y-79151237D01*
X177271559Y-79106770D01*
X177191072Y-79012508D01*
X177067630Y-78877916D01*
X176909989Y-78712462D01*
X176726904Y-78525613D01*
X176654254Y-78452737D01*
X176008174Y-77807666D01*
X175607000Y-77807666D01*
X175607000Y-79204666D01*
X175226000Y-79204666D01*
X175226000Y-76453000D01*
X175607000Y-76453000D01*
X175607000Y-77426666D01*
X176355688Y-77426666D01*
X176625518Y-77426128D01*
X176823913Y-77423555D01*
X176964104Y-77417508D01*
X177059321Y-77406549D01*
X177122795Y-77389240D01*
X177167755Y-77364143D01*
X177202355Y-77334620D01*
X177256950Y-77270362D01*
X177286806Y-77190219D01*
X177298821Y-77067936D01*
X177300334Y-76961540D01*
X177296541Y-76804083D01*
X177279525Y-76703028D01*
X177240825Y-76630245D01*
X177181600Y-76566753D01*
X177062867Y-76453000D01*
X175607000Y-76453000D01*
X175226000Y-76453000D01*
X175226000Y-76072000D01*
X176214390Y-76072000D01*
X177202779Y-76071999D01*
X177446105Y-76327102D01*
X177446105Y-76327102D01*
G37*
X177446105Y-76327102D02*
X177689431Y-76582204D01*
X177674799Y-76985982D01*
X177660167Y-77389761D01*
X177441064Y-77598714D01*
X177221962Y-77807666D01*
X176518343Y-77807666D01*
X177078672Y-78369150D01*
X177278594Y-78571111D01*
X177425316Y-78724301D01*
X177526734Y-78838564D01*
X177590744Y-78923744D01*
X177625244Y-78989685D01*
X177638128Y-79046229D01*
X177639000Y-79067650D01*
X177633136Y-79155424D01*
X177599307Y-79194438D01*
X177513159Y-79204397D01*
X177469667Y-79204666D01*
X177349186Y-79192162D01*
X177300854Y-79156569D01*
X177300334Y-79151237D01*
X177271559Y-79106770D01*
X177191072Y-79012508D01*
X177067630Y-78877916D01*
X176909989Y-78712462D01*
X176726904Y-78525613D01*
X176654254Y-78452737D01*
X176008174Y-77807666D01*
X175607000Y-77807666D01*
X175607000Y-79204666D01*
X175226000Y-79204666D01*
X175226000Y-76453000D01*
X175607000Y-76453000D01*
X175607000Y-77426666D01*
X176355688Y-77426666D01*
X176625518Y-77426128D01*
X176823913Y-77423555D01*
X176964104Y-77417508D01*
X177059321Y-77406549D01*
X177122795Y-77389240D01*
X177167755Y-77364143D01*
X177202355Y-77334620D01*
X177256950Y-77270362D01*
X177286806Y-77190219D01*
X177298821Y-77067936D01*
X177300334Y-76961540D01*
X177296541Y-76804083D01*
X177279525Y-76703028D01*
X177240825Y-76630245D01*
X177181600Y-76566753D01*
X177062867Y-76453000D01*
X175607000Y-76453000D01*
X175226000Y-76453000D01*
X175226000Y-76072000D01*
X176214390Y-76072000D01*
X177202779Y-76071999D01*
X177446105Y-76327102D01*
G36*
X172813000Y-79204666D02*
X172093334Y-79204666D01*
X172093334Y-78485000D01*
X172813000Y-78485000D01*
X172813000Y-79204666D01*
X172813000Y-79204666D01*
G37*
X172813000Y-79204666D02*
X172093334Y-79204666D01*
X172093334Y-78485000D01*
X172813000Y-78485000D01*
X172813000Y-79204666D01*
G36*
X171162000Y-76860051D02*
X171162000Y-77353404D01*
X170773202Y-77749869D01*
X170384403Y-78146333D01*
X169868327Y-78146333D01*
X169654366Y-78148483D01*
X169459609Y-78154326D01*
X169306322Y-78162956D01*
X169219959Y-78172791D01*
X169087667Y-78199250D01*
X169087667Y-79204666D01*
X168917005Y-79204666D01*
X168800095Y-79192344D01*
X168731774Y-79160730D01*
X168725952Y-79151528D01*
X168721527Y-79098142D01*
X168718051Y-78970060D01*
X168715584Y-78777248D01*
X168714184Y-78529671D01*
X168713911Y-78237296D01*
X168714825Y-77910089D01*
X168716697Y-77595778D01*
X168725166Y-76453000D01*
X169087667Y-76453000D01*
X169087667Y-77807666D01*
X170207375Y-77807666D01*
X170494188Y-77523052D01*
X170655032Y-77354912D01*
X170750919Y-77222647D01*
X170782370Y-77108453D01*
X170749904Y-76994526D01*
X170654038Y-76863062D01*
X170517640Y-76718722D01*
X170254279Y-76453000D01*
X169087667Y-76453000D01*
X168725166Y-76453000D01*
X168727834Y-76093166D01*
X169549952Y-76081644D01*
X170372070Y-76070121D01*
X171162000Y-76860051D01*
X171162000Y-76860051D01*
G37*
X171162000Y-76860051D02*
X171162000Y-77353404D01*
X170773202Y-77749869D01*
X170384403Y-78146333D01*
X169868327Y-78146333D01*
X169654366Y-78148483D01*
X169459609Y-78154326D01*
X169306322Y-78162956D01*
X169219959Y-78172791D01*
X169087667Y-78199250D01*
X169087667Y-79204666D01*
X168917005Y-79204666D01*
X168800095Y-79192344D01*
X168731774Y-79160730D01*
X168725952Y-79151528D01*
X168721527Y-79098142D01*
X168718051Y-78970060D01*
X168715584Y-78777248D01*
X168714184Y-78529671D01*
X168713911Y-78237296D01*
X168714825Y-77910089D01*
X168716697Y-77595778D01*
X168725166Y-76453000D01*
X169087667Y-76453000D01*
X169087667Y-77807666D01*
X170207375Y-77807666D01*
X170494188Y-77523052D01*
X170655032Y-77354912D01*
X170750919Y-77222647D01*
X170782370Y-77108453D01*
X170749904Y-76994526D01*
X170654038Y-76863062D01*
X170517640Y-76718722D01*
X170254279Y-76453000D01*
X169087667Y-76453000D01*
X168725166Y-76453000D01*
X168727834Y-76093166D01*
X169549952Y-76081644D01*
X170372070Y-76070121D01*
X171162000Y-76860051D01*
G36*
X165227432Y-76753912D02*
X165314805Y-76776247D01*
X165400695Y-76829237D01*
X165511337Y-76925781D01*
X165555368Y-76967140D01*
X165785667Y-77184948D01*
X165785667Y-79204666D01*
X165447000Y-79204666D01*
X165447000Y-77357840D01*
X165328267Y-77244086D01*
X165189999Y-77151114D01*
X165054395Y-77142511D01*
X164917029Y-77218277D01*
X164888400Y-77244086D01*
X164769667Y-77357840D01*
X164769667Y-79209534D01*
X164589750Y-79196517D01*
X164409834Y-79183500D01*
X164398393Y-78278664D01*
X164394030Y-77976598D01*
X164388831Y-77747124D01*
X164381641Y-77578167D01*
X164371305Y-77457652D01*
X164356671Y-77373504D01*
X164336582Y-77313649D01*
X164309886Y-77266013D01*
X164300260Y-77252081D01*
X164190001Y-77153189D01*
X164062565Y-77135550D01*
X163925015Y-77199297D01*
X163872400Y-77244086D01*
X163753667Y-77357840D01*
X163753667Y-79204666D01*
X163371368Y-79204666D01*
X163393834Y-76770500D01*
X163573750Y-76757482D01*
X163700446Y-76758746D01*
X163751913Y-76787360D01*
X163753667Y-76797699D01*
X163766038Y-76829178D01*
X163804467Y-76800133D01*
X163873531Y-76771156D01*
X163994423Y-76752763D01*
X164078160Y-76749333D01*
X164227380Y-76758114D01*
X164334503Y-76794242D01*
X164441146Y-76872395D01*
X164450694Y-76880718D01*
X164600334Y-77012104D01*
X164749973Y-76880718D01*
X164863042Y-76796172D01*
X164974490Y-76757761D01*
X165112341Y-76749333D01*
X165227432Y-76753912D01*
X165227432Y-76753912D01*
G37*
X165227432Y-76753912D02*
X165314805Y-76776247D01*
X165400695Y-76829237D01*
X165511337Y-76925781D01*
X165555368Y-76967140D01*
X165785667Y-77184948D01*
X165785667Y-79204666D01*
X165447000Y-79204666D01*
X165447000Y-77357840D01*
X165328267Y-77244086D01*
X165189999Y-77151114D01*
X165054395Y-77142511D01*
X164917029Y-77218277D01*
X164888400Y-77244086D01*
X164769667Y-77357840D01*
X164769667Y-79209534D01*
X164589750Y-79196517D01*
X164409834Y-79183500D01*
X164398393Y-78278664D01*
X164394030Y-77976598D01*
X164388831Y-77747124D01*
X164381641Y-77578167D01*
X164371305Y-77457652D01*
X164356671Y-77373504D01*
X164336582Y-77313649D01*
X164309886Y-77266013D01*
X164300260Y-77252081D01*
X164190001Y-77153189D01*
X164062565Y-77135550D01*
X163925015Y-77199297D01*
X163872400Y-77244086D01*
X163753667Y-77357840D01*
X163753667Y-79204666D01*
X163371368Y-79204666D01*
X163393834Y-76770500D01*
X163573750Y-76757482D01*
X163700446Y-76758746D01*
X163751913Y-76787360D01*
X163753667Y-76797699D01*
X163766038Y-76829178D01*
X163804467Y-76800133D01*
X163873531Y-76771156D01*
X163994423Y-76752763D01*
X164078160Y-76749333D01*
X164227380Y-76758114D01*
X164334503Y-76794242D01*
X164441146Y-76872395D01*
X164450694Y-76880718D01*
X164600334Y-77012104D01*
X164749973Y-76880718D01*
X164863042Y-76796172D01*
X164974490Y-76757761D01*
X165112341Y-76749333D01*
X165227432Y-76753912D01*
G36*
X162780000Y-77213201D02*
X162780000Y-78823666D01*
X163118667Y-78823666D01*
X163118667Y-79204666D01*
X161154959Y-79204666D01*
X160930313Y-78972732D01*
X160816631Y-78852652D01*
X160749717Y-78765618D01*
X160717177Y-78684108D01*
X160706617Y-78580601D01*
X160706010Y-78512324D01*
X161050582Y-78512324D01*
X161108307Y-78646000D01*
X161158087Y-78704933D01*
X161206339Y-78752858D01*
X161253813Y-78785761D01*
X161316620Y-78806468D01*
X161410874Y-78817802D01*
X161552689Y-78822588D01*
X161758176Y-78823651D01*
X161835420Y-78823666D01*
X162399000Y-78823666D01*
X162399000Y-78104000D01*
X161323531Y-78104000D01*
X161183932Y-78239304D01*
X161075661Y-78379086D01*
X161050582Y-78512324D01*
X160706010Y-78512324D01*
X160705667Y-78473869D01*
X160707893Y-78335299D01*
X160723104Y-78240674D01*
X160764101Y-78162072D01*
X160843684Y-78071567D01*
X160929248Y-77986137D01*
X161152829Y-77765333D01*
X162399000Y-77765333D01*
X162399000Y-77539879D01*
X162390548Y-77390138D01*
X162358736Y-77292567D01*
X162301022Y-77222379D01*
X162255603Y-77185299D01*
X162201646Y-77159745D01*
X162123530Y-77143596D01*
X162005630Y-77134728D01*
X161832323Y-77131018D01*
X161623688Y-77130333D01*
X161044334Y-77130333D01*
X161044334Y-76749333D01*
X162330708Y-76749333D01*
X162780000Y-77213201D01*
X162780000Y-77213201D01*
G37*
X162780000Y-77213201D02*
X162780000Y-78823666D01*
X163118667Y-78823666D01*
X163118667Y-79204666D01*
X161154959Y-79204666D01*
X160930313Y-78972732D01*
X160816631Y-78852652D01*
X160749717Y-78765618D01*
X160717177Y-78684108D01*
X160706617Y-78580601D01*
X160706010Y-78512324D01*
X161050582Y-78512324D01*
X161108307Y-78646000D01*
X161158087Y-78704933D01*
X161206339Y-78752858D01*
X161253813Y-78785761D01*
X161316620Y-78806468D01*
X161410874Y-78817802D01*
X161552689Y-78822588D01*
X161758176Y-78823651D01*
X161835420Y-78823666D01*
X162399000Y-78823666D01*
X162399000Y-78104000D01*
X161323531Y-78104000D01*
X161183932Y-78239304D01*
X161075661Y-78379086D01*
X161050582Y-78512324D01*
X160706010Y-78512324D01*
X160705667Y-78473869D01*
X160707893Y-78335299D01*
X160723104Y-78240674D01*
X160764101Y-78162072D01*
X160843684Y-78071567D01*
X160929248Y-77986137D01*
X161152829Y-77765333D01*
X162399000Y-77765333D01*
X162399000Y-77539879D01*
X162390548Y-77390138D01*
X162358736Y-77292567D01*
X162301022Y-77222379D01*
X162255603Y-77185299D01*
X162201646Y-77159745D01*
X162123530Y-77143596D01*
X162005630Y-77134728D01*
X161832323Y-77131018D01*
X161623688Y-77130333D01*
X161044334Y-77130333D01*
X161044334Y-76749333D01*
X162330708Y-76749333D01*
X162780000Y-77213201D01*
G36*
X159393334Y-79204666D02*
X159222672Y-79204666D01*
X159104961Y-79192195D01*
X159036951Y-79160041D01*
X159031473Y-79151149D01*
X159026479Y-79096163D01*
X159022737Y-78968000D01*
X159020334Y-78778142D01*
X159019358Y-78538070D01*
X159019896Y-78259267D01*
X159022035Y-77953213D01*
X159022218Y-77934065D01*
X159033500Y-76770500D01*
X159213417Y-76757482D01*
X159393334Y-76744465D01*
X159393334Y-79204666D01*
X159393334Y-79204666D01*
G37*
X159393334Y-79204666D02*
X159222672Y-79204666D01*
X159104961Y-79192195D01*
X159036951Y-79160041D01*
X159031473Y-79151149D01*
X159026479Y-79096163D01*
X159022737Y-78968000D01*
X159020334Y-78778142D01*
X159019358Y-78538070D01*
X159019896Y-78259267D01*
X159022035Y-77953213D01*
X159022218Y-77934065D01*
X159033500Y-76770500D01*
X159213417Y-76757482D01*
X159393334Y-76744465D01*
X159393334Y-79204666D01*
G36*
X156736389Y-77267916D02*
X156747500Y-78802500D01*
X156906250Y-78815638D01*
X157004275Y-78827923D01*
X157050360Y-78859727D01*
X157064111Y-78935888D01*
X157065000Y-79016722D01*
X157065000Y-79204666D01*
X156861925Y-79204666D01*
X156731064Y-79196737D01*
X156636522Y-79161633D01*
X156540248Y-79082377D01*
X156502092Y-79044131D01*
X156345334Y-78883596D01*
X156345334Y-75733333D01*
X156725277Y-75733333D01*
X156736389Y-77267916D01*
X156736389Y-77267916D01*
G37*
X156736389Y-77267916D02*
X156747500Y-78802500D01*
X156906250Y-78815638D01*
X157004275Y-78827923D01*
X157050360Y-78859727D01*
X157064111Y-78935888D01*
X157065000Y-79016722D01*
X157065000Y-79204666D01*
X156861925Y-79204666D01*
X156731064Y-79196737D01*
X156636522Y-79161633D01*
X156540248Y-79082377D01*
X156502092Y-79044131D01*
X156345334Y-78883596D01*
X156345334Y-75733333D01*
X156725277Y-75733333D01*
X156736389Y-77267916D01*
G36*
X154027055Y-77267916D02*
X154038167Y-78802500D01*
X154402619Y-78828760D01*
X154389726Y-79006130D01*
X154376834Y-79183500D01*
X154179682Y-79196242D01*
X154043822Y-79195617D01*
X153943629Y-79161700D01*
X153834609Y-79079098D01*
X153830432Y-79075440D01*
X153678334Y-78941895D01*
X153678334Y-75733333D01*
X154015944Y-75733333D01*
X154027055Y-77267916D01*
X154027055Y-77267916D01*
G37*
X154027055Y-77267916D02*
X154038167Y-78802500D01*
X154402619Y-78828760D01*
X154389726Y-79006130D01*
X154376834Y-79183500D01*
X154179682Y-79196242D01*
X154043822Y-79195617D01*
X153943629Y-79161700D01*
X153834609Y-79079098D01*
X153830432Y-79075440D01*
X153678334Y-78941895D01*
X153678334Y-75733333D01*
X154015944Y-75733333D01*
X154027055Y-77267916D01*
G36*
X151350000Y-79204666D02*
X151179338Y-79204666D01*
X151061628Y-79192195D01*
X150993617Y-79160041D01*
X150988140Y-79151149D01*
X150983145Y-79096163D01*
X150979403Y-78968000D01*
X150977001Y-78778142D01*
X150976025Y-78538070D01*
X150976563Y-78259267D01*
X150978702Y-77953213D01*
X150978885Y-77934065D01*
X150990167Y-76770500D01*
X151170084Y-76757482D01*
X151350000Y-76744465D01*
X151350000Y-79204666D01*
X151350000Y-79204666D01*
G37*
X151350000Y-79204666D02*
X151179338Y-79204666D01*
X151061628Y-79192195D01*
X150993617Y-79160041D01*
X150988140Y-79151149D01*
X150983145Y-79096163D01*
X150979403Y-78968000D01*
X150977001Y-78778142D01*
X150976025Y-78538070D01*
X150976563Y-78259267D01*
X150978702Y-77953213D01*
X150978885Y-77934065D01*
X150990167Y-76770500D01*
X151170084Y-76757482D01*
X151350000Y-76744465D01*
X151350000Y-79204666D01*
G36*
X149699000Y-78769051D02*
X149468701Y-78986859D01*
X149349518Y-79092475D01*
X149247866Y-79169871D01*
X149183560Y-79204153D01*
X149178929Y-79204666D01*
X149108779Y-79175504D01*
X149038811Y-79115256D01*
X148967348Y-79043725D01*
X148854584Y-78938983D01*
X148723783Y-78822592D01*
X148711881Y-78812248D01*
X148465596Y-78598651D01*
X148160552Y-78901659D01*
X148026044Y-79029320D01*
X147908118Y-79130426D01*
X147822582Y-79191995D01*
X147791559Y-79204666D01*
X147732258Y-79176161D01*
X147635268Y-79100995D01*
X147520359Y-78994691D01*
X147506804Y-78981085D01*
X147286000Y-78757504D01*
X147286000Y-76072000D01*
X147624667Y-76072000D01*
X147624667Y-77335438D01*
X147624884Y-77696052D01*
X147625944Y-77981513D01*
X147628455Y-78201331D01*
X147633030Y-78365021D01*
X147640278Y-78482094D01*
X147650810Y-78562064D01*
X147665237Y-78614441D01*
X147684169Y-78648740D01*
X147708216Y-78674472D01*
X147710757Y-78676788D01*
X147755175Y-78712224D01*
X147796184Y-78719903D01*
X147849865Y-78691658D01*
X147932298Y-78619320D01*
X148049424Y-78504757D01*
X148302000Y-78254817D01*
X148302000Y-77469000D01*
X148683000Y-77469000D01*
X148685709Y-77881750D01*
X148688417Y-78294500D01*
X148940180Y-78521542D01*
X149039505Y-78610633D01*
X149119584Y-78675833D01*
X149182574Y-78710729D01*
X149230633Y-78708911D01*
X149265918Y-78663967D01*
X149290586Y-78569486D01*
X149306795Y-78419056D01*
X149316701Y-78206266D01*
X149322464Y-77924705D01*
X149326238Y-77567960D01*
X149327970Y-77369075D01*
X149339167Y-76093166D01*
X149519084Y-76080149D01*
X149699000Y-76067131D01*
X149699000Y-78769051D01*
X149699000Y-78769051D01*
G37*
X149699000Y-78769051D02*
X149468701Y-78986859D01*
X149349518Y-79092475D01*
X149247866Y-79169871D01*
X149183560Y-79204153D01*
X149178929Y-79204666D01*
X149108779Y-79175504D01*
X149038811Y-79115256D01*
X148967348Y-79043725D01*
X148854584Y-78938983D01*
X148723783Y-78822592D01*
X148711881Y-78812248D01*
X148465596Y-78598651D01*
X148160552Y-78901659D01*
X148026044Y-79029320D01*
X147908118Y-79130426D01*
X147822582Y-79191995D01*
X147791559Y-79204666D01*
X147732258Y-79176161D01*
X147635268Y-79100995D01*
X147520359Y-78994691D01*
X147506804Y-78981085D01*
X147286000Y-78757504D01*
X147286000Y-76072000D01*
X147624667Y-76072000D01*
X147624667Y-77335438D01*
X147624884Y-77696052D01*
X147625944Y-77981513D01*
X147628455Y-78201331D01*
X147633030Y-78365021D01*
X147640278Y-78482094D01*
X147650810Y-78562064D01*
X147665237Y-78614441D01*
X147684169Y-78648740D01*
X147708216Y-78674472D01*
X147710757Y-78676788D01*
X147755175Y-78712224D01*
X147796184Y-78719903D01*
X147849865Y-78691658D01*
X147932298Y-78619320D01*
X148049424Y-78504757D01*
X148302000Y-78254817D01*
X148302000Y-77469000D01*
X148683000Y-77469000D01*
X148685709Y-77881750D01*
X148688417Y-78294500D01*
X148940180Y-78521542D01*
X149039505Y-78610633D01*
X149119584Y-78675833D01*
X149182574Y-78710729D01*
X149230633Y-78708911D01*
X149265918Y-78663967D01*
X149290586Y-78569486D01*
X149306795Y-78419056D01*
X149316701Y-78206266D01*
X149322464Y-77924705D01*
X149326238Y-77567960D01*
X149327970Y-77369075D01*
X149339167Y-76093166D01*
X149519084Y-76080149D01*
X149699000Y-76067131D01*
X149699000Y-78769051D01*
D14*
X115170000Y-131170000D02*
X115170000Y-133830000D01*
X117770000Y-131170000D02*
X115170000Y-131170000D01*
X117770000Y-133830000D02*
X115170000Y-133830000D01*
X117770000Y-131170000D02*
X117770000Y-133830000D01*
X119040000Y-131170000D02*
X120370000Y-131170000D01*
X120370000Y-131170000D02*
X120370000Y-132500000D01*
X130710000Y-67070000D02*
X130710000Y-64410000D01*
X117950000Y-67070000D02*
X130710000Y-67070000D01*
X117950000Y-64410000D02*
X130710000Y-64410000D01*
X117950000Y-67070000D02*
X117950000Y-64410000D01*
X116680000Y-67070000D02*
X115350000Y-67070000D01*
X115350000Y-67070000D02*
X115350000Y-65740000D01*
D10*
X137000000Y-117490000D02*
X137000000Y-114490000D01*
X137000000Y-114490000D02*
X130000000Y-114490000D01*
X130000000Y-114490000D02*
X130000000Y-117490000D01*
X130000000Y-117490000D02*
X137000000Y-117490000D01*
X130000000Y-91490000D02*
X130000000Y-82490000D01*
X130000000Y-82490000D02*
X137000000Y-82490000D01*
X137000000Y-82490000D02*
X137000000Y-91490000D01*
X137000000Y-91490000D02*
X130000000Y-91490000D01*
X137000000Y-86040000D02*
X137500000Y-86040000D01*
X137500000Y-86040000D02*
X137500000Y-88040000D01*
X137500000Y-88040000D02*
X137000000Y-88040000D01*
D13*
G36*
X116563499Y-107418438D02*
X116903102Y-107523956D01*
X117245041Y-107694425D01*
X117562439Y-107915327D01*
X117689238Y-108026502D01*
X117993451Y-108363219D01*
X118224094Y-108730305D01*
X118382440Y-109132027D01*
X118469764Y-109572650D01*
X118487341Y-110056439D01*
X118442476Y-110547000D01*
X118325931Y-111219325D01*
X118178217Y-111844763D01*
X118001664Y-112417849D01*
X117798599Y-112933120D01*
X117571351Y-113385108D01*
X117322249Y-113768350D01*
X117053622Y-114077382D01*
X116871190Y-114234703D01*
X116587577Y-114409631D01*
X116307475Y-114501548D01*
X116025434Y-114511637D01*
X115806723Y-114465394D01*
X115521726Y-114334246D01*
X115244877Y-114124785D01*
X114980871Y-113843295D01*
X114734402Y-113496060D01*
X114510166Y-113089364D01*
X114312856Y-112629490D01*
X114207555Y-112325000D01*
X114049687Y-111778729D01*
X113925396Y-111247271D01*
X113836005Y-110741160D01*
X113782840Y-110270928D01*
X113767223Y-109847109D01*
X113790480Y-109480236D01*
X113825351Y-109284510D01*
X113962695Y-108867408D01*
X114164001Y-108489762D01*
X114420761Y-108157368D01*
X114724465Y-107876027D01*
X115066604Y-107651537D01*
X115438669Y-107489699D01*
X115832150Y-107396309D01*
X116238539Y-107377169D01*
X116563499Y-107418438D01*
X116563499Y-107418438D01*
G37*
X116563499Y-107418438D02*
X116903102Y-107523956D01*
X117245041Y-107694425D01*
X117562439Y-107915327D01*
X117689238Y-108026502D01*
X117993451Y-108363219D01*
X118224094Y-108730305D01*
X118382440Y-109132027D01*
X118469764Y-109572650D01*
X118487341Y-110056439D01*
X118442476Y-110547000D01*
X118325931Y-111219325D01*
X118178217Y-111844763D01*
X118001664Y-112417849D01*
X117798599Y-112933120D01*
X117571351Y-113385108D01*
X117322249Y-113768350D01*
X117053622Y-114077382D01*
X116871190Y-114234703D01*
X116587577Y-114409631D01*
X116307475Y-114501548D01*
X116025434Y-114511637D01*
X115806723Y-114465394D01*
X115521726Y-114334246D01*
X115244877Y-114124785D01*
X114980871Y-113843295D01*
X114734402Y-113496060D01*
X114510166Y-113089364D01*
X114312856Y-112629490D01*
X114207555Y-112325000D01*
X114049687Y-111778729D01*
X113925396Y-111247271D01*
X113836005Y-110741160D01*
X113782840Y-110270928D01*
X113767223Y-109847109D01*
X113790480Y-109480236D01*
X113825351Y-109284510D01*
X113962695Y-108867408D01*
X114164001Y-108489762D01*
X114420761Y-108157368D01*
X114724465Y-107876027D01*
X115066604Y-107651537D01*
X115438669Y-107489699D01*
X115832150Y-107396309D01*
X116238539Y-107377169D01*
X116563499Y-107418438D01*
G36*
X126204983Y-115460832D02*
X126255360Y-115477371D01*
X126307661Y-115517842D01*
X126371625Y-115592806D01*
X126456989Y-115712823D01*
X126573493Y-115888454D01*
X126644508Y-115997416D01*
X126836764Y-116293670D01*
X126986173Y-116529440D01*
X127095713Y-116715434D01*
X127168364Y-116862361D01*
X127207106Y-116980929D01*
X127214917Y-117081844D01*
X127194778Y-117175817D01*
X127149668Y-117273555D01*
X127082567Y-117385765D01*
X127046669Y-117442758D01*
X126821723Y-117797470D01*
X126638435Y-118081704D01*
X126495254Y-118297796D01*
X126390633Y-118448080D01*
X126323023Y-118534893D01*
X126320761Y-118537416D01*
X126203367Y-118618595D01*
X126081289Y-118617435D01*
X125967056Y-118534496D01*
X125956072Y-118521124D01*
X125899543Y-118433254D01*
X125875426Y-118342989D01*
X125887285Y-118237486D01*
X125938690Y-118103900D01*
X126033207Y-117929387D01*
X126174403Y-117701102D01*
X126191011Y-117675158D01*
X126311267Y-117487691D01*
X126417820Y-117321565D01*
X126500962Y-117191916D01*
X126550987Y-117113880D01*
X126558053Y-117102846D01*
X126567348Y-117059998D01*
X126548893Y-116991054D01*
X126497409Y-116885054D01*
X126407615Y-116731036D01*
X126282706Y-116531346D01*
X126162630Y-116341479D01*
X126055947Y-116170457D01*
X125972543Y-116034294D01*
X125922302Y-115949006D01*
X125915665Y-115936699D01*
X125869010Y-115777154D01*
X125888218Y-115632930D01*
X125964548Y-115522140D01*
X126089260Y-115462896D01*
X126146794Y-115457666D01*
X126204983Y-115460832D01*
X126204983Y-115460832D01*
G37*
X126204983Y-115460832D02*
X126255360Y-115477371D01*
X126307661Y-115517842D01*
X126371625Y-115592806D01*
X126456989Y-115712823D01*
X126573493Y-115888454D01*
X126644508Y-115997416D01*
X126836764Y-116293670D01*
X126986173Y-116529440D01*
X127095713Y-116715434D01*
X127168364Y-116862361D01*
X127207106Y-116980929D01*
X127214917Y-117081844D01*
X127194778Y-117175817D01*
X127149668Y-117273555D01*
X127082567Y-117385765D01*
X127046669Y-117442758D01*
X126821723Y-117797470D01*
X126638435Y-118081704D01*
X126495254Y-118297796D01*
X126390633Y-118448080D01*
X126323023Y-118534893D01*
X126320761Y-118537416D01*
X126203367Y-118618595D01*
X126081289Y-118617435D01*
X125967056Y-118534496D01*
X125956072Y-118521124D01*
X125899543Y-118433254D01*
X125875426Y-118342989D01*
X125887285Y-118237486D01*
X125938690Y-118103900D01*
X126033207Y-117929387D01*
X126174403Y-117701102D01*
X126191011Y-117675158D01*
X126311267Y-117487691D01*
X126417820Y-117321565D01*
X126500962Y-117191916D01*
X126550987Y-117113880D01*
X126558053Y-117102846D01*
X126567348Y-117059998D01*
X126548893Y-116991054D01*
X126497409Y-116885054D01*
X126407615Y-116731036D01*
X126282706Y-116531346D01*
X126162630Y-116341479D01*
X126055947Y-116170457D01*
X125972543Y-116034294D01*
X125922302Y-115949006D01*
X125915665Y-115936699D01*
X125869010Y-115777154D01*
X125888218Y-115632930D01*
X125964548Y-115522140D01*
X126089260Y-115462896D01*
X126146794Y-115457666D01*
X126204983Y-115460832D01*
G36*
X123618808Y-115524818D02*
X123709667Y-115621868D01*
X123751061Y-115751812D01*
X123751662Y-115770292D01*
X123729573Y-115835584D01*
X123668640Y-115956926D01*
X123576864Y-116119838D01*
X123462246Y-116309844D01*
X123391829Y-116421491D01*
X123268705Y-116616491D01*
X123163720Y-116788136D01*
X123084726Y-116923153D01*
X123039580Y-117008268D01*
X123032000Y-117029573D01*
X123053543Y-117079567D01*
X123113064Y-117187704D01*
X123202903Y-117340813D01*
X123315396Y-117525725D01*
X123394844Y-117653248D01*
X123534115Y-117877710D01*
X123632084Y-118044183D01*
X123694662Y-118164961D01*
X123727758Y-118252337D01*
X123737282Y-118318605D01*
X123733383Y-118357500D01*
X123677676Y-118487623D01*
X123580084Y-118587745D01*
X123466480Y-118632259D01*
X123455333Y-118632666D01*
X123367146Y-118605734D01*
X123296894Y-118558583D01*
X123239067Y-118491419D01*
X123151805Y-118371636D01*
X123049269Y-118219193D01*
X122988999Y-118124666D01*
X122865935Y-117928785D01*
X122733942Y-117720530D01*
X122615885Y-117535922D01*
X122582856Y-117484750D01*
X122466807Y-117299456D01*
X122397951Y-117160523D01*
X122375165Y-117044789D01*
X122397323Y-116929089D01*
X122463300Y-116790260D01*
X122542518Y-116654259D01*
X122680580Y-116427115D01*
X122823579Y-116198128D01*
X122962230Y-115981565D01*
X123087250Y-115791691D01*
X123189355Y-115642772D01*
X123259260Y-115549076D01*
X123269387Y-115537300D01*
X123376673Y-115471909D01*
X123500478Y-115471290D01*
X123618808Y-115524818D01*
X123618808Y-115524818D01*
G37*
X123618808Y-115524818D02*
X123709667Y-115621868D01*
X123751061Y-115751812D01*
X123751662Y-115770292D01*
X123729573Y-115835584D01*
X123668640Y-115956926D01*
X123576864Y-116119838D01*
X123462246Y-116309844D01*
X123391829Y-116421491D01*
X123268705Y-116616491D01*
X123163720Y-116788136D01*
X123084726Y-116923153D01*
X123039580Y-117008268D01*
X123032000Y-117029573D01*
X123053543Y-117079567D01*
X123113064Y-117187704D01*
X123202903Y-117340813D01*
X123315396Y-117525725D01*
X123394844Y-117653248D01*
X123534115Y-117877710D01*
X123632084Y-118044183D01*
X123694662Y-118164961D01*
X123727758Y-118252337D01*
X123737282Y-118318605D01*
X123733383Y-118357500D01*
X123677676Y-118487623D01*
X123580084Y-118587745D01*
X123466480Y-118632259D01*
X123455333Y-118632666D01*
X123367146Y-118605734D01*
X123296894Y-118558583D01*
X123239067Y-118491419D01*
X123151805Y-118371636D01*
X123049269Y-118219193D01*
X122988999Y-118124666D01*
X122865935Y-117928785D01*
X122733942Y-117720530D01*
X122615885Y-117535922D01*
X122582856Y-117484750D01*
X122466807Y-117299456D01*
X122397951Y-117160523D01*
X122375165Y-117044789D01*
X122397323Y-116929089D01*
X122463300Y-116790260D01*
X122542518Y-116654259D01*
X122680580Y-116427115D01*
X122823579Y-116198128D01*
X122962230Y-115981565D01*
X123087250Y-115791691D01*
X123189355Y-115642772D01*
X123259260Y-115549076D01*
X123269387Y-115537300D01*
X123376673Y-115471909D01*
X123500478Y-115471290D01*
X123618808Y-115524818D01*
G36*
X125344700Y-114860647D02*
X125445013Y-114959462D01*
X125486951Y-115096420D01*
X125487126Y-115106927D01*
X125478418Y-115169419D01*
X125454191Y-115301276D01*
X125417096Y-115489169D01*
X125369786Y-115719769D01*
X125314912Y-115979749D01*
X125295211Y-116071500D01*
X125233943Y-116356517D01*
X125174738Y-116633581D01*
X125121390Y-116884812D01*
X125077695Y-117092326D01*
X125047446Y-117238243D01*
X125043672Y-117256833D01*
X125009668Y-117421721D01*
X124963970Y-117638504D01*
X124913108Y-117876394D01*
X124873098Y-118061166D01*
X124824604Y-118287214D01*
X124778058Y-118510468D01*
X124739244Y-118702845D01*
X124716776Y-118820409D01*
X124657882Y-119024478D01*
X124570883Y-119170191D01*
X124464512Y-119251210D01*
X124347497Y-119261196D01*
X124228569Y-119193811D01*
X124217333Y-119183000D01*
X124158728Y-119088482D01*
X124135765Y-118950465D01*
X124148047Y-118757577D01*
X124193609Y-118505666D01*
X124233952Y-118318248D01*
X124287997Y-118066060D01*
X124352433Y-117764654D01*
X124423949Y-117429577D01*
X124499233Y-117076380D01*
X124574973Y-116720611D01*
X124647860Y-116377820D01*
X124714580Y-116063557D01*
X124771824Y-115793370D01*
X124816279Y-115582810D01*
X124832383Y-115506143D01*
X124890328Y-115247862D01*
X124943263Y-115062297D01*
X124997354Y-114938239D01*
X125058765Y-114864476D01*
X125133662Y-114829799D01*
X125208273Y-114822666D01*
X125344700Y-114860647D01*
X125344700Y-114860647D01*
G37*
X125344700Y-114860647D02*
X125445013Y-114959462D01*
X125486951Y-115096420D01*
X125487126Y-115106927D01*
X125478418Y-115169419D01*
X125454191Y-115301276D01*
X125417096Y-115489169D01*
X125369786Y-115719769D01*
X125314912Y-115979749D01*
X125295211Y-116071500D01*
X125233943Y-116356517D01*
X125174738Y-116633581D01*
X125121390Y-116884812D01*
X125077695Y-117092326D01*
X125047446Y-117238243D01*
X125043672Y-117256833D01*
X125009668Y-117421721D01*
X124963970Y-117638504D01*
X124913108Y-117876394D01*
X124873098Y-118061166D01*
X124824604Y-118287214D01*
X124778058Y-118510468D01*
X124739244Y-118702845D01*
X124716776Y-118820409D01*
X124657882Y-119024478D01*
X124570883Y-119170191D01*
X124464512Y-119251210D01*
X124347497Y-119261196D01*
X124228569Y-119193811D01*
X124217333Y-119183000D01*
X124158728Y-119088482D01*
X124135765Y-118950465D01*
X124148047Y-118757577D01*
X124193609Y-118505666D01*
X124233952Y-118318248D01*
X124287997Y-118066060D01*
X124352433Y-117764654D01*
X124423949Y-117429577D01*
X124499233Y-117076380D01*
X124574973Y-116720611D01*
X124647860Y-116377820D01*
X124714580Y-116063557D01*
X124771824Y-115793370D01*
X124816279Y-115582810D01*
X124832383Y-115506143D01*
X124890328Y-115247862D01*
X124943263Y-115062297D01*
X124997354Y-114938239D01*
X125058765Y-114864476D01*
X125133662Y-114829799D01*
X125208273Y-114822666D01*
X125344700Y-114860647D01*
G36*
X128986241Y-113214000D02*
X129170333Y-113409956D01*
X129170333Y-117037311D01*
X129170296Y-117674821D01*
X129170105Y-118233068D01*
X129169635Y-118717459D01*
X129168764Y-119133399D01*
X129167368Y-119486291D01*
X129165323Y-119781543D01*
X129162507Y-120024557D01*
X129158797Y-120220740D01*
X129154068Y-120375496D01*
X129148198Y-120494231D01*
X129141064Y-120582349D01*
X129132542Y-120645256D01*
X129122508Y-120688356D01*
X129110840Y-120717054D01*
X129097415Y-120736756D01*
X129085666Y-120749333D01*
X129068841Y-120764584D01*
X129047210Y-120777873D01*
X129015214Y-120789323D01*
X128967296Y-120799059D01*
X128897899Y-120807206D01*
X128801464Y-120813888D01*
X128672435Y-120819230D01*
X128505253Y-120823355D01*
X128294360Y-120826388D01*
X128034200Y-120828455D01*
X127719214Y-120829678D01*
X127343845Y-120830183D01*
X126902535Y-120830094D01*
X126389726Y-120829535D01*
X125799862Y-120828631D01*
X125561416Y-120828234D01*
X125027370Y-120827128D01*
X124516523Y-120825658D01*
X124035386Y-120823868D01*
X123590468Y-120821802D01*
X123188279Y-120819502D01*
X122835327Y-120817013D01*
X122538124Y-120814376D01*
X122303177Y-120811637D01*
X122136997Y-120808837D01*
X122046092Y-120806020D01*
X122031582Y-120804779D01*
X121956939Y-120756865D01*
X121885393Y-120637667D01*
X121855778Y-120567127D01*
X121802377Y-120430278D01*
X121757980Y-120317278D01*
X121740416Y-120273083D01*
X121738430Y-120259748D01*
X121747471Y-120248113D01*
X121772874Y-120238062D01*
X121819973Y-120229480D01*
X121894101Y-120222251D01*
X122000591Y-120216259D01*
X122144778Y-120211390D01*
X122331995Y-120207528D01*
X122567577Y-120204558D01*
X122856856Y-120202364D01*
X123205166Y-120200831D01*
X123617842Y-120199844D01*
X124100216Y-120199286D01*
X124657623Y-120199044D01*
X125165304Y-120199000D01*
X128620000Y-120199000D01*
X128620000Y-113891333D01*
X120958442Y-113891333D01*
X120947471Y-116039750D01*
X120936500Y-118188166D01*
X120856753Y-117976500D01*
X120808788Y-117850299D01*
X120740017Y-117670776D01*
X120660269Y-117463539D01*
X120592170Y-117287239D01*
X120407333Y-116809645D01*
X120407333Y-113421818D01*
X120511242Y-113317909D01*
X120615151Y-113213999D01*
X124800696Y-113213999D01*
X128986241Y-113214000D01*
X128986241Y-113214000D01*
G37*
X128986241Y-113214000D02*
X129170333Y-113409956D01*
X129170333Y-117037311D01*
X129170296Y-117674821D01*
X129170105Y-118233068D01*
X129169635Y-118717459D01*
X129168764Y-119133399D01*
X129167368Y-119486291D01*
X129165323Y-119781543D01*
X129162507Y-120024557D01*
X129158797Y-120220740D01*
X129154068Y-120375496D01*
X129148198Y-120494231D01*
X129141064Y-120582349D01*
X129132542Y-120645256D01*
X129122508Y-120688356D01*
X129110840Y-120717054D01*
X129097415Y-120736756D01*
X129085666Y-120749333D01*
X129068841Y-120764584D01*
X129047210Y-120777873D01*
X129015214Y-120789323D01*
X128967296Y-120799059D01*
X128897899Y-120807206D01*
X128801464Y-120813888D01*
X128672435Y-120819230D01*
X128505253Y-120823355D01*
X128294360Y-120826388D01*
X128034200Y-120828455D01*
X127719214Y-120829678D01*
X127343845Y-120830183D01*
X126902535Y-120830094D01*
X126389726Y-120829535D01*
X125799862Y-120828631D01*
X125561416Y-120828234D01*
X125027370Y-120827128D01*
X124516523Y-120825658D01*
X124035386Y-120823868D01*
X123590468Y-120821802D01*
X123188279Y-120819502D01*
X122835327Y-120817013D01*
X122538124Y-120814376D01*
X122303177Y-120811637D01*
X122136997Y-120808837D01*
X122046092Y-120806020D01*
X122031582Y-120804779D01*
X121956939Y-120756865D01*
X121885393Y-120637667D01*
X121855778Y-120567127D01*
X121802377Y-120430278D01*
X121757980Y-120317278D01*
X121740416Y-120273083D01*
X121738430Y-120259748D01*
X121747471Y-120248113D01*
X121772874Y-120238062D01*
X121819973Y-120229480D01*
X121894101Y-120222251D01*
X122000591Y-120216259D01*
X122144778Y-120211390D01*
X122331995Y-120207528D01*
X122567577Y-120204558D01*
X122856856Y-120202364D01*
X123205166Y-120200831D01*
X123617842Y-120199844D01*
X124100216Y-120199286D01*
X124657623Y-120199044D01*
X125165304Y-120199000D01*
X128620000Y-120199000D01*
X128620000Y-113891333D01*
X120958442Y-113891333D01*
X120947471Y-116039750D01*
X120936500Y-118188166D01*
X120856753Y-117976500D01*
X120808788Y-117850299D01*
X120740017Y-117670776D01*
X120660269Y-117463539D01*
X120592170Y-117287239D01*
X120407333Y-116809645D01*
X120407333Y-113421818D01*
X120511242Y-113317909D01*
X120615151Y-113213999D01*
X124800696Y-113213999D01*
X128986241Y-113214000D01*
G36*
X126291666Y-122485000D02*
X127597854Y-122485000D01*
X127685594Y-122596542D01*
X127747052Y-122698216D01*
X127773320Y-122788383D01*
X127773333Y-122789825D01*
X127748525Y-122906039D01*
X127689090Y-123023068D01*
X127629412Y-123087601D01*
X127574686Y-123096980D01*
X127448643Y-123105288D01*
X127264632Y-123112066D01*
X127035999Y-123116857D01*
X126776093Y-123119200D01*
X126705741Y-123119351D01*
X125828650Y-123120000D01*
X125853194Y-122791916D01*
X125846177Y-122392824D01*
X125763367Y-122030060D01*
X125605630Y-121705587D01*
X125373831Y-121421366D01*
X125174065Y-121251881D01*
X125008963Y-121130333D01*
X126291666Y-121130333D01*
X126291666Y-122485000D01*
X126291666Y-122485000D01*
G37*
X126291666Y-122485000D02*
X127597854Y-122485000D01*
X127685594Y-122596542D01*
X127747052Y-122698216D01*
X127773320Y-122788383D01*
X127773333Y-122789825D01*
X127748525Y-122906039D01*
X127689090Y-123023068D01*
X127629412Y-123087601D01*
X127574686Y-123096980D01*
X127448643Y-123105288D01*
X127264632Y-123112066D01*
X127035999Y-123116857D01*
X126776093Y-123119200D01*
X126705741Y-123119351D01*
X125828650Y-123120000D01*
X125853194Y-122791916D01*
X125846177Y-122392824D01*
X125763367Y-122030060D01*
X125605630Y-121705587D01*
X125373831Y-121421366D01*
X125174065Y-121251881D01*
X125008963Y-121130333D01*
X126291666Y-121130333D01*
X126291666Y-122485000D01*
G36*
X117049356Y-115164319D02*
X117612972Y-115275041D01*
X117909666Y-115357019D01*
X118328523Y-115504025D01*
X118714300Y-115680609D01*
X119057939Y-115880342D01*
X119350384Y-116096796D01*
X119582577Y-116323542D01*
X119745461Y-116554152D01*
X119810958Y-116706500D01*
X119838930Y-116786386D01*
X119892023Y-116929658D01*
X119964407Y-117120896D01*
X120050253Y-117344679D01*
X120131087Y-117553166D01*
X120244179Y-117844297D01*
X120368356Y-118165414D01*
X120491523Y-118485151D01*
X120601585Y-118772142D01*
X120645298Y-118886666D01*
X120746002Y-119149818D01*
X120855086Y-119432828D01*
X120960466Y-119704462D01*
X121050057Y-119933485D01*
X121062939Y-119966166D01*
X121149818Y-120187330D01*
X121238515Y-120414958D01*
X121316794Y-120617562D01*
X121359041Y-120728166D01*
X121509800Y-121117225D01*
X121612661Y-121371314D01*
X121653556Y-121377571D01*
X121763070Y-121388914D01*
X121925411Y-121403836D01*
X122124788Y-121420825D01*
X122165259Y-121424138D01*
X122394746Y-121443032D01*
X122614481Y-121461524D01*
X122799650Y-121477501D01*
X122925441Y-121488851D01*
X122926166Y-121488920D01*
X123038422Y-121499293D01*
X123216265Y-121515381D01*
X123440941Y-121535503D01*
X123693694Y-121557978D01*
X123895783Y-121575842D01*
X124149899Y-121600623D01*
X124383094Y-121627783D01*
X124578775Y-121655046D01*
X124720351Y-121680141D01*
X124784783Y-121697651D01*
X124954905Y-121805189D01*
X125116074Y-121970357D01*
X125245544Y-122167248D01*
X125294444Y-122278122D01*
X125349145Y-122537281D01*
X125339894Y-122808231D01*
X125272593Y-123070716D01*
X125153145Y-123304478D01*
X124987451Y-123489262D01*
X124928946Y-123532556D01*
X124752789Y-123649166D01*
X122844644Y-123661228D01*
X122364523Y-123663988D01*
X121961447Y-123665209D01*
X121627799Y-123664188D01*
X121355961Y-123660220D01*
X121138316Y-123652601D01*
X120967248Y-123640625D01*
X120835137Y-123623590D01*
X120734368Y-123600791D01*
X120657323Y-123571523D01*
X120596384Y-123535081D01*
X120543935Y-123490763D01*
X120498373Y-123444284D01*
X120444169Y-123370147D01*
X120362673Y-123238561D01*
X120264653Y-123067710D01*
X120160875Y-122875776D01*
X120154324Y-122863266D01*
X119901324Y-122379166D01*
X119900328Y-123024750D01*
X119899333Y-123670333D01*
X116645375Y-123670333D01*
X116043826Y-123670301D01*
X115521175Y-123670105D01*
X115071651Y-123669592D01*
X114689485Y-123668612D01*
X114368908Y-123667013D01*
X114104149Y-123664644D01*
X113889440Y-123661352D01*
X113719012Y-123656986D01*
X113587093Y-123651395D01*
X113487915Y-123644428D01*
X113415709Y-123635933D01*
X113364704Y-123625757D01*
X113329132Y-123613751D01*
X113303223Y-123599762D01*
X113281206Y-123583638D01*
X113279029Y-123581928D01*
X113232756Y-123546350D01*
X113192523Y-123513487D01*
X113157915Y-123477500D01*
X113128516Y-123432547D01*
X113103910Y-123372788D01*
X113083681Y-123292382D01*
X113067414Y-123185489D01*
X113054691Y-123046266D01*
X113045098Y-122868875D01*
X113038219Y-122647473D01*
X113033637Y-122376221D01*
X113030938Y-122049277D01*
X113029704Y-121660801D01*
X113029520Y-121204951D01*
X113029970Y-120675888D01*
X113030613Y-120093166D01*
X113031266Y-119502602D01*
X113032070Y-118990502D01*
X113033190Y-118550667D01*
X113034790Y-118176894D01*
X113037036Y-117862983D01*
X113040093Y-117602731D01*
X113044124Y-117389938D01*
X113049295Y-117218402D01*
X113055770Y-117081923D01*
X113063714Y-116974297D01*
X113073293Y-116889325D01*
X113084670Y-116820805D01*
X113098011Y-116762535D01*
X113113479Y-116708314D01*
X113121193Y-116683537D01*
X113221968Y-116423431D01*
X113352834Y-116200613D01*
X113522857Y-116008056D01*
X113741103Y-115838731D01*
X114016636Y-115685610D01*
X114358523Y-115541667D01*
X114775827Y-115399874D01*
X114777875Y-115399234D01*
X115380402Y-115238402D01*
X115949123Y-115145783D01*
X116500090Y-115121160D01*
X117049356Y-115164319D01*
X117049356Y-115164319D01*
G37*
X117049356Y-115164319D02*
X117612972Y-115275041D01*
X117909666Y-115357019D01*
X118328523Y-115504025D01*
X118714300Y-115680609D01*
X119057939Y-115880342D01*
X119350384Y-116096796D01*
X119582577Y-116323542D01*
X119745461Y-116554152D01*
X119810958Y-116706500D01*
X119838930Y-116786386D01*
X119892023Y-116929658D01*
X119964407Y-117120896D01*
X120050253Y-117344679D01*
X120131087Y-117553166D01*
X120244179Y-117844297D01*
X120368356Y-118165414D01*
X120491523Y-118485151D01*
X120601585Y-118772142D01*
X120645298Y-118886666D01*
X120746002Y-119149818D01*
X120855086Y-119432828D01*
X120960466Y-119704462D01*
X121050057Y-119933485D01*
X121062939Y-119966166D01*
X121149818Y-120187330D01*
X121238515Y-120414958D01*
X121316794Y-120617562D01*
X121359041Y-120728166D01*
X121509800Y-121117225D01*
X121612661Y-121371314D01*
X121653556Y-121377571D01*
X121763070Y-121388914D01*
X121925411Y-121403836D01*
X122124788Y-121420825D01*
X122165259Y-121424138D01*
X122394746Y-121443032D01*
X122614481Y-121461524D01*
X122799650Y-121477501D01*
X122925441Y-121488851D01*
X122926166Y-121488920D01*
X123038422Y-121499293D01*
X123216265Y-121515381D01*
X123440941Y-121535503D01*
X123693694Y-121557978D01*
X123895783Y-121575842D01*
X124149899Y-121600623D01*
X124383094Y-121627783D01*
X124578775Y-121655046D01*
X124720351Y-121680141D01*
X124784783Y-121697651D01*
X124954905Y-121805189D01*
X125116074Y-121970357D01*
X125245544Y-122167248D01*
X125294444Y-122278122D01*
X125349145Y-122537281D01*
X125339894Y-122808231D01*
X125272593Y-123070716D01*
X125153145Y-123304478D01*
X124987451Y-123489262D01*
X124928946Y-123532556D01*
X124752789Y-123649166D01*
X122844644Y-123661228D01*
X122364523Y-123663988D01*
X121961447Y-123665209D01*
X121627799Y-123664188D01*
X121355961Y-123660220D01*
X121138316Y-123652601D01*
X120967248Y-123640625D01*
X120835137Y-123623590D01*
X120734368Y-123600791D01*
X120657323Y-123571523D01*
X120596384Y-123535081D01*
X120543935Y-123490763D01*
X120498373Y-123444284D01*
X120444169Y-123370147D01*
X120362673Y-123238561D01*
X120264653Y-123067710D01*
X120160875Y-122875776D01*
X120154324Y-122863266D01*
X119901324Y-122379166D01*
X119900328Y-123024750D01*
X119899333Y-123670333D01*
X116645375Y-123670333D01*
X116043826Y-123670301D01*
X115521175Y-123670105D01*
X115071651Y-123669592D01*
X114689485Y-123668612D01*
X114368908Y-123667013D01*
X114104149Y-123664644D01*
X113889440Y-123661352D01*
X113719012Y-123656986D01*
X113587093Y-123651395D01*
X113487915Y-123644428D01*
X113415709Y-123635933D01*
X113364704Y-123625757D01*
X113329132Y-123613751D01*
X113303223Y-123599762D01*
X113281206Y-123583638D01*
X113279029Y-123581928D01*
X113232756Y-123546350D01*
X113192523Y-123513487D01*
X113157915Y-123477500D01*
X113128516Y-123432547D01*
X113103910Y-123372788D01*
X113083681Y-123292382D01*
X113067414Y-123185489D01*
X113054691Y-123046266D01*
X113045098Y-122868875D01*
X113038219Y-122647473D01*
X113033637Y-122376221D01*
X113030938Y-122049277D01*
X113029704Y-121660801D01*
X113029520Y-121204951D01*
X113029970Y-120675888D01*
X113030613Y-120093166D01*
X113031266Y-119502602D01*
X113032070Y-118990502D01*
X113033190Y-118550667D01*
X113034790Y-118176894D01*
X113037036Y-117862983D01*
X113040093Y-117602731D01*
X113044124Y-117389938D01*
X113049295Y-117218402D01*
X113055770Y-117081923D01*
X113063714Y-116974297D01*
X113073293Y-116889325D01*
X113084670Y-116820805D01*
X113098011Y-116762535D01*
X113113479Y-116708314D01*
X113121193Y-116683537D01*
X113221968Y-116423431D01*
X113352834Y-116200613D01*
X113522857Y-116008056D01*
X113741103Y-115838731D01*
X114016636Y-115685610D01*
X114358523Y-115541667D01*
X114775827Y-115399874D01*
X114777875Y-115399234D01*
X115380402Y-115238402D01*
X115949123Y-115145783D01*
X116500090Y-115121160D01*
X117049356Y-115164319D01*
D10*
X120822380Y-132833333D02*
X121536666Y-132833333D01*
X121679523Y-132880952D01*
X121774761Y-132976190D01*
X121822380Y-133119047D01*
X121822380Y-133214285D01*
X120822380Y-132452380D02*
X120822380Y-131833333D01*
X121203333Y-132166666D01*
X121203333Y-132023809D01*
X121250952Y-131928571D01*
X121298571Y-131880952D01*
X121393809Y-131833333D01*
X121631904Y-131833333D01*
X121727142Y-131880952D01*
X121774761Y-131928571D01*
X121822380Y-132023809D01*
X121822380Y-132309523D01*
X121774761Y-132404761D01*
X121727142Y-132452380D01*
X113802380Y-66073333D02*
X114516666Y-66073333D01*
X114659523Y-66120952D01*
X114754761Y-66216190D01*
X114802380Y-66359047D01*
X114802380Y-66454285D01*
X114135714Y-65168571D02*
X114802380Y-65168571D01*
X113754761Y-65406666D02*
X114469047Y-65644761D01*
X114469047Y-65025714D01*
X134666666Y-112942380D02*
X134666666Y-113656666D01*
X134619047Y-113799523D01*
X134523809Y-113894761D01*
X134380952Y-113942380D01*
X134285714Y-113942380D01*
X135666666Y-113942380D02*
X135095238Y-113942380D01*
X135380952Y-113942380D02*
X135380952Y-112942380D01*
X135285714Y-113085238D01*
X135190476Y-113180476D01*
X135095238Y-113228095D01*
X134342857Y-117942380D02*
X134642857Y-118942380D01*
X134942857Y-117942380D01*
X135200000Y-118894761D02*
X135328571Y-118942380D01*
X135542857Y-118942380D01*
X135628571Y-118894761D01*
X135671428Y-118847142D01*
X135714285Y-118751904D01*
X135714285Y-118656666D01*
X135671428Y-118561428D01*
X135628571Y-118513809D01*
X135542857Y-118466190D01*
X135371428Y-118418571D01*
X135285714Y-118370952D01*
X135242857Y-118323333D01*
X135200000Y-118228095D01*
X135200000Y-118132857D01*
X135242857Y-118037619D01*
X135285714Y-117990000D01*
X135371428Y-117942380D01*
X135585714Y-117942380D01*
X135714285Y-117990000D01*
X136057142Y-118894761D02*
X136185714Y-118942380D01*
X136400000Y-118942380D01*
X136485714Y-118894761D01*
X136528571Y-118847142D01*
X136571428Y-118751904D01*
X136571428Y-118656666D01*
X136528571Y-118561428D01*
X136485714Y-118513809D01*
X136400000Y-118466190D01*
X136228571Y-118418571D01*
X136142857Y-118370952D01*
X136100000Y-118323333D01*
X136057142Y-118228095D01*
X136057142Y-118132857D01*
X136100000Y-118037619D01*
X136142857Y-117990000D01*
X136228571Y-117942380D01*
X136442857Y-117942380D01*
X136571428Y-117990000D01*
X130300000Y-117942380D02*
X130600000Y-118942380D01*
X130900000Y-117942380D01*
X131200000Y-118942380D02*
X131200000Y-117942380D01*
X131414285Y-117942380D01*
X131542857Y-117990000D01*
X131628571Y-118085238D01*
X131671428Y-118180476D01*
X131714285Y-118370952D01*
X131714285Y-118513809D01*
X131671428Y-118704285D01*
X131628571Y-118799523D01*
X131542857Y-118894761D01*
X131414285Y-118942380D01*
X131200000Y-118942380D01*
X132100000Y-118942380D02*
X132100000Y-117942380D01*
X132314285Y-117942380D01*
X132442857Y-117990000D01*
X132528571Y-118085238D01*
X132571428Y-118180476D01*
X132614285Y-118370952D01*
X132614285Y-118513809D01*
X132571428Y-118704285D01*
X132528571Y-118799523D01*
X132442857Y-118894761D01*
X132314285Y-118942380D01*
X132100000Y-118942380D01*
X134166666Y-80942380D02*
X134166666Y-81656666D01*
X134119047Y-81799523D01*
X134023809Y-81894761D01*
X133880952Y-81942380D01*
X133785714Y-81942380D01*
X134595238Y-81037619D02*
X134642857Y-80990000D01*
X134738095Y-80942380D01*
X134976190Y-80942380D01*
X135071428Y-80990000D01*
X135119047Y-81037619D01*
X135166666Y-81132857D01*
X135166666Y-81228095D01*
X135119047Y-81370952D01*
X134547619Y-81942380D01*
X135166666Y-81942380D01*
X128652380Y-91213809D02*
X128652380Y-90642380D01*
X129652380Y-90928095D02*
X128652380Y-90928095D01*
X129652380Y-90309047D02*
X128652380Y-90309047D01*
X128652380Y-90070952D01*
X128700000Y-89928095D01*
X128795238Y-89832857D01*
X128890476Y-89785238D01*
X129080952Y-89737619D01*
X129223809Y-89737619D01*
X129414285Y-89785238D01*
X129509523Y-89832857D01*
X129604761Y-89928095D01*
X129652380Y-90070952D01*
X129652380Y-90309047D01*
X129652380Y-89309047D02*
X128652380Y-89309047D01*
X129652380Y-87470952D02*
X129176190Y-87804285D01*
X129652380Y-88042380D02*
X128652380Y-88042380D01*
X128652380Y-87661428D01*
X128700000Y-87566190D01*
X128747619Y-87518571D01*
X128842857Y-87470952D01*
X128985714Y-87470952D01*
X129080952Y-87518571D01*
X129128571Y-87566190D01*
X129176190Y-87661428D01*
X129176190Y-88042380D01*
X129604761Y-87090000D02*
X129652380Y-86994761D01*
X129652380Y-86804285D01*
X129604761Y-86709047D01*
X129509523Y-86661428D01*
X129461904Y-86661428D01*
X129366666Y-86709047D01*
X129319047Y-86804285D01*
X129319047Y-86947142D01*
X129271428Y-87042380D01*
X129176190Y-87090000D01*
X129128571Y-87090000D01*
X129033333Y-87042380D01*
X128985714Y-86947142D01*
X128985714Y-86804285D01*
X129033333Y-86709047D01*
X128985714Y-86375714D02*
X128985714Y-85994761D01*
X128652380Y-86232857D02*
X129509523Y-86232857D01*
X129604761Y-86185238D01*
X129652380Y-86090000D01*
X129652380Y-85994761D01*
X128700000Y-84682857D02*
X128652380Y-84778095D01*
X128652380Y-84920952D01*
X128700000Y-85063809D01*
X128795238Y-85159047D01*
X128890476Y-85206666D01*
X129080952Y-85254285D01*
X129223809Y-85254285D01*
X129414285Y-85206666D01*
X129509523Y-85159047D01*
X129604761Y-85063809D01*
X129652380Y-84920952D01*
X129652380Y-84825714D01*
X129604761Y-84682857D01*
X129557142Y-84635238D01*
X129223809Y-84635238D01*
X129223809Y-84825714D01*
X128985714Y-84206666D02*
X129652380Y-84206666D01*
X129080952Y-84206666D02*
X129033333Y-84159047D01*
X128985714Y-84063809D01*
X128985714Y-83920952D01*
X129033333Y-83825714D01*
X129128571Y-83778095D01*
X129652380Y-83778095D01*
X129652380Y-82873333D02*
X128652380Y-82873333D01*
X129604761Y-82873333D02*
X129652380Y-82968571D01*
X129652380Y-83159047D01*
X129604761Y-83254285D01*
X129557142Y-83301904D01*
X129461904Y-83349523D01*
X129176190Y-83349523D01*
X129080952Y-83301904D01*
X129033333Y-83254285D01*
X128985714Y-83159047D01*
X128985714Y-82968571D01*
X129033333Y-82873333D01*
X137852380Y-90990000D02*
X137852380Y-90475714D01*
X138852380Y-90732857D02*
X137852380Y-90732857D01*
X138852380Y-90175714D02*
X137852380Y-90175714D01*
X138566666Y-89875714D01*
X137852380Y-89575714D01*
X138852380Y-89575714D01*
X138804761Y-89190000D02*
X138852380Y-89061428D01*
X138852380Y-88847142D01*
X138804761Y-88761428D01*
X138757142Y-88718571D01*
X138661904Y-88675714D01*
X138566666Y-88675714D01*
X138471428Y-88718571D01*
X138423809Y-88761428D01*
X138376190Y-88847142D01*
X138328571Y-89018571D01*
X138280952Y-89104285D01*
X138233333Y-89147142D01*
X138138095Y-89190000D01*
X138042857Y-89190000D01*
X137947619Y-89147142D01*
X137900000Y-89104285D01*
X137852380Y-89018571D01*
X137852380Y-88804285D01*
X137900000Y-88675714D01*
X137852380Y-88097142D02*
X137852380Y-87582857D01*
X138852380Y-87840000D02*
X137852380Y-87840000D01*
X138757142Y-86768571D02*
X138804761Y-86811428D01*
X138852380Y-86940000D01*
X138852380Y-87025714D01*
X138804761Y-87154285D01*
X138709523Y-87240000D01*
X138614285Y-87282857D01*
X138423809Y-87325714D01*
X138280952Y-87325714D01*
X138090476Y-87282857D01*
X137995238Y-87240000D01*
X137900000Y-87154285D01*
X137852380Y-87025714D01*
X137852380Y-86940000D01*
X137900000Y-86811428D01*
X137947619Y-86768571D01*
X138852380Y-86382857D02*
X137852380Y-86382857D01*
X138852380Y-85868571D02*
X138280952Y-86254285D01*
X137852380Y-85868571D02*
X138423809Y-86382857D01*
X137852380Y-85118571D02*
X137852380Y-84604285D01*
X138852380Y-84861428D02*
X137852380Y-84861428D01*
X138852380Y-84304285D02*
X137852380Y-84304285D01*
X137852380Y-84090000D01*
X137900000Y-83961428D01*
X137995238Y-83875714D01*
X138090476Y-83832857D01*
X138280952Y-83790000D01*
X138423809Y-83790000D01*
X138614285Y-83832857D01*
X138709523Y-83875714D01*
X138804761Y-83961428D01*
X138852380Y-84090000D01*
X138852380Y-84304285D01*
X137852380Y-83232857D02*
X137852380Y-83061428D01*
X137900000Y-82975714D01*
X137995238Y-82890000D01*
X138185714Y-82847142D01*
X138519047Y-82847142D01*
X138709523Y-82890000D01*
X138804761Y-82975714D01*
X138852380Y-83061428D01*
X138852380Y-83232857D01*
X138804761Y-83318571D01*
X138709523Y-83404285D01*
X138519047Y-83447142D01*
X138185714Y-83447142D01*
X137995238Y-83404285D01*
X137900000Y-83318571D01*
X137852380Y-83232857D01*
X158116666Y-133102380D02*
X157783333Y-132626190D01*
X157545238Y-133102380D02*
X157545238Y-132102380D01*
X157926190Y-132102380D01*
X158021428Y-132150000D01*
X158069047Y-132197619D01*
X158116666Y-132292857D01*
X158116666Y-132435714D01*
X158069047Y-132530952D01*
X158021428Y-132578571D01*
X157926190Y-132626190D01*
X157545238Y-132626190D01*
X158545238Y-132578571D02*
X158878571Y-132578571D01*
X159021428Y-133102380D02*
X158545238Y-133102380D01*
X158545238Y-132102380D01*
X159021428Y-132102380D01*
X159783333Y-132578571D02*
X159450000Y-132578571D01*
X159450000Y-133102380D02*
X159450000Y-132102380D01*
X159926190Y-132102380D01*
X160450000Y-132102380D02*
X160450000Y-132340476D01*
X160211904Y-132245238D02*
X160450000Y-132340476D01*
X160688095Y-132245238D01*
X160307142Y-132530952D02*
X160450000Y-132340476D01*
X160592857Y-132530952D01*
X161211904Y-132102380D02*
X161211904Y-132340476D01*
X160973809Y-132245238D02*
X161211904Y-132340476D01*
X161450000Y-132245238D01*
X161069047Y-132530952D02*
X161211904Y-132340476D01*
X161354761Y-132530952D01*
M02*
