<?xml version="1.0" encoding="UTF-8" standalone="no"?>
<!-- Created with Inkscape (http://www.inkscape.org/) -->

<svg
   xmlns:dc="http://purl.org/dc/elements/1.1/"
   xmlns:cc="http://creativecommons.org/ns#"
   xmlns:rdf="http://www.w3.org/1999/02/22-rdf-syntax-ns#"
   xmlns:svg="http://www.w3.org/2000/svg"
   xmlns="http://www.w3.org/2000/svg"
   xmlns:sodipodi="http://sodipodi.sourceforge.net/DTD/sodipodi-0.dtd"
   xmlns:inkscape="http://www.inkscape.org/namespaces/inkscape"
   width="89.0mm"
   height="51.0mm"
   viewBox="0 0 89.0 51.0"
   version="1.1"
   id="svg8"
   sodipodi:docname="Layout-v2.svg"
   inkscape:version="0.92.2 2405546, 2018-03-11">
  <sodipodi:namedview
     id="base"
     pagecolor="#ffffff"
     bordercolor="#666666"
     borderopacity="1.0"
     inkscape:pageopacity="0.0"
     inkscape:pageshadow="2"
     inkscape:zoom="2"
     inkscape:cx="90.583053"
     inkscape:cy="45.950056"
     inkscape:document-units="mm"
     inkscape:current-layer="svg8"
     showgrid="false"
     inkscape:measure-start="318.766,77.0781"
     inkscape:measure-end="316.391,77.125"
     objecttolerance="5"
     inkscape:window-width="1920"
     inkscape:window-height="1051"
     inkscape:window-x="1920"
     inkscape:window-y="0"
     inkscape:window-maximized="1"
     borderlayer="true">
    <inkscape:grid
       id="grid1042"
       units="mm"
       type="xygrid"
       empspacing="1"
       spacingy="2.54"
       spacingx="2.54" />
  </sodipodi:namedview>
  <defs
     id="defs2" />
  <metadata
     id="metadata5">
    <rdf:RDF>
      <cc:Work
         rdf:about="">
        <dc:format>image/svg+xml</dc:format>
        <dc:type
           rdf:resource="http://purl.org/dc/dcmitype/StillImage" />
        <dc:title></dc:title>
      </cc:Work>
    </rdf:RDF>
  </metadata>
  <g
     id="g1048"
     sodipodi:insensitive="true"
     inkscape:groupmode="layer"
     inkscape:label="[fixed] BG">
    <rect
       id="rect1046"
       style="stroke:none;fill-opacity:1;fill:#FFFFFF"
       height="51.0"
       width="89.0"
       y="0"
       x="0" />
  </g>
  <g
     id="g1050"
     inkscape:groupmode="layer"
     inkscape:label="Edge.Cuts" />
  <g
     id="g1052"
     inkscape:groupmode="layer"
     inkscape:label="B.Cu-disabled" />
  <g
     id="g1054"
     inkscape:groupmode="layer"
     inkscape:label="B.Mask-disabled" />
  <g
     id="g1056"
     inkscape:groupmode="layer"
     inkscape:label="B.Silk-disabled" />
  <g
     id="g1058"
     inkscape:groupmode="layer"
     inkscape:label="F.Cu" />
  <g
     id="g1060"
     inkscape:groupmode="layer"
     inkscape:label="F.Mask-disabled" />
  <g
     id="g1062"
     inkscape:groupmode="layer"
     inkscape:label="F.Silk-disabled" />
  <g
     id="g1064"
     inkscape:groupmode="layer"
     inkscape:label="Drill" />
  <path
     id="path1152"
     style="color:#000000;font-style:normal;font-variant:normal;font-weight:normal;font-stretch:normal;font-size:medium;line-height:normal;font-family:sans-serif;font-variant-ligatures:normal;font-variant-position:normal;font-variant-caps:normal;font-variant-numeric:normal;font-variant-alternates:normal;font-feature-settings:normal;text-indent:0;text-align:start;text-decoration:none;text-decoration-line:none;text-decoration-style:solid;text-decoration-color:#000000;letter-spacing:normal;word-spacing:normal;text-transform:none;writing-mode:lr-tb;direction:ltr;text-orientation:mixed;dominant-baseline:auto;baseline-shift:baseline;text-anchor:start;white-space:normal;shape-padding:0;clip-rule:nonzero;display:inline;overflow:visible;visibility:visible;opacity:1;isolation:auto;mix-blend-mode:normal;color-interpolation:sRGB;color-interpolation-filters:linearRGB;solid-color:#000000;solid-opacity:1;vector-effect:none;fill:#000000;fill-opacity:1;fill-rule:nonzero;stroke:none;stroke-width:0.63;stroke-linecap:butt;stroke-linejoin:miter;stroke-miterlimit:4;stroke-dasharray:none;stroke-dashoffset:0;stroke-opacity:1;color-rendering:auto;image-rendering:auto;shape-rendering:auto;text-rendering:auto;enable-background:accumulate"
     d="m 6.6171875,27.441406 -0.00391,0.01367 c -2.01e-5,7.3e-5 -0.00912,0.03375 -0.00977,0.03711 -0.00129,0.0067 -0.00307,0.0087 -0.00391,0.01367 -0.00167,0.01 -0.00452,0.02698 -0.00977,0.06055 -0.01049,0.06714 -0.030889,0.201525 -0.072266,0.47461 -0.082753,0.546169 -0.3704082,2.03986 -0.7011543,4.255859 l 0.5559069,0.319339 c 0.3307123,-2.215773 0.6856826,-3.934255 0.7682943,-4.479492 0.041306,-0.272619 0.062085,-0.4075 0.072266,-0.472657 0.00473,-0.0303 0.00674,-0.04431 0.00781,-0.05078 -0.00107,0.0049 -0.00588,0.02155 -0.00586,0.02148 l -0.00195,0.01367 -0.00586,0.01367 L 6.9120926,27.550777 6.6171707,27.441402 Z M 7.984375,5.2910156 c -1.2006779,0 -2.1749019,0.9753478 -2.1757812,2.1757813 L 5.796875,23.427734 H 6.3496094 L 6.3613281,7.4667969 C 6.3619902,6.563053 7.0808751,5.84375 7.984375,5.84375 h 73.552734 c 0.9035,0 1.623047,0.7195467 1.623047,1.6230469 V 44.019531 c 0,0.9035 -0.719547,1.623047 -1.623047,1.623047 H 7.984375 c -0.9034999,0 -1.6230469,-0.719547 -1.6230469,-1.623047 V 32.417969 C 6.0370174,32.398724 5.8687431,31.550436 5.8164072,32.296875 l -0.00781,0.03125 v 11.691406 c 0,1.200678 0.9751033,2.175781 2.1757812,2.175781 H 81.537112 c 1.200678,0 2.175782,-0.975103 2.175782,-2.175781 V 7.4667969 c 0,-1.2006778 -0.975104,-2.1757813 -2.175782,-2.1757813 z M 6.9003906,4.0800781 c -1.2698211,0 -2.2992504,1.0319223 -2.3027344,2.3007813 L 4.5507812,23.416016 H 5.1308594 L 5.1777344,6.3828125 C 5.1803708,5.4226087 5.9411404,4.6601562 6.9003906,4.6601562 H 82.623047 c 0.959251,0 1.722656,0.7614522 1.722656,1.7207032 V 45.103516 c 0,0.95925 -0.763405,1.722656 -1.722656,1.722656 H 6.9003906 c -0.9592505,0 -1.7210264,-0.762817 -1.7226562,-1.722656 L 5.15625,32.357422 6.3496094,23.427734 H 5.796875 l -1.2207031,8.89062 0.021484,12.78711 c 0.00216,1.269226 1.0329136,2.300781 2.3027344,2.300781 H 82.623047 c 1.269821,0 2.300781,-1.032915 2.300781,-2.302734 V 6.3808594 c 0,-1.2698203 -1.03096,-2.3007813 -2.300781,-2.3007813 z M 5.7949219,2.7597656 c -1.345081,0 -2.4355469,1.0924191 -2.4355469,2.4375 V 23.416016 L 3.9687371,23.398476 3.9628906,5.1972656 C 3.9625629,4.1769915 4.7746476,3.3652344 5.7949219,3.3652344 H 83.726562 c 1.020275,0 1.832032,0.8117569 1.832032,1.8320312 V 46.289062 c 0,1.020275 -0.811757,1.832032 -1.832032,1.832032 H 5.7949219 c -1.0202737,0 -1.8342119,-0.812538 -1.8320313,-1.832032 l 0.03125,-13.955078 1.1367188,-8.917968 H 4.5507812 L 3.3886719,32.294922 3.359375,46.287109 c -0.00288,1.345857 1.0904653,2.4375 2.4355469,2.4375 H 83.726562 c 1.345082,0 2.437501,-1.090465 2.4375,-2.435547 V 5.1972656 c 0,-1.3450808 -1.092418,-2.4375 -2.4375,-2.4375 z M 4.6542969,1.5761719 c -1.4128269,0 -2.5617626,1.1473945 -2.5605469,2.5605469 L 2.111328,23.417969 2.7402343,23.415969 2.7246094,4.1367188 C 2.7236851,3.0623411 3.5795929,2.2070313 4.6542969,2.2070312 H 84.867188 c 1.074703,0 1.929687,0.8549835 1.929687,1.9296876 V 47.349609 c 0,1.074705 -0.854984,1.929688 -1.929687,1.929688 H 4.6542969 c -1.0747041,0 -1.9304637,-0.855257 -1.9296875,-1.929688 l 0.011719,-15.013671 1.232409,-8.937462 -0.6093621,0.01754 -1.2539062,8.876953 -0.011719,15.05664 c -0.00102,1.413101 1.1477202,2.560547 2.5605469,2.560547 h 80.212891 c 1.412826,0 2.560546,-1.147719 2.560546,-2.560547 V 4.1367188 c 0,-1.412827 -1.14772,-2.5605469 -2.560546,-2.5605469 z" />
</svg>
