<?xml version="1.0" encoding="UTF-8" standalone="no"?>
<!-- Created with Inkscape (http://www.inkscape.org/) -->

<svg
   width="210mm"
   height="297mm"
   viewBox="0 0 210 297"
   version="1.1"
   id="svg1"
   inkscape:version="1.3 (0e150ed6c4, 2023-07-21)"
   sodipodi:docname="Coil.svg"
   xmlns:inkscape="http://www.inkscape.org/namespaces/inkscape"
   xmlns:sodipodi="http://sodipodi.sourceforge.net/DTD/sodipodi-0.dtd"
   xmlns="http://www.w3.org/2000/svg"
   xmlns:svg="http://www.w3.org/2000/svg">
  <sodipodi:namedview
     id="namedview1"
     pagecolor="#ffffff"
     bordercolor="#666666"
     borderopacity="1.0"
     inkscape:showpageshadow="2"
     inkscape:pageopacity="0.0"
     inkscape:pagecheckerboard="0"
     inkscape:deskcolor="#d1d1d1"
     inkscape:document-units="mm"
     inkscape:zoom="1.4627806"
     inkscape:cx="444.01738"
     inkscape:cy="746.86526"
     inkscape:window-width="1920"
     inkscape:window-height="1017"
     inkscape:window-x="-8"
     inkscape:window-y="-8"
     inkscape:window-maximized="1"
     inkscape:current-layer="layer1" />
  <defs
     id="defs1" />
  <g
     inkscape:label="Layer 1"
     inkscape:groupmode="layer"
     id="layer1">
    <path
       style="color:#000000;display:inline;fill:#000000;fill-opacity:1;stroke:none;stroke-opacity:1;-inkscape-stroke:none"
       d="m 90.957826,186.00208 c -3.765919,0 -6.82774,3.05458 -6.820313,6.82227 l 0.03125,15.77539 1.5,-0.002 -0.03125,-15.7773 c -0.0058,-2.95908 2.359449,-5.31836 5.320313,-5.31836 H 163.2254 c 2.96087,0 5.32227,2.35945 5.32227,5.32032 v 34.26758 c 0,2.96086 -2.3614,5.32226 -5.32227,5.32226 H 90.957826 c -2.960865,0 -5.323828,-2.36052 -5.320313,-5.32031 l 0.01563,-12.88086 2.980469,-4.75977 -0.01172,-14.86718 c 0,-2.53798 1.913377,-4.12891 4.517578,-4.12891 h 67.906254 c 2.53267,0 4.54687,2.01615 4.54687,4.54883 v 29.90429 c 0,2.53268 -2.0142,4.54883 -4.54687,4.54883 H 93.139466 c -2.532674,0 -4.545253,-2.01488 -4.548828,-4.54883 l -0.01172,-10.875 2.921875,-4.40625 0.07422,-12.41796 v -0.002 c 0,-2.10023 1.667357,-3.76758 3.767578,-3.76758 h 63.499998 c 2.10022,0 3.76758,1.66735 3.76758,3.76758 v 25.5 c 0,2.10022 -1.66736,3.76757 -3.76758,3.76757 H 95.342592 c -2.100217,0 -3.759566,-1.66783 -3.767578,-3.77148 l -0.03125,-8.16602 -1.5,0.006 0.03125,8.16602 c 0.01105,2.90181 2.3623,5.26562 5.267578,5.26562 h 63.499998 c 2.90528,0 5.26758,-2.3623 5.26758,-5.26757 v -25.5 c 0,-2.90528 -2.3623,-5.26758 -5.26758,-5.26758 H 95.342592 c -2.905274,0 -5.267578,2.3623 -5.267578,5.26758 l -0.07227,11.96484 -2.923828,4.41016 0.01172,11.32812 c 0.0047,3.33645 2.7111,6.04688 6.048828,6.04688 h 67.906247 c 3.33773,0 6.04688,-2.7111 6.04688,-6.04883 v -29.90429 c 0,-3.33773 -2.70915,-6.04883 -6.04688,-6.04883 H 93.139463 c -3.266199,0 -6.017578,2.29648 -6.017578,5.62891 l 0.01172,14.4375 -2.980466,4.75781 -0.01563,13.31055 c -0.0045,3.76698 3.054394,6.82226 6.820313,6.82226 H 163.2254 c 3.76592,0 6.82227,-3.05635 6.82227,-6.82226 V 192.8224 c 0,-3.76592 -3.05635,-6.82032 -6.82227,-6.82032 z"
       id="rect26" />
    <path
       style="font-size:2.82223px;line-height:1.25;font-family:'Roboto Mono Medium for Powerline';-inkscape-font-specification:'Roboto Mono Medium for Powerline, Normal';letter-spacing:0px;word-spacing:0px;display:inline;stroke-width:0.264583"
       d="m 95.478285,195.44982 q -0.01378,0.14469 -0.0689,0.26458 -0.05512,0.11851 -0.146072,0.20395 -0.09095,0.0841 -0.214975,0.13091 -0.122646,0.0455 -0.27423,0.0455 -0.18328,0 -0.319706,-0.0703 -0.136426,-0.0717 -0.227377,-0.19292 -0.09095,-0.12127 -0.136426,-0.28388 -0.04548,-0.16261 -0.04685,-0.34727 v -0.27423 q 0.0014,-0.18327 0.04823,-0.34588 0.04685,-0.16399 0.137804,-0.28526 0.09233,-0.12264 0.228755,-0.19292 0.136426,-0.0717 0.31695,-0.0717 0.158474,0 0.282498,0.0469 0.124024,0.0469 0.212219,0.13229 0.08819,0.0854 0.14056,0.20808 0.05237,0.12265 0.06752,0.27285 h -0.33073 q -0.0083,-0.0882 -0.03445,-0.15985 -0.0248,-0.073 -0.0689,-0.12402 -0.0441,-0.0524 -0.111622,-0.0799 -0.06615,-0.0276 -0.157096,-0.0276 -0.111622,0 -0.187414,0.051 -0.07579,0.051 -0.122646,0.1378 -0.04685,0.0854 -0.06752,0.19844 -0.01929,0.113 -0.01929,0.23702 v 0.27699 q 0,0.12953 0.01929,0.24391 0.02067,0.113 0.06615,0.19844 0.04548,0.0854 0.121268,0.13505 0.07579,0.0496 0.188792,0.0496 0.173633,0 0.264584,-0.0978 0.09095,-0.0992 0.107487,-0.27974 z m 0.286633,-0.14332 q 0,-0.16123 0.04685,-0.30041 0.04823,-0.13919 0.136426,-0.24116 0.08957,-0.10198 0.217731,-0.15985 0.128158,-0.0579 0.290767,-0.0579 0.163987,0 0.292145,0.0579 0.129536,0.0579 0.21773,0.15985 0.08957,0.10197 0.136427,0.24116 0.04685,0.13918 0.04685,0.30041 v 0.0289 q 0,0.16261 -0.04685,0.30179 -0.04685,0.13918 -0.136427,0.24116 -0.08819,0.1006 -0.216352,0.15847 -0.128158,0.0579 -0.290767,0.0579 -0.163987,0 -0.293523,-0.0579 -0.128158,-0.0579 -0.217731,-0.15847 -0.08819,-0.10198 -0.136426,-0.24116 -0.04685,-0.13918 -0.04685,-0.30179 z m 0.329352,0.0289 q 0,0.10198 0.02067,0.19155 0.02205,0.0896 0.06615,0.15847 0.04548,0.0675 0.114378,0.10749 0.0689,0.0386 0.163987,0.0386 0.09233,0 0.159853,-0.0386 0.0689,-0.04 0.112999,-0.10749 0.04548,-0.0689 0.06615,-0.15847 0.02205,-0.0896 0.02205,-0.19155 v -0.0289 q 0,-0.0992 -0.02205,-0.18879 -0.02067,-0.0896 -0.06615,-0.1571 -0.0441,-0.0675 -0.112999,-0.10749 -0.06752,-0.04 -0.162609,-0.04 -0.09371,0 -0.162609,0.04 -0.0689,0.04 -0.113,0.10749 -0.0441,0.0675 -0.06615,0.1571 -0.02067,0.0896 -0.02067,0.18879 z m 1.615065,-0.76068 0.0083,0.1571 q 0.0441,-0.0868 0.118512,-0.13505 0.07441,-0.0496 0.179145,-0.0496 0.09509,0 0.157097,0.0386 0.06339,0.0372 0.09509,0.11713 0.0441,-0.0717 0.113,-0.113 0.0689,-0.0427 0.166743,-0.0427 0.07304,0 0.13367,0.0248 0.06201,0.0234 0.104731,0.0758 0.0441,0.0524 0.06752,0.13367 0.02481,0.0813 0.02481,0.19569 v 1.08865 h -0.305926 v -1.09141 q 0,-0.0896 -0.03859,-0.12265 -0.03721,-0.0344 -0.09646,-0.0344 -0.0565,0 -0.08957,0.0276 -0.03307,0.0262 -0.04823,0.0703 v 1.15067 h -0.299035 v -1.09141 q 0,-0.0868 -0.03583,-0.12127 -0.03445,-0.0358 -0.09509,-0.0358 -0.05788,0 -0.09095,0.0248 -0.03307,0.0248 -0.05099,0.0675 v 1.15618 h -0.305958 v -1.49103 z m 2.808455,0.76068 q 0,0.16261 -0.0386,0.30179 -0.0386,0.13918 -0.113,0.24116 -0.0744,0.1006 -0.18328,0.15847 -0.10749,0.0565 -0.248052,0.0565 -0.12678,0 -0.224621,-0.0413 -0.09646,-0.0413 -0.166743,-0.11851 v 0.70556 h -0.329347 v -2.06431 h 0.303169 l 0.01378,0.15021 q 0.07166,-0.0854 0.169499,-0.13092 0.09922,-0.0469 0.230133,-0.0469 0.141942,0 0.250802,0.0551 0.11025,0.0551 0.18466,0.15572 0.0744,0.0992 0.113,0.23978 0.0386,0.13918 0.0386,0.30868 z m -0.32936,-0.0289 q 0,-0.1006 -0.0207,-0.18879 -0.0207,-0.0896 -0.0634,-0.15572 -0.0427,-0.0675 -0.108862,-0.10611 -0.06615,-0.0386 -0.157097,-0.0386 -0.110243,0 -0.181901,0.0469 -0.07166,0.0469 -0.113,0.1254 v 0.66697 q 0.04134,0.0772 0.111622,0.12541 0.07166,0.0482 0.186035,0.0482 0.09095,0 0.157097,-0.04 0.06615,-0.04 0.107486,-0.10749 0.0427,-0.0675 0.062,-0.1571 0.0207,-0.0896 0.0207,-0.19017 z m 1.67432,0.55535 q -0.0758,0.11024 -0.18465,0.17226 -0.10749,0.0606 -0.24116,0.0606 -0.11576,0 -0.21222,-0.0358 -0.0951,-0.0358 -0.16399,-0.113 -0.0675,-0.0786 -0.10611,-0.19844 -0.0372,-0.12127 -0.0372,-0.29077 v -0.88194 h 0.32936 v 0.8847 q 0,0.10749 0.0152,0.17777 0.0165,0.0703 0.0496,0.11162 0.0331,0.0413 0.0827,0.0593 0.0496,0.0165 0.11851,0.0165 0.13229,0 0.2136,-0.051 0.0813,-0.0524 0.12264,-0.14056 v -1.05834 h 0.33073 v 1.49104 h -0.29766 z m 1.39734,-1.64814 v 0.36105 h 0.56362 v 0.24529 h -0.56362 v 0.71521 q 0,0.0841 0.0193,0.13918 0.0207,0.0551 0.0565,0.0882 0.0358,0.0331 0.0841,0.0469 0.0482,0.0124 0.10611,0.0124 0.0427,0 0.0882,-0.004 0.0469,-0.006 0.0896,-0.011 0.0441,-0.007 0.0799,-0.0138 0.0372,-0.008 0.062,-0.0152 l 0.0372,0.22737 q -0.0358,0.0207 -0.0868,0.0386 -0.0496,0.0165 -0.10887,0.0276 -0.0593,0.011 -0.12402,0.0165 -0.0634,0.007 -0.1254,0.007 -0.11163,0 -0.20533,-0.0303 -0.0923,-0.0317 -0.15985,-0.0965 -0.0662,-0.0661 -0.10474,-0.16812 -0.0372,-0.10335 -0.0372,-0.24667 v -0.73316 h -0.36379 v -0.24529 h 0.36381 v -0.36105 z m 1.72806,1.87965 q -0.16536,0 -0.30179,-0.0551 -0.13642,-0.0551 -0.23426,-0.15158 -0.0965,-0.0965 -0.15021,-0.22738 -0.0537,-0.13229 -0.0537,-0.28525 v -0.0565 q 0,-0.17777 0.0565,-0.31971 0.0579,-0.14194 0.15296,-0.24253 0.0965,-0.1006 0.22324,-0.15435 0.12816,-0.0537 0.26872,-0.0537 0.16261,0 0.28663,0.0551 0.12403,0.0537 0.20671,0.15297 0.0841,0.0978 0.12678,0.23289 0.0427,0.13504 0.0427,0.29628 v 0.13918 h -1.03353 q 0.008,0.0868 0.0427,0.16123 0.0344,0.0744 0.0896,0.12953 0.0565,0.0537 0.13091,0.0854 0.0758,0.0303 0.16537,0.0303 0.1254,0 0.23013,-0.0496 0.10611,-0.0496 0.17226,-0.13642 l 0.17914,0.16812 q -0.0358,0.0537 -0.0923,0.10473 -0.0565,0.0496 -0.13229,0.0896 -0.0758,0.0386 -0.17088,0.062 -0.0937,0.0248 -0.20533,0.0248 z m -0.04,-1.2802 q -0.0689,0 -0.12815,0.0248 -0.0593,0.0248 -0.10611,0.073 -0.0469,0.0469 -0.0799,0.11576 -0.0317,0.0675 -0.0455,0.15434 h 0.69866 v -0.0248 q -0.004,-0.0661 -0.0262,-0.12678 -0.0207,-0.062 -0.062,-0.11025 -0.0413,-0.0482 -0.10473,-0.0772 -0.062,-0.0289 -0.14607,-0.0289 z m 2.06293,-0.26596 q 0.04,0 0.0799,0.003 0.04,0.003 0.0758,0.008 0.0372,0.005 0.0675,0.0124 0.0303,0.006 0.051,0.0138 l -0.0468,0.32384 q -0.15158,-0.0344 -0.29903,-0.0344 -0.16537,0 -0.26734,0.0689 -0.1006,0.0689 -0.14883,0.19155 v 0.93155 h -0.32936 v -1.49111 h 0.30868 l 0.0152,0.23289 q 0.0909,-0.12127 0.21498,-0.19017 0.1254,-0.0703 0.27836,-0.0703 z m 3.53055,0.61874 h -0.82545 v 0.62977 h 0.96601 v 0.27009 h -1.29812 v -2.00643 h 1.28847 v 0.27285 h -0.95636 v 0.56638 h 0.82545 z m 0.82406,-0.59118 0.0207,0.20671 q 0.0813,-0.11163 0.19569,-0.17226 0.11575,-0.062 0.25631,-0.062 0.11438,0 0.20809,0.0331 0.0951,0.0331 0.1626,0.10335 0.0689,0.0703 0.10611,0.1819 0.0386,0.11163 0.0386,0.26872 v 0.93156 h -0.32935 v -0.92604 q 0,-0.0923 -0.022,-0.15435 -0.0207,-0.062 -0.0606,-0.0992 -0.0386,-0.0372 -0.0951,-0.0524 -0.0565,-0.0165 -0.12816,-0.0165 -0.10886,0 -0.19017,0.0482 -0.0799,0.0482 -0.12953,0.13092 v 1.06936 h -0.33073 v -1.49103 z m 1.35324,0.7345 q 0,-0.1695 0.0413,-0.31006 0.0427,-0.14056 0.12127,-0.24116 0.0786,-0.1006 0.18879,-0.15572 0.11162,-0.0551 0.24943,-0.0551 0.13367,0 0.23151,0.0455 0.0978,0.0455 0.16812,0.13092 l 0.0138,-0.14883 h 0.29903 v 1.45107 q 0,0.15021 -0.0496,0.26597 -0.0496,0.11713 -0.13918,0.19706 -0.0882,0.0799 -0.21222,0.12126 -0.12402,0.0427 -0.27285,0.0427 -0.0606,0 -0.1378,-0.0138 -0.0758,-0.0124 -0.15297,-0.0427 -0.0772,-0.0289 -0.14745,-0.0772 -0.0703,-0.0469 -0.11989,-0.11437 l 0.1571,-0.19706 q 0.0841,0.0992 0.18052,0.14193 0.0978,0.0427 0.2012,0.0427 0.0827,0 0.1502,-0.0234 0.0675,-0.0234 0.11438,-0.0689 0.0469,-0.0455 0.0717,-0.11299 0.0262,-0.0661 0.0262,-0.15297 v -0.10059 q -0.0703,0.0772 -0.16536,0.11851 -0.0937,0.0413 -0.21911,0.0413 -0.13643,0 -0.24667,-0.0565 -0.11025,-0.0579 -0.18879,-0.15847 -0.0785,-0.1006 -0.12127,-0.23841 -0.0413,-0.13918 -0.0413,-0.30179 z m 0.33073,0.0289 q 0,0.10059 0.0207,0.18879 0.0207,0.0882 0.0634,0.15434 0.0427,0.0661 0.10887,0.10473 0.0675,0.0372 0.15847,0.0372 0.11438,0 0.18604,-0.0469 0.0717,-0.0482 0.11437,-0.12816 v -0.6587 q -0.0441,-0.0786 -0.11575,-0.1254 -0.0717,-0.0469 -0.1819,-0.0469 -0.0909,0 -0.15848,0.0386 -0.0661,0.0386 -0.11024,0.1061 -0.0427,0.0675 -0.0648,0.1571 -0.0207,0.0896 -0.0207,0.19017 z m 1.47726,-0.76344 h 0.79513 v 1.21819 h 0.44235 v 0.27285 h -1.23748 v -0.27285 h 0.46302 v -0.94396 h -0.46302 z m 0.43546,-0.38585 q 0,-0.0772 0.0496,-0.12678 0.0496,-0.051 0.13918,-0.051 0.0909,0 0.14057,0.051 0.051,0.0496 0.051,0.12678 0,0.0772 -0.051,0.12816 -0.0496,0.0496 -0.14057,0.0496 -0.0896,0 -0.13918,-0.0496 -0.0496,-0.051 -0.0496,-0.12816 z m 1.48415,0.38585 0.0207,0.20671 q 0.0813,-0.11163 0.19568,-0.17226 0.11576,-0.062 0.25632,-0.062 0.11438,0 0.20808,0.0331 0.0951,0.0331 0.16261,0.10335 0.0689,0.0703 0.10611,0.1819 0.0386,0.11163 0.0386,0.26872 v 0.93156 h -0.32935 v -0.92604 q 0,-0.0923 -0.022,-0.15435 -0.0207,-0.062 -0.0606,-0.0992 -0.0386,-0.0372 -0.0951,-0.0524 -0.0565,-0.0165 -0.12816,-0.0165 -0.10886,0 -0.19017,0.0482 -0.0799,0.0482 -0.12954,0.13092 v 1.06936 h -0.33073 v -1.49103 z m 2.09049,1.5186 q -0.16536,0 -0.30179,-0.0551 -0.13643,-0.0551 -0.23427,-0.15158 -0.0965,-0.0965 -0.1502,-0.22738 -0.0537,-0.13229 -0.0537,-0.28525 v -0.0565 q 0,-0.17777 0.0565,-0.31971 0.0579,-0.14194 0.15296,-0.24253 0.0965,-0.1006 0.22324,-0.15435 0.12816,-0.0537 0.26872,-0.0537 0.16261,0 0.28663,0.0551 0.12403,0.0537 0.20671,0.15297 0.0841,0.0978 0.12678,0.23289 0.0427,0.13504 0.0427,0.29628 v 0.13918 h -1.03354 q 0.008,0.0868 0.0427,0.16123 0.0344,0.0744 0.0896,0.12953 0.0565,0.0537 0.13092,0.0854 0.0758,0.0303 0.16536,0.0303 0.1254,0 0.23014,-0.0496 0.1061,-0.0496 0.17225,-0.13642 l 0.17915,0.16812 q -0.0358,0.0537 -0.0923,0.10473 -0.0565,0.0496 -0.1323,0.0896 -0.0758,0.0386 -0.17087,0.062 -0.0937,0.0248 -0.20533,0.0248 z m -0.04,-1.2802 q -0.0689,0 -0.12816,0.0248 -0.0592,0.0248 -0.10611,0.073 -0.0468,0.0469 -0.0799,0.11576 -0.0317,0.0675 -0.0455,0.15434 h 0.69866 v -0.0248 q -0.004,-0.0661 -0.0262,-0.12678 -0.0207,-0.062 -0.062,-0.11025 -0.0413,-0.0482 -0.10473,-0.0772 -0.062,-0.0289 -0.14607,-0.0289 z m 1.73358,1.2802 q -0.16537,0 -0.30179,-0.0551 -0.13643,-0.0551 -0.23427,-0.15158 -0.0965,-0.0965 -0.1502,-0.22738 -0.0537,-0.13229 -0.0537,-0.28525 v -0.0565 q 0,-0.17777 0.0565,-0.31971 0.0579,-0.14194 0.15296,-0.24253 0.0965,-0.1006 0.22324,-0.15435 0.12816,-0.0537 0.26872,-0.0537 0.16261,0 0.28663,0.0551 0.12403,0.0537 0.20671,0.15297 0.0841,0.0978 0.12678,0.23289 0.0427,0.13504 0.0427,0.29628 v 0.13918 h -1.03353 q 0.008,0.0868 0.0427,0.16123 0.0344,0.0744 0.0896,0.12953 0.0565,0.0537 0.13091,0.0854 0.0758,0.0303 0.16537,0.0303 0.1254,0 0.23013,-0.0496 0.10611,-0.0496 0.17225,-0.13642 l 0.17915,0.16812 q -0.0358,0.0537 -0.0923,0.10473 -0.0565,0.0496 -0.13229,0.0896 -0.0758,0.0386 -0.17088,0.062 -0.0937,0.0248 -0.20533,0.0248 z m -0.04,-1.2802 q -0.0689,0 -0.12815,0.0248 -0.0593,0.0248 -0.10611,0.073 -0.0469,0.0469 -0.0799,0.11576 -0.0317,0.0675 -0.0455,0.15434 h 0.69866 v -0.0248 q -0.004,-0.0661 -0.0262,-0.12678 -0.0207,-0.062 -0.062,-0.11025 -0.0413,-0.0482 -0.10473,-0.0772 -0.062,-0.0289 -0.14607,-0.0289 z m 2.06293,-0.26596 q 0.04,0 0.0799,0.003 0.04,0.003 0.0758,0.008 0.0372,0.005 0.0675,0.0124 0.0303,0.006 0.051,0.0138 l -0.0468,0.32384 q -0.15158,-0.0344 -0.29903,-0.0344 -0.16537,0 -0.26734,0.0689 -0.1006,0.0689 -0.14883,0.19155 v 0.93155 h -0.32936 v -1.49111 h 0.30868 l 0.0152,0.23289 q 0.0909,-0.12127 0.21498,-0.19017 0.1254,-0.0703 0.27836,-0.0703 z m 0.74139,0.0276 h 0.79513 v 1.21819 h 0.44235 v 0.27285 h -1.23748 v -0.27285 h 0.46302 v -0.94396 h -0.46302 z m 0.43546,-0.38585 q 0,-0.0772 0.0496,-0.12678 0.0496,-0.051 0.13918,-0.051 0.0909,0 0.14056,0.051 0.051,0.0496 0.051,0.12678 0,0.0772 -0.051,0.12816 -0.0496,0.0496 -0.14056,0.0496 -0.0896,0 -0.13918,-0.0496 -0.0496,-0.051 -0.0496,-0.12816 z m 1.48415,0.38585 0.0207,0.20671 q 0.0813,-0.11163 0.19568,-0.17226 0.11576,-0.062 0.25632,-0.062 0.11438,0 0.20808,0.0331 0.0951,0.0331 0.16261,0.10335 0.0689,0.0703 0.10611,0.1819 0.0386,0.11163 0.0386,0.26872 v 0.93156 h -0.32935 v -0.92604 q 0,-0.0923 -0.0221,-0.15435 -0.0207,-0.062 -0.0606,-0.0992 -0.0386,-0.0372 -0.0951,-0.0524 -0.0565,-0.0165 -0.12816,-0.0165 -0.10886,0 -0.19017,0.0482 -0.0799,0.0482 -0.12954,0.13092 v 1.06936 h -0.33073 v -1.49103 z m 1.35324,0.7345 q 0,-0.1695 0.0413,-0.31006 0.0427,-0.14056 0.12126,-0.24116 0.0785,-0.1006 0.1888,-0.15572 0.11162,-0.0551 0.24942,-0.0551 0.13367,0 0.23151,0.0455 0.0978,0.0455 0.16812,0.13092 l 0.0138,-0.14883 h 0.29904 v 1.45107 q 0,0.15021 -0.0496,0.26597 -0.0496,0.11713 -0.13918,0.19706 -0.0882,0.0799 -0.21222,0.12126 -0.12403,0.0427 -0.27285,0.0427 -0.0606,0 -0.13781,-0.0138 -0.0758,-0.0124 -0.15296,-0.0427 -0.0772,-0.0289 -0.14745,-0.0772 -0.0703,-0.0469 -0.11989,-0.11437 l 0.15709,-0.19706 q 0.0841,0.0992 0.18053,0.14193 0.0978,0.0427 0.20119,0.0427 0.0827,0 0.15021,-0.0234 0.0675,-0.0234 0.11438,-0.0689 0.0469,-0.0455 0.0717,-0.11299 0.0262,-0.0661 0.0262,-0.15297 v -0.10059 q -0.0703,0.0772 -0.16537,0.11851 -0.0937,0.0413 -0.21911,0.0413 -0.13642,0 -0.24667,-0.0565 -0.11024,-0.0579 -0.18879,-0.15847 -0.0786,-0.1006 -0.12127,-0.23841 -0.0413,-0.13918 -0.0413,-0.30179 z m 0.33073,0.0289 q 0,0.10059 0.0207,0.18879 0.0207,0.0882 0.0634,0.15434 0.0427,0.0661 0.10886,0.10473 0.0675,0.0372 0.15848,0.0372 0.11437,0 0.18603,-0.0469 0.0717,-0.0482 0.11438,-0.12816 v -0.6587 q -0.0441,-0.0786 -0.11576,-0.1254 -0.0717,-0.0469 -0.1819,-0.0469 -0.0909,0 -0.15847,0.0386 -0.0662,0.0386 -0.11025,0.1061 -0.0427,0.0675 -0.0648,0.1571 -0.0207,0.0896 -0.0207,0.19017 z"
       id="text73"
       aria-label="Computer Engineering" />
  </g>
</svg>
