G04 #@! TF.GenerationSoftware,KiCad,Pcbnew,5.0.1*
G04 #@! TF.CreationDate,2019-01-18T22:14:13-06:00*
G04 #@! TF.ProjectId,Layout,4C61796F75742E6B696361645F706362,rev?*
G04 #@! TF.SameCoordinates,Original*
G04 #@! TF.FileFunction,Soldermask,Top*
G04 #@! TF.FilePolarity,Negative*
%FSLAX46Y46*%
G04 Gerber Fmt 4.6, Leading zero omitted, Abs format (unit mm)*
G04 Created by KiCad (PCBNEW 5.0.1) date Fri 18 Jan 2019 10:14:13 PM CST*
%MOMM*%
%LPD*%
G01*
G04 APERTURE LIST*
%ADD10C,0.100000*%
G04 APERTURE END LIST*
D10*
G36*
X128825000Y-110700000D02*
X127175000Y-110700000D01*
X127175000Y-109300000D01*
X128825000Y-109300000D01*
X128825000Y-110700000D01*
X128825000Y-110700000D01*
G37*
G36*
X125325000Y-110700000D02*
X123675000Y-110700000D01*
X123675000Y-109300000D01*
X125325000Y-109300000D01*
X125325000Y-110700000D01*
X125325000Y-110700000D01*
G37*
G36*
X135825000Y-110700000D02*
X134175000Y-110700000D01*
X134175000Y-109300000D01*
X135825000Y-109300000D01*
X135825000Y-110700000D01*
X135825000Y-110700000D01*
G37*
G36*
X132325000Y-110700000D02*
X130675000Y-110700000D01*
X130675000Y-109300000D01*
X132325000Y-109300000D01*
X132325000Y-110700000D01*
X132325000Y-110700000D01*
G37*
G36*
X173253556Y-108777817D02*
X172122184Y-109909189D01*
X170990812Y-108777817D01*
X172122184Y-107646445D01*
X173253556Y-108777817D01*
X173253556Y-108777817D01*
G37*
G36*
X146753556Y-108777817D02*
X145622184Y-109909189D01*
X144490812Y-108777817D01*
X145622184Y-107646445D01*
X146753556Y-108777817D01*
X146753556Y-108777817D01*
G37*
G36*
X160753556Y-108777817D02*
X159622184Y-109909189D01*
X158490812Y-108777817D01*
X159622184Y-107646445D01*
X160753556Y-108777817D01*
X160753556Y-108777817D01*
G37*
G36*
X187353555Y-108777817D02*
X186222183Y-109909189D01*
X185090811Y-108777817D01*
X186222183Y-107646445D01*
X187353555Y-108777817D01*
X187353555Y-108777817D01*
G37*
G36*
X132325000Y-108700000D02*
X130675000Y-108700000D01*
X130675000Y-107300000D01*
X132325000Y-107300000D01*
X132325000Y-108700000D01*
X132325000Y-108700000D01*
G37*
G36*
X135825000Y-108700000D02*
X134175000Y-108700000D01*
X134175000Y-107300000D01*
X135825000Y-107300000D01*
X135825000Y-108700000D01*
X135825000Y-108700000D01*
G37*
G36*
X125325000Y-108700000D02*
X123675000Y-108700000D01*
X123675000Y-107300000D01*
X125325000Y-107300000D01*
X125325000Y-108700000D01*
X125325000Y-108700000D01*
G37*
G36*
X128825000Y-108700000D02*
X127175000Y-108700000D01*
X127175000Y-107300000D01*
X128825000Y-107300000D01*
X128825000Y-108700000D01*
X128825000Y-108700000D01*
G37*
G36*
X188909189Y-107222183D02*
X187777817Y-108353555D01*
X186646445Y-107222183D01*
X187777817Y-106090811D01*
X188909189Y-107222183D01*
X188909189Y-107222183D01*
G37*
G36*
X174809190Y-107222183D02*
X173677818Y-108353555D01*
X172546446Y-107222183D01*
X173677818Y-106090811D01*
X174809190Y-107222183D01*
X174809190Y-107222183D01*
G37*
G36*
X162309190Y-107222183D02*
X161177818Y-108353555D01*
X160046446Y-107222183D01*
X161177818Y-106090811D01*
X162309190Y-107222183D01*
X162309190Y-107222183D01*
G37*
G36*
X148309190Y-107222183D02*
X147177818Y-108353555D01*
X146046446Y-107222183D01*
X147177818Y-106090811D01*
X148309190Y-107222183D01*
X148309190Y-107222183D01*
G37*
G36*
X125325000Y-105700000D02*
X123675000Y-105700000D01*
X123675000Y-104300000D01*
X125325000Y-104300000D01*
X125325000Y-105700000D01*
X125325000Y-105700000D01*
G37*
G36*
X125325000Y-103700000D02*
X123675000Y-103700000D01*
X123675000Y-102300000D01*
X125325000Y-102300000D01*
X125325000Y-103700000D01*
X125325000Y-103700000D01*
G37*
G36*
X132600000Y-99285000D02*
X132602402Y-99309386D01*
X132609515Y-99332835D01*
X132621066Y-99354446D01*
X132636612Y-99373388D01*
X132655554Y-99388934D01*
X132677165Y-99400485D01*
X132700614Y-99407598D01*
X132725000Y-99410000D01*
X133575000Y-99410000D01*
X133575000Y-102610000D01*
X132725000Y-102610000D01*
X132700614Y-102612402D01*
X132677165Y-102619515D01*
X132655554Y-102631066D01*
X132636612Y-102646612D01*
X132621066Y-102665554D01*
X132609515Y-102687165D01*
X132602402Y-102710614D01*
X132600000Y-102735000D01*
X132600000Y-103585000D01*
X129400000Y-103585000D01*
X129400000Y-102735000D01*
X129397598Y-102710614D01*
X129390485Y-102687165D01*
X129378934Y-102665554D01*
X129363388Y-102646612D01*
X129344446Y-102631066D01*
X129322835Y-102619515D01*
X129299386Y-102612402D01*
X129275000Y-102610000D01*
X128425000Y-102610000D01*
X128425000Y-99410000D01*
X129275000Y-99410000D01*
X129299386Y-99407598D01*
X129322835Y-99400485D01*
X129344446Y-99388934D01*
X129363388Y-99373388D01*
X129378934Y-99354446D01*
X129390485Y-99332835D01*
X129397598Y-99309386D01*
X129400000Y-99285000D01*
X129400000Y-98435000D01*
X132600000Y-98435000D01*
X132600000Y-99285000D01*
X132600000Y-99285000D01*
G37*
G36*
X119194226Y-100622044D02*
X118860126Y-102516814D01*
X117845774Y-102337956D01*
X118179874Y-100443186D01*
X119194226Y-100622044D01*
X119194226Y-100622044D01*
G37*
G36*
X187353555Y-101277817D02*
X186222183Y-102409189D01*
X185090811Y-101277817D01*
X186222183Y-100146445D01*
X187353555Y-101277817D01*
X187353555Y-101277817D01*
G37*
G36*
X180253556Y-101277817D02*
X179122184Y-102409189D01*
X177990812Y-101277817D01*
X179122184Y-100146445D01*
X180253556Y-101277817D01*
X180253556Y-101277817D01*
G37*
G36*
X173253556Y-101277817D02*
X172122184Y-102409189D01*
X170990812Y-101277817D01*
X172122184Y-100146445D01*
X173253556Y-101277817D01*
X173253556Y-101277817D01*
G37*
G36*
X153753556Y-101277817D02*
X152622184Y-102409189D01*
X151490812Y-101277817D01*
X152622184Y-100146445D01*
X153753556Y-101277817D01*
X153753556Y-101277817D01*
G37*
G36*
X146753556Y-101277817D02*
X145622184Y-102409189D01*
X144490812Y-101277817D01*
X145622184Y-100146445D01*
X146753556Y-101277817D01*
X146753556Y-101277817D01*
G37*
G36*
X160753556Y-101277817D02*
X159622184Y-102409189D01*
X158490812Y-101277817D01*
X159622184Y-100146445D01*
X160753556Y-101277817D01*
X160753556Y-101277817D01*
G37*
G36*
X174809190Y-99722183D02*
X173677818Y-100853555D01*
X172546446Y-99722183D01*
X173677818Y-98590811D01*
X174809190Y-99722183D01*
X174809190Y-99722183D01*
G37*
G36*
X181809190Y-99722183D02*
X180677818Y-100853555D01*
X179546446Y-99722183D01*
X180677818Y-98590811D01*
X181809190Y-99722183D01*
X181809190Y-99722183D01*
G37*
G36*
X188909189Y-99722183D02*
X187777817Y-100853555D01*
X186646445Y-99722183D01*
X187777817Y-98590811D01*
X188909189Y-99722183D01*
X188909189Y-99722183D01*
G37*
G36*
X162309190Y-99722183D02*
X161177818Y-100853555D01*
X160046446Y-99722183D01*
X161177818Y-98590811D01*
X162309190Y-99722183D01*
X162309190Y-99722183D01*
G37*
G36*
X148309190Y-99722183D02*
X147177818Y-100853555D01*
X146046446Y-99722183D01*
X147177818Y-98590811D01*
X148309190Y-99722183D01*
X148309190Y-99722183D01*
G37*
G36*
X155309190Y-99722183D02*
X154177818Y-100853555D01*
X153046446Y-99722183D01*
X154177818Y-98590811D01*
X155309190Y-99722183D01*
X155309190Y-99722183D01*
G37*
G36*
X122325000Y-100200000D02*
X120675000Y-100200000D01*
X120675000Y-98800000D01*
X122325000Y-98800000D01*
X122325000Y-100200000D01*
X122325000Y-100200000D01*
G37*
G36*
X125325000Y-100200000D02*
X123675000Y-100200000D01*
X123675000Y-98800000D01*
X125325000Y-98800000D01*
X125325000Y-100200000D01*
X125325000Y-100200000D01*
G37*
G36*
X125325000Y-98200000D02*
X123675000Y-98200000D01*
X123675000Y-96800000D01*
X125325000Y-96800000D01*
X125325000Y-98200000D01*
X125325000Y-98200000D01*
G37*
G36*
X122325000Y-98200000D02*
X120675000Y-98200000D01*
X120675000Y-96800000D01*
X122325000Y-96800000D01*
X122325000Y-98200000D01*
X122325000Y-98200000D01*
G37*
G36*
X114685000Y-96842000D02*
X113655000Y-96842000D01*
X113655000Y-94918000D01*
X114685000Y-94918000D01*
X114685000Y-96842000D01*
X114685000Y-96842000D01*
G37*
G36*
X134825000Y-95700000D02*
X133175000Y-95700000D01*
X133175000Y-94300000D01*
X134825000Y-94300000D01*
X134825000Y-95700000D01*
X134825000Y-95700000D01*
G37*
G36*
X131325000Y-95700000D02*
X129675000Y-95700000D01*
X129675000Y-94300000D01*
X131325000Y-94300000D01*
X131325000Y-95700000D01*
X131325000Y-95700000D01*
G37*
G36*
X146753556Y-93777817D02*
X145622184Y-94909189D01*
X144490812Y-93777817D01*
X145622184Y-92646445D01*
X146753556Y-93777817D01*
X146753556Y-93777817D01*
G37*
G36*
X187353555Y-93777817D02*
X186222183Y-94909189D01*
X185090811Y-93777817D01*
X186222183Y-92646445D01*
X187353555Y-93777817D01*
X187353555Y-93777817D01*
G37*
G36*
X160753556Y-93777817D02*
X159622184Y-94909189D01*
X158490812Y-93777817D01*
X159622184Y-92646445D01*
X160753556Y-93777817D01*
X160753556Y-93777817D01*
G37*
G36*
X173253556Y-93777817D02*
X172122184Y-94909189D01*
X170990812Y-93777817D01*
X172122184Y-92646445D01*
X173253556Y-93777817D01*
X173253556Y-93777817D01*
G37*
G36*
X134825000Y-93700000D02*
X133175000Y-93700000D01*
X133175000Y-92300000D01*
X134825000Y-92300000D01*
X134825000Y-93700000D01*
X134825000Y-93700000D01*
G37*
G36*
X131325000Y-93700000D02*
X129675000Y-93700000D01*
X129675000Y-92300000D01*
X131325000Y-92300000D01*
X131325000Y-93700000D01*
X131325000Y-93700000D01*
G37*
G36*
X188909189Y-92222183D02*
X187777817Y-93353555D01*
X186646445Y-92222183D01*
X187777817Y-91090811D01*
X188909189Y-92222183D01*
X188909189Y-92222183D01*
G37*
G36*
X148309190Y-92222183D02*
X147177818Y-93353555D01*
X146046446Y-92222183D01*
X147177818Y-91090811D01*
X148309190Y-92222183D01*
X148309190Y-92222183D01*
G37*
G36*
X162309190Y-92222183D02*
X161177818Y-93353555D01*
X160046446Y-92222183D01*
X161177818Y-91090811D01*
X162309190Y-92222183D01*
X162309190Y-92222183D01*
G37*
G36*
X174809190Y-92222183D02*
X173677818Y-93353555D01*
X172546446Y-92222183D01*
X173677818Y-91090811D01*
X174809190Y-92222183D01*
X174809190Y-92222183D01*
G37*
M02*
