G04 #@! TF.GenerationSoftware,KiCad,Pcbnew,5.0.1*
G04 #@! TF.CreationDate,2019-01-01T22:39:03-06:00*
G04 #@! TF.ProjectId,Layout,4C61796F75742E6B696361645F706362,rev?*
G04 #@! TF.SameCoordinates,Original*
G04 #@! TF.FileFunction,Legend,Top*
G04 #@! TF.FilePolarity,Positive*
%FSLAX46Y46*%
G04 Gerber Fmt 4.6, Leading zero omitted, Abs format (unit mm)*
G04 Created by KiCad (PCBNEW 5.0.1) date Tue 01 Jan 2019 10:39:03 PM CST*
%MOMM*%
%LPD*%
G01*
G04 APERTURE LIST*
%ADD10C,0.200000*%
%ADD11C,0.010000*%
%ADD12C,0.120000*%
%ADD13C,0.150000*%
G04 APERTURE END LIST*
D10*
X143500000Y-110500000D02*
X163500000Y-110500000D01*
X163500000Y-90500000D02*
X143500000Y-90500000D01*
X163500000Y-110500000D02*
X163500000Y-90500000D01*
X143500000Y-90500000D02*
X143500000Y-110500000D01*
X190000000Y-110500000D02*
X170000000Y-110500000D01*
X170000000Y-90500000D02*
X190000000Y-90500000D01*
X170000000Y-90500000D02*
X170000000Y-110500000D01*
X190000000Y-110500000D02*
X190000000Y-90500000D01*
D11*
G04 #@! TO.C,G\002A\002A\002A*
G36*
X181095387Y-78692074D02*
X181143549Y-78720588D01*
X181155926Y-78797985D01*
X181156333Y-78857334D01*
X181152260Y-78965721D01*
X181123745Y-79013882D01*
X181046348Y-79026260D01*
X180987000Y-79026667D01*
X180878613Y-79022593D01*
X180830451Y-78994079D01*
X180818074Y-78916682D01*
X180817667Y-78857334D01*
X180821740Y-78748946D01*
X180850255Y-78700785D01*
X180927652Y-78688407D01*
X180987000Y-78688000D01*
X181095387Y-78692074D01*
X181095387Y-78692074D01*
G37*
X181095387Y-78692074D02*
X181143549Y-78720588D01*
X181155926Y-78797985D01*
X181156333Y-78857334D01*
X181152260Y-78965721D01*
X181123745Y-79013882D01*
X181046348Y-79026260D01*
X180987000Y-79026667D01*
X180878613Y-79022593D01*
X180830451Y-78994079D01*
X180818074Y-78916682D01*
X180817667Y-78857334D01*
X180821740Y-78748946D01*
X180850255Y-78700785D01*
X180927652Y-78688407D01*
X180987000Y-78688000D01*
X181095387Y-78692074D01*
G36*
X161156387Y-78692074D02*
X161204549Y-78720588D01*
X161216926Y-78797985D01*
X161217333Y-78857334D01*
X161213260Y-78965721D01*
X161184745Y-79013882D01*
X161107348Y-79026260D01*
X161048000Y-79026667D01*
X160939613Y-79022593D01*
X160891451Y-78994079D01*
X160879074Y-78916682D01*
X160878667Y-78857334D01*
X160882740Y-78748946D01*
X160911255Y-78700785D01*
X160988652Y-78688407D01*
X161048000Y-78688000D01*
X161156387Y-78692074D01*
X161156387Y-78692074D01*
G37*
X161156387Y-78692074D02*
X161204549Y-78720588D01*
X161216926Y-78797985D01*
X161217333Y-78857334D01*
X161213260Y-78965721D01*
X161184745Y-79013882D01*
X161107348Y-79026260D01*
X161048000Y-79026667D01*
X160939613Y-79022593D01*
X160891451Y-78994079D01*
X160879074Y-78916682D01*
X160878667Y-78857334D01*
X160882740Y-78748946D01*
X160911255Y-78700785D01*
X160988652Y-78688407D01*
X161048000Y-78688000D01*
X161156387Y-78692074D01*
G36*
X153113054Y-78692074D02*
X153161215Y-78720588D01*
X153173593Y-78797985D01*
X153174000Y-78857334D01*
X153169926Y-78965721D01*
X153141412Y-79013882D01*
X153064015Y-79026260D01*
X153004667Y-79026667D01*
X152896279Y-79022593D01*
X152848118Y-78994079D01*
X152835740Y-78916682D01*
X152835333Y-78857334D01*
X152839407Y-78748946D01*
X152867921Y-78700785D01*
X152945318Y-78688407D01*
X153004667Y-78688000D01*
X153113054Y-78692074D01*
X153113054Y-78692074D01*
G37*
X153113054Y-78692074D02*
X153161215Y-78720588D01*
X153173593Y-78797985D01*
X153174000Y-78857334D01*
X153169926Y-78965721D01*
X153141412Y-79013882D01*
X153064015Y-79026260D01*
X153004667Y-79026667D01*
X152896279Y-79022593D01*
X152848118Y-78994079D01*
X152835740Y-78916682D01*
X152835333Y-78857334D01*
X152839407Y-78748946D01*
X152867921Y-78700785D01*
X152945318Y-78688407D01*
X153004667Y-78688000D01*
X153113054Y-78692074D01*
G36*
X194533667Y-79700576D02*
X194882917Y-79712871D01*
X195232167Y-79725167D01*
X195245184Y-79905084D01*
X195258201Y-80085000D01*
X194533667Y-80085000D01*
X194534315Y-80878750D01*
X194536133Y-81131653D01*
X194540799Y-81356631D01*
X194547771Y-81539485D01*
X194556510Y-81666019D01*
X194566435Y-81721973D01*
X194626669Y-81759068D01*
X194731998Y-81783976D01*
X194745703Y-81785473D01*
X194843636Y-81802462D01*
X194888368Y-81846507D01*
X194905519Y-81945112D01*
X194906639Y-81958250D01*
X194919777Y-82117000D01*
X194688774Y-82117000D01*
X194548109Y-82111612D01*
X194456652Y-82085746D01*
X194379155Y-82024844D01*
X194326385Y-81967360D01*
X194195000Y-81817721D01*
X194195000Y-80085000D01*
X193517667Y-80085000D01*
X193517667Y-79704000D01*
X194195000Y-79704000D01*
X194195000Y-78688000D01*
X194533667Y-78688000D01*
X194533667Y-79700576D01*
X194533667Y-79700576D01*
G37*
X194533667Y-79700576D02*
X194882917Y-79712871D01*
X195232167Y-79725167D01*
X195245184Y-79905084D01*
X195258201Y-80085000D01*
X194533667Y-80085000D01*
X194534315Y-80878750D01*
X194536133Y-81131653D01*
X194540799Y-81356631D01*
X194547771Y-81539485D01*
X194556510Y-81666019D01*
X194566435Y-81721973D01*
X194626669Y-81759068D01*
X194731998Y-81783976D01*
X194745703Y-81785473D01*
X194843636Y-81802462D01*
X194888368Y-81846507D01*
X194905519Y-81945112D01*
X194906639Y-81958250D01*
X194919777Y-82117000D01*
X194688774Y-82117000D01*
X194548109Y-82111612D01*
X194456652Y-82085746D01*
X194379155Y-82024844D01*
X194326385Y-81967360D01*
X194195000Y-81817721D01*
X194195000Y-80085000D01*
X193517667Y-80085000D01*
X193517667Y-79704000D01*
X194195000Y-79704000D01*
X194195000Y-78688000D01*
X194533667Y-78688000D01*
X194533667Y-79700576D01*
G36*
X190885193Y-79778205D02*
X191030930Y-79867539D01*
X191117061Y-80004917D01*
X191123532Y-80027403D01*
X191151912Y-80140479D01*
X191351993Y-79943406D01*
X191459686Y-79840448D01*
X191541302Y-79781556D01*
X191627851Y-79754421D01*
X191750340Y-79746733D01*
X191848400Y-79746334D01*
X192144725Y-79746334D01*
X192365529Y-79969915D01*
X192498856Y-80118137D01*
X192569514Y-80232134D01*
X192586333Y-80308581D01*
X192578384Y-80382525D01*
X192538491Y-80415399D01*
X192442586Y-80423560D01*
X192417000Y-80423667D01*
X192293377Y-80410526D01*
X192247859Y-80371688D01*
X192247667Y-80368087D01*
X192219215Y-80304831D01*
X192148823Y-80218594D01*
X192128933Y-80198754D01*
X192001958Y-80111305D01*
X191849467Y-80085036D01*
X191841960Y-80085000D01*
X191753443Y-80091290D01*
X191676497Y-80118252D01*
X191591407Y-80178025D01*
X191478458Y-80282746D01*
X191410360Y-80350722D01*
X191147000Y-80616445D01*
X191147000Y-82117000D01*
X190808333Y-82117000D01*
X190808333Y-81148517D01*
X190807865Y-80826380D01*
X190805248Y-80578687D01*
X190798660Y-80395213D01*
X190786283Y-80265738D01*
X190766296Y-80180037D01*
X190736878Y-80127889D01*
X190696210Y-80099069D01*
X190642471Y-80083356D01*
X190617833Y-80078620D01*
X190555909Y-80043118D01*
X190525396Y-79952512D01*
X190520028Y-79904731D01*
X190506889Y-79746334D01*
X190694235Y-79746334D01*
X190885193Y-79778205D01*
X190885193Y-79778205D01*
G37*
X190885193Y-79778205D02*
X191030930Y-79867539D01*
X191117061Y-80004917D01*
X191123532Y-80027403D01*
X191151912Y-80140479D01*
X191351993Y-79943406D01*
X191459686Y-79840448D01*
X191541302Y-79781556D01*
X191627851Y-79754421D01*
X191750340Y-79746733D01*
X191848400Y-79746334D01*
X192144725Y-79746334D01*
X192365529Y-79969915D01*
X192498856Y-80118137D01*
X192569514Y-80232134D01*
X192586333Y-80308581D01*
X192578384Y-80382525D01*
X192538491Y-80415399D01*
X192442586Y-80423560D01*
X192417000Y-80423667D01*
X192293377Y-80410526D01*
X192247859Y-80371688D01*
X192247667Y-80368087D01*
X192219215Y-80304831D01*
X192148823Y-80218594D01*
X192128933Y-80198754D01*
X192001958Y-80111305D01*
X191849467Y-80085036D01*
X191841960Y-80085000D01*
X191753443Y-80091290D01*
X191676497Y-80118252D01*
X191591407Y-80178025D01*
X191478458Y-80282746D01*
X191410360Y-80350722D01*
X191147000Y-80616445D01*
X191147000Y-82117000D01*
X190808333Y-82117000D01*
X190808333Y-81148517D01*
X190807865Y-80826380D01*
X190805248Y-80578687D01*
X190798660Y-80395213D01*
X190786283Y-80265738D01*
X190766296Y-80180037D01*
X190736878Y-80127889D01*
X190696210Y-80099069D01*
X190642471Y-80083356D01*
X190617833Y-80078620D01*
X190555909Y-80043118D01*
X190525396Y-79952512D01*
X190520028Y-79904731D01*
X190506889Y-79746334D01*
X190694235Y-79746334D01*
X190885193Y-79778205D01*
G36*
X188847274Y-79705500D02*
X189086307Y-79708491D01*
X189260131Y-79720352D01*
X189388177Y-79747918D01*
X189489876Y-79798025D01*
X189584662Y-79877508D01*
X189691966Y-79993201D01*
X189703961Y-80006830D01*
X189877000Y-80203826D01*
X189877000Y-81101000D01*
X188183667Y-81101000D01*
X188183667Y-81342100D01*
X188190397Y-81493610D01*
X188217683Y-81594690D01*
X188276163Y-81678995D01*
X188297420Y-81701934D01*
X188411174Y-81820667D01*
X189877000Y-81820667D01*
X189877000Y-82117000D01*
X188264706Y-82117000D01*
X187845000Y-81724414D01*
X187845000Y-80542400D01*
X188183667Y-80542400D01*
X188183667Y-80762334D01*
X189538333Y-80762334D01*
X189538333Y-80548953D01*
X189519285Y-80364822D01*
X189456167Y-80224973D01*
X189445705Y-80210286D01*
X189353078Y-80085000D01*
X188882126Y-80085000D01*
X188676109Y-80085864D01*
X188536426Y-80090937D01*
X188444745Y-80103942D01*
X188382734Y-80128602D01*
X188332062Y-80168639D01*
X188297420Y-80203733D01*
X188225451Y-80296307D01*
X188191699Y-80399983D01*
X188183667Y-80542400D01*
X187845000Y-80542400D01*
X187845000Y-80182555D01*
X188095857Y-79943277D01*
X188346714Y-79704000D01*
X188847274Y-79705500D01*
X188847274Y-79705500D01*
G37*
X188847274Y-79705500D02*
X189086307Y-79708491D01*
X189260131Y-79720352D01*
X189388177Y-79747918D01*
X189489876Y-79798025D01*
X189584662Y-79877508D01*
X189691966Y-79993201D01*
X189703961Y-80006830D01*
X189877000Y-80203826D01*
X189877000Y-81101000D01*
X188183667Y-81101000D01*
X188183667Y-81342100D01*
X188190397Y-81493610D01*
X188217683Y-81594690D01*
X188276163Y-81678995D01*
X188297420Y-81701934D01*
X188411174Y-81820667D01*
X189877000Y-81820667D01*
X189877000Y-82117000D01*
X188264706Y-82117000D01*
X187845000Y-81724414D01*
X187845000Y-80542400D01*
X188183667Y-80542400D01*
X188183667Y-80762334D01*
X189538333Y-80762334D01*
X189538333Y-80548953D01*
X189519285Y-80364822D01*
X189456167Y-80224973D01*
X189445705Y-80210286D01*
X189353078Y-80085000D01*
X188882126Y-80085000D01*
X188676109Y-80085864D01*
X188536426Y-80090937D01*
X188444745Y-80103942D01*
X188382734Y-80128602D01*
X188332062Y-80168639D01*
X188297420Y-80203733D01*
X188225451Y-80296307D01*
X188191699Y-80399983D01*
X188183667Y-80542400D01*
X187845000Y-80542400D01*
X187845000Y-80182555D01*
X188095857Y-79943277D01*
X188346714Y-79704000D01*
X188847274Y-79705500D01*
G36*
X185516667Y-80762334D02*
X185962490Y-80762334D01*
X186468358Y-80255144D01*
X186974226Y-79747955D01*
X187093133Y-79861875D01*
X187212040Y-79975796D01*
X186264250Y-80926282D01*
X186715958Y-81397676D01*
X186871699Y-81562171D01*
X187004217Y-81705889D01*
X187103408Y-81817572D01*
X187159169Y-81885963D01*
X187167667Y-81900989D01*
X187139568Y-81948506D01*
X187070645Y-82023338D01*
X187057820Y-82035538D01*
X186947973Y-82138167D01*
X186454570Y-81618246D01*
X185961167Y-81098324D01*
X185516667Y-81101000D01*
X185516667Y-82117000D01*
X185135667Y-82117000D01*
X185135667Y-78688000D01*
X185516667Y-78688000D01*
X185516667Y-80762334D01*
X185516667Y-80762334D01*
G37*
X185516667Y-80762334D02*
X185962490Y-80762334D01*
X186468358Y-80255144D01*
X186974226Y-79747955D01*
X187093133Y-79861875D01*
X187212040Y-79975796D01*
X186264250Y-80926282D01*
X186715958Y-81397676D01*
X186871699Y-81562171D01*
X187004217Y-81705889D01*
X187103408Y-81817572D01*
X187159169Y-81885963D01*
X187167667Y-81900989D01*
X187139568Y-81948506D01*
X187070645Y-82023338D01*
X187057820Y-82035538D01*
X186947973Y-82138167D01*
X186454570Y-81618246D01*
X185961167Y-81098324D01*
X185516667Y-81101000D01*
X185516667Y-82117000D01*
X185135667Y-82117000D01*
X185135667Y-78688000D01*
X185516667Y-78688000D01*
X185516667Y-80762334D01*
G36*
X184521833Y-80063834D02*
X183950333Y-80075636D01*
X183378833Y-80087439D01*
X182807333Y-80654229D01*
X182807333Y-81209104D01*
X183093083Y-81492500D01*
X183378833Y-81775895D01*
X183950333Y-81787698D01*
X184521833Y-81799500D01*
X184548111Y-82117000D01*
X183250161Y-82117000D01*
X182859414Y-81724621D01*
X182468667Y-81332243D01*
X182468667Y-80527828D01*
X182861045Y-80137081D01*
X183253424Y-79746334D01*
X184548111Y-79746334D01*
X184521833Y-80063834D01*
X184521833Y-80063834D01*
G37*
X184521833Y-80063834D02*
X183950333Y-80075636D01*
X183378833Y-80087439D01*
X182807333Y-80654229D01*
X182807333Y-81209104D01*
X183093083Y-81492500D01*
X183378833Y-81775895D01*
X183950333Y-81787698D01*
X184521833Y-81799500D01*
X184548111Y-82117000D01*
X183250161Y-82117000D01*
X182859414Y-81724621D01*
X182468667Y-81332243D01*
X182468667Y-80527828D01*
X182861045Y-80137081D01*
X183253424Y-79746334D01*
X184548111Y-79746334D01*
X184521833Y-80063834D01*
G36*
X181135167Y-79725167D02*
X181146409Y-80921084D01*
X181157652Y-82117000D01*
X180817667Y-82117000D01*
X180817667Y-79698889D01*
X181135167Y-79725167D01*
X181135167Y-79725167D01*
G37*
X181135167Y-79725167D02*
X181146409Y-80921084D01*
X181157652Y-82117000D01*
X180817667Y-82117000D01*
X180817667Y-79698889D01*
X181135167Y-79725167D01*
G36*
X178055417Y-79027594D02*
X179018500Y-79028520D01*
X179261917Y-79256805D01*
X179505333Y-79485089D01*
X179505333Y-80302962D01*
X179296474Y-80522064D01*
X179087615Y-80741167D01*
X178742683Y-80762334D01*
X178397751Y-80783500D01*
X178951542Y-81361695D01*
X179172123Y-81595822D01*
X179334052Y-81778050D01*
X179440551Y-81914269D01*
X179494843Y-82010371D01*
X179500152Y-82072249D01*
X179459700Y-82105793D01*
X179376710Y-82116896D01*
X179364709Y-82117000D01*
X179313350Y-82111576D01*
X179257552Y-82090458D01*
X179188592Y-82046381D01*
X179097745Y-81972076D01*
X178976287Y-81860278D01*
X178815493Y-81703719D01*
X178606638Y-81495132D01*
X178551515Y-81439667D01*
X177878945Y-80762334D01*
X177431000Y-80762334D01*
X177431000Y-82117000D01*
X177092333Y-82117000D01*
X177092333Y-79365334D01*
X177431000Y-79365334D01*
X177431000Y-80423667D01*
X178887469Y-80423667D01*
X179027068Y-80288362D01*
X179106374Y-80203193D01*
X179148238Y-80123473D01*
X179164382Y-80016483D01*
X179166667Y-79898794D01*
X179161701Y-79748227D01*
X179139127Y-79648589D01*
X179087432Y-79566362D01*
X179031362Y-79504932D01*
X178896058Y-79365334D01*
X177431000Y-79365334D01*
X177092333Y-79365334D01*
X177092333Y-79026667D01*
X178055417Y-79027594D01*
X178055417Y-79027594D01*
G37*
X178055417Y-79027594D02*
X179018500Y-79028520D01*
X179261917Y-79256805D01*
X179505333Y-79485089D01*
X179505333Y-80302962D01*
X179296474Y-80522064D01*
X179087615Y-80741167D01*
X178742683Y-80762334D01*
X178397751Y-80783500D01*
X178951542Y-81361695D01*
X179172123Y-81595822D01*
X179334052Y-81778050D01*
X179440551Y-81914269D01*
X179494843Y-82010371D01*
X179500152Y-82072249D01*
X179459700Y-82105793D01*
X179376710Y-82116896D01*
X179364709Y-82117000D01*
X179313350Y-82111576D01*
X179257552Y-82090458D01*
X179188592Y-82046381D01*
X179097745Y-81972076D01*
X178976287Y-81860278D01*
X178815493Y-81703719D01*
X178606638Y-81495132D01*
X178551515Y-81439667D01*
X177878945Y-80762334D01*
X177431000Y-80762334D01*
X177431000Y-82117000D01*
X177092333Y-82117000D01*
X177092333Y-79365334D01*
X177431000Y-79365334D01*
X177431000Y-80423667D01*
X178887469Y-80423667D01*
X179027068Y-80288362D01*
X179106374Y-80203193D01*
X179148238Y-80123473D01*
X179164382Y-80016483D01*
X179166667Y-79898794D01*
X179161701Y-79748227D01*
X179139127Y-79648589D01*
X179087432Y-79566362D01*
X179031362Y-79504932D01*
X178896058Y-79365334D01*
X177431000Y-79365334D01*
X177092333Y-79365334D01*
X177092333Y-79026667D01*
X178055417Y-79027594D01*
G36*
X174637000Y-82117000D02*
X173959667Y-82117000D01*
X173959667Y-81439667D01*
X174637000Y-81439667D01*
X174637000Y-82117000D01*
X174637000Y-82117000D01*
G37*
X174637000Y-82117000D02*
X173959667Y-82117000D01*
X173959667Y-81439667D01*
X174637000Y-81439667D01*
X174637000Y-82117000D01*
G36*
X166069688Y-79733132D02*
X166165678Y-79754188D01*
X166247698Y-79807552D01*
X166307937Y-79863076D01*
X166450202Y-80000985D01*
X166572188Y-79873659D01*
X166650670Y-79801461D01*
X166729408Y-79763167D01*
X166839572Y-79748340D01*
X166952428Y-79746334D01*
X167093265Y-79749359D01*
X167188503Y-79767597D01*
X167269194Y-79814784D01*
X167366389Y-79904663D01*
X167410175Y-79948871D01*
X167609667Y-80151408D01*
X167609667Y-82117000D01*
X167271000Y-82117000D01*
X167271000Y-81193046D01*
X167270750Y-80890627D01*
X167269260Y-80661347D01*
X167265417Y-80493680D01*
X167258110Y-80376099D01*
X167246228Y-80297077D01*
X167228660Y-80245088D01*
X167204292Y-80208605D01*
X167173021Y-80177046D01*
X167034896Y-80097698D01*
X166884566Y-80097784D01*
X166737125Y-80176592D01*
X166712400Y-80198754D01*
X166593667Y-80312507D01*
X166593667Y-82117000D01*
X166255000Y-82117000D01*
X166255000Y-81223952D01*
X166254511Y-80924914D01*
X166252345Y-80698342D01*
X166247450Y-80532037D01*
X166238774Y-80413801D01*
X166225268Y-80331435D01*
X166205878Y-80272740D01*
X166179556Y-80225518D01*
X166167451Y-80207952D01*
X166053096Y-80107566D01*
X165916785Y-80084352D01*
X165771963Y-80138573D01*
X165696400Y-80198754D01*
X165577667Y-80312507D01*
X165577667Y-82117000D01*
X165239000Y-82117000D01*
X165239000Y-79741477D01*
X165461250Y-79740560D01*
X165641104Y-79738585D01*
X165841258Y-79734636D01*
X165924585Y-79732405D01*
X166069688Y-79733132D01*
X166069688Y-79733132D01*
G37*
X166069688Y-79733132D02*
X166165678Y-79754188D01*
X166247698Y-79807552D01*
X166307937Y-79863076D01*
X166450202Y-80000985D01*
X166572188Y-79873659D01*
X166650670Y-79801461D01*
X166729408Y-79763167D01*
X166839572Y-79748340D01*
X166952428Y-79746334D01*
X167093265Y-79749359D01*
X167188503Y-79767597D01*
X167269194Y-79814784D01*
X167366389Y-79904663D01*
X167410175Y-79948871D01*
X167609667Y-80151408D01*
X167609667Y-82117000D01*
X167271000Y-82117000D01*
X167271000Y-81193046D01*
X167270750Y-80890627D01*
X167269260Y-80661347D01*
X167265417Y-80493680D01*
X167258110Y-80376099D01*
X167246228Y-80297077D01*
X167228660Y-80245088D01*
X167204292Y-80208605D01*
X167173021Y-80177046D01*
X167034896Y-80097698D01*
X166884566Y-80097784D01*
X166737125Y-80176592D01*
X166712400Y-80198754D01*
X166593667Y-80312507D01*
X166593667Y-82117000D01*
X166255000Y-82117000D01*
X166255000Y-81223952D01*
X166254511Y-80924914D01*
X166252345Y-80698342D01*
X166247450Y-80532037D01*
X166238774Y-80413801D01*
X166225268Y-80331435D01*
X166205878Y-80272740D01*
X166179556Y-80225518D01*
X166167451Y-80207952D01*
X166053096Y-80107566D01*
X165916785Y-80084352D01*
X165771963Y-80138573D01*
X165696400Y-80198754D01*
X165577667Y-80312507D01*
X165577667Y-82117000D01*
X165239000Y-82117000D01*
X165239000Y-79741477D01*
X165461250Y-79740560D01*
X165641104Y-79738585D01*
X165841258Y-79734636D01*
X165924585Y-79732405D01*
X166069688Y-79733132D01*
G36*
X164395081Y-79944269D02*
X164604000Y-80163372D01*
X164604000Y-81820667D01*
X164773333Y-81820667D01*
X164881751Y-81825152D01*
X164929933Y-81852848D01*
X164942288Y-81925113D01*
X164942667Y-81968834D01*
X164942667Y-82117000D01*
X162960846Y-82117000D01*
X162766423Y-81900755D01*
X162663001Y-81781195D01*
X162604793Y-81691111D01*
X162578837Y-81598461D01*
X162572472Y-81476893D01*
X162910371Y-81476893D01*
X162970384Y-81634557D01*
X163024420Y-81701934D01*
X163079788Y-81753770D01*
X163139838Y-81789687D01*
X163218813Y-81811208D01*
X163330957Y-81819854D01*
X163490511Y-81817149D01*
X163711718Y-81804615D01*
X163877830Y-81793161D01*
X164265333Y-81765655D01*
X164265333Y-81058667D01*
X163706733Y-81058667D01*
X163479407Y-81059288D01*
X163320341Y-81062988D01*
X163213128Y-81072522D01*
X163141363Y-81090646D01*
X163088639Y-81120115D01*
X163038550Y-81163684D01*
X163029400Y-81172420D01*
X162930091Y-81317716D01*
X162910371Y-81476893D01*
X162572472Y-81476893D01*
X162572174Y-81471202D01*
X162572000Y-81420062D01*
X162572000Y-81155615D01*
X162802299Y-80937808D01*
X163032598Y-80720000D01*
X164265333Y-80720000D01*
X164265333Y-80495087D01*
X164257945Y-80350094D01*
X164227554Y-80253897D01*
X164161821Y-80171300D01*
X164146600Y-80156420D01*
X164096464Y-80111078D01*
X164046502Y-80079737D01*
X163980784Y-80059813D01*
X163883378Y-80048722D01*
X163738353Y-80043877D01*
X163529776Y-80042694D01*
X163445545Y-80042667D01*
X162863222Y-80042667D01*
X162889500Y-79725167D01*
X164186161Y-79725167D01*
X164395081Y-79944269D01*
X164395081Y-79944269D01*
G37*
X164395081Y-79944269D02*
X164604000Y-80163372D01*
X164604000Y-81820667D01*
X164773333Y-81820667D01*
X164881751Y-81825152D01*
X164929933Y-81852848D01*
X164942288Y-81925113D01*
X164942667Y-81968834D01*
X164942667Y-82117000D01*
X162960846Y-82117000D01*
X162766423Y-81900755D01*
X162663001Y-81781195D01*
X162604793Y-81691111D01*
X162578837Y-81598461D01*
X162572472Y-81476893D01*
X162910371Y-81476893D01*
X162970384Y-81634557D01*
X163024420Y-81701934D01*
X163079788Y-81753770D01*
X163139838Y-81789687D01*
X163218813Y-81811208D01*
X163330957Y-81819854D01*
X163490511Y-81817149D01*
X163711718Y-81804615D01*
X163877830Y-81793161D01*
X164265333Y-81765655D01*
X164265333Y-81058667D01*
X163706733Y-81058667D01*
X163479407Y-81059288D01*
X163320341Y-81062988D01*
X163213128Y-81072522D01*
X163141363Y-81090646D01*
X163088639Y-81120115D01*
X163038550Y-81163684D01*
X163029400Y-81172420D01*
X162930091Y-81317716D01*
X162910371Y-81476893D01*
X162572472Y-81476893D01*
X162572174Y-81471202D01*
X162572000Y-81420062D01*
X162572000Y-81155615D01*
X162802299Y-80937808D01*
X163032598Y-80720000D01*
X164265333Y-80720000D01*
X164265333Y-80495087D01*
X164257945Y-80350094D01*
X164227554Y-80253897D01*
X164161821Y-80171300D01*
X164146600Y-80156420D01*
X164096464Y-80111078D01*
X164046502Y-80079737D01*
X163980784Y-80059813D01*
X163883378Y-80048722D01*
X163738353Y-80043877D01*
X163529776Y-80042694D01*
X163445545Y-80042667D01*
X162863222Y-80042667D01*
X162889500Y-79725167D01*
X164186161Y-79725167D01*
X164395081Y-79944269D01*
G36*
X161217333Y-82117000D02*
X160877348Y-82117000D01*
X160888591Y-80921084D01*
X160899833Y-79725167D01*
X161217333Y-79698889D01*
X161217333Y-82117000D01*
X161217333Y-82117000D01*
G37*
X161217333Y-82117000D02*
X160877348Y-82117000D01*
X160888591Y-80921084D01*
X160899833Y-79725167D01*
X161217333Y-79698889D01*
X161217333Y-82117000D01*
G36*
X158560388Y-80222584D02*
X158571500Y-81757167D01*
X158730250Y-81770306D01*
X158832510Y-81784123D01*
X158877505Y-81820353D01*
X158888713Y-81905606D01*
X158889000Y-81950222D01*
X158889000Y-82117000D01*
X158685638Y-82117000D01*
X158546476Y-82107497D01*
X158448228Y-82067245D01*
X158348165Y-81978632D01*
X158346971Y-81977401D01*
X158211667Y-81837803D01*
X158211667Y-78688000D01*
X158549277Y-78688000D01*
X158560388Y-80222584D01*
X158560388Y-80222584D01*
G37*
X158560388Y-80222584D02*
X158571500Y-81757167D01*
X158730250Y-81770306D01*
X158832510Y-81784123D01*
X158877505Y-81820353D01*
X158888713Y-81905606D01*
X158889000Y-81950222D01*
X158889000Y-82117000D01*
X158685638Y-82117000D01*
X158546476Y-82107497D01*
X158448228Y-82067245D01*
X158348165Y-81978632D01*
X158346971Y-81977401D01*
X158211667Y-81837803D01*
X158211667Y-78688000D01*
X158549277Y-78688000D01*
X158560388Y-80222584D01*
G36*
X155893388Y-80222584D02*
X155904500Y-81757167D01*
X156063250Y-81770306D01*
X156165510Y-81784123D01*
X156210505Y-81820353D01*
X156221713Y-81905606D01*
X156222000Y-81950222D01*
X156222000Y-82117000D01*
X155997087Y-82117000D01*
X155852094Y-82109612D01*
X155755897Y-82079221D01*
X155673300Y-82013488D01*
X155658420Y-81998267D01*
X155544667Y-81879534D01*
X155544667Y-78688000D01*
X155882277Y-78688000D01*
X155893388Y-80222584D01*
X155893388Y-80222584D01*
G37*
X155893388Y-80222584D02*
X155904500Y-81757167D01*
X156063250Y-81770306D01*
X156165510Y-81784123D01*
X156210505Y-81820353D01*
X156221713Y-81905606D01*
X156222000Y-81950222D01*
X156222000Y-82117000D01*
X155997087Y-82117000D01*
X155852094Y-82109612D01*
X155755897Y-82079221D01*
X155673300Y-82013488D01*
X155658420Y-81998267D01*
X155544667Y-81879534D01*
X155544667Y-78688000D01*
X155882277Y-78688000D01*
X155893388Y-80222584D01*
G36*
X153174000Y-82117000D02*
X152834015Y-82117000D01*
X152845257Y-80921084D01*
X152856500Y-79725167D01*
X153174000Y-79698889D01*
X153174000Y-82117000D01*
X153174000Y-82117000D01*
G37*
X153174000Y-82117000D02*
X152834015Y-82117000D01*
X152845257Y-80921084D01*
X152856500Y-79725167D01*
X153174000Y-79698889D01*
X153174000Y-82117000D01*
G36*
X172589536Y-79415465D02*
X172986000Y-79804264D01*
X172986000Y-80319506D01*
X172201242Y-81101000D01*
X170956606Y-81101000D01*
X170944719Y-81619584D01*
X170932833Y-82138167D01*
X170783153Y-82150765D01*
X170675277Y-82151387D01*
X170607467Y-82136375D01*
X170603237Y-82133126D01*
X170596314Y-82085262D01*
X170589949Y-81962383D01*
X170584328Y-81774139D01*
X170579636Y-81530181D01*
X170576060Y-81240158D01*
X170573786Y-80913723D01*
X170573000Y-80564778D01*
X170573000Y-79365334D01*
X170954000Y-79365334D01*
X170954000Y-80762334D01*
X172073708Y-80762334D01*
X172360521Y-80477719D01*
X172521287Y-80310030D01*
X172617251Y-80178178D01*
X172648462Y-80063879D01*
X172614967Y-79948845D01*
X172516816Y-79814790D01*
X172362719Y-79652146D01*
X172078104Y-79365334D01*
X170954000Y-79365334D01*
X170573000Y-79365334D01*
X170573000Y-79026667D01*
X172193071Y-79026667D01*
X172589536Y-79415465D01*
X172589536Y-79415465D01*
G37*
X172589536Y-79415465D02*
X172986000Y-79804264D01*
X172986000Y-80319506D01*
X172201242Y-81101000D01*
X170956606Y-81101000D01*
X170944719Y-81619584D01*
X170932833Y-82138167D01*
X170783153Y-82150765D01*
X170675277Y-82151387D01*
X170607467Y-82136375D01*
X170603237Y-82133126D01*
X170596314Y-82085262D01*
X170589949Y-81962383D01*
X170584328Y-81774139D01*
X170579636Y-81530181D01*
X170576060Y-81240158D01*
X170573786Y-80913723D01*
X170573000Y-80564778D01*
X170573000Y-79365334D01*
X170954000Y-79365334D01*
X170954000Y-80762334D01*
X172073708Y-80762334D01*
X172360521Y-80477719D01*
X172521287Y-80310030D01*
X172617251Y-80178178D01*
X172648462Y-80063879D01*
X172614967Y-79948845D01*
X172516816Y-79814790D01*
X172362719Y-79652146D01*
X172078104Y-79365334D01*
X170954000Y-79365334D01*
X170573000Y-79365334D01*
X170573000Y-79026667D01*
X172193071Y-79026667D01*
X172589536Y-79415465D01*
G36*
X151523000Y-81718016D02*
X151320462Y-81917508D01*
X151204904Y-82019423D01*
X151100967Y-82090677D01*
X151034712Y-82115157D01*
X150969659Y-82086880D01*
X150861319Y-82012185D01*
X150727015Y-81903773D01*
X150634284Y-81821505D01*
X150317068Y-81529696D01*
X149993562Y-81844515D01*
X149858558Y-81973441D01*
X149745507Y-82076823D01*
X149668150Y-82142373D01*
X149641494Y-82159334D01*
X149599096Y-82132243D01*
X149513291Y-82060668D01*
X149401367Y-81959156D01*
X149382632Y-81941526D01*
X149152333Y-81723719D01*
X149152333Y-79021556D01*
X149469833Y-79047834D01*
X149481059Y-80315210D01*
X149484757Y-80681413D01*
X149489021Y-80972245D01*
X149494416Y-81197005D01*
X149501510Y-81364988D01*
X149510869Y-81485491D01*
X149523059Y-81567810D01*
X149538648Y-81621243D01*
X149558201Y-81655087D01*
X149563066Y-81660800D01*
X149600010Y-81694821D01*
X149638334Y-81700551D01*
X149692712Y-81669888D01*
X149777822Y-81594726D01*
X149901091Y-81474146D01*
X150168333Y-81209279D01*
X150168333Y-80423667D01*
X150507000Y-80423667D01*
X150507000Y-81209279D01*
X150774242Y-81474146D01*
X150902334Y-81599299D01*
X150985699Y-81672224D01*
X151039012Y-81701027D01*
X151076948Y-81693809D01*
X151112267Y-81660800D01*
X151132763Y-81630005D01*
X151149171Y-81581655D01*
X151162057Y-81506455D01*
X151171987Y-81395106D01*
X151179528Y-81238313D01*
X151185247Y-81026779D01*
X151189710Y-80751206D01*
X151193484Y-80402299D01*
X151194274Y-80315210D01*
X151205500Y-79047834D01*
X151523000Y-79021556D01*
X151523000Y-81718016D01*
X151523000Y-81718016D01*
G37*
X151523000Y-81718016D02*
X151320462Y-81917508D01*
X151204904Y-82019423D01*
X151100967Y-82090677D01*
X151034712Y-82115157D01*
X150969659Y-82086880D01*
X150861319Y-82012185D01*
X150727015Y-81903773D01*
X150634284Y-81821505D01*
X150317068Y-81529696D01*
X149993562Y-81844515D01*
X149858558Y-81973441D01*
X149745507Y-82076823D01*
X149668150Y-82142373D01*
X149641494Y-82159334D01*
X149599096Y-82132243D01*
X149513291Y-82060668D01*
X149401367Y-81959156D01*
X149382632Y-81941526D01*
X149152333Y-81723719D01*
X149152333Y-79021556D01*
X149469833Y-79047834D01*
X149481059Y-80315210D01*
X149484757Y-80681413D01*
X149489021Y-80972245D01*
X149494416Y-81197005D01*
X149501510Y-81364988D01*
X149510869Y-81485491D01*
X149523059Y-81567810D01*
X149538648Y-81621243D01*
X149558201Y-81655087D01*
X149563066Y-81660800D01*
X149600010Y-81694821D01*
X149638334Y-81700551D01*
X149692712Y-81669888D01*
X149777822Y-81594726D01*
X149901091Y-81474146D01*
X150168333Y-81209279D01*
X150168333Y-80423667D01*
X150507000Y-80423667D01*
X150507000Y-81209279D01*
X150774242Y-81474146D01*
X150902334Y-81599299D01*
X150985699Y-81672224D01*
X151039012Y-81701027D01*
X151076948Y-81693809D01*
X151112267Y-81660800D01*
X151132763Y-81630005D01*
X151149171Y-81581655D01*
X151162057Y-81506455D01*
X151171987Y-81395106D01*
X151179528Y-81238313D01*
X151185247Y-81026779D01*
X151189710Y-80751206D01*
X151193484Y-80402299D01*
X151194274Y-80315210D01*
X151205500Y-79047834D01*
X151523000Y-79021556D01*
X151523000Y-81718016D01*
G36*
X181095387Y-78692074D02*
X181143549Y-78720588D01*
X181155926Y-78797985D01*
X181156333Y-78857334D01*
X181152260Y-78965721D01*
X181123745Y-79013882D01*
X181046348Y-79026260D01*
X180987000Y-79026667D01*
X180878613Y-79022593D01*
X180830451Y-78994079D01*
X180818074Y-78916682D01*
X180817667Y-78857334D01*
X180821740Y-78748946D01*
X180850255Y-78700785D01*
X180927652Y-78688407D01*
X180987000Y-78688000D01*
X181095387Y-78692074D01*
X181095387Y-78692074D01*
G37*
X181095387Y-78692074D02*
X181143549Y-78720588D01*
X181155926Y-78797985D01*
X181156333Y-78857334D01*
X181152260Y-78965721D01*
X181123745Y-79013882D01*
X181046348Y-79026260D01*
X180987000Y-79026667D01*
X180878613Y-79022593D01*
X180830451Y-78994079D01*
X180818074Y-78916682D01*
X180817667Y-78857334D01*
X180821740Y-78748946D01*
X180850255Y-78700785D01*
X180927652Y-78688407D01*
X180987000Y-78688000D01*
X181095387Y-78692074D01*
G36*
X161156387Y-78692074D02*
X161204549Y-78720588D01*
X161216926Y-78797985D01*
X161217333Y-78857334D01*
X161213260Y-78965721D01*
X161184745Y-79013882D01*
X161107348Y-79026260D01*
X161048000Y-79026667D01*
X160939613Y-79022593D01*
X160891451Y-78994079D01*
X160879074Y-78916682D01*
X160878667Y-78857334D01*
X160882740Y-78748946D01*
X160911255Y-78700785D01*
X160988652Y-78688407D01*
X161048000Y-78688000D01*
X161156387Y-78692074D01*
X161156387Y-78692074D01*
G37*
X161156387Y-78692074D02*
X161204549Y-78720588D01*
X161216926Y-78797985D01*
X161217333Y-78857334D01*
X161213260Y-78965721D01*
X161184745Y-79013882D01*
X161107348Y-79026260D01*
X161048000Y-79026667D01*
X160939613Y-79022593D01*
X160891451Y-78994079D01*
X160879074Y-78916682D01*
X160878667Y-78857334D01*
X160882740Y-78748946D01*
X160911255Y-78700785D01*
X160988652Y-78688407D01*
X161048000Y-78688000D01*
X161156387Y-78692074D01*
G36*
X153113054Y-78692074D02*
X153161215Y-78720588D01*
X153173593Y-78797985D01*
X153174000Y-78857334D01*
X153169926Y-78965721D01*
X153141412Y-79013882D01*
X153064015Y-79026260D01*
X153004667Y-79026667D01*
X152896279Y-79022593D01*
X152848118Y-78994079D01*
X152835740Y-78916682D01*
X152835333Y-78857334D01*
X152839407Y-78748946D01*
X152867921Y-78700785D01*
X152945318Y-78688407D01*
X153004667Y-78688000D01*
X153113054Y-78692074D01*
X153113054Y-78692074D01*
G37*
X153113054Y-78692074D02*
X153161215Y-78720588D01*
X153173593Y-78797985D01*
X153174000Y-78857334D01*
X153169926Y-78965721D01*
X153141412Y-79013882D01*
X153064015Y-79026260D01*
X153004667Y-79026667D01*
X152896279Y-79022593D01*
X152848118Y-78994079D01*
X152835740Y-78916682D01*
X152835333Y-78857334D01*
X152839407Y-78748946D01*
X152867921Y-78700785D01*
X152945318Y-78688407D01*
X153004667Y-78688000D01*
X153113054Y-78692074D01*
G36*
X194533667Y-79700576D02*
X194882917Y-79712871D01*
X195232167Y-79725167D01*
X195245184Y-79905084D01*
X195258201Y-80085000D01*
X194533667Y-80085000D01*
X194534315Y-80878750D01*
X194536133Y-81131653D01*
X194540799Y-81356631D01*
X194547771Y-81539485D01*
X194556510Y-81666019D01*
X194566435Y-81721973D01*
X194626669Y-81759068D01*
X194731998Y-81783976D01*
X194745703Y-81785473D01*
X194843636Y-81802462D01*
X194888368Y-81846507D01*
X194905519Y-81945112D01*
X194906639Y-81958250D01*
X194919777Y-82117000D01*
X194688774Y-82117000D01*
X194548109Y-82111612D01*
X194456652Y-82085746D01*
X194379155Y-82024844D01*
X194326385Y-81967360D01*
X194195000Y-81817721D01*
X194195000Y-80085000D01*
X193517667Y-80085000D01*
X193517667Y-79704000D01*
X194195000Y-79704000D01*
X194195000Y-78688000D01*
X194533667Y-78688000D01*
X194533667Y-79700576D01*
X194533667Y-79700576D01*
G37*
X194533667Y-79700576D02*
X194882917Y-79712871D01*
X195232167Y-79725167D01*
X195245184Y-79905084D01*
X195258201Y-80085000D01*
X194533667Y-80085000D01*
X194534315Y-80878750D01*
X194536133Y-81131653D01*
X194540799Y-81356631D01*
X194547771Y-81539485D01*
X194556510Y-81666019D01*
X194566435Y-81721973D01*
X194626669Y-81759068D01*
X194731998Y-81783976D01*
X194745703Y-81785473D01*
X194843636Y-81802462D01*
X194888368Y-81846507D01*
X194905519Y-81945112D01*
X194906639Y-81958250D01*
X194919777Y-82117000D01*
X194688774Y-82117000D01*
X194548109Y-82111612D01*
X194456652Y-82085746D01*
X194379155Y-82024844D01*
X194326385Y-81967360D01*
X194195000Y-81817721D01*
X194195000Y-80085000D01*
X193517667Y-80085000D01*
X193517667Y-79704000D01*
X194195000Y-79704000D01*
X194195000Y-78688000D01*
X194533667Y-78688000D01*
X194533667Y-79700576D01*
G36*
X190885193Y-79778205D02*
X191030930Y-79867539D01*
X191117061Y-80004917D01*
X191123532Y-80027403D01*
X191151912Y-80140479D01*
X191351993Y-79943406D01*
X191459686Y-79840448D01*
X191541302Y-79781556D01*
X191627851Y-79754421D01*
X191750340Y-79746733D01*
X191848400Y-79746334D01*
X192144725Y-79746334D01*
X192365529Y-79969915D01*
X192498856Y-80118137D01*
X192569514Y-80232134D01*
X192586333Y-80308581D01*
X192578384Y-80382525D01*
X192538491Y-80415399D01*
X192442586Y-80423560D01*
X192417000Y-80423667D01*
X192293377Y-80410526D01*
X192247859Y-80371688D01*
X192247667Y-80368087D01*
X192219215Y-80304831D01*
X192148823Y-80218594D01*
X192128933Y-80198754D01*
X192001958Y-80111305D01*
X191849467Y-80085036D01*
X191841960Y-80085000D01*
X191753443Y-80091290D01*
X191676497Y-80118252D01*
X191591407Y-80178025D01*
X191478458Y-80282746D01*
X191410360Y-80350722D01*
X191147000Y-80616445D01*
X191147000Y-82117000D01*
X190808333Y-82117000D01*
X190808333Y-81148517D01*
X190807865Y-80826380D01*
X190805248Y-80578687D01*
X190798660Y-80395213D01*
X190786283Y-80265738D01*
X190766296Y-80180037D01*
X190736878Y-80127889D01*
X190696210Y-80099069D01*
X190642471Y-80083356D01*
X190617833Y-80078620D01*
X190555909Y-80043118D01*
X190525396Y-79952512D01*
X190520028Y-79904731D01*
X190506889Y-79746334D01*
X190694235Y-79746334D01*
X190885193Y-79778205D01*
X190885193Y-79778205D01*
G37*
X190885193Y-79778205D02*
X191030930Y-79867539D01*
X191117061Y-80004917D01*
X191123532Y-80027403D01*
X191151912Y-80140479D01*
X191351993Y-79943406D01*
X191459686Y-79840448D01*
X191541302Y-79781556D01*
X191627851Y-79754421D01*
X191750340Y-79746733D01*
X191848400Y-79746334D01*
X192144725Y-79746334D01*
X192365529Y-79969915D01*
X192498856Y-80118137D01*
X192569514Y-80232134D01*
X192586333Y-80308581D01*
X192578384Y-80382525D01*
X192538491Y-80415399D01*
X192442586Y-80423560D01*
X192417000Y-80423667D01*
X192293377Y-80410526D01*
X192247859Y-80371688D01*
X192247667Y-80368087D01*
X192219215Y-80304831D01*
X192148823Y-80218594D01*
X192128933Y-80198754D01*
X192001958Y-80111305D01*
X191849467Y-80085036D01*
X191841960Y-80085000D01*
X191753443Y-80091290D01*
X191676497Y-80118252D01*
X191591407Y-80178025D01*
X191478458Y-80282746D01*
X191410360Y-80350722D01*
X191147000Y-80616445D01*
X191147000Y-82117000D01*
X190808333Y-82117000D01*
X190808333Y-81148517D01*
X190807865Y-80826380D01*
X190805248Y-80578687D01*
X190798660Y-80395213D01*
X190786283Y-80265738D01*
X190766296Y-80180037D01*
X190736878Y-80127889D01*
X190696210Y-80099069D01*
X190642471Y-80083356D01*
X190617833Y-80078620D01*
X190555909Y-80043118D01*
X190525396Y-79952512D01*
X190520028Y-79904731D01*
X190506889Y-79746334D01*
X190694235Y-79746334D01*
X190885193Y-79778205D01*
G36*
X188847274Y-79705500D02*
X189086307Y-79708491D01*
X189260131Y-79720352D01*
X189388177Y-79747918D01*
X189489876Y-79798025D01*
X189584662Y-79877508D01*
X189691966Y-79993201D01*
X189703961Y-80006830D01*
X189877000Y-80203826D01*
X189877000Y-81101000D01*
X188183667Y-81101000D01*
X188183667Y-81342100D01*
X188190397Y-81493610D01*
X188217683Y-81594690D01*
X188276163Y-81678995D01*
X188297420Y-81701934D01*
X188411174Y-81820667D01*
X189877000Y-81820667D01*
X189877000Y-82117000D01*
X188264706Y-82117000D01*
X187845000Y-81724414D01*
X187845000Y-80542400D01*
X188183667Y-80542400D01*
X188183667Y-80762334D01*
X189538333Y-80762334D01*
X189538333Y-80548953D01*
X189519285Y-80364822D01*
X189456167Y-80224973D01*
X189445705Y-80210286D01*
X189353078Y-80085000D01*
X188882126Y-80085000D01*
X188676109Y-80085864D01*
X188536426Y-80090937D01*
X188444745Y-80103942D01*
X188382734Y-80128602D01*
X188332062Y-80168639D01*
X188297420Y-80203733D01*
X188225451Y-80296307D01*
X188191699Y-80399983D01*
X188183667Y-80542400D01*
X187845000Y-80542400D01*
X187845000Y-80182555D01*
X188095857Y-79943277D01*
X188346714Y-79704000D01*
X188847274Y-79705500D01*
X188847274Y-79705500D01*
G37*
X188847274Y-79705500D02*
X189086307Y-79708491D01*
X189260131Y-79720352D01*
X189388177Y-79747918D01*
X189489876Y-79798025D01*
X189584662Y-79877508D01*
X189691966Y-79993201D01*
X189703961Y-80006830D01*
X189877000Y-80203826D01*
X189877000Y-81101000D01*
X188183667Y-81101000D01*
X188183667Y-81342100D01*
X188190397Y-81493610D01*
X188217683Y-81594690D01*
X188276163Y-81678995D01*
X188297420Y-81701934D01*
X188411174Y-81820667D01*
X189877000Y-81820667D01*
X189877000Y-82117000D01*
X188264706Y-82117000D01*
X187845000Y-81724414D01*
X187845000Y-80542400D01*
X188183667Y-80542400D01*
X188183667Y-80762334D01*
X189538333Y-80762334D01*
X189538333Y-80548953D01*
X189519285Y-80364822D01*
X189456167Y-80224973D01*
X189445705Y-80210286D01*
X189353078Y-80085000D01*
X188882126Y-80085000D01*
X188676109Y-80085864D01*
X188536426Y-80090937D01*
X188444745Y-80103942D01*
X188382734Y-80128602D01*
X188332062Y-80168639D01*
X188297420Y-80203733D01*
X188225451Y-80296307D01*
X188191699Y-80399983D01*
X188183667Y-80542400D01*
X187845000Y-80542400D01*
X187845000Y-80182555D01*
X188095857Y-79943277D01*
X188346714Y-79704000D01*
X188847274Y-79705500D01*
G36*
X185516667Y-80762334D02*
X185962490Y-80762334D01*
X186468358Y-80255144D01*
X186974226Y-79747955D01*
X187093133Y-79861875D01*
X187212040Y-79975796D01*
X186264250Y-80926282D01*
X186715958Y-81397676D01*
X186871699Y-81562171D01*
X187004217Y-81705889D01*
X187103408Y-81817572D01*
X187159169Y-81885963D01*
X187167667Y-81900989D01*
X187139568Y-81948506D01*
X187070645Y-82023338D01*
X187057820Y-82035538D01*
X186947973Y-82138167D01*
X186454570Y-81618246D01*
X185961167Y-81098324D01*
X185516667Y-81101000D01*
X185516667Y-82117000D01*
X185135667Y-82117000D01*
X185135667Y-78688000D01*
X185516667Y-78688000D01*
X185516667Y-80762334D01*
X185516667Y-80762334D01*
G37*
X185516667Y-80762334D02*
X185962490Y-80762334D01*
X186468358Y-80255144D01*
X186974226Y-79747955D01*
X187093133Y-79861875D01*
X187212040Y-79975796D01*
X186264250Y-80926282D01*
X186715958Y-81397676D01*
X186871699Y-81562171D01*
X187004217Y-81705889D01*
X187103408Y-81817572D01*
X187159169Y-81885963D01*
X187167667Y-81900989D01*
X187139568Y-81948506D01*
X187070645Y-82023338D01*
X187057820Y-82035538D01*
X186947973Y-82138167D01*
X186454570Y-81618246D01*
X185961167Y-81098324D01*
X185516667Y-81101000D01*
X185516667Y-82117000D01*
X185135667Y-82117000D01*
X185135667Y-78688000D01*
X185516667Y-78688000D01*
X185516667Y-80762334D01*
G36*
X184521833Y-80063834D02*
X183950333Y-80075636D01*
X183378833Y-80087439D01*
X182807333Y-80654229D01*
X182807333Y-81209104D01*
X183093083Y-81492500D01*
X183378833Y-81775895D01*
X183950333Y-81787698D01*
X184521833Y-81799500D01*
X184548111Y-82117000D01*
X183250161Y-82117000D01*
X182859414Y-81724621D01*
X182468667Y-81332243D01*
X182468667Y-80527828D01*
X182861045Y-80137081D01*
X183253424Y-79746334D01*
X184548111Y-79746334D01*
X184521833Y-80063834D01*
X184521833Y-80063834D01*
G37*
X184521833Y-80063834D02*
X183950333Y-80075636D01*
X183378833Y-80087439D01*
X182807333Y-80654229D01*
X182807333Y-81209104D01*
X183093083Y-81492500D01*
X183378833Y-81775895D01*
X183950333Y-81787698D01*
X184521833Y-81799500D01*
X184548111Y-82117000D01*
X183250161Y-82117000D01*
X182859414Y-81724621D01*
X182468667Y-81332243D01*
X182468667Y-80527828D01*
X182861045Y-80137081D01*
X183253424Y-79746334D01*
X184548111Y-79746334D01*
X184521833Y-80063834D01*
G36*
X181135167Y-79725167D02*
X181146409Y-80921084D01*
X181157652Y-82117000D01*
X180817667Y-82117000D01*
X180817667Y-79698889D01*
X181135167Y-79725167D01*
X181135167Y-79725167D01*
G37*
X181135167Y-79725167D02*
X181146409Y-80921084D01*
X181157652Y-82117000D01*
X180817667Y-82117000D01*
X180817667Y-79698889D01*
X181135167Y-79725167D01*
G36*
X178055417Y-79027594D02*
X179018500Y-79028520D01*
X179261917Y-79256805D01*
X179505333Y-79485089D01*
X179505333Y-80302962D01*
X179296474Y-80522064D01*
X179087615Y-80741167D01*
X178742683Y-80762334D01*
X178397751Y-80783500D01*
X178951542Y-81361695D01*
X179172123Y-81595822D01*
X179334052Y-81778050D01*
X179440551Y-81914269D01*
X179494843Y-82010371D01*
X179500152Y-82072249D01*
X179459700Y-82105793D01*
X179376710Y-82116896D01*
X179364709Y-82117000D01*
X179313350Y-82111576D01*
X179257552Y-82090458D01*
X179188592Y-82046381D01*
X179097745Y-81972076D01*
X178976287Y-81860278D01*
X178815493Y-81703719D01*
X178606638Y-81495132D01*
X178551515Y-81439667D01*
X177878945Y-80762334D01*
X177431000Y-80762334D01*
X177431000Y-82117000D01*
X177092333Y-82117000D01*
X177092333Y-79365334D01*
X177431000Y-79365334D01*
X177431000Y-80423667D01*
X178887469Y-80423667D01*
X179027068Y-80288362D01*
X179106374Y-80203193D01*
X179148238Y-80123473D01*
X179164382Y-80016483D01*
X179166667Y-79898794D01*
X179161701Y-79748227D01*
X179139127Y-79648589D01*
X179087432Y-79566362D01*
X179031362Y-79504932D01*
X178896058Y-79365334D01*
X177431000Y-79365334D01*
X177092333Y-79365334D01*
X177092333Y-79026667D01*
X178055417Y-79027594D01*
X178055417Y-79027594D01*
G37*
X178055417Y-79027594D02*
X179018500Y-79028520D01*
X179261917Y-79256805D01*
X179505333Y-79485089D01*
X179505333Y-80302962D01*
X179296474Y-80522064D01*
X179087615Y-80741167D01*
X178742683Y-80762334D01*
X178397751Y-80783500D01*
X178951542Y-81361695D01*
X179172123Y-81595822D01*
X179334052Y-81778050D01*
X179440551Y-81914269D01*
X179494843Y-82010371D01*
X179500152Y-82072249D01*
X179459700Y-82105793D01*
X179376710Y-82116896D01*
X179364709Y-82117000D01*
X179313350Y-82111576D01*
X179257552Y-82090458D01*
X179188592Y-82046381D01*
X179097745Y-81972076D01*
X178976287Y-81860278D01*
X178815493Y-81703719D01*
X178606638Y-81495132D01*
X178551515Y-81439667D01*
X177878945Y-80762334D01*
X177431000Y-80762334D01*
X177431000Y-82117000D01*
X177092333Y-82117000D01*
X177092333Y-79365334D01*
X177431000Y-79365334D01*
X177431000Y-80423667D01*
X178887469Y-80423667D01*
X179027068Y-80288362D01*
X179106374Y-80203193D01*
X179148238Y-80123473D01*
X179164382Y-80016483D01*
X179166667Y-79898794D01*
X179161701Y-79748227D01*
X179139127Y-79648589D01*
X179087432Y-79566362D01*
X179031362Y-79504932D01*
X178896058Y-79365334D01*
X177431000Y-79365334D01*
X177092333Y-79365334D01*
X177092333Y-79026667D01*
X178055417Y-79027594D01*
G36*
X174637000Y-82117000D02*
X173959667Y-82117000D01*
X173959667Y-81439667D01*
X174637000Y-81439667D01*
X174637000Y-82117000D01*
X174637000Y-82117000D01*
G37*
X174637000Y-82117000D02*
X173959667Y-82117000D01*
X173959667Y-81439667D01*
X174637000Y-81439667D01*
X174637000Y-82117000D01*
G36*
X166069688Y-79733132D02*
X166165678Y-79754188D01*
X166247698Y-79807552D01*
X166307937Y-79863076D01*
X166450202Y-80000985D01*
X166572188Y-79873659D01*
X166650670Y-79801461D01*
X166729408Y-79763167D01*
X166839572Y-79748340D01*
X166952428Y-79746334D01*
X167093265Y-79749359D01*
X167188503Y-79767597D01*
X167269194Y-79814784D01*
X167366389Y-79904663D01*
X167410175Y-79948871D01*
X167609667Y-80151408D01*
X167609667Y-82117000D01*
X167271000Y-82117000D01*
X167271000Y-81193046D01*
X167270750Y-80890627D01*
X167269260Y-80661347D01*
X167265417Y-80493680D01*
X167258110Y-80376099D01*
X167246228Y-80297077D01*
X167228660Y-80245088D01*
X167204292Y-80208605D01*
X167173021Y-80177046D01*
X167034896Y-80097698D01*
X166884566Y-80097784D01*
X166737125Y-80176592D01*
X166712400Y-80198754D01*
X166593667Y-80312507D01*
X166593667Y-82117000D01*
X166255000Y-82117000D01*
X166255000Y-81223952D01*
X166254511Y-80924914D01*
X166252345Y-80698342D01*
X166247450Y-80532037D01*
X166238774Y-80413801D01*
X166225268Y-80331435D01*
X166205878Y-80272740D01*
X166179556Y-80225518D01*
X166167451Y-80207952D01*
X166053096Y-80107566D01*
X165916785Y-80084352D01*
X165771963Y-80138573D01*
X165696400Y-80198754D01*
X165577667Y-80312507D01*
X165577667Y-82117000D01*
X165239000Y-82117000D01*
X165239000Y-79741477D01*
X165461250Y-79740560D01*
X165641104Y-79738585D01*
X165841258Y-79734636D01*
X165924585Y-79732405D01*
X166069688Y-79733132D01*
X166069688Y-79733132D01*
G37*
X166069688Y-79733132D02*
X166165678Y-79754188D01*
X166247698Y-79807552D01*
X166307937Y-79863076D01*
X166450202Y-80000985D01*
X166572188Y-79873659D01*
X166650670Y-79801461D01*
X166729408Y-79763167D01*
X166839572Y-79748340D01*
X166952428Y-79746334D01*
X167093265Y-79749359D01*
X167188503Y-79767597D01*
X167269194Y-79814784D01*
X167366389Y-79904663D01*
X167410175Y-79948871D01*
X167609667Y-80151408D01*
X167609667Y-82117000D01*
X167271000Y-82117000D01*
X167271000Y-81193046D01*
X167270750Y-80890627D01*
X167269260Y-80661347D01*
X167265417Y-80493680D01*
X167258110Y-80376099D01*
X167246228Y-80297077D01*
X167228660Y-80245088D01*
X167204292Y-80208605D01*
X167173021Y-80177046D01*
X167034896Y-80097698D01*
X166884566Y-80097784D01*
X166737125Y-80176592D01*
X166712400Y-80198754D01*
X166593667Y-80312507D01*
X166593667Y-82117000D01*
X166255000Y-82117000D01*
X166255000Y-81223952D01*
X166254511Y-80924914D01*
X166252345Y-80698342D01*
X166247450Y-80532037D01*
X166238774Y-80413801D01*
X166225268Y-80331435D01*
X166205878Y-80272740D01*
X166179556Y-80225518D01*
X166167451Y-80207952D01*
X166053096Y-80107566D01*
X165916785Y-80084352D01*
X165771963Y-80138573D01*
X165696400Y-80198754D01*
X165577667Y-80312507D01*
X165577667Y-82117000D01*
X165239000Y-82117000D01*
X165239000Y-79741477D01*
X165461250Y-79740560D01*
X165641104Y-79738585D01*
X165841258Y-79734636D01*
X165924585Y-79732405D01*
X166069688Y-79733132D01*
G36*
X164395081Y-79944269D02*
X164604000Y-80163372D01*
X164604000Y-81820667D01*
X164773333Y-81820667D01*
X164881751Y-81825152D01*
X164929933Y-81852848D01*
X164942288Y-81925113D01*
X164942667Y-81968834D01*
X164942667Y-82117000D01*
X162960846Y-82117000D01*
X162766423Y-81900755D01*
X162663001Y-81781195D01*
X162604793Y-81691111D01*
X162578837Y-81598461D01*
X162572472Y-81476893D01*
X162910371Y-81476893D01*
X162970384Y-81634557D01*
X163024420Y-81701934D01*
X163079788Y-81753770D01*
X163139838Y-81789687D01*
X163218813Y-81811208D01*
X163330957Y-81819854D01*
X163490511Y-81817149D01*
X163711718Y-81804615D01*
X163877830Y-81793161D01*
X164265333Y-81765655D01*
X164265333Y-81058667D01*
X163706733Y-81058667D01*
X163479407Y-81059288D01*
X163320341Y-81062988D01*
X163213128Y-81072522D01*
X163141363Y-81090646D01*
X163088639Y-81120115D01*
X163038550Y-81163684D01*
X163029400Y-81172420D01*
X162930091Y-81317716D01*
X162910371Y-81476893D01*
X162572472Y-81476893D01*
X162572174Y-81471202D01*
X162572000Y-81420062D01*
X162572000Y-81155615D01*
X162802299Y-80937808D01*
X163032598Y-80720000D01*
X164265333Y-80720000D01*
X164265333Y-80495087D01*
X164257945Y-80350094D01*
X164227554Y-80253897D01*
X164161821Y-80171300D01*
X164146600Y-80156420D01*
X164096464Y-80111078D01*
X164046502Y-80079737D01*
X163980784Y-80059813D01*
X163883378Y-80048722D01*
X163738353Y-80043877D01*
X163529776Y-80042694D01*
X163445545Y-80042667D01*
X162863222Y-80042667D01*
X162889500Y-79725167D01*
X164186161Y-79725167D01*
X164395081Y-79944269D01*
X164395081Y-79944269D01*
G37*
X164395081Y-79944269D02*
X164604000Y-80163372D01*
X164604000Y-81820667D01*
X164773333Y-81820667D01*
X164881751Y-81825152D01*
X164929933Y-81852848D01*
X164942288Y-81925113D01*
X164942667Y-81968834D01*
X164942667Y-82117000D01*
X162960846Y-82117000D01*
X162766423Y-81900755D01*
X162663001Y-81781195D01*
X162604793Y-81691111D01*
X162578837Y-81598461D01*
X162572472Y-81476893D01*
X162910371Y-81476893D01*
X162970384Y-81634557D01*
X163024420Y-81701934D01*
X163079788Y-81753770D01*
X163139838Y-81789687D01*
X163218813Y-81811208D01*
X163330957Y-81819854D01*
X163490511Y-81817149D01*
X163711718Y-81804615D01*
X163877830Y-81793161D01*
X164265333Y-81765655D01*
X164265333Y-81058667D01*
X163706733Y-81058667D01*
X163479407Y-81059288D01*
X163320341Y-81062988D01*
X163213128Y-81072522D01*
X163141363Y-81090646D01*
X163088639Y-81120115D01*
X163038550Y-81163684D01*
X163029400Y-81172420D01*
X162930091Y-81317716D01*
X162910371Y-81476893D01*
X162572472Y-81476893D01*
X162572174Y-81471202D01*
X162572000Y-81420062D01*
X162572000Y-81155615D01*
X162802299Y-80937808D01*
X163032598Y-80720000D01*
X164265333Y-80720000D01*
X164265333Y-80495087D01*
X164257945Y-80350094D01*
X164227554Y-80253897D01*
X164161821Y-80171300D01*
X164146600Y-80156420D01*
X164096464Y-80111078D01*
X164046502Y-80079737D01*
X163980784Y-80059813D01*
X163883378Y-80048722D01*
X163738353Y-80043877D01*
X163529776Y-80042694D01*
X163445545Y-80042667D01*
X162863222Y-80042667D01*
X162889500Y-79725167D01*
X164186161Y-79725167D01*
X164395081Y-79944269D01*
G36*
X161217333Y-82117000D02*
X160877348Y-82117000D01*
X160888591Y-80921084D01*
X160899833Y-79725167D01*
X161217333Y-79698889D01*
X161217333Y-82117000D01*
X161217333Y-82117000D01*
G37*
X161217333Y-82117000D02*
X160877348Y-82117000D01*
X160888591Y-80921084D01*
X160899833Y-79725167D01*
X161217333Y-79698889D01*
X161217333Y-82117000D01*
G36*
X158560388Y-80222584D02*
X158571500Y-81757167D01*
X158730250Y-81770306D01*
X158832510Y-81784123D01*
X158877505Y-81820353D01*
X158888713Y-81905606D01*
X158889000Y-81950222D01*
X158889000Y-82117000D01*
X158685638Y-82117000D01*
X158546476Y-82107497D01*
X158448228Y-82067245D01*
X158348165Y-81978632D01*
X158346971Y-81977401D01*
X158211667Y-81837803D01*
X158211667Y-78688000D01*
X158549277Y-78688000D01*
X158560388Y-80222584D01*
X158560388Y-80222584D01*
G37*
X158560388Y-80222584D02*
X158571500Y-81757167D01*
X158730250Y-81770306D01*
X158832510Y-81784123D01*
X158877505Y-81820353D01*
X158888713Y-81905606D01*
X158889000Y-81950222D01*
X158889000Y-82117000D01*
X158685638Y-82117000D01*
X158546476Y-82107497D01*
X158448228Y-82067245D01*
X158348165Y-81978632D01*
X158346971Y-81977401D01*
X158211667Y-81837803D01*
X158211667Y-78688000D01*
X158549277Y-78688000D01*
X158560388Y-80222584D01*
G36*
X155893388Y-80222584D02*
X155904500Y-81757167D01*
X156063250Y-81770306D01*
X156165510Y-81784123D01*
X156210505Y-81820353D01*
X156221713Y-81905606D01*
X156222000Y-81950222D01*
X156222000Y-82117000D01*
X155997087Y-82117000D01*
X155852094Y-82109612D01*
X155755897Y-82079221D01*
X155673300Y-82013488D01*
X155658420Y-81998267D01*
X155544667Y-81879534D01*
X155544667Y-78688000D01*
X155882277Y-78688000D01*
X155893388Y-80222584D01*
X155893388Y-80222584D01*
G37*
X155893388Y-80222584D02*
X155904500Y-81757167D01*
X156063250Y-81770306D01*
X156165510Y-81784123D01*
X156210505Y-81820353D01*
X156221713Y-81905606D01*
X156222000Y-81950222D01*
X156222000Y-82117000D01*
X155997087Y-82117000D01*
X155852094Y-82109612D01*
X155755897Y-82079221D01*
X155673300Y-82013488D01*
X155658420Y-81998267D01*
X155544667Y-81879534D01*
X155544667Y-78688000D01*
X155882277Y-78688000D01*
X155893388Y-80222584D01*
G36*
X153174000Y-82117000D02*
X152834015Y-82117000D01*
X152845257Y-80921084D01*
X152856500Y-79725167D01*
X153174000Y-79698889D01*
X153174000Y-82117000D01*
X153174000Y-82117000D01*
G37*
X153174000Y-82117000D02*
X152834015Y-82117000D01*
X152845257Y-80921084D01*
X152856500Y-79725167D01*
X153174000Y-79698889D01*
X153174000Y-82117000D01*
G36*
X172589536Y-79415465D02*
X172986000Y-79804264D01*
X172986000Y-80319506D01*
X172201242Y-81101000D01*
X170956606Y-81101000D01*
X170944719Y-81619584D01*
X170932833Y-82138167D01*
X170783153Y-82150765D01*
X170675277Y-82151387D01*
X170607467Y-82136375D01*
X170603237Y-82133126D01*
X170596314Y-82085262D01*
X170589949Y-81962383D01*
X170584328Y-81774139D01*
X170579636Y-81530181D01*
X170576060Y-81240158D01*
X170573786Y-80913723D01*
X170573000Y-80564778D01*
X170573000Y-79365334D01*
X170954000Y-79365334D01*
X170954000Y-80762334D01*
X172073708Y-80762334D01*
X172360521Y-80477719D01*
X172521287Y-80310030D01*
X172617251Y-80178178D01*
X172648462Y-80063879D01*
X172614967Y-79948845D01*
X172516816Y-79814790D01*
X172362719Y-79652146D01*
X172078104Y-79365334D01*
X170954000Y-79365334D01*
X170573000Y-79365334D01*
X170573000Y-79026667D01*
X172193071Y-79026667D01*
X172589536Y-79415465D01*
X172589536Y-79415465D01*
G37*
X172589536Y-79415465D02*
X172986000Y-79804264D01*
X172986000Y-80319506D01*
X172201242Y-81101000D01*
X170956606Y-81101000D01*
X170944719Y-81619584D01*
X170932833Y-82138167D01*
X170783153Y-82150765D01*
X170675277Y-82151387D01*
X170607467Y-82136375D01*
X170603237Y-82133126D01*
X170596314Y-82085262D01*
X170589949Y-81962383D01*
X170584328Y-81774139D01*
X170579636Y-81530181D01*
X170576060Y-81240158D01*
X170573786Y-80913723D01*
X170573000Y-80564778D01*
X170573000Y-79365334D01*
X170954000Y-79365334D01*
X170954000Y-80762334D01*
X172073708Y-80762334D01*
X172360521Y-80477719D01*
X172521287Y-80310030D01*
X172617251Y-80178178D01*
X172648462Y-80063879D01*
X172614967Y-79948845D01*
X172516816Y-79814790D01*
X172362719Y-79652146D01*
X172078104Y-79365334D01*
X170954000Y-79365334D01*
X170573000Y-79365334D01*
X170573000Y-79026667D01*
X172193071Y-79026667D01*
X172589536Y-79415465D01*
G36*
X151523000Y-81718016D02*
X151320462Y-81917508D01*
X151204904Y-82019423D01*
X151100967Y-82090677D01*
X151034712Y-82115157D01*
X150969659Y-82086880D01*
X150861319Y-82012185D01*
X150727015Y-81903773D01*
X150634284Y-81821505D01*
X150317068Y-81529696D01*
X149993562Y-81844515D01*
X149858558Y-81973441D01*
X149745507Y-82076823D01*
X149668150Y-82142373D01*
X149641494Y-82159334D01*
X149599096Y-82132243D01*
X149513291Y-82060668D01*
X149401367Y-81959156D01*
X149382632Y-81941526D01*
X149152333Y-81723719D01*
X149152333Y-79021556D01*
X149469833Y-79047834D01*
X149481059Y-80315210D01*
X149484757Y-80681413D01*
X149489021Y-80972245D01*
X149494416Y-81197005D01*
X149501510Y-81364988D01*
X149510869Y-81485491D01*
X149523059Y-81567810D01*
X149538648Y-81621243D01*
X149558201Y-81655087D01*
X149563066Y-81660800D01*
X149600010Y-81694821D01*
X149638334Y-81700551D01*
X149692712Y-81669888D01*
X149777822Y-81594726D01*
X149901091Y-81474146D01*
X150168333Y-81209279D01*
X150168333Y-80423667D01*
X150507000Y-80423667D01*
X150507000Y-81209279D01*
X150774242Y-81474146D01*
X150902334Y-81599299D01*
X150985699Y-81672224D01*
X151039012Y-81701027D01*
X151076948Y-81693809D01*
X151112267Y-81660800D01*
X151132763Y-81630005D01*
X151149171Y-81581655D01*
X151162057Y-81506455D01*
X151171987Y-81395106D01*
X151179528Y-81238313D01*
X151185247Y-81026779D01*
X151189710Y-80751206D01*
X151193484Y-80402299D01*
X151194274Y-80315210D01*
X151205500Y-79047834D01*
X151523000Y-79021556D01*
X151523000Y-81718016D01*
X151523000Y-81718016D01*
G37*
X151523000Y-81718016D02*
X151320462Y-81917508D01*
X151204904Y-82019423D01*
X151100967Y-82090677D01*
X151034712Y-82115157D01*
X150969659Y-82086880D01*
X150861319Y-82012185D01*
X150727015Y-81903773D01*
X150634284Y-81821505D01*
X150317068Y-81529696D01*
X149993562Y-81844515D01*
X149858558Y-81973441D01*
X149745507Y-82076823D01*
X149668150Y-82142373D01*
X149641494Y-82159334D01*
X149599096Y-82132243D01*
X149513291Y-82060668D01*
X149401367Y-81959156D01*
X149382632Y-81941526D01*
X149152333Y-81723719D01*
X149152333Y-79021556D01*
X149469833Y-79047834D01*
X149481059Y-80315210D01*
X149484757Y-80681413D01*
X149489021Y-80972245D01*
X149494416Y-81197005D01*
X149501510Y-81364988D01*
X149510869Y-81485491D01*
X149523059Y-81567810D01*
X149538648Y-81621243D01*
X149558201Y-81655087D01*
X149563066Y-81660800D01*
X149600010Y-81694821D01*
X149638334Y-81700551D01*
X149692712Y-81669888D01*
X149777822Y-81594726D01*
X149901091Y-81474146D01*
X150168333Y-81209279D01*
X150168333Y-80423667D01*
X150507000Y-80423667D01*
X150507000Y-81209279D01*
X150774242Y-81474146D01*
X150902334Y-81599299D01*
X150985699Y-81672224D01*
X151039012Y-81701027D01*
X151076948Y-81693809D01*
X151112267Y-81660800D01*
X151132763Y-81630005D01*
X151149171Y-81581655D01*
X151162057Y-81506455D01*
X151171987Y-81395106D01*
X151179528Y-81238313D01*
X151185247Y-81026779D01*
X151189710Y-80751206D01*
X151193484Y-80402299D01*
X151194274Y-80315210D01*
X151205500Y-79047834D01*
X151523000Y-79021556D01*
X151523000Y-81718016D01*
D12*
G04 #@! TO.C,C1*
X123650000Y-103500000D02*
X123650000Y-104500000D01*
X125350000Y-104500000D02*
X125350000Y-103500000D01*
G04 #@! TO.C,C2*
X122350000Y-99000000D02*
X122350000Y-98000000D01*
X120650000Y-98000000D02*
X120650000Y-99000000D01*
G04 #@! TO.C,C3*
X134150000Y-108500000D02*
X134150000Y-109500000D01*
X135850000Y-109500000D02*
X135850000Y-108500000D01*
G04 #@! TO.C,C4*
X132350000Y-109500000D02*
X132350000Y-108500000D01*
X130650000Y-108500000D02*
X130650000Y-109500000D01*
G04 #@! TO.C,C5*
X125350000Y-109500000D02*
X125350000Y-108500000D01*
X123650000Y-108500000D02*
X123650000Y-109500000D01*
G04 #@! TO.C,C6*
X125350000Y-99000000D02*
X125350000Y-98000000D01*
X123650000Y-98000000D02*
X123650000Y-99000000D01*
G04 #@! TO.C,C7*
X128850000Y-109500000D02*
X128850000Y-108500000D01*
X127150000Y-108500000D02*
X127150000Y-109500000D01*
G04 #@! TO.C,C8*
X129650000Y-93500000D02*
X129650000Y-94500000D01*
X131350000Y-94500000D02*
X131350000Y-93500000D01*
G04 #@! TO.C,C9*
X134850000Y-94500000D02*
X134850000Y-93500000D01*
X133150000Y-93500000D02*
X133150000Y-94500000D01*
G04 #@! TO.C,D1*
X148167768Y-92222183D02*
X147177818Y-91232233D01*
X147177818Y-91232233D02*
X145197919Y-93212132D01*
X148167768Y-92222183D02*
X146187869Y-94202082D01*
G04 #@! TO.C,D2*
X162167768Y-107222183D02*
X160187869Y-109202082D01*
X161177818Y-106232233D02*
X159197919Y-108212132D01*
X162167768Y-107222183D02*
X161177818Y-106232233D01*
G04 #@! TO.C,D3*
X148167768Y-107222183D02*
X146187869Y-109202082D01*
X147177818Y-106232233D02*
X145197919Y-108212132D01*
X148167768Y-107222183D02*
X147177818Y-106232233D01*
G04 #@! TO.C,D4*
X162167768Y-92222183D02*
X161177818Y-91232233D01*
X161177818Y-91232233D02*
X159197919Y-93212132D01*
X162167768Y-92222183D02*
X160187869Y-94202082D01*
G04 #@! TO.C,D5*
X155167768Y-99722183D02*
X154177818Y-98732233D01*
X154177818Y-98732233D02*
X152197919Y-100712132D01*
X155167768Y-99722183D02*
X153187869Y-101702082D01*
G04 #@! TO.C,D6*
X148167768Y-99722183D02*
X147177818Y-98732233D01*
X147177818Y-98732233D02*
X145197919Y-100712132D01*
X148167768Y-99722183D02*
X146187869Y-101702082D01*
G04 #@! TO.C,D7*
X162167768Y-99722183D02*
X160187869Y-101702082D01*
X161177818Y-98732233D02*
X159197919Y-100712132D01*
X162167768Y-99722183D02*
X161177818Y-98732233D01*
G04 #@! TO.C,D8*
X174667768Y-92222183D02*
X172687869Y-94202082D01*
X173677818Y-91232233D02*
X171697919Y-93212132D01*
X174667768Y-92222183D02*
X173677818Y-91232233D01*
G04 #@! TO.C,D9*
X188767767Y-107222183D02*
X187777817Y-106232233D01*
X187777817Y-106232233D02*
X185797918Y-108212132D01*
X188767767Y-107222183D02*
X186787868Y-109202082D01*
G04 #@! TO.C,D10*
X174667768Y-107222183D02*
X173677818Y-106232233D01*
X173677818Y-106232233D02*
X171697919Y-108212132D01*
X174667768Y-107222183D02*
X172687869Y-109202082D01*
G04 #@! TO.C,D11*
X188767767Y-92222183D02*
X186787868Y-94202082D01*
X187777817Y-91232233D02*
X185797918Y-93212132D01*
X188767767Y-92222183D02*
X187777817Y-91232233D01*
G04 #@! TO.C,D12*
X181667768Y-99722183D02*
X179687869Y-101702082D01*
X180677818Y-98732233D02*
X178697919Y-100712132D01*
X181667768Y-99722183D02*
X180677818Y-98732233D01*
G04 #@! TO.C,D13*
X174667768Y-99722183D02*
X172687869Y-101702082D01*
X173677818Y-98732233D02*
X171697919Y-100712132D01*
X174667768Y-99722183D02*
X173677818Y-98732233D01*
G04 #@! TO.C,D14*
X188767767Y-99722183D02*
X187777817Y-98732233D01*
X187777817Y-98732233D02*
X185797918Y-100712132D01*
X188767767Y-99722183D02*
X186787868Y-101702082D01*
D13*
G04 #@! TO.C,U1*
X133150000Y-98850000D02*
X133150000Y-99375000D01*
X128850000Y-103150000D02*
X128850000Y-102625000D01*
X133150000Y-103150000D02*
X133150000Y-102625000D01*
X128850000Y-98850000D02*
X129375000Y-98850000D01*
X128850000Y-103150000D02*
X129375000Y-103150000D01*
X133150000Y-103150000D02*
X132625000Y-103150000D01*
X133150000Y-98850000D02*
X132625000Y-98850000D01*
G04 #@! TO.C,L1*
X116788333Y-127074523D02*
X116183571Y-127074523D01*
X116183571Y-125804523D01*
X117876904Y-127074523D02*
X117151190Y-127074523D01*
X117514047Y-127074523D02*
X117514047Y-125804523D01*
X117393095Y-125985952D01*
X117272142Y-126106904D01*
X117151190Y-126167380D01*
X196393095Y-126574523D02*
X195788333Y-126574523D01*
X195788333Y-125304523D01*
G04 #@! TO.C,C1*
X124333333Y-106857142D02*
X124285714Y-106904761D01*
X124142857Y-106952380D01*
X124047619Y-106952380D01*
X123904761Y-106904761D01*
X123809523Y-106809523D01*
X123761904Y-106714285D01*
X123714285Y-106523809D01*
X123714285Y-106380952D01*
X123761904Y-106190476D01*
X123809523Y-106095238D01*
X123904761Y-106000000D01*
X124047619Y-105952380D01*
X124142857Y-105952380D01*
X124285714Y-106000000D01*
X124333333Y-106047619D01*
X125285714Y-106952380D02*
X124714285Y-106952380D01*
X125000000Y-106952380D02*
X125000000Y-105952380D01*
X124904761Y-106095238D01*
X124809523Y-106190476D01*
X124714285Y-106238095D01*
G04 #@! TO.C,C2*
X121333333Y-101357142D02*
X121285714Y-101404761D01*
X121142857Y-101452380D01*
X121047619Y-101452380D01*
X120904761Y-101404761D01*
X120809523Y-101309523D01*
X120761904Y-101214285D01*
X120714285Y-101023809D01*
X120714285Y-100880952D01*
X120761904Y-100690476D01*
X120809523Y-100595238D01*
X120904761Y-100500000D01*
X121047619Y-100452380D01*
X121142857Y-100452380D01*
X121285714Y-100500000D01*
X121333333Y-100547619D01*
X121714285Y-100547619D02*
X121761904Y-100500000D01*
X121857142Y-100452380D01*
X122095238Y-100452380D01*
X122190476Y-100500000D01*
X122238095Y-100547619D01*
X122285714Y-100642857D01*
X122285714Y-100738095D01*
X122238095Y-100880952D01*
X121666666Y-101452380D01*
X122285714Y-101452380D01*
G04 #@! TO.C,C3*
X134833333Y-111857142D02*
X134785714Y-111904761D01*
X134642857Y-111952380D01*
X134547619Y-111952380D01*
X134404761Y-111904761D01*
X134309523Y-111809523D01*
X134261904Y-111714285D01*
X134214285Y-111523809D01*
X134214285Y-111380952D01*
X134261904Y-111190476D01*
X134309523Y-111095238D01*
X134404761Y-111000000D01*
X134547619Y-110952380D01*
X134642857Y-110952380D01*
X134785714Y-111000000D01*
X134833333Y-111047619D01*
X135166666Y-110952380D02*
X135785714Y-110952380D01*
X135452380Y-111333333D01*
X135595238Y-111333333D01*
X135690476Y-111380952D01*
X135738095Y-111428571D01*
X135785714Y-111523809D01*
X135785714Y-111761904D01*
X135738095Y-111857142D01*
X135690476Y-111904761D01*
X135595238Y-111952380D01*
X135309523Y-111952380D01*
X135214285Y-111904761D01*
X135166666Y-111857142D01*
G04 #@! TO.C,C4*
X131333333Y-111857142D02*
X131285714Y-111904761D01*
X131142857Y-111952380D01*
X131047619Y-111952380D01*
X130904761Y-111904761D01*
X130809523Y-111809523D01*
X130761904Y-111714285D01*
X130714285Y-111523809D01*
X130714285Y-111380952D01*
X130761904Y-111190476D01*
X130809523Y-111095238D01*
X130904761Y-111000000D01*
X131047619Y-110952380D01*
X131142857Y-110952380D01*
X131285714Y-111000000D01*
X131333333Y-111047619D01*
X132190476Y-111285714D02*
X132190476Y-111952380D01*
X131952380Y-110904761D02*
X131714285Y-111619047D01*
X132333333Y-111619047D01*
G04 #@! TO.C,C5*
X124333333Y-111857142D02*
X124285714Y-111904761D01*
X124142857Y-111952380D01*
X124047619Y-111952380D01*
X123904761Y-111904761D01*
X123809523Y-111809523D01*
X123761904Y-111714285D01*
X123714285Y-111523809D01*
X123714285Y-111380952D01*
X123761904Y-111190476D01*
X123809523Y-111095238D01*
X123904761Y-111000000D01*
X124047619Y-110952380D01*
X124142857Y-110952380D01*
X124285714Y-111000000D01*
X124333333Y-111047619D01*
X125238095Y-110952380D02*
X124761904Y-110952380D01*
X124714285Y-111428571D01*
X124761904Y-111380952D01*
X124857142Y-111333333D01*
X125095238Y-111333333D01*
X125190476Y-111380952D01*
X125238095Y-111428571D01*
X125285714Y-111523809D01*
X125285714Y-111761904D01*
X125238095Y-111857142D01*
X125190476Y-111904761D01*
X125095238Y-111952380D01*
X124857142Y-111952380D01*
X124761904Y-111904761D01*
X124714285Y-111857142D01*
G04 #@! TO.C,C6*
X124333333Y-101357142D02*
X124285714Y-101404761D01*
X124142857Y-101452380D01*
X124047619Y-101452380D01*
X123904761Y-101404761D01*
X123809523Y-101309523D01*
X123761904Y-101214285D01*
X123714285Y-101023809D01*
X123714285Y-100880952D01*
X123761904Y-100690476D01*
X123809523Y-100595238D01*
X123904761Y-100500000D01*
X124047619Y-100452380D01*
X124142857Y-100452380D01*
X124285714Y-100500000D01*
X124333333Y-100547619D01*
X125190476Y-100452380D02*
X125000000Y-100452380D01*
X124904761Y-100500000D01*
X124857142Y-100547619D01*
X124761904Y-100690476D01*
X124714285Y-100880952D01*
X124714285Y-101261904D01*
X124761904Y-101357142D01*
X124809523Y-101404761D01*
X124904761Y-101452380D01*
X125095238Y-101452380D01*
X125190476Y-101404761D01*
X125238095Y-101357142D01*
X125285714Y-101261904D01*
X125285714Y-101023809D01*
X125238095Y-100928571D01*
X125190476Y-100880952D01*
X125095238Y-100833333D01*
X124904761Y-100833333D01*
X124809523Y-100880952D01*
X124761904Y-100928571D01*
X124714285Y-101023809D01*
G04 #@! TO.C,C7*
X127833333Y-111857142D02*
X127785714Y-111904761D01*
X127642857Y-111952380D01*
X127547619Y-111952380D01*
X127404761Y-111904761D01*
X127309523Y-111809523D01*
X127261904Y-111714285D01*
X127214285Y-111523809D01*
X127214285Y-111380952D01*
X127261904Y-111190476D01*
X127309523Y-111095238D01*
X127404761Y-111000000D01*
X127547619Y-110952380D01*
X127642857Y-110952380D01*
X127785714Y-111000000D01*
X127833333Y-111047619D01*
X128166666Y-110952380D02*
X128833333Y-110952380D01*
X128404761Y-111952380D01*
G04 #@! TO.C,C8*
X130333333Y-96857142D02*
X130285714Y-96904761D01*
X130142857Y-96952380D01*
X130047619Y-96952380D01*
X129904761Y-96904761D01*
X129809523Y-96809523D01*
X129761904Y-96714285D01*
X129714285Y-96523809D01*
X129714285Y-96380952D01*
X129761904Y-96190476D01*
X129809523Y-96095238D01*
X129904761Y-96000000D01*
X130047619Y-95952380D01*
X130142857Y-95952380D01*
X130285714Y-96000000D01*
X130333333Y-96047619D01*
X130904761Y-96380952D02*
X130809523Y-96333333D01*
X130761904Y-96285714D01*
X130714285Y-96190476D01*
X130714285Y-96142857D01*
X130761904Y-96047619D01*
X130809523Y-96000000D01*
X130904761Y-95952380D01*
X131095238Y-95952380D01*
X131190476Y-96000000D01*
X131238095Y-96047619D01*
X131285714Y-96142857D01*
X131285714Y-96190476D01*
X131238095Y-96285714D01*
X131190476Y-96333333D01*
X131095238Y-96380952D01*
X130904761Y-96380952D01*
X130809523Y-96428571D01*
X130761904Y-96476190D01*
X130714285Y-96571428D01*
X130714285Y-96761904D01*
X130761904Y-96857142D01*
X130809523Y-96904761D01*
X130904761Y-96952380D01*
X131095238Y-96952380D01*
X131190476Y-96904761D01*
X131238095Y-96857142D01*
X131285714Y-96761904D01*
X131285714Y-96571428D01*
X131238095Y-96476190D01*
X131190476Y-96428571D01*
X131095238Y-96380952D01*
G04 #@! TO.C,C9*
X133833333Y-96857142D02*
X133785714Y-96904761D01*
X133642857Y-96952380D01*
X133547619Y-96952380D01*
X133404761Y-96904761D01*
X133309523Y-96809523D01*
X133261904Y-96714285D01*
X133214285Y-96523809D01*
X133214285Y-96380952D01*
X133261904Y-96190476D01*
X133309523Y-96095238D01*
X133404761Y-96000000D01*
X133547619Y-95952380D01*
X133642857Y-95952380D01*
X133785714Y-96000000D01*
X133833333Y-96047619D01*
X134309523Y-96952380D02*
X134500000Y-96952380D01*
X134595238Y-96904761D01*
X134642857Y-96857142D01*
X134738095Y-96714285D01*
X134785714Y-96523809D01*
X134785714Y-96142857D01*
X134738095Y-96047619D01*
X134690476Y-96000000D01*
X134595238Y-95952380D01*
X134404761Y-95952380D01*
X134309523Y-96000000D01*
X134261904Y-96047619D01*
X134214285Y-96142857D01*
X134214285Y-96380952D01*
X134261904Y-96476190D01*
X134309523Y-96523809D01*
X134404761Y-96571428D01*
X134595238Y-96571428D01*
X134690476Y-96523809D01*
X134738095Y-96476190D01*
X134785714Y-96380952D01*
G04 #@! TO.C,D1*
X147223275Y-94867098D02*
X146516168Y-94159992D01*
X146684527Y-93991633D01*
X146819214Y-93924289D01*
X146953901Y-93924289D01*
X147054916Y-93957961D01*
X147223275Y-94058976D01*
X147324290Y-94159992D01*
X147425306Y-94328350D01*
X147458977Y-94429366D01*
X147458977Y-94564053D01*
X147391634Y-94698740D01*
X147223275Y-94867098D01*
X148300771Y-93789602D02*
X147896710Y-94193663D01*
X148098741Y-93991633D02*
X147391634Y-93284526D01*
X147425306Y-93452885D01*
X147425306Y-93587572D01*
X147391634Y-93688587D01*
G04 #@! TO.C,D2*
X161223275Y-109867098D02*
X160516168Y-109159992D01*
X160684527Y-108991633D01*
X160819214Y-108924289D01*
X160953901Y-108924289D01*
X161054916Y-108957961D01*
X161223275Y-109058976D01*
X161324290Y-109159992D01*
X161425306Y-109328350D01*
X161458977Y-109429366D01*
X161458977Y-109564053D01*
X161391634Y-109698740D01*
X161223275Y-109867098D01*
X161256947Y-108553900D02*
X161256947Y-108486556D01*
X161290618Y-108385541D01*
X161458977Y-108217182D01*
X161559993Y-108183511D01*
X161627336Y-108183511D01*
X161728351Y-108217182D01*
X161795695Y-108284526D01*
X161863038Y-108419213D01*
X161863038Y-109227335D01*
X162300771Y-108789602D01*
G04 #@! TO.C,D3*
X147223275Y-109867098D02*
X146516168Y-109159992D01*
X146684527Y-108991633D01*
X146819214Y-108924289D01*
X146953901Y-108924289D01*
X147054916Y-108957961D01*
X147223275Y-109058976D01*
X147324290Y-109159992D01*
X147425306Y-109328350D01*
X147458977Y-109429366D01*
X147458977Y-109564053D01*
X147391634Y-109698740D01*
X147223275Y-109867098D01*
X147155931Y-108520228D02*
X147593664Y-108082495D01*
X147627336Y-108587572D01*
X147728351Y-108486556D01*
X147829367Y-108452885D01*
X147896710Y-108452885D01*
X147997725Y-108486556D01*
X148166084Y-108654915D01*
X148199756Y-108755930D01*
X148199756Y-108823274D01*
X148166084Y-108924289D01*
X147964054Y-109126320D01*
X147863038Y-109159992D01*
X147795695Y-109159992D01*
G04 #@! TO.C,D4*
X161223275Y-94867098D02*
X160516168Y-94159992D01*
X160684527Y-93991633D01*
X160819214Y-93924289D01*
X160953901Y-93924289D01*
X161054916Y-93957961D01*
X161223275Y-94058976D01*
X161324290Y-94159992D01*
X161425306Y-94328350D01*
X161458977Y-94429366D01*
X161458977Y-94564053D01*
X161391634Y-94698740D01*
X161223275Y-94867098D01*
X161762023Y-93385541D02*
X162233428Y-93856946D01*
X161324290Y-93284526D02*
X161661008Y-93957961D01*
X162098741Y-93520228D01*
G04 #@! TO.C,D5*
X154223275Y-102367098D02*
X153516168Y-101659992D01*
X153684527Y-101491633D01*
X153819214Y-101424289D01*
X153953901Y-101424289D01*
X154054916Y-101457961D01*
X154223275Y-101558976D01*
X154324290Y-101659992D01*
X154425306Y-101828350D01*
X154458977Y-101929366D01*
X154458977Y-102064053D01*
X154391634Y-102198740D01*
X154223275Y-102367098D01*
X154559993Y-100616167D02*
X154223275Y-100952885D01*
X154526321Y-101323274D01*
X154526321Y-101255930D01*
X154559993Y-101154915D01*
X154728351Y-100986556D01*
X154829367Y-100952885D01*
X154896710Y-100952885D01*
X154997725Y-100986556D01*
X155166084Y-101154915D01*
X155199756Y-101255930D01*
X155199756Y-101323274D01*
X155166084Y-101424289D01*
X154997725Y-101592648D01*
X154896710Y-101626320D01*
X154829367Y-101626320D01*
G04 #@! TO.C,D6*
X147223275Y-102367098D02*
X146516168Y-101659992D01*
X146684527Y-101491633D01*
X146819214Y-101424289D01*
X146953901Y-101424289D01*
X147054916Y-101457961D01*
X147223275Y-101558976D01*
X147324290Y-101659992D01*
X147425306Y-101828350D01*
X147458977Y-101929366D01*
X147458977Y-102064053D01*
X147391634Y-102198740D01*
X147223275Y-102367098D01*
X147526321Y-100649839D02*
X147391634Y-100784526D01*
X147357962Y-100885541D01*
X147357962Y-100952885D01*
X147391634Y-101121243D01*
X147492649Y-101289602D01*
X147762023Y-101558976D01*
X147863038Y-101592648D01*
X147930382Y-101592648D01*
X148031397Y-101558976D01*
X148166084Y-101424289D01*
X148199756Y-101323274D01*
X148199756Y-101255930D01*
X148166084Y-101154915D01*
X147997725Y-100986556D01*
X147896710Y-100952885D01*
X147829367Y-100952885D01*
X147728351Y-100986556D01*
X147593664Y-101121243D01*
X147559993Y-101222259D01*
X147559993Y-101289602D01*
X147593664Y-101390617D01*
G04 #@! TO.C,D7*
X161223275Y-102367098D02*
X160516168Y-101659992D01*
X160684527Y-101491633D01*
X160819214Y-101424289D01*
X160953901Y-101424289D01*
X161054916Y-101457961D01*
X161223275Y-101558976D01*
X161324290Y-101659992D01*
X161425306Y-101828350D01*
X161458977Y-101929366D01*
X161458977Y-102064053D01*
X161391634Y-102198740D01*
X161223275Y-102367098D01*
X161155931Y-101020228D02*
X161627336Y-100548824D01*
X162031397Y-101558976D01*
G04 #@! TO.C,D8*
X173723275Y-94867098D02*
X173016168Y-94159992D01*
X173184527Y-93991633D01*
X173319214Y-93924289D01*
X173453901Y-93924289D01*
X173554916Y-93957961D01*
X173723275Y-94058976D01*
X173824290Y-94159992D01*
X173925306Y-94328350D01*
X173958977Y-94429366D01*
X173958977Y-94564053D01*
X173891634Y-94698740D01*
X173723275Y-94867098D01*
X174127336Y-93654915D02*
X174026321Y-93688587D01*
X173958977Y-93688587D01*
X173857962Y-93654915D01*
X173824290Y-93621243D01*
X173790618Y-93520228D01*
X173790618Y-93452885D01*
X173824290Y-93351869D01*
X173958977Y-93217182D01*
X174059993Y-93183511D01*
X174127336Y-93183511D01*
X174228351Y-93217182D01*
X174262023Y-93250854D01*
X174295695Y-93351869D01*
X174295695Y-93419213D01*
X174262023Y-93520228D01*
X174127336Y-93654915D01*
X174093664Y-93755930D01*
X174093664Y-93823274D01*
X174127336Y-93924289D01*
X174262023Y-94058976D01*
X174363038Y-94092648D01*
X174430382Y-94092648D01*
X174531397Y-94058976D01*
X174666084Y-93924289D01*
X174699756Y-93823274D01*
X174699756Y-93755930D01*
X174666084Y-93654915D01*
X174531397Y-93520228D01*
X174430382Y-93486556D01*
X174363038Y-93486556D01*
X174262023Y-93520228D01*
G04 #@! TO.C,D9*
X187823274Y-109867098D02*
X187116167Y-109159992D01*
X187284526Y-108991633D01*
X187419213Y-108924289D01*
X187553900Y-108924289D01*
X187654915Y-108957961D01*
X187823274Y-109058976D01*
X187924289Y-109159992D01*
X188025305Y-109328350D01*
X188058976Y-109429366D01*
X188058976Y-109564053D01*
X187991633Y-109698740D01*
X187823274Y-109867098D01*
X188564053Y-109126320D02*
X188698740Y-108991633D01*
X188732411Y-108890617D01*
X188732411Y-108823274D01*
X188698740Y-108654915D01*
X188597724Y-108486556D01*
X188328350Y-108217182D01*
X188227335Y-108183511D01*
X188159992Y-108183511D01*
X188058976Y-108217182D01*
X187924289Y-108351869D01*
X187890617Y-108452885D01*
X187890617Y-108520228D01*
X187924289Y-108621243D01*
X188092648Y-108789602D01*
X188193663Y-108823274D01*
X188261007Y-108823274D01*
X188362022Y-108789602D01*
X188496709Y-108654915D01*
X188530381Y-108553900D01*
X188530381Y-108486556D01*
X188496709Y-108385541D01*
G04 #@! TO.C,D10*
X173386557Y-110203816D02*
X172679451Y-109496709D01*
X172847809Y-109328350D01*
X172982496Y-109261007D01*
X173117183Y-109261007D01*
X173218199Y-109294679D01*
X173386557Y-109395694D01*
X173487573Y-109496709D01*
X173588588Y-109665068D01*
X173622260Y-109766083D01*
X173622260Y-109900770D01*
X173554916Y-110035457D01*
X173386557Y-110203816D01*
X174464054Y-109126320D02*
X174059993Y-109530381D01*
X174262023Y-109328350D02*
X173554916Y-108621243D01*
X173588588Y-108789602D01*
X173588588Y-108924289D01*
X173554916Y-109025305D01*
X174194680Y-107981480D02*
X174262023Y-107914137D01*
X174363038Y-107880465D01*
X174430382Y-107880465D01*
X174531397Y-107914137D01*
X174699756Y-108015152D01*
X174868115Y-108183511D01*
X174969130Y-108351869D01*
X175002802Y-108452885D01*
X175002802Y-108520228D01*
X174969130Y-108621243D01*
X174901786Y-108688587D01*
X174800771Y-108722259D01*
X174733428Y-108722259D01*
X174632412Y-108688587D01*
X174464054Y-108587572D01*
X174295695Y-108419213D01*
X174194680Y-108250854D01*
X174161008Y-108149839D01*
X174161008Y-108082495D01*
X174194680Y-107981480D01*
G04 #@! TO.C,D11*
X187486556Y-95203816D02*
X186779450Y-94496709D01*
X186947808Y-94328350D01*
X187082495Y-94261007D01*
X187217182Y-94261007D01*
X187318198Y-94294679D01*
X187486556Y-94395694D01*
X187587572Y-94496709D01*
X187688587Y-94665068D01*
X187722259Y-94766083D01*
X187722259Y-94900770D01*
X187654915Y-95035457D01*
X187486556Y-95203816D01*
X188564053Y-94126320D02*
X188159992Y-94530381D01*
X188362022Y-94328350D02*
X187654915Y-93621243D01*
X187688587Y-93789602D01*
X187688587Y-93924289D01*
X187654915Y-94025305D01*
X189237488Y-93452885D02*
X188833427Y-93856946D01*
X189035457Y-93654915D02*
X188328350Y-92947808D01*
X188362022Y-93116167D01*
X188362022Y-93250854D01*
X188328350Y-93351869D01*
G04 #@! TO.C,D12*
X180386557Y-102703816D02*
X179679451Y-101996709D01*
X179847809Y-101828350D01*
X179982496Y-101761007D01*
X180117183Y-101761007D01*
X180218199Y-101794679D01*
X180386557Y-101895694D01*
X180487573Y-101996709D01*
X180588588Y-102165068D01*
X180622260Y-102266083D01*
X180622260Y-102400770D01*
X180554916Y-102535457D01*
X180386557Y-102703816D01*
X181464054Y-101626320D02*
X181059993Y-102030381D01*
X181262023Y-101828350D02*
X180554916Y-101121243D01*
X180588588Y-101289602D01*
X180588588Y-101424289D01*
X180554916Y-101525305D01*
X181093664Y-100717182D02*
X181093664Y-100649839D01*
X181127336Y-100548824D01*
X181295695Y-100380465D01*
X181396710Y-100346793D01*
X181464054Y-100346793D01*
X181565069Y-100380465D01*
X181632412Y-100447808D01*
X181699756Y-100582495D01*
X181699756Y-101390617D01*
X182137489Y-100952885D01*
G04 #@! TO.C,D13*
X173386557Y-102703816D02*
X172679451Y-101996709D01*
X172847809Y-101828350D01*
X172982496Y-101761007D01*
X173117183Y-101761007D01*
X173218199Y-101794679D01*
X173386557Y-101895694D01*
X173487573Y-101996709D01*
X173588588Y-102165068D01*
X173622260Y-102266083D01*
X173622260Y-102400770D01*
X173554916Y-102535457D01*
X173386557Y-102703816D01*
X174464054Y-101626320D02*
X174059993Y-102030381D01*
X174262023Y-101828350D02*
X173554916Y-101121243D01*
X173588588Y-101289602D01*
X173588588Y-101424289D01*
X173554916Y-101525305D01*
X173992649Y-100683511D02*
X174430382Y-100245778D01*
X174464054Y-100750854D01*
X174565069Y-100649839D01*
X174666084Y-100616167D01*
X174733428Y-100616167D01*
X174834443Y-100649839D01*
X175002802Y-100818198D01*
X175036473Y-100919213D01*
X175036473Y-100986556D01*
X175002802Y-101087572D01*
X174800771Y-101289602D01*
X174699756Y-101323274D01*
X174632412Y-101323274D01*
G04 #@! TO.C,D14*
X187486556Y-102703816D02*
X186779450Y-101996709D01*
X186947808Y-101828350D01*
X187082495Y-101761007D01*
X187217182Y-101761007D01*
X187318198Y-101794679D01*
X187486556Y-101895694D01*
X187587572Y-101996709D01*
X187688587Y-102165068D01*
X187722259Y-102266083D01*
X187722259Y-102400770D01*
X187654915Y-102535457D01*
X187486556Y-102703816D01*
X188564053Y-101626320D02*
X188159992Y-102030381D01*
X188362022Y-101828350D02*
X187654915Y-101121243D01*
X187688587Y-101289602D01*
X187688587Y-101424289D01*
X187654915Y-101525305D01*
X188698740Y-100548824D02*
X189170144Y-101020228D01*
X188261007Y-100447808D02*
X188597724Y-101121243D01*
X189035457Y-100683511D01*
G04 #@! TO.C,U1*
X128738095Y-103952380D02*
X128738095Y-104761904D01*
X128785714Y-104857142D01*
X128833333Y-104904761D01*
X128928571Y-104952380D01*
X129119047Y-104952380D01*
X129214285Y-104904761D01*
X129261904Y-104857142D01*
X129309523Y-104761904D01*
X129309523Y-103952380D01*
X130309523Y-104952380D02*
X129738095Y-104952380D01*
X130023809Y-104952380D02*
X130023809Y-103952380D01*
X129928571Y-104095238D01*
X129833333Y-104190476D01*
X129738095Y-104238095D01*
G04 #@! TD*
M02*
