G04 #@! TF.GenerationSoftware,KiCad,Pcbnew,5.0.1*
G04 #@! TF.CreationDate,2019-01-18T21:28:09-06:00*
G04 #@! TF.ProjectId,Layout,4C61796F75742E6B696361645F706362,rev?*
G04 #@! TF.SameCoordinates,Original*
G04 #@! TF.FileFunction,Legend,Top*
G04 #@! TF.FilePolarity,Positive*
%FSLAX46Y46*%
G04 Gerber Fmt 4.6, Leading zero omitted, Abs format (unit mm)*
G04 Created by KiCad (PCBNEW 5.0.1) date Fri 18 Jan 2019 09:28:09 PM CST*
%MOMM*%
%LPD*%
G01*
G04 APERTURE LIST*
%ADD10C,0.200000*%
%ADD11C,0.010000*%
%ADD12C,0.120000*%
%ADD13C,0.150000*%
G04 APERTURE END LIST*
D10*
X143500000Y-110500000D02*
X163500000Y-110500000D01*
X163500000Y-90500000D02*
X143500000Y-90500000D01*
X163500000Y-110500000D02*
X163500000Y-90500000D01*
X143500000Y-90500000D02*
X143500000Y-110500000D01*
X190000000Y-110500000D02*
X170000000Y-110500000D01*
X170000000Y-90500000D02*
X190000000Y-90500000D01*
X170000000Y-90500000D02*
X170000000Y-110500000D01*
X190000000Y-110500000D02*
X190000000Y-90500000D01*
D11*
G04 #@! TO.C,G\002A\002A\002A*
G36*
X178425387Y-76872074D02*
X178473549Y-76900588D01*
X178485926Y-76977985D01*
X178486333Y-77037334D01*
X178482260Y-77145721D01*
X178453745Y-77193882D01*
X178376348Y-77206260D01*
X178317000Y-77206667D01*
X178208613Y-77202593D01*
X178160451Y-77174079D01*
X178148074Y-77096682D01*
X178147667Y-77037334D01*
X178151740Y-76928946D01*
X178180255Y-76880785D01*
X178257652Y-76868407D01*
X178317000Y-76868000D01*
X178425387Y-76872074D01*
X178425387Y-76872074D01*
G37*
X178425387Y-76872074D02*
X178473549Y-76900588D01*
X178485926Y-76977985D01*
X178486333Y-77037334D01*
X178482260Y-77145721D01*
X178453745Y-77193882D01*
X178376348Y-77206260D01*
X178317000Y-77206667D01*
X178208613Y-77202593D01*
X178160451Y-77174079D01*
X178148074Y-77096682D01*
X178147667Y-77037334D01*
X178151740Y-76928946D01*
X178180255Y-76880785D01*
X178257652Y-76868407D01*
X178317000Y-76868000D01*
X178425387Y-76872074D01*
G36*
X158486387Y-76872074D02*
X158534549Y-76900588D01*
X158546926Y-76977985D01*
X158547333Y-77037334D01*
X158543260Y-77145721D01*
X158514745Y-77193882D01*
X158437348Y-77206260D01*
X158378000Y-77206667D01*
X158269613Y-77202593D01*
X158221451Y-77174079D01*
X158209074Y-77096682D01*
X158208667Y-77037334D01*
X158212740Y-76928946D01*
X158241255Y-76880785D01*
X158318652Y-76868407D01*
X158378000Y-76868000D01*
X158486387Y-76872074D01*
X158486387Y-76872074D01*
G37*
X158486387Y-76872074D02*
X158534549Y-76900588D01*
X158546926Y-76977985D01*
X158547333Y-77037334D01*
X158543260Y-77145721D01*
X158514745Y-77193882D01*
X158437348Y-77206260D01*
X158378000Y-77206667D01*
X158269613Y-77202593D01*
X158221451Y-77174079D01*
X158209074Y-77096682D01*
X158208667Y-77037334D01*
X158212740Y-76928946D01*
X158241255Y-76880785D01*
X158318652Y-76868407D01*
X158378000Y-76868000D01*
X158486387Y-76872074D01*
G36*
X150443054Y-76872074D02*
X150491215Y-76900588D01*
X150503593Y-76977985D01*
X150504000Y-77037334D01*
X150499926Y-77145721D01*
X150471412Y-77193882D01*
X150394015Y-77206260D01*
X150334667Y-77206667D01*
X150226279Y-77202593D01*
X150178118Y-77174079D01*
X150165740Y-77096682D01*
X150165333Y-77037334D01*
X150169407Y-76928946D01*
X150197921Y-76880785D01*
X150275318Y-76868407D01*
X150334667Y-76868000D01*
X150443054Y-76872074D01*
X150443054Y-76872074D01*
G37*
X150443054Y-76872074D02*
X150491215Y-76900588D01*
X150503593Y-76977985D01*
X150504000Y-77037334D01*
X150499926Y-77145721D01*
X150471412Y-77193882D01*
X150394015Y-77206260D01*
X150334667Y-77206667D01*
X150226279Y-77202593D01*
X150178118Y-77174079D01*
X150165740Y-77096682D01*
X150165333Y-77037334D01*
X150169407Y-76928946D01*
X150197921Y-76880785D01*
X150275318Y-76868407D01*
X150334667Y-76868000D01*
X150443054Y-76872074D01*
G36*
X191863667Y-77880576D02*
X192212917Y-77892871D01*
X192562167Y-77905167D01*
X192575184Y-78085084D01*
X192588201Y-78265000D01*
X191863667Y-78265000D01*
X191864315Y-79058750D01*
X191866133Y-79311653D01*
X191870799Y-79536631D01*
X191877771Y-79719485D01*
X191886510Y-79846019D01*
X191896435Y-79901973D01*
X191956669Y-79939068D01*
X192061998Y-79963976D01*
X192075703Y-79965473D01*
X192173636Y-79982462D01*
X192218368Y-80026507D01*
X192235519Y-80125112D01*
X192236639Y-80138250D01*
X192249777Y-80297000D01*
X192018774Y-80297000D01*
X191878109Y-80291612D01*
X191786652Y-80265746D01*
X191709155Y-80204844D01*
X191656385Y-80147360D01*
X191525000Y-79997721D01*
X191525000Y-78265000D01*
X190847667Y-78265000D01*
X190847667Y-77884000D01*
X191525000Y-77884000D01*
X191525000Y-76868000D01*
X191863667Y-76868000D01*
X191863667Y-77880576D01*
X191863667Y-77880576D01*
G37*
X191863667Y-77880576D02*
X192212917Y-77892871D01*
X192562167Y-77905167D01*
X192575184Y-78085084D01*
X192588201Y-78265000D01*
X191863667Y-78265000D01*
X191864315Y-79058750D01*
X191866133Y-79311653D01*
X191870799Y-79536631D01*
X191877771Y-79719485D01*
X191886510Y-79846019D01*
X191896435Y-79901973D01*
X191956669Y-79939068D01*
X192061998Y-79963976D01*
X192075703Y-79965473D01*
X192173636Y-79982462D01*
X192218368Y-80026507D01*
X192235519Y-80125112D01*
X192236639Y-80138250D01*
X192249777Y-80297000D01*
X192018774Y-80297000D01*
X191878109Y-80291612D01*
X191786652Y-80265746D01*
X191709155Y-80204844D01*
X191656385Y-80147360D01*
X191525000Y-79997721D01*
X191525000Y-78265000D01*
X190847667Y-78265000D01*
X190847667Y-77884000D01*
X191525000Y-77884000D01*
X191525000Y-76868000D01*
X191863667Y-76868000D01*
X191863667Y-77880576D01*
G36*
X188215193Y-77958205D02*
X188360930Y-78047539D01*
X188447061Y-78184917D01*
X188453532Y-78207403D01*
X188481912Y-78320479D01*
X188681993Y-78123406D01*
X188789686Y-78020448D01*
X188871302Y-77961556D01*
X188957851Y-77934421D01*
X189080340Y-77926733D01*
X189178400Y-77926334D01*
X189474725Y-77926334D01*
X189695529Y-78149915D01*
X189828856Y-78298137D01*
X189899514Y-78412134D01*
X189916333Y-78488581D01*
X189908384Y-78562525D01*
X189868491Y-78595399D01*
X189772586Y-78603560D01*
X189747000Y-78603667D01*
X189623377Y-78590526D01*
X189577859Y-78551688D01*
X189577667Y-78548087D01*
X189549215Y-78484831D01*
X189478823Y-78398594D01*
X189458933Y-78378754D01*
X189331958Y-78291305D01*
X189179467Y-78265036D01*
X189171960Y-78265000D01*
X189083443Y-78271290D01*
X189006497Y-78298252D01*
X188921407Y-78358025D01*
X188808458Y-78462746D01*
X188740360Y-78530722D01*
X188477000Y-78796445D01*
X188477000Y-80297000D01*
X188138333Y-80297000D01*
X188138333Y-79328517D01*
X188137865Y-79006380D01*
X188135248Y-78758687D01*
X188128660Y-78575213D01*
X188116283Y-78445738D01*
X188096296Y-78360037D01*
X188066878Y-78307889D01*
X188026210Y-78279069D01*
X187972471Y-78263356D01*
X187947833Y-78258620D01*
X187885909Y-78223118D01*
X187855396Y-78132512D01*
X187850028Y-78084731D01*
X187836889Y-77926334D01*
X188024235Y-77926334D01*
X188215193Y-77958205D01*
X188215193Y-77958205D01*
G37*
X188215193Y-77958205D02*
X188360930Y-78047539D01*
X188447061Y-78184917D01*
X188453532Y-78207403D01*
X188481912Y-78320479D01*
X188681993Y-78123406D01*
X188789686Y-78020448D01*
X188871302Y-77961556D01*
X188957851Y-77934421D01*
X189080340Y-77926733D01*
X189178400Y-77926334D01*
X189474725Y-77926334D01*
X189695529Y-78149915D01*
X189828856Y-78298137D01*
X189899514Y-78412134D01*
X189916333Y-78488581D01*
X189908384Y-78562525D01*
X189868491Y-78595399D01*
X189772586Y-78603560D01*
X189747000Y-78603667D01*
X189623377Y-78590526D01*
X189577859Y-78551688D01*
X189577667Y-78548087D01*
X189549215Y-78484831D01*
X189478823Y-78398594D01*
X189458933Y-78378754D01*
X189331958Y-78291305D01*
X189179467Y-78265036D01*
X189171960Y-78265000D01*
X189083443Y-78271290D01*
X189006497Y-78298252D01*
X188921407Y-78358025D01*
X188808458Y-78462746D01*
X188740360Y-78530722D01*
X188477000Y-78796445D01*
X188477000Y-80297000D01*
X188138333Y-80297000D01*
X188138333Y-79328517D01*
X188137865Y-79006380D01*
X188135248Y-78758687D01*
X188128660Y-78575213D01*
X188116283Y-78445738D01*
X188096296Y-78360037D01*
X188066878Y-78307889D01*
X188026210Y-78279069D01*
X187972471Y-78263356D01*
X187947833Y-78258620D01*
X187885909Y-78223118D01*
X187855396Y-78132512D01*
X187850028Y-78084731D01*
X187836889Y-77926334D01*
X188024235Y-77926334D01*
X188215193Y-77958205D01*
G36*
X186177274Y-77885500D02*
X186416307Y-77888491D01*
X186590131Y-77900352D01*
X186718177Y-77927918D01*
X186819876Y-77978025D01*
X186914662Y-78057508D01*
X187021966Y-78173201D01*
X187033961Y-78186830D01*
X187207000Y-78383826D01*
X187207000Y-79281000D01*
X185513667Y-79281000D01*
X185513667Y-79522100D01*
X185520397Y-79673610D01*
X185547683Y-79774690D01*
X185606163Y-79858995D01*
X185627420Y-79881934D01*
X185741174Y-80000667D01*
X187207000Y-80000667D01*
X187207000Y-80297000D01*
X185594706Y-80297000D01*
X185175000Y-79904414D01*
X185175000Y-78722400D01*
X185513667Y-78722400D01*
X185513667Y-78942334D01*
X186868333Y-78942334D01*
X186868333Y-78728953D01*
X186849285Y-78544822D01*
X186786167Y-78404973D01*
X186775705Y-78390286D01*
X186683078Y-78265000D01*
X186212126Y-78265000D01*
X186006109Y-78265864D01*
X185866426Y-78270937D01*
X185774745Y-78283942D01*
X185712734Y-78308602D01*
X185662062Y-78348639D01*
X185627420Y-78383733D01*
X185555451Y-78476307D01*
X185521699Y-78579983D01*
X185513667Y-78722400D01*
X185175000Y-78722400D01*
X185175000Y-78362555D01*
X185425857Y-78123277D01*
X185676714Y-77884000D01*
X186177274Y-77885500D01*
X186177274Y-77885500D01*
G37*
X186177274Y-77885500D02*
X186416307Y-77888491D01*
X186590131Y-77900352D01*
X186718177Y-77927918D01*
X186819876Y-77978025D01*
X186914662Y-78057508D01*
X187021966Y-78173201D01*
X187033961Y-78186830D01*
X187207000Y-78383826D01*
X187207000Y-79281000D01*
X185513667Y-79281000D01*
X185513667Y-79522100D01*
X185520397Y-79673610D01*
X185547683Y-79774690D01*
X185606163Y-79858995D01*
X185627420Y-79881934D01*
X185741174Y-80000667D01*
X187207000Y-80000667D01*
X187207000Y-80297000D01*
X185594706Y-80297000D01*
X185175000Y-79904414D01*
X185175000Y-78722400D01*
X185513667Y-78722400D01*
X185513667Y-78942334D01*
X186868333Y-78942334D01*
X186868333Y-78728953D01*
X186849285Y-78544822D01*
X186786167Y-78404973D01*
X186775705Y-78390286D01*
X186683078Y-78265000D01*
X186212126Y-78265000D01*
X186006109Y-78265864D01*
X185866426Y-78270937D01*
X185774745Y-78283942D01*
X185712734Y-78308602D01*
X185662062Y-78348639D01*
X185627420Y-78383733D01*
X185555451Y-78476307D01*
X185521699Y-78579983D01*
X185513667Y-78722400D01*
X185175000Y-78722400D01*
X185175000Y-78362555D01*
X185425857Y-78123277D01*
X185676714Y-77884000D01*
X186177274Y-77885500D01*
G36*
X182846667Y-78942334D02*
X183292490Y-78942334D01*
X183798358Y-78435144D01*
X184304226Y-77927955D01*
X184423133Y-78041875D01*
X184542040Y-78155796D01*
X183594250Y-79106282D01*
X184045958Y-79577676D01*
X184201699Y-79742171D01*
X184334217Y-79885889D01*
X184433408Y-79997572D01*
X184489169Y-80065963D01*
X184497667Y-80080989D01*
X184469568Y-80128506D01*
X184400645Y-80203338D01*
X184387820Y-80215538D01*
X184277973Y-80318167D01*
X183784570Y-79798246D01*
X183291167Y-79278324D01*
X182846667Y-79281000D01*
X182846667Y-80297000D01*
X182465667Y-80297000D01*
X182465667Y-76868000D01*
X182846667Y-76868000D01*
X182846667Y-78942334D01*
X182846667Y-78942334D01*
G37*
X182846667Y-78942334D02*
X183292490Y-78942334D01*
X183798358Y-78435144D01*
X184304226Y-77927955D01*
X184423133Y-78041875D01*
X184542040Y-78155796D01*
X183594250Y-79106282D01*
X184045958Y-79577676D01*
X184201699Y-79742171D01*
X184334217Y-79885889D01*
X184433408Y-79997572D01*
X184489169Y-80065963D01*
X184497667Y-80080989D01*
X184469568Y-80128506D01*
X184400645Y-80203338D01*
X184387820Y-80215538D01*
X184277973Y-80318167D01*
X183784570Y-79798246D01*
X183291167Y-79278324D01*
X182846667Y-79281000D01*
X182846667Y-80297000D01*
X182465667Y-80297000D01*
X182465667Y-76868000D01*
X182846667Y-76868000D01*
X182846667Y-78942334D01*
G36*
X181851833Y-78243834D02*
X181280333Y-78255636D01*
X180708833Y-78267439D01*
X180137333Y-78834229D01*
X180137333Y-79389104D01*
X180423083Y-79672500D01*
X180708833Y-79955895D01*
X181280333Y-79967698D01*
X181851833Y-79979500D01*
X181878111Y-80297000D01*
X180580161Y-80297000D01*
X180189414Y-79904621D01*
X179798667Y-79512243D01*
X179798667Y-78707828D01*
X180191045Y-78317081D01*
X180583424Y-77926334D01*
X181878111Y-77926334D01*
X181851833Y-78243834D01*
X181851833Y-78243834D01*
G37*
X181851833Y-78243834D02*
X181280333Y-78255636D01*
X180708833Y-78267439D01*
X180137333Y-78834229D01*
X180137333Y-79389104D01*
X180423083Y-79672500D01*
X180708833Y-79955895D01*
X181280333Y-79967698D01*
X181851833Y-79979500D01*
X181878111Y-80297000D01*
X180580161Y-80297000D01*
X180189414Y-79904621D01*
X179798667Y-79512243D01*
X179798667Y-78707828D01*
X180191045Y-78317081D01*
X180583424Y-77926334D01*
X181878111Y-77926334D01*
X181851833Y-78243834D01*
G36*
X178465167Y-77905167D02*
X178476409Y-79101084D01*
X178487652Y-80297000D01*
X178147667Y-80297000D01*
X178147667Y-77878889D01*
X178465167Y-77905167D01*
X178465167Y-77905167D01*
G37*
X178465167Y-77905167D02*
X178476409Y-79101084D01*
X178487652Y-80297000D01*
X178147667Y-80297000D01*
X178147667Y-77878889D01*
X178465167Y-77905167D01*
G36*
X175385417Y-77207594D02*
X176348500Y-77208520D01*
X176591917Y-77436805D01*
X176835333Y-77665089D01*
X176835333Y-78482962D01*
X176626474Y-78702064D01*
X176417615Y-78921167D01*
X176072683Y-78942334D01*
X175727751Y-78963500D01*
X176281542Y-79541695D01*
X176502123Y-79775822D01*
X176664052Y-79958050D01*
X176770551Y-80094269D01*
X176824843Y-80190371D01*
X176830152Y-80252249D01*
X176789700Y-80285793D01*
X176706710Y-80296896D01*
X176694709Y-80297000D01*
X176643350Y-80291576D01*
X176587552Y-80270458D01*
X176518592Y-80226381D01*
X176427745Y-80152076D01*
X176306287Y-80040278D01*
X176145493Y-79883719D01*
X175936638Y-79675132D01*
X175881515Y-79619667D01*
X175208945Y-78942334D01*
X174761000Y-78942334D01*
X174761000Y-80297000D01*
X174422333Y-80297000D01*
X174422333Y-77545334D01*
X174761000Y-77545334D01*
X174761000Y-78603667D01*
X176217469Y-78603667D01*
X176357068Y-78468362D01*
X176436374Y-78383193D01*
X176478238Y-78303473D01*
X176494382Y-78196483D01*
X176496667Y-78078794D01*
X176491701Y-77928227D01*
X176469127Y-77828589D01*
X176417432Y-77746362D01*
X176361362Y-77684932D01*
X176226058Y-77545334D01*
X174761000Y-77545334D01*
X174422333Y-77545334D01*
X174422333Y-77206667D01*
X175385417Y-77207594D01*
X175385417Y-77207594D01*
G37*
X175385417Y-77207594D02*
X176348500Y-77208520D01*
X176591917Y-77436805D01*
X176835333Y-77665089D01*
X176835333Y-78482962D01*
X176626474Y-78702064D01*
X176417615Y-78921167D01*
X176072683Y-78942334D01*
X175727751Y-78963500D01*
X176281542Y-79541695D01*
X176502123Y-79775822D01*
X176664052Y-79958050D01*
X176770551Y-80094269D01*
X176824843Y-80190371D01*
X176830152Y-80252249D01*
X176789700Y-80285793D01*
X176706710Y-80296896D01*
X176694709Y-80297000D01*
X176643350Y-80291576D01*
X176587552Y-80270458D01*
X176518592Y-80226381D01*
X176427745Y-80152076D01*
X176306287Y-80040278D01*
X176145493Y-79883719D01*
X175936638Y-79675132D01*
X175881515Y-79619667D01*
X175208945Y-78942334D01*
X174761000Y-78942334D01*
X174761000Y-80297000D01*
X174422333Y-80297000D01*
X174422333Y-77545334D01*
X174761000Y-77545334D01*
X174761000Y-78603667D01*
X176217469Y-78603667D01*
X176357068Y-78468362D01*
X176436374Y-78383193D01*
X176478238Y-78303473D01*
X176494382Y-78196483D01*
X176496667Y-78078794D01*
X176491701Y-77928227D01*
X176469127Y-77828589D01*
X176417432Y-77746362D01*
X176361362Y-77684932D01*
X176226058Y-77545334D01*
X174761000Y-77545334D01*
X174422333Y-77545334D01*
X174422333Y-77206667D01*
X175385417Y-77207594D01*
G36*
X171967000Y-80297000D02*
X171289667Y-80297000D01*
X171289667Y-79619667D01*
X171967000Y-79619667D01*
X171967000Y-80297000D01*
X171967000Y-80297000D01*
G37*
X171967000Y-80297000D02*
X171289667Y-80297000D01*
X171289667Y-79619667D01*
X171967000Y-79619667D01*
X171967000Y-80297000D01*
G36*
X163399688Y-77913132D02*
X163495678Y-77934188D01*
X163577698Y-77987552D01*
X163637937Y-78043076D01*
X163780202Y-78180985D01*
X163902188Y-78053659D01*
X163980670Y-77981461D01*
X164059408Y-77943167D01*
X164169572Y-77928340D01*
X164282428Y-77926334D01*
X164423265Y-77929359D01*
X164518503Y-77947597D01*
X164599194Y-77994784D01*
X164696389Y-78084663D01*
X164740175Y-78128871D01*
X164939667Y-78331408D01*
X164939667Y-80297000D01*
X164601000Y-80297000D01*
X164601000Y-79373046D01*
X164600750Y-79070627D01*
X164599260Y-78841347D01*
X164595417Y-78673680D01*
X164588110Y-78556099D01*
X164576228Y-78477077D01*
X164558660Y-78425088D01*
X164534292Y-78388605D01*
X164503021Y-78357046D01*
X164364896Y-78277698D01*
X164214566Y-78277784D01*
X164067125Y-78356592D01*
X164042400Y-78378754D01*
X163923667Y-78492507D01*
X163923667Y-80297000D01*
X163585000Y-80297000D01*
X163585000Y-79403952D01*
X163584511Y-79104914D01*
X163582345Y-78878342D01*
X163577450Y-78712037D01*
X163568774Y-78593801D01*
X163555268Y-78511435D01*
X163535878Y-78452740D01*
X163509556Y-78405518D01*
X163497451Y-78387952D01*
X163383096Y-78287566D01*
X163246785Y-78264352D01*
X163101963Y-78318573D01*
X163026400Y-78378754D01*
X162907667Y-78492507D01*
X162907667Y-80297000D01*
X162569000Y-80297000D01*
X162569000Y-77921477D01*
X162791250Y-77920560D01*
X162971104Y-77918585D01*
X163171258Y-77914636D01*
X163254585Y-77912405D01*
X163399688Y-77913132D01*
X163399688Y-77913132D01*
G37*
X163399688Y-77913132D02*
X163495678Y-77934188D01*
X163577698Y-77987552D01*
X163637937Y-78043076D01*
X163780202Y-78180985D01*
X163902188Y-78053659D01*
X163980670Y-77981461D01*
X164059408Y-77943167D01*
X164169572Y-77928340D01*
X164282428Y-77926334D01*
X164423265Y-77929359D01*
X164518503Y-77947597D01*
X164599194Y-77994784D01*
X164696389Y-78084663D01*
X164740175Y-78128871D01*
X164939667Y-78331408D01*
X164939667Y-80297000D01*
X164601000Y-80297000D01*
X164601000Y-79373046D01*
X164600750Y-79070627D01*
X164599260Y-78841347D01*
X164595417Y-78673680D01*
X164588110Y-78556099D01*
X164576228Y-78477077D01*
X164558660Y-78425088D01*
X164534292Y-78388605D01*
X164503021Y-78357046D01*
X164364896Y-78277698D01*
X164214566Y-78277784D01*
X164067125Y-78356592D01*
X164042400Y-78378754D01*
X163923667Y-78492507D01*
X163923667Y-80297000D01*
X163585000Y-80297000D01*
X163585000Y-79403952D01*
X163584511Y-79104914D01*
X163582345Y-78878342D01*
X163577450Y-78712037D01*
X163568774Y-78593801D01*
X163555268Y-78511435D01*
X163535878Y-78452740D01*
X163509556Y-78405518D01*
X163497451Y-78387952D01*
X163383096Y-78287566D01*
X163246785Y-78264352D01*
X163101963Y-78318573D01*
X163026400Y-78378754D01*
X162907667Y-78492507D01*
X162907667Y-80297000D01*
X162569000Y-80297000D01*
X162569000Y-77921477D01*
X162791250Y-77920560D01*
X162971104Y-77918585D01*
X163171258Y-77914636D01*
X163254585Y-77912405D01*
X163399688Y-77913132D01*
G36*
X161725081Y-78124269D02*
X161934000Y-78343372D01*
X161934000Y-80000667D01*
X162103333Y-80000667D01*
X162211751Y-80005152D01*
X162259933Y-80032848D01*
X162272288Y-80105113D01*
X162272667Y-80148834D01*
X162272667Y-80297000D01*
X160290846Y-80297000D01*
X160096423Y-80080755D01*
X159993001Y-79961195D01*
X159934793Y-79871111D01*
X159908837Y-79778461D01*
X159902472Y-79656893D01*
X160240371Y-79656893D01*
X160300384Y-79814557D01*
X160354420Y-79881934D01*
X160409788Y-79933770D01*
X160469838Y-79969687D01*
X160548813Y-79991208D01*
X160660957Y-79999854D01*
X160820511Y-79997149D01*
X161041718Y-79984615D01*
X161207830Y-79973161D01*
X161595333Y-79945655D01*
X161595333Y-79238667D01*
X161036733Y-79238667D01*
X160809407Y-79239288D01*
X160650341Y-79242988D01*
X160543128Y-79252522D01*
X160471363Y-79270646D01*
X160418639Y-79300115D01*
X160368550Y-79343684D01*
X160359400Y-79352420D01*
X160260091Y-79497716D01*
X160240371Y-79656893D01*
X159902472Y-79656893D01*
X159902174Y-79651202D01*
X159902000Y-79600062D01*
X159902000Y-79335615D01*
X160132299Y-79117808D01*
X160362598Y-78900000D01*
X161595333Y-78900000D01*
X161595333Y-78675087D01*
X161587945Y-78530094D01*
X161557554Y-78433897D01*
X161491821Y-78351300D01*
X161476600Y-78336420D01*
X161426464Y-78291078D01*
X161376502Y-78259737D01*
X161310784Y-78239813D01*
X161213378Y-78228722D01*
X161068353Y-78223877D01*
X160859776Y-78222694D01*
X160775545Y-78222667D01*
X160193222Y-78222667D01*
X160219500Y-77905167D01*
X161516161Y-77905167D01*
X161725081Y-78124269D01*
X161725081Y-78124269D01*
G37*
X161725081Y-78124269D02*
X161934000Y-78343372D01*
X161934000Y-80000667D01*
X162103333Y-80000667D01*
X162211751Y-80005152D01*
X162259933Y-80032848D01*
X162272288Y-80105113D01*
X162272667Y-80148834D01*
X162272667Y-80297000D01*
X160290846Y-80297000D01*
X160096423Y-80080755D01*
X159993001Y-79961195D01*
X159934793Y-79871111D01*
X159908837Y-79778461D01*
X159902472Y-79656893D01*
X160240371Y-79656893D01*
X160300384Y-79814557D01*
X160354420Y-79881934D01*
X160409788Y-79933770D01*
X160469838Y-79969687D01*
X160548813Y-79991208D01*
X160660957Y-79999854D01*
X160820511Y-79997149D01*
X161041718Y-79984615D01*
X161207830Y-79973161D01*
X161595333Y-79945655D01*
X161595333Y-79238667D01*
X161036733Y-79238667D01*
X160809407Y-79239288D01*
X160650341Y-79242988D01*
X160543128Y-79252522D01*
X160471363Y-79270646D01*
X160418639Y-79300115D01*
X160368550Y-79343684D01*
X160359400Y-79352420D01*
X160260091Y-79497716D01*
X160240371Y-79656893D01*
X159902472Y-79656893D01*
X159902174Y-79651202D01*
X159902000Y-79600062D01*
X159902000Y-79335615D01*
X160132299Y-79117808D01*
X160362598Y-78900000D01*
X161595333Y-78900000D01*
X161595333Y-78675087D01*
X161587945Y-78530094D01*
X161557554Y-78433897D01*
X161491821Y-78351300D01*
X161476600Y-78336420D01*
X161426464Y-78291078D01*
X161376502Y-78259737D01*
X161310784Y-78239813D01*
X161213378Y-78228722D01*
X161068353Y-78223877D01*
X160859776Y-78222694D01*
X160775545Y-78222667D01*
X160193222Y-78222667D01*
X160219500Y-77905167D01*
X161516161Y-77905167D01*
X161725081Y-78124269D01*
G36*
X158547333Y-80297000D02*
X158207348Y-80297000D01*
X158218591Y-79101084D01*
X158229833Y-77905167D01*
X158547333Y-77878889D01*
X158547333Y-80297000D01*
X158547333Y-80297000D01*
G37*
X158547333Y-80297000D02*
X158207348Y-80297000D01*
X158218591Y-79101084D01*
X158229833Y-77905167D01*
X158547333Y-77878889D01*
X158547333Y-80297000D01*
G36*
X155890388Y-78402584D02*
X155901500Y-79937167D01*
X156060250Y-79950306D01*
X156162510Y-79964123D01*
X156207505Y-80000353D01*
X156218713Y-80085606D01*
X156219000Y-80130222D01*
X156219000Y-80297000D01*
X156015638Y-80297000D01*
X155876476Y-80287497D01*
X155778228Y-80247245D01*
X155678165Y-80158632D01*
X155676971Y-80157401D01*
X155541667Y-80017803D01*
X155541667Y-76868000D01*
X155879277Y-76868000D01*
X155890388Y-78402584D01*
X155890388Y-78402584D01*
G37*
X155890388Y-78402584D02*
X155901500Y-79937167D01*
X156060250Y-79950306D01*
X156162510Y-79964123D01*
X156207505Y-80000353D01*
X156218713Y-80085606D01*
X156219000Y-80130222D01*
X156219000Y-80297000D01*
X156015638Y-80297000D01*
X155876476Y-80287497D01*
X155778228Y-80247245D01*
X155678165Y-80158632D01*
X155676971Y-80157401D01*
X155541667Y-80017803D01*
X155541667Y-76868000D01*
X155879277Y-76868000D01*
X155890388Y-78402584D01*
G36*
X153223388Y-78402584D02*
X153234500Y-79937167D01*
X153393250Y-79950306D01*
X153495510Y-79964123D01*
X153540505Y-80000353D01*
X153551713Y-80085606D01*
X153552000Y-80130222D01*
X153552000Y-80297000D01*
X153327087Y-80297000D01*
X153182094Y-80289612D01*
X153085897Y-80259221D01*
X153003300Y-80193488D01*
X152988420Y-80178267D01*
X152874667Y-80059534D01*
X152874667Y-76868000D01*
X153212277Y-76868000D01*
X153223388Y-78402584D01*
X153223388Y-78402584D01*
G37*
X153223388Y-78402584D02*
X153234500Y-79937167D01*
X153393250Y-79950306D01*
X153495510Y-79964123D01*
X153540505Y-80000353D01*
X153551713Y-80085606D01*
X153552000Y-80130222D01*
X153552000Y-80297000D01*
X153327087Y-80297000D01*
X153182094Y-80289612D01*
X153085897Y-80259221D01*
X153003300Y-80193488D01*
X152988420Y-80178267D01*
X152874667Y-80059534D01*
X152874667Y-76868000D01*
X153212277Y-76868000D01*
X153223388Y-78402584D01*
G36*
X150504000Y-80297000D02*
X150164015Y-80297000D01*
X150175257Y-79101084D01*
X150186500Y-77905167D01*
X150504000Y-77878889D01*
X150504000Y-80297000D01*
X150504000Y-80297000D01*
G37*
X150504000Y-80297000D02*
X150164015Y-80297000D01*
X150175257Y-79101084D01*
X150186500Y-77905167D01*
X150504000Y-77878889D01*
X150504000Y-80297000D01*
G36*
X169919536Y-77595465D02*
X170316000Y-77984264D01*
X170316000Y-78499506D01*
X169531242Y-79281000D01*
X168286606Y-79281000D01*
X168274719Y-79799584D01*
X168262833Y-80318167D01*
X168113153Y-80330765D01*
X168005277Y-80331387D01*
X167937467Y-80316375D01*
X167933237Y-80313126D01*
X167926314Y-80265262D01*
X167919949Y-80142383D01*
X167914328Y-79954139D01*
X167909636Y-79710181D01*
X167906060Y-79420158D01*
X167903786Y-79093723D01*
X167903000Y-78744778D01*
X167903000Y-77545334D01*
X168284000Y-77545334D01*
X168284000Y-78942334D01*
X169403708Y-78942334D01*
X169690521Y-78657719D01*
X169851287Y-78490030D01*
X169947251Y-78358178D01*
X169978462Y-78243879D01*
X169944967Y-78128845D01*
X169846816Y-77994790D01*
X169692719Y-77832146D01*
X169408104Y-77545334D01*
X168284000Y-77545334D01*
X167903000Y-77545334D01*
X167903000Y-77206667D01*
X169523071Y-77206667D01*
X169919536Y-77595465D01*
X169919536Y-77595465D01*
G37*
X169919536Y-77595465D02*
X170316000Y-77984264D01*
X170316000Y-78499506D01*
X169531242Y-79281000D01*
X168286606Y-79281000D01*
X168274719Y-79799584D01*
X168262833Y-80318167D01*
X168113153Y-80330765D01*
X168005277Y-80331387D01*
X167937467Y-80316375D01*
X167933237Y-80313126D01*
X167926314Y-80265262D01*
X167919949Y-80142383D01*
X167914328Y-79954139D01*
X167909636Y-79710181D01*
X167906060Y-79420158D01*
X167903786Y-79093723D01*
X167903000Y-78744778D01*
X167903000Y-77545334D01*
X168284000Y-77545334D01*
X168284000Y-78942334D01*
X169403708Y-78942334D01*
X169690521Y-78657719D01*
X169851287Y-78490030D01*
X169947251Y-78358178D01*
X169978462Y-78243879D01*
X169944967Y-78128845D01*
X169846816Y-77994790D01*
X169692719Y-77832146D01*
X169408104Y-77545334D01*
X168284000Y-77545334D01*
X167903000Y-77545334D01*
X167903000Y-77206667D01*
X169523071Y-77206667D01*
X169919536Y-77595465D01*
G36*
X148853000Y-79898016D02*
X148650462Y-80097508D01*
X148534904Y-80199423D01*
X148430967Y-80270677D01*
X148364712Y-80295157D01*
X148299659Y-80266880D01*
X148191319Y-80192185D01*
X148057015Y-80083773D01*
X147964284Y-80001505D01*
X147647068Y-79709696D01*
X147323562Y-80024515D01*
X147188558Y-80153441D01*
X147075507Y-80256823D01*
X146998150Y-80322373D01*
X146971494Y-80339334D01*
X146929096Y-80312243D01*
X146843291Y-80240668D01*
X146731367Y-80139156D01*
X146712632Y-80121526D01*
X146482333Y-79903719D01*
X146482333Y-77201556D01*
X146799833Y-77227834D01*
X146811059Y-78495210D01*
X146814757Y-78861413D01*
X146819021Y-79152245D01*
X146824416Y-79377005D01*
X146831510Y-79544988D01*
X146840869Y-79665491D01*
X146853059Y-79747810D01*
X146868648Y-79801243D01*
X146888201Y-79835087D01*
X146893066Y-79840800D01*
X146930010Y-79874821D01*
X146968334Y-79880551D01*
X147022712Y-79849888D01*
X147107822Y-79774726D01*
X147231091Y-79654146D01*
X147498333Y-79389279D01*
X147498333Y-78603667D01*
X147837000Y-78603667D01*
X147837000Y-79389279D01*
X148104242Y-79654146D01*
X148232334Y-79779299D01*
X148315699Y-79852224D01*
X148369012Y-79881027D01*
X148406948Y-79873809D01*
X148442267Y-79840800D01*
X148462763Y-79810005D01*
X148479171Y-79761655D01*
X148492057Y-79686455D01*
X148501987Y-79575106D01*
X148509528Y-79418313D01*
X148515247Y-79206779D01*
X148519710Y-78931206D01*
X148523484Y-78582299D01*
X148524274Y-78495210D01*
X148535500Y-77227834D01*
X148853000Y-77201556D01*
X148853000Y-79898016D01*
X148853000Y-79898016D01*
G37*
X148853000Y-79898016D02*
X148650462Y-80097508D01*
X148534904Y-80199423D01*
X148430967Y-80270677D01*
X148364712Y-80295157D01*
X148299659Y-80266880D01*
X148191319Y-80192185D01*
X148057015Y-80083773D01*
X147964284Y-80001505D01*
X147647068Y-79709696D01*
X147323562Y-80024515D01*
X147188558Y-80153441D01*
X147075507Y-80256823D01*
X146998150Y-80322373D01*
X146971494Y-80339334D01*
X146929096Y-80312243D01*
X146843291Y-80240668D01*
X146731367Y-80139156D01*
X146712632Y-80121526D01*
X146482333Y-79903719D01*
X146482333Y-77201556D01*
X146799833Y-77227834D01*
X146811059Y-78495210D01*
X146814757Y-78861413D01*
X146819021Y-79152245D01*
X146824416Y-79377005D01*
X146831510Y-79544988D01*
X146840869Y-79665491D01*
X146853059Y-79747810D01*
X146868648Y-79801243D01*
X146888201Y-79835087D01*
X146893066Y-79840800D01*
X146930010Y-79874821D01*
X146968334Y-79880551D01*
X147022712Y-79849888D01*
X147107822Y-79774726D01*
X147231091Y-79654146D01*
X147498333Y-79389279D01*
X147498333Y-78603667D01*
X147837000Y-78603667D01*
X147837000Y-79389279D01*
X148104242Y-79654146D01*
X148232334Y-79779299D01*
X148315699Y-79852224D01*
X148369012Y-79881027D01*
X148406948Y-79873809D01*
X148442267Y-79840800D01*
X148462763Y-79810005D01*
X148479171Y-79761655D01*
X148492057Y-79686455D01*
X148501987Y-79575106D01*
X148509528Y-79418313D01*
X148515247Y-79206779D01*
X148519710Y-78931206D01*
X148523484Y-78582299D01*
X148524274Y-78495210D01*
X148535500Y-77227834D01*
X148853000Y-77201556D01*
X148853000Y-79898016D01*
D12*
G04 #@! TO.C,C1*
X123650000Y-103500000D02*
X123650000Y-104500000D01*
X125350000Y-104500000D02*
X125350000Y-103500000D01*
G04 #@! TO.C,C2*
X122350000Y-99000000D02*
X122350000Y-98000000D01*
X120650000Y-98000000D02*
X120650000Y-99000000D01*
G04 #@! TO.C,C3*
X134150000Y-108500000D02*
X134150000Y-109500000D01*
X135850000Y-109500000D02*
X135850000Y-108500000D01*
G04 #@! TO.C,C4*
X132350000Y-109500000D02*
X132350000Y-108500000D01*
X130650000Y-108500000D02*
X130650000Y-109500000D01*
G04 #@! TO.C,C5*
X125350000Y-109500000D02*
X125350000Y-108500000D01*
X123650000Y-108500000D02*
X123650000Y-109500000D01*
G04 #@! TO.C,C6*
X125350000Y-99000000D02*
X125350000Y-98000000D01*
X123650000Y-98000000D02*
X123650000Y-99000000D01*
G04 #@! TO.C,C7*
X128850000Y-109500000D02*
X128850000Y-108500000D01*
X127150000Y-108500000D02*
X127150000Y-109500000D01*
G04 #@! TO.C,C8*
X129650000Y-93500000D02*
X129650000Y-94500000D01*
X131350000Y-94500000D02*
X131350000Y-93500000D01*
G04 #@! TO.C,C9*
X134850000Y-94500000D02*
X134850000Y-93500000D01*
X133150000Y-93500000D02*
X133150000Y-94500000D01*
G04 #@! TO.C,D1*
X148167768Y-92222183D02*
X147177818Y-91232233D01*
X147177818Y-91232233D02*
X145197919Y-93212132D01*
X148167768Y-92222183D02*
X146187869Y-94202082D01*
G04 #@! TO.C,D2*
X162167768Y-107222183D02*
X160187869Y-109202082D01*
X161177818Y-106232233D02*
X159197919Y-108212132D01*
X162167768Y-107222183D02*
X161177818Y-106232233D01*
G04 #@! TO.C,D3*
X148167768Y-107222183D02*
X146187869Y-109202082D01*
X147177818Y-106232233D02*
X145197919Y-108212132D01*
X148167768Y-107222183D02*
X147177818Y-106232233D01*
G04 #@! TO.C,D4*
X162167768Y-92222183D02*
X161177818Y-91232233D01*
X161177818Y-91232233D02*
X159197919Y-93212132D01*
X162167768Y-92222183D02*
X160187869Y-94202082D01*
G04 #@! TO.C,D5*
X155167768Y-99722183D02*
X154177818Y-98732233D01*
X154177818Y-98732233D02*
X152197919Y-100712132D01*
X155167768Y-99722183D02*
X153187869Y-101702082D01*
G04 #@! TO.C,D6*
X148167768Y-99722183D02*
X147177818Y-98732233D01*
X147177818Y-98732233D02*
X145197919Y-100712132D01*
X148167768Y-99722183D02*
X146187869Y-101702082D01*
G04 #@! TO.C,D7*
X162167768Y-99722183D02*
X160187869Y-101702082D01*
X161177818Y-98732233D02*
X159197919Y-100712132D01*
X162167768Y-99722183D02*
X161177818Y-98732233D01*
G04 #@! TO.C,D8*
X174667768Y-92222183D02*
X172687869Y-94202082D01*
X173677818Y-91232233D02*
X171697919Y-93212132D01*
X174667768Y-92222183D02*
X173677818Y-91232233D01*
G04 #@! TO.C,D9*
X188767767Y-107222183D02*
X187777817Y-106232233D01*
X187777817Y-106232233D02*
X185797918Y-108212132D01*
X188767767Y-107222183D02*
X186787868Y-109202082D01*
G04 #@! TO.C,D10*
X174667768Y-107222183D02*
X173677818Y-106232233D01*
X173677818Y-106232233D02*
X171697919Y-108212132D01*
X174667768Y-107222183D02*
X172687869Y-109202082D01*
G04 #@! TO.C,D11*
X188767767Y-92222183D02*
X186787868Y-94202082D01*
X187777817Y-91232233D02*
X185797918Y-93212132D01*
X188767767Y-92222183D02*
X187777817Y-91232233D01*
G04 #@! TO.C,D12*
X181667768Y-99722183D02*
X179687869Y-101702082D01*
X180677818Y-98732233D02*
X178697919Y-100712132D01*
X181667768Y-99722183D02*
X180677818Y-98732233D01*
G04 #@! TO.C,D13*
X174667768Y-99722183D02*
X172687869Y-101702082D01*
X173677818Y-98732233D02*
X171697919Y-100712132D01*
X174667768Y-99722183D02*
X173677818Y-98732233D01*
G04 #@! TO.C,D14*
X188767767Y-99722183D02*
X187777817Y-98732233D01*
X187777817Y-98732233D02*
X185797918Y-100712132D01*
X188767767Y-99722183D02*
X186787868Y-101702082D01*
D13*
G04 #@! TO.C,U1*
X133150000Y-98860000D02*
X133150000Y-99385000D01*
X128850000Y-103160000D02*
X128850000Y-102635000D01*
X133150000Y-103160000D02*
X133150000Y-102635000D01*
X128850000Y-98860000D02*
X129375000Y-98860000D01*
X128850000Y-103160000D02*
X129375000Y-103160000D01*
X133150000Y-103160000D02*
X132625000Y-103160000D01*
X133150000Y-98860000D02*
X132625000Y-98860000D01*
G04 #@! TO.C,C1*
X124333333Y-106857142D02*
X124285714Y-106904761D01*
X124142857Y-106952380D01*
X124047619Y-106952380D01*
X123904761Y-106904761D01*
X123809523Y-106809523D01*
X123761904Y-106714285D01*
X123714285Y-106523809D01*
X123714285Y-106380952D01*
X123761904Y-106190476D01*
X123809523Y-106095238D01*
X123904761Y-106000000D01*
X124047619Y-105952380D01*
X124142857Y-105952380D01*
X124285714Y-106000000D01*
X124333333Y-106047619D01*
X125285714Y-106952380D02*
X124714285Y-106952380D01*
X125000000Y-106952380D02*
X125000000Y-105952380D01*
X124904761Y-106095238D01*
X124809523Y-106190476D01*
X124714285Y-106238095D01*
G04 #@! TO.C,C2*
X121333333Y-101357142D02*
X121285714Y-101404761D01*
X121142857Y-101452380D01*
X121047619Y-101452380D01*
X120904761Y-101404761D01*
X120809523Y-101309523D01*
X120761904Y-101214285D01*
X120714285Y-101023809D01*
X120714285Y-100880952D01*
X120761904Y-100690476D01*
X120809523Y-100595238D01*
X120904761Y-100500000D01*
X121047619Y-100452380D01*
X121142857Y-100452380D01*
X121285714Y-100500000D01*
X121333333Y-100547619D01*
X121714285Y-100547619D02*
X121761904Y-100500000D01*
X121857142Y-100452380D01*
X122095238Y-100452380D01*
X122190476Y-100500000D01*
X122238095Y-100547619D01*
X122285714Y-100642857D01*
X122285714Y-100738095D01*
X122238095Y-100880952D01*
X121666666Y-101452380D01*
X122285714Y-101452380D01*
G04 #@! TO.C,C3*
X134833333Y-111857142D02*
X134785714Y-111904761D01*
X134642857Y-111952380D01*
X134547619Y-111952380D01*
X134404761Y-111904761D01*
X134309523Y-111809523D01*
X134261904Y-111714285D01*
X134214285Y-111523809D01*
X134214285Y-111380952D01*
X134261904Y-111190476D01*
X134309523Y-111095238D01*
X134404761Y-111000000D01*
X134547619Y-110952380D01*
X134642857Y-110952380D01*
X134785714Y-111000000D01*
X134833333Y-111047619D01*
X135166666Y-110952380D02*
X135785714Y-110952380D01*
X135452380Y-111333333D01*
X135595238Y-111333333D01*
X135690476Y-111380952D01*
X135738095Y-111428571D01*
X135785714Y-111523809D01*
X135785714Y-111761904D01*
X135738095Y-111857142D01*
X135690476Y-111904761D01*
X135595238Y-111952380D01*
X135309523Y-111952380D01*
X135214285Y-111904761D01*
X135166666Y-111857142D01*
G04 #@! TO.C,C4*
X131333333Y-111857142D02*
X131285714Y-111904761D01*
X131142857Y-111952380D01*
X131047619Y-111952380D01*
X130904761Y-111904761D01*
X130809523Y-111809523D01*
X130761904Y-111714285D01*
X130714285Y-111523809D01*
X130714285Y-111380952D01*
X130761904Y-111190476D01*
X130809523Y-111095238D01*
X130904761Y-111000000D01*
X131047619Y-110952380D01*
X131142857Y-110952380D01*
X131285714Y-111000000D01*
X131333333Y-111047619D01*
X132190476Y-111285714D02*
X132190476Y-111952380D01*
X131952380Y-110904761D02*
X131714285Y-111619047D01*
X132333333Y-111619047D01*
G04 #@! TO.C,C5*
X124333333Y-111857142D02*
X124285714Y-111904761D01*
X124142857Y-111952380D01*
X124047619Y-111952380D01*
X123904761Y-111904761D01*
X123809523Y-111809523D01*
X123761904Y-111714285D01*
X123714285Y-111523809D01*
X123714285Y-111380952D01*
X123761904Y-111190476D01*
X123809523Y-111095238D01*
X123904761Y-111000000D01*
X124047619Y-110952380D01*
X124142857Y-110952380D01*
X124285714Y-111000000D01*
X124333333Y-111047619D01*
X125238095Y-110952380D02*
X124761904Y-110952380D01*
X124714285Y-111428571D01*
X124761904Y-111380952D01*
X124857142Y-111333333D01*
X125095238Y-111333333D01*
X125190476Y-111380952D01*
X125238095Y-111428571D01*
X125285714Y-111523809D01*
X125285714Y-111761904D01*
X125238095Y-111857142D01*
X125190476Y-111904761D01*
X125095238Y-111952380D01*
X124857142Y-111952380D01*
X124761904Y-111904761D01*
X124714285Y-111857142D01*
G04 #@! TO.C,C6*
X124333333Y-101357142D02*
X124285714Y-101404761D01*
X124142857Y-101452380D01*
X124047619Y-101452380D01*
X123904761Y-101404761D01*
X123809523Y-101309523D01*
X123761904Y-101214285D01*
X123714285Y-101023809D01*
X123714285Y-100880952D01*
X123761904Y-100690476D01*
X123809523Y-100595238D01*
X123904761Y-100500000D01*
X124047619Y-100452380D01*
X124142857Y-100452380D01*
X124285714Y-100500000D01*
X124333333Y-100547619D01*
X125190476Y-100452380D02*
X125000000Y-100452380D01*
X124904761Y-100500000D01*
X124857142Y-100547619D01*
X124761904Y-100690476D01*
X124714285Y-100880952D01*
X124714285Y-101261904D01*
X124761904Y-101357142D01*
X124809523Y-101404761D01*
X124904761Y-101452380D01*
X125095238Y-101452380D01*
X125190476Y-101404761D01*
X125238095Y-101357142D01*
X125285714Y-101261904D01*
X125285714Y-101023809D01*
X125238095Y-100928571D01*
X125190476Y-100880952D01*
X125095238Y-100833333D01*
X124904761Y-100833333D01*
X124809523Y-100880952D01*
X124761904Y-100928571D01*
X124714285Y-101023809D01*
G04 #@! TO.C,C7*
X127833333Y-111857142D02*
X127785714Y-111904761D01*
X127642857Y-111952380D01*
X127547619Y-111952380D01*
X127404761Y-111904761D01*
X127309523Y-111809523D01*
X127261904Y-111714285D01*
X127214285Y-111523809D01*
X127214285Y-111380952D01*
X127261904Y-111190476D01*
X127309523Y-111095238D01*
X127404761Y-111000000D01*
X127547619Y-110952380D01*
X127642857Y-110952380D01*
X127785714Y-111000000D01*
X127833333Y-111047619D01*
X128166666Y-110952380D02*
X128833333Y-110952380D01*
X128404761Y-111952380D01*
G04 #@! TO.C,C8*
X130333333Y-96857142D02*
X130285714Y-96904761D01*
X130142857Y-96952380D01*
X130047619Y-96952380D01*
X129904761Y-96904761D01*
X129809523Y-96809523D01*
X129761904Y-96714285D01*
X129714285Y-96523809D01*
X129714285Y-96380952D01*
X129761904Y-96190476D01*
X129809523Y-96095238D01*
X129904761Y-96000000D01*
X130047619Y-95952380D01*
X130142857Y-95952380D01*
X130285714Y-96000000D01*
X130333333Y-96047619D01*
X130904761Y-96380952D02*
X130809523Y-96333333D01*
X130761904Y-96285714D01*
X130714285Y-96190476D01*
X130714285Y-96142857D01*
X130761904Y-96047619D01*
X130809523Y-96000000D01*
X130904761Y-95952380D01*
X131095238Y-95952380D01*
X131190476Y-96000000D01*
X131238095Y-96047619D01*
X131285714Y-96142857D01*
X131285714Y-96190476D01*
X131238095Y-96285714D01*
X131190476Y-96333333D01*
X131095238Y-96380952D01*
X130904761Y-96380952D01*
X130809523Y-96428571D01*
X130761904Y-96476190D01*
X130714285Y-96571428D01*
X130714285Y-96761904D01*
X130761904Y-96857142D01*
X130809523Y-96904761D01*
X130904761Y-96952380D01*
X131095238Y-96952380D01*
X131190476Y-96904761D01*
X131238095Y-96857142D01*
X131285714Y-96761904D01*
X131285714Y-96571428D01*
X131238095Y-96476190D01*
X131190476Y-96428571D01*
X131095238Y-96380952D01*
G04 #@! TO.C,C9*
X133833333Y-96857142D02*
X133785714Y-96904761D01*
X133642857Y-96952380D01*
X133547619Y-96952380D01*
X133404761Y-96904761D01*
X133309523Y-96809523D01*
X133261904Y-96714285D01*
X133214285Y-96523809D01*
X133214285Y-96380952D01*
X133261904Y-96190476D01*
X133309523Y-96095238D01*
X133404761Y-96000000D01*
X133547619Y-95952380D01*
X133642857Y-95952380D01*
X133785714Y-96000000D01*
X133833333Y-96047619D01*
X134309523Y-96952380D02*
X134500000Y-96952380D01*
X134595238Y-96904761D01*
X134642857Y-96857142D01*
X134738095Y-96714285D01*
X134785714Y-96523809D01*
X134785714Y-96142857D01*
X134738095Y-96047619D01*
X134690476Y-96000000D01*
X134595238Y-95952380D01*
X134404761Y-95952380D01*
X134309523Y-96000000D01*
X134261904Y-96047619D01*
X134214285Y-96142857D01*
X134214285Y-96380952D01*
X134261904Y-96476190D01*
X134309523Y-96523809D01*
X134404761Y-96571428D01*
X134595238Y-96571428D01*
X134690476Y-96523809D01*
X134738095Y-96476190D01*
X134785714Y-96380952D01*
G04 #@! TO.C,D1*
X147223275Y-94867098D02*
X146516168Y-94159992D01*
X146684527Y-93991633D01*
X146819214Y-93924289D01*
X146953901Y-93924289D01*
X147054916Y-93957961D01*
X147223275Y-94058976D01*
X147324290Y-94159992D01*
X147425306Y-94328350D01*
X147458977Y-94429366D01*
X147458977Y-94564053D01*
X147391634Y-94698740D01*
X147223275Y-94867098D01*
X148300771Y-93789602D02*
X147896710Y-94193663D01*
X148098741Y-93991633D02*
X147391634Y-93284526D01*
X147425306Y-93452885D01*
X147425306Y-93587572D01*
X147391634Y-93688587D01*
G04 #@! TO.C,D2*
X161223275Y-109867098D02*
X160516168Y-109159992D01*
X160684527Y-108991633D01*
X160819214Y-108924289D01*
X160953901Y-108924289D01*
X161054916Y-108957961D01*
X161223275Y-109058976D01*
X161324290Y-109159992D01*
X161425306Y-109328350D01*
X161458977Y-109429366D01*
X161458977Y-109564053D01*
X161391634Y-109698740D01*
X161223275Y-109867098D01*
X161256947Y-108553900D02*
X161256947Y-108486556D01*
X161290618Y-108385541D01*
X161458977Y-108217182D01*
X161559993Y-108183511D01*
X161627336Y-108183511D01*
X161728351Y-108217182D01*
X161795695Y-108284526D01*
X161863038Y-108419213D01*
X161863038Y-109227335D01*
X162300771Y-108789602D01*
G04 #@! TO.C,D3*
X147223275Y-109867098D02*
X146516168Y-109159992D01*
X146684527Y-108991633D01*
X146819214Y-108924289D01*
X146953901Y-108924289D01*
X147054916Y-108957961D01*
X147223275Y-109058976D01*
X147324290Y-109159992D01*
X147425306Y-109328350D01*
X147458977Y-109429366D01*
X147458977Y-109564053D01*
X147391634Y-109698740D01*
X147223275Y-109867098D01*
X147155931Y-108520228D02*
X147593664Y-108082495D01*
X147627336Y-108587572D01*
X147728351Y-108486556D01*
X147829367Y-108452885D01*
X147896710Y-108452885D01*
X147997725Y-108486556D01*
X148166084Y-108654915D01*
X148199756Y-108755930D01*
X148199756Y-108823274D01*
X148166084Y-108924289D01*
X147964054Y-109126320D01*
X147863038Y-109159992D01*
X147795695Y-109159992D01*
G04 #@! TO.C,D4*
X161223275Y-94867098D02*
X160516168Y-94159992D01*
X160684527Y-93991633D01*
X160819214Y-93924289D01*
X160953901Y-93924289D01*
X161054916Y-93957961D01*
X161223275Y-94058976D01*
X161324290Y-94159992D01*
X161425306Y-94328350D01*
X161458977Y-94429366D01*
X161458977Y-94564053D01*
X161391634Y-94698740D01*
X161223275Y-94867098D01*
X161762023Y-93385541D02*
X162233428Y-93856946D01*
X161324290Y-93284526D02*
X161661008Y-93957961D01*
X162098741Y-93520228D01*
G04 #@! TO.C,D5*
X154223275Y-102367098D02*
X153516168Y-101659992D01*
X153684527Y-101491633D01*
X153819214Y-101424289D01*
X153953901Y-101424289D01*
X154054916Y-101457961D01*
X154223275Y-101558976D01*
X154324290Y-101659992D01*
X154425306Y-101828350D01*
X154458977Y-101929366D01*
X154458977Y-102064053D01*
X154391634Y-102198740D01*
X154223275Y-102367098D01*
X154559993Y-100616167D02*
X154223275Y-100952885D01*
X154526321Y-101323274D01*
X154526321Y-101255930D01*
X154559993Y-101154915D01*
X154728351Y-100986556D01*
X154829367Y-100952885D01*
X154896710Y-100952885D01*
X154997725Y-100986556D01*
X155166084Y-101154915D01*
X155199756Y-101255930D01*
X155199756Y-101323274D01*
X155166084Y-101424289D01*
X154997725Y-101592648D01*
X154896710Y-101626320D01*
X154829367Y-101626320D01*
G04 #@! TO.C,D6*
X147223275Y-102367098D02*
X146516168Y-101659992D01*
X146684527Y-101491633D01*
X146819214Y-101424289D01*
X146953901Y-101424289D01*
X147054916Y-101457961D01*
X147223275Y-101558976D01*
X147324290Y-101659992D01*
X147425306Y-101828350D01*
X147458977Y-101929366D01*
X147458977Y-102064053D01*
X147391634Y-102198740D01*
X147223275Y-102367098D01*
X147526321Y-100649839D02*
X147391634Y-100784526D01*
X147357962Y-100885541D01*
X147357962Y-100952885D01*
X147391634Y-101121243D01*
X147492649Y-101289602D01*
X147762023Y-101558976D01*
X147863038Y-101592648D01*
X147930382Y-101592648D01*
X148031397Y-101558976D01*
X148166084Y-101424289D01*
X148199756Y-101323274D01*
X148199756Y-101255930D01*
X148166084Y-101154915D01*
X147997725Y-100986556D01*
X147896710Y-100952885D01*
X147829367Y-100952885D01*
X147728351Y-100986556D01*
X147593664Y-101121243D01*
X147559993Y-101222259D01*
X147559993Y-101289602D01*
X147593664Y-101390617D01*
G04 #@! TO.C,D7*
X161223275Y-102367098D02*
X160516168Y-101659992D01*
X160684527Y-101491633D01*
X160819214Y-101424289D01*
X160953901Y-101424289D01*
X161054916Y-101457961D01*
X161223275Y-101558976D01*
X161324290Y-101659992D01*
X161425306Y-101828350D01*
X161458977Y-101929366D01*
X161458977Y-102064053D01*
X161391634Y-102198740D01*
X161223275Y-102367098D01*
X161155931Y-101020228D02*
X161627336Y-100548824D01*
X162031397Y-101558976D01*
G04 #@! TO.C,D8*
X173723275Y-94867098D02*
X173016168Y-94159992D01*
X173184527Y-93991633D01*
X173319214Y-93924289D01*
X173453901Y-93924289D01*
X173554916Y-93957961D01*
X173723275Y-94058976D01*
X173824290Y-94159992D01*
X173925306Y-94328350D01*
X173958977Y-94429366D01*
X173958977Y-94564053D01*
X173891634Y-94698740D01*
X173723275Y-94867098D01*
X174127336Y-93654915D02*
X174026321Y-93688587D01*
X173958977Y-93688587D01*
X173857962Y-93654915D01*
X173824290Y-93621243D01*
X173790618Y-93520228D01*
X173790618Y-93452885D01*
X173824290Y-93351869D01*
X173958977Y-93217182D01*
X174059993Y-93183511D01*
X174127336Y-93183511D01*
X174228351Y-93217182D01*
X174262023Y-93250854D01*
X174295695Y-93351869D01*
X174295695Y-93419213D01*
X174262023Y-93520228D01*
X174127336Y-93654915D01*
X174093664Y-93755930D01*
X174093664Y-93823274D01*
X174127336Y-93924289D01*
X174262023Y-94058976D01*
X174363038Y-94092648D01*
X174430382Y-94092648D01*
X174531397Y-94058976D01*
X174666084Y-93924289D01*
X174699756Y-93823274D01*
X174699756Y-93755930D01*
X174666084Y-93654915D01*
X174531397Y-93520228D01*
X174430382Y-93486556D01*
X174363038Y-93486556D01*
X174262023Y-93520228D01*
G04 #@! TO.C,D9*
X187823274Y-109867098D02*
X187116167Y-109159992D01*
X187284526Y-108991633D01*
X187419213Y-108924289D01*
X187553900Y-108924289D01*
X187654915Y-108957961D01*
X187823274Y-109058976D01*
X187924289Y-109159992D01*
X188025305Y-109328350D01*
X188058976Y-109429366D01*
X188058976Y-109564053D01*
X187991633Y-109698740D01*
X187823274Y-109867098D01*
X188564053Y-109126320D02*
X188698740Y-108991633D01*
X188732411Y-108890617D01*
X188732411Y-108823274D01*
X188698740Y-108654915D01*
X188597724Y-108486556D01*
X188328350Y-108217182D01*
X188227335Y-108183511D01*
X188159992Y-108183511D01*
X188058976Y-108217182D01*
X187924289Y-108351869D01*
X187890617Y-108452885D01*
X187890617Y-108520228D01*
X187924289Y-108621243D01*
X188092648Y-108789602D01*
X188193663Y-108823274D01*
X188261007Y-108823274D01*
X188362022Y-108789602D01*
X188496709Y-108654915D01*
X188530381Y-108553900D01*
X188530381Y-108486556D01*
X188496709Y-108385541D01*
G04 #@! TO.C,D10*
X173386557Y-110203816D02*
X172679451Y-109496709D01*
X172847809Y-109328350D01*
X172982496Y-109261007D01*
X173117183Y-109261007D01*
X173218199Y-109294679D01*
X173386557Y-109395694D01*
X173487573Y-109496709D01*
X173588588Y-109665068D01*
X173622260Y-109766083D01*
X173622260Y-109900770D01*
X173554916Y-110035457D01*
X173386557Y-110203816D01*
X174464054Y-109126320D02*
X174059993Y-109530381D01*
X174262023Y-109328350D02*
X173554916Y-108621243D01*
X173588588Y-108789602D01*
X173588588Y-108924289D01*
X173554916Y-109025305D01*
X174194680Y-107981480D02*
X174262023Y-107914137D01*
X174363038Y-107880465D01*
X174430382Y-107880465D01*
X174531397Y-107914137D01*
X174699756Y-108015152D01*
X174868115Y-108183511D01*
X174969130Y-108351869D01*
X175002802Y-108452885D01*
X175002802Y-108520228D01*
X174969130Y-108621243D01*
X174901786Y-108688587D01*
X174800771Y-108722259D01*
X174733428Y-108722259D01*
X174632412Y-108688587D01*
X174464054Y-108587572D01*
X174295695Y-108419213D01*
X174194680Y-108250854D01*
X174161008Y-108149839D01*
X174161008Y-108082495D01*
X174194680Y-107981480D01*
G04 #@! TO.C,D11*
X187486556Y-95203816D02*
X186779450Y-94496709D01*
X186947808Y-94328350D01*
X187082495Y-94261007D01*
X187217182Y-94261007D01*
X187318198Y-94294679D01*
X187486556Y-94395694D01*
X187587572Y-94496709D01*
X187688587Y-94665068D01*
X187722259Y-94766083D01*
X187722259Y-94900770D01*
X187654915Y-95035457D01*
X187486556Y-95203816D01*
X188564053Y-94126320D02*
X188159992Y-94530381D01*
X188362022Y-94328350D02*
X187654915Y-93621243D01*
X187688587Y-93789602D01*
X187688587Y-93924289D01*
X187654915Y-94025305D01*
X189237488Y-93452885D02*
X188833427Y-93856946D01*
X189035457Y-93654915D02*
X188328350Y-92947808D01*
X188362022Y-93116167D01*
X188362022Y-93250854D01*
X188328350Y-93351869D01*
G04 #@! TO.C,D12*
X180386557Y-102703816D02*
X179679451Y-101996709D01*
X179847809Y-101828350D01*
X179982496Y-101761007D01*
X180117183Y-101761007D01*
X180218199Y-101794679D01*
X180386557Y-101895694D01*
X180487573Y-101996709D01*
X180588588Y-102165068D01*
X180622260Y-102266083D01*
X180622260Y-102400770D01*
X180554916Y-102535457D01*
X180386557Y-102703816D01*
X181464054Y-101626320D02*
X181059993Y-102030381D01*
X181262023Y-101828350D02*
X180554916Y-101121243D01*
X180588588Y-101289602D01*
X180588588Y-101424289D01*
X180554916Y-101525305D01*
X181093664Y-100717182D02*
X181093664Y-100649839D01*
X181127336Y-100548824D01*
X181295695Y-100380465D01*
X181396710Y-100346793D01*
X181464054Y-100346793D01*
X181565069Y-100380465D01*
X181632412Y-100447808D01*
X181699756Y-100582495D01*
X181699756Y-101390617D01*
X182137489Y-100952885D01*
G04 #@! TO.C,D13*
X173386557Y-102703816D02*
X172679451Y-101996709D01*
X172847809Y-101828350D01*
X172982496Y-101761007D01*
X173117183Y-101761007D01*
X173218199Y-101794679D01*
X173386557Y-101895694D01*
X173487573Y-101996709D01*
X173588588Y-102165068D01*
X173622260Y-102266083D01*
X173622260Y-102400770D01*
X173554916Y-102535457D01*
X173386557Y-102703816D01*
X174464054Y-101626320D02*
X174059993Y-102030381D01*
X174262023Y-101828350D02*
X173554916Y-101121243D01*
X173588588Y-101289602D01*
X173588588Y-101424289D01*
X173554916Y-101525305D01*
X173992649Y-100683511D02*
X174430382Y-100245778D01*
X174464054Y-100750854D01*
X174565069Y-100649839D01*
X174666084Y-100616167D01*
X174733428Y-100616167D01*
X174834443Y-100649839D01*
X175002802Y-100818198D01*
X175036473Y-100919213D01*
X175036473Y-100986556D01*
X175002802Y-101087572D01*
X174800771Y-101289602D01*
X174699756Y-101323274D01*
X174632412Y-101323274D01*
G04 #@! TO.C,D14*
X187486556Y-102703816D02*
X186779450Y-101996709D01*
X186947808Y-101828350D01*
X187082495Y-101761007D01*
X187217182Y-101761007D01*
X187318198Y-101794679D01*
X187486556Y-101895694D01*
X187587572Y-101996709D01*
X187688587Y-102165068D01*
X187722259Y-102266083D01*
X187722259Y-102400770D01*
X187654915Y-102535457D01*
X187486556Y-102703816D01*
X188564053Y-101626320D02*
X188159992Y-102030381D01*
X188362022Y-101828350D02*
X187654915Y-101121243D01*
X187688587Y-101289602D01*
X187688587Y-101424289D01*
X187654915Y-101525305D01*
X188698740Y-100548824D02*
X189170144Y-101020228D01*
X188261007Y-100447808D02*
X188597724Y-101121243D01*
X189035457Y-100683511D01*
G04 #@! TO.C,U1*
X130238095Y-97087380D02*
X130238095Y-97896904D01*
X130285714Y-97992142D01*
X130333333Y-98039761D01*
X130428571Y-98087380D01*
X130619047Y-98087380D01*
X130714285Y-98039761D01*
X130761904Y-97992142D01*
X130809523Y-97896904D01*
X130809523Y-97087380D01*
X131809523Y-98087380D02*
X131238095Y-98087380D01*
X131523809Y-98087380D02*
X131523809Y-97087380D01*
X131428571Y-97230238D01*
X131333333Y-97325476D01*
X131238095Y-97373095D01*
G04 #@! TO.C,Ref\002A\002A*
X115638333Y-126804523D02*
X115215000Y-126199761D01*
X114912619Y-126804523D02*
X114912619Y-125534523D01*
X115396428Y-125534523D01*
X115517380Y-125595000D01*
X115577857Y-125655476D01*
X115638333Y-125776428D01*
X115638333Y-125957857D01*
X115577857Y-126078809D01*
X115517380Y-126139285D01*
X115396428Y-126199761D01*
X114912619Y-126199761D01*
X116666428Y-126744047D02*
X116545476Y-126804523D01*
X116303571Y-126804523D01*
X116182619Y-126744047D01*
X116122142Y-126623095D01*
X116122142Y-126139285D01*
X116182619Y-126018333D01*
X116303571Y-125957857D01*
X116545476Y-125957857D01*
X116666428Y-126018333D01*
X116726904Y-126139285D01*
X116726904Y-126260238D01*
X116122142Y-126381190D01*
X117089761Y-125957857D02*
X117573571Y-125957857D01*
X117271190Y-126804523D02*
X117271190Y-125715952D01*
X117331666Y-125595000D01*
X117452619Y-125534523D01*
X117573571Y-125534523D01*
X118178333Y-125534523D02*
X118178333Y-125836904D01*
X117875952Y-125715952D02*
X118178333Y-125836904D01*
X118480714Y-125715952D01*
X117996904Y-126078809D02*
X118178333Y-125836904D01*
X118359761Y-126078809D01*
X119145952Y-125534523D02*
X119145952Y-125836904D01*
X118843571Y-125715952D02*
X119145952Y-125836904D01*
X119448333Y-125715952D01*
X118964523Y-126078809D02*
X119145952Y-125836904D01*
X119327380Y-126078809D01*
X193431904Y-125254523D02*
X193855238Y-126524523D01*
X194278571Y-125254523D01*
X195246190Y-126524523D02*
X195246190Y-125859285D01*
X195185714Y-125738333D01*
X195064761Y-125677857D01*
X194822857Y-125677857D01*
X194701904Y-125738333D01*
X195246190Y-126464047D02*
X195125238Y-126524523D01*
X194822857Y-126524523D01*
X194701904Y-126464047D01*
X194641428Y-126343095D01*
X194641428Y-126222142D01*
X194701904Y-126101190D01*
X194822857Y-126040714D01*
X195125238Y-126040714D01*
X195246190Y-125980238D01*
X196032380Y-126524523D02*
X195911428Y-126464047D01*
X195850952Y-126343095D01*
X195850952Y-125254523D01*
X196697619Y-125254523D02*
X196697619Y-125556904D01*
X196395238Y-125435952D02*
X196697619Y-125556904D01*
X197000000Y-125435952D01*
X196516190Y-125798809D02*
X196697619Y-125556904D01*
X196879047Y-125798809D01*
X197665238Y-125254523D02*
X197665238Y-125556904D01*
X197362857Y-125435952D02*
X197665238Y-125556904D01*
X197967619Y-125435952D01*
X197483809Y-125798809D02*
X197665238Y-125556904D01*
X197846666Y-125798809D01*
G04 #@! TD*
M02*
