G04 #@! TF.GenerationSoftware,KiCad,Pcbnew,5.0.1*
G04 #@! TF.CreationDate,2019-01-18T22:14:13-06:00*
G04 #@! TF.ProjectId,Layout,4C61796F75742E6B696361645F706362,rev?*
G04 #@! TF.SameCoordinates,Original*
G04 #@! TF.FileFunction,Copper,L2,Bot,Signal*
G04 #@! TF.FilePolarity,Positive*
%FSLAX46Y46*%
G04 Gerber Fmt 4.6, Leading zero omitted, Abs format (unit mm)*
G04 Created by KiCad (PCBNEW 5.0.1) date Fri 18 Jan 2019 10:14:13 PM CST*
%MOMM*%
%LPD*%
G01*
G04 APERTURE LIST*
G04 #@! TA.AperFunction,BGAPad,CuDef*
%ADD10C,1.524000*%
G04 #@! TD*
G04 #@! TA.AperFunction,ViaPad*
%ADD11C,0.600000*%
G04 #@! TD*
G04 #@! TA.AperFunction,Conductor*
%ADD12C,0.250000*%
G04 #@! TD*
G04 #@! TA.AperFunction,Conductor*
%ADD13C,0.254000*%
G04 #@! TD*
G04 APERTURE END LIST*
D10*
G04 #@! TO.P,J1,1*
G04 #@! TO.N,P5*
X131500000Y-90000000D03*
G04 #@! TO.P,J1,2*
G04 #@! TO.N,P7*
X135500000Y-90000000D03*
G04 #@! TO.P,J1,3*
G04 #@! TO.N,RST*
X131500000Y-87000000D03*
G04 #@! TO.P,J1,4*
G04 #@! TO.N,P4*
X135500000Y-87000000D03*
G04 #@! TO.P,J1,5*
G04 #@! TO.N,GND*
X131500000Y-84000000D03*
G04 #@! TO.P,J1,6*
G04 #@! TO.N,P6*
X135500000Y-84000000D03*
G04 #@! TD*
G04 #@! TO.P,J2,1*
G04 #@! TO.N,GND*
X135500000Y-116000000D03*
G04 #@! TO.P,J2,2*
G04 #@! TO.N,VDDA*
X131500000Y-116000000D03*
G04 #@! TD*
D11*
G04 #@! TO.N,GND*
X134000000Y-93000000D03*
X130500000Y-93000000D03*
X131500000Y-110500000D03*
X124500000Y-110500000D03*
X124500000Y-105500000D03*
X164500000Y-89500000D03*
X161177818Y-92222183D03*
X137000000Y-110000000D03*
G04 #@! TO.N,*
X130510000Y-100660000D03*
G04 #@! TO.N,Net-(C2-Pad1)*
X114150000Y-96370000D03*
X120000000Y-98000000D03*
G04 #@! TO.N,RST*
X137000000Y-107500000D03*
G04 #@! TO.N,Net-(D1-Pad1)*
X154000000Y-104000000D03*
X147500000Y-91500000D03*
G04 #@! TO.N,P0*
X145622184Y-108777817D03*
X138280000Y-105000000D03*
G04 #@! TO.N,Net-(D3-Pad1)*
X156500000Y-103847469D03*
X147177818Y-107222183D03*
G04 #@! TO.N,P1*
X142500000Y-102000000D03*
X154177818Y-99722183D03*
G04 #@! TO.N,P2*
X131500000Y-106500000D03*
X172122184Y-108777817D03*
G04 #@! TO.N,Net-(D10-Pad1)*
X186222183Y-93777817D03*
X173677818Y-107222183D03*
G04 #@! TO.N,P3*
X130500000Y-106000000D03*
X180677818Y-99722183D03*
G04 #@! TO.N,P5*
X133000000Y-96500000D03*
G04 #@! TO.N,P7*
X136510147Y-96510147D03*
G04 #@! TO.N,P4*
X137000000Y-87500000D03*
G04 #@! TO.N,P6*
X137000000Y-84000000D03*
G04 #@! TO.N,VDDA*
X129032000Y-115824000D03*
G04 #@! TD*
D12*
G04 #@! TO.N,GND*
X164500000Y-89500000D02*
X163900001Y-89500000D01*
X163900001Y-89500000D02*
X161177818Y-92222183D01*
X163900001Y-89500000D02*
X141500000Y-89500000D01*
X141500000Y-89500000D02*
X140500000Y-90500000D01*
X135500000Y-116000000D02*
X135500000Y-112500000D01*
X131500000Y-85391238D02*
X133500000Y-87391238D01*
X131500000Y-84000000D02*
X131500000Y-85391238D01*
X133500000Y-87391238D02*
X133500000Y-90000000D01*
X130500000Y-92250000D02*
X130500000Y-93000000D01*
X129962990Y-91712990D02*
X130500000Y-92250000D01*
X129962990Y-85537010D02*
X129962990Y-91712990D01*
X131500000Y-84000000D02*
X129962990Y-85537010D01*
X133500000Y-90000000D02*
X133500000Y-90500000D01*
X133500000Y-90500000D02*
X134000000Y-91000000D01*
G04 #@! TO.N,Net-(C2-Pad1)*
X114150000Y-96794264D02*
X115355736Y-98000000D01*
X114150000Y-96370000D02*
X114150000Y-96794264D01*
X115355736Y-98000000D02*
X120000000Y-98000000D01*
X119940000Y-98060000D02*
X120000000Y-98000000D01*
G04 #@! TO.N,RST*
X131625001Y-102125001D02*
X137000000Y-107500000D01*
X131625001Y-92699999D02*
X131625001Y-102125001D01*
X130412999Y-91487997D02*
X131625001Y-92699999D01*
X131500000Y-87000000D02*
X130412999Y-88087001D01*
X130412999Y-88087001D02*
X130412999Y-91487997D01*
G04 #@! TO.N,Net-(D1-Pad1)*
X154000000Y-104000000D02*
X155500000Y-102500000D01*
X155500000Y-102500000D02*
X155500000Y-100119363D01*
X155500000Y-100119363D02*
X155500000Y-99500000D01*
X155500000Y-99500000D02*
X150000000Y-94000000D01*
X150000000Y-94000000D02*
X148000000Y-92000000D01*
X148000000Y-92000000D02*
X147500000Y-91500000D01*
G04 #@! TO.N,P0*
X141844367Y-105000000D02*
X145622184Y-108777817D01*
X138280000Y-105000000D02*
X141844367Y-105000000D01*
G04 #@! TO.N,Net-(D3-Pad1)*
X156500000Y-103847469D02*
X153125286Y-107222183D01*
X153125286Y-107222183D02*
X147177818Y-107222183D01*
G04 #@! TO.N,P1*
X142500000Y-102000000D02*
X144777817Y-99722183D01*
X144777817Y-99722183D02*
X154177818Y-99722183D01*
G04 #@! TO.N,P2*
X131924264Y-106500000D02*
X136424264Y-111000000D01*
X131500000Y-106500000D02*
X131924264Y-106500000D01*
X136424264Y-111000000D02*
X169900001Y-111000000D01*
X169900001Y-111000000D02*
X172122184Y-108777817D01*
G04 #@! TO.N,Net-(D10-Pad1)*
X173677818Y-105373654D02*
X173677818Y-107222183D01*
X185273655Y-93777817D02*
X173677818Y-105373654D01*
X186222183Y-93777817D02*
X185273655Y-93777817D01*
G04 #@! TO.N,P3*
X130500000Y-106925002D02*
X135074998Y-111500000D01*
X130500000Y-106000000D02*
X130500000Y-106925002D01*
X135074998Y-111500000D02*
X174000000Y-111500000D01*
X174000000Y-111500000D02*
X180677818Y-104822182D01*
X180677818Y-104822182D02*
X180677818Y-99722183D01*
G04 #@! TO.N,P5*
X133000000Y-91500000D02*
X131500000Y-90000000D01*
X133000000Y-96500000D02*
X133000000Y-91500000D01*
G04 #@! TO.N,P7*
X135500000Y-95500000D02*
X135500000Y-90000000D01*
X136510147Y-96510147D02*
X135500000Y-95500000D01*
G04 #@! TO.N,P4*
X136000000Y-87500000D02*
X135500000Y-87000000D01*
X137000000Y-87500000D02*
X136000000Y-87500000D01*
G04 #@! TO.N,P6*
X137000000Y-84000000D02*
X135500000Y-84000000D01*
G04 #@! TO.N,VDDA*
X131324000Y-115824000D02*
X131500000Y-116000000D01*
X129032000Y-115824000D02*
X131324000Y-115824000D01*
G04 #@! TD*
D13*
G04 #@! TO.N,GND*
G36*
X134103000Y-90277881D02*
X134315680Y-90791337D01*
X134708663Y-91184320D01*
X134740001Y-91197301D01*
X134740000Y-95425153D01*
X134725112Y-95500000D01*
X134740000Y-95574847D01*
X134740000Y-95574851D01*
X134784096Y-95796536D01*
X134952071Y-96047929D01*
X135015530Y-96090331D01*
X135575147Y-96649949D01*
X135575147Y-96696130D01*
X135717492Y-97039782D01*
X135980512Y-97302802D01*
X136324164Y-97445147D01*
X136696130Y-97445147D01*
X137039782Y-97302802D01*
X137302802Y-97039782D01*
X137445147Y-96696130D01*
X137445147Y-96324164D01*
X137302802Y-95980512D01*
X137039782Y-95717492D01*
X136696130Y-95575147D01*
X136649949Y-95575147D01*
X136260000Y-95185199D01*
X136260000Y-91197300D01*
X136291337Y-91184320D01*
X136684320Y-90791337D01*
X136897000Y-90277881D01*
X136897000Y-90127000D01*
X141373000Y-90127000D01*
X141373000Y-104240000D01*
X138842290Y-104240000D01*
X138809635Y-104207345D01*
X138465983Y-104065000D01*
X138094017Y-104065000D01*
X137750365Y-104207345D01*
X137487345Y-104470365D01*
X137345000Y-104814017D01*
X137345000Y-105185983D01*
X137487345Y-105529635D01*
X137750365Y-105792655D01*
X138094017Y-105935000D01*
X138465983Y-105935000D01*
X138809635Y-105792655D01*
X138842290Y-105760000D01*
X141373000Y-105760000D01*
X141373000Y-110240000D01*
X136739066Y-110240000D01*
X132514595Y-106015530D01*
X132472193Y-105952071D01*
X132220801Y-105784096D01*
X132077976Y-105755686D01*
X132029635Y-105707345D01*
X131685983Y-105565000D01*
X131331854Y-105565000D01*
X131292655Y-105470365D01*
X131029635Y-105207345D01*
X130685983Y-105065000D01*
X130314017Y-105065000D01*
X129970365Y-105207345D01*
X129707345Y-105470365D01*
X129565000Y-105814017D01*
X129565000Y-106185983D01*
X129707345Y-106529635D01*
X129740001Y-106562291D01*
X129740001Y-106850151D01*
X129725112Y-106925002D01*
X129740001Y-106999854D01*
X129784097Y-107221539D01*
X129952072Y-107472931D01*
X130015528Y-107515331D01*
X134484669Y-111984473D01*
X134527069Y-112047929D01*
X134778461Y-112215904D01*
X135000146Y-112260000D01*
X135000150Y-112260000D01*
X135074997Y-112274888D01*
X135149844Y-112260000D01*
X141373000Y-112260000D01*
X141373000Y-112873000D01*
X122627000Y-112873000D01*
X122627000Y-102127000D01*
X130000000Y-102127000D01*
X130048601Y-102117333D01*
X130089803Y-102089803D01*
X130117333Y-102048601D01*
X130127000Y-102000000D01*
X130127000Y-101513393D01*
X130324017Y-101595000D01*
X130695983Y-101595000D01*
X130865002Y-101524990D01*
X130865002Y-102050149D01*
X130850113Y-102125001D01*
X130865002Y-102199853D01*
X130909098Y-102421538D01*
X131077073Y-102672930D01*
X131140529Y-102715330D01*
X136065000Y-107639803D01*
X136065000Y-107685983D01*
X136207345Y-108029635D01*
X136470365Y-108292655D01*
X136814017Y-108435000D01*
X137185983Y-108435000D01*
X137529635Y-108292655D01*
X137792655Y-108029635D01*
X137935000Y-107685983D01*
X137935000Y-107314017D01*
X137792655Y-106970365D01*
X137529635Y-106707345D01*
X137185983Y-106565000D01*
X137139803Y-106565000D01*
X132385001Y-101810200D01*
X132385001Y-97207291D01*
X132470365Y-97292655D01*
X132814017Y-97435000D01*
X133185983Y-97435000D01*
X133529635Y-97292655D01*
X133792655Y-97029635D01*
X133935000Y-96685983D01*
X133935000Y-96314017D01*
X133792655Y-95970365D01*
X133760000Y-95937710D01*
X133760000Y-91574846D01*
X133774888Y-91499999D01*
X133760000Y-91425152D01*
X133760000Y-91425148D01*
X133715904Y-91203463D01*
X133674102Y-91140902D01*
X133590329Y-91015526D01*
X133590327Y-91015524D01*
X133547929Y-90952071D01*
X133484476Y-90909673D01*
X132884020Y-90309218D01*
X132897000Y-90277881D01*
X132897000Y-90127000D01*
X134103000Y-90127000D01*
X134103000Y-90277881D01*
X134103000Y-90277881D01*
G37*
X134103000Y-90277881D02*
X134315680Y-90791337D01*
X134708663Y-91184320D01*
X134740001Y-91197301D01*
X134740000Y-95425153D01*
X134725112Y-95500000D01*
X134740000Y-95574847D01*
X134740000Y-95574851D01*
X134784096Y-95796536D01*
X134952071Y-96047929D01*
X135015530Y-96090331D01*
X135575147Y-96649949D01*
X135575147Y-96696130D01*
X135717492Y-97039782D01*
X135980512Y-97302802D01*
X136324164Y-97445147D01*
X136696130Y-97445147D01*
X137039782Y-97302802D01*
X137302802Y-97039782D01*
X137445147Y-96696130D01*
X137445147Y-96324164D01*
X137302802Y-95980512D01*
X137039782Y-95717492D01*
X136696130Y-95575147D01*
X136649949Y-95575147D01*
X136260000Y-95185199D01*
X136260000Y-91197300D01*
X136291337Y-91184320D01*
X136684320Y-90791337D01*
X136897000Y-90277881D01*
X136897000Y-90127000D01*
X141373000Y-90127000D01*
X141373000Y-104240000D01*
X138842290Y-104240000D01*
X138809635Y-104207345D01*
X138465983Y-104065000D01*
X138094017Y-104065000D01*
X137750365Y-104207345D01*
X137487345Y-104470365D01*
X137345000Y-104814017D01*
X137345000Y-105185983D01*
X137487345Y-105529635D01*
X137750365Y-105792655D01*
X138094017Y-105935000D01*
X138465983Y-105935000D01*
X138809635Y-105792655D01*
X138842290Y-105760000D01*
X141373000Y-105760000D01*
X141373000Y-110240000D01*
X136739066Y-110240000D01*
X132514595Y-106015530D01*
X132472193Y-105952071D01*
X132220801Y-105784096D01*
X132077976Y-105755686D01*
X132029635Y-105707345D01*
X131685983Y-105565000D01*
X131331854Y-105565000D01*
X131292655Y-105470365D01*
X131029635Y-105207345D01*
X130685983Y-105065000D01*
X130314017Y-105065000D01*
X129970365Y-105207345D01*
X129707345Y-105470365D01*
X129565000Y-105814017D01*
X129565000Y-106185983D01*
X129707345Y-106529635D01*
X129740001Y-106562291D01*
X129740001Y-106850151D01*
X129725112Y-106925002D01*
X129740001Y-106999854D01*
X129784097Y-107221539D01*
X129952072Y-107472931D01*
X130015528Y-107515331D01*
X134484669Y-111984473D01*
X134527069Y-112047929D01*
X134778461Y-112215904D01*
X135000146Y-112260000D01*
X135000150Y-112260000D01*
X135074997Y-112274888D01*
X135149844Y-112260000D01*
X141373000Y-112260000D01*
X141373000Y-112873000D01*
X122627000Y-112873000D01*
X122627000Y-102127000D01*
X130000000Y-102127000D01*
X130048601Y-102117333D01*
X130089803Y-102089803D01*
X130117333Y-102048601D01*
X130127000Y-102000000D01*
X130127000Y-101513393D01*
X130324017Y-101595000D01*
X130695983Y-101595000D01*
X130865002Y-101524990D01*
X130865002Y-102050149D01*
X130850113Y-102125001D01*
X130865002Y-102199853D01*
X130909098Y-102421538D01*
X131077073Y-102672930D01*
X131140529Y-102715330D01*
X136065000Y-107639803D01*
X136065000Y-107685983D01*
X136207345Y-108029635D01*
X136470365Y-108292655D01*
X136814017Y-108435000D01*
X137185983Y-108435000D01*
X137529635Y-108292655D01*
X137792655Y-108029635D01*
X137935000Y-107685983D01*
X137935000Y-107314017D01*
X137792655Y-106970365D01*
X137529635Y-106707345D01*
X137185983Y-106565000D01*
X137139803Y-106565000D01*
X132385001Y-101810200D01*
X132385001Y-97207291D01*
X132470365Y-97292655D01*
X132814017Y-97435000D01*
X133185983Y-97435000D01*
X133529635Y-97292655D01*
X133792655Y-97029635D01*
X133935000Y-96685983D01*
X133935000Y-96314017D01*
X133792655Y-95970365D01*
X133760000Y-95937710D01*
X133760000Y-91574846D01*
X133774888Y-91499999D01*
X133760000Y-91425152D01*
X133760000Y-91425148D01*
X133715904Y-91203463D01*
X133674102Y-91140902D01*
X133590329Y-91015526D01*
X133590327Y-91015524D01*
X133547929Y-90952071D01*
X133484476Y-90909673D01*
X132884020Y-90309218D01*
X132897000Y-90277881D01*
X132897000Y-90127000D01*
X134103000Y-90127000D01*
X134103000Y-90277881D01*
G36*
X130865001Y-93014801D02*
X130865002Y-99795010D01*
X130695983Y-99725000D01*
X130324017Y-99725000D01*
X130127000Y-99806607D01*
X130127000Y-92276799D01*
X130865001Y-93014801D01*
X130865001Y-93014801D01*
G37*
X130865001Y-93014801D02*
X130865002Y-99795010D01*
X130695983Y-99725000D01*
X130324017Y-99725000D01*
X130127000Y-99806607D01*
X130127000Y-92276799D01*
X130865001Y-93014801D01*
G04 #@! TD*
M02*
