%TF.GenerationSoftware,KiCad,Pcbnew,8.0.0*%
%TF.CreationDate,2024-03-25T13:51:45-05:00*%
%TF.ProjectId,NFCBuisnessV3,4e464342-7569-4736-9e65-737356332e6b,rev?*%
%TF.SameCoordinates,Original*%
%TF.FileFunction,Soldermask,Top*%
%TF.FilePolarity,Negative*%
%FSLAX46Y46*%
G04 Gerber Fmt 4.6, Leading zero omitted, Abs format (unit mm)*
G04 Created by KiCad (PCBNEW 8.0.0) date 2024-03-25 13:51:45*
%MOMM*%
%LPD*%
G01*
G04 APERTURE LIST*
G04 Aperture macros list*
%AMRoundRect*
0 Rectangle with rounded corners*
0 $1 Rounding radius*
0 $2 $3 $4 $5 $6 $7 $8 $9 X,Y pos of 4 corners*
0 Add a 4 corners polygon primitive as box body*
4,1,4,$2,$3,$4,$5,$6,$7,$8,$9,$2,$3,0*
0 Add four circle primitives for the rounded corners*
1,1,$1+$1,$2,$3*
1,1,$1+$1,$4,$5*
1,1,$1+$1,$6,$7*
1,1,$1+$1,$8,$9*
0 Add four rect primitives between the rounded corners*
20,1,$1+$1,$2,$3,$4,$5,0*
20,1,$1+$1,$4,$5,$6,$7,0*
20,1,$1+$1,$6,$7,$8,$9,0*
20,1,$1+$1,$8,$9,$2,$3,0*%
G04 Aperture macros list end*
%ADD10RoundRect,0.343750X-0.575821X-0.309852X0.019571X-0.653602X0.575821X0.309852X-0.019571X0.653602X0*%
%ADD11RoundRect,0.350000X0.350000X0.575000X-0.350000X0.575000X-0.350000X-0.575000X0.350000X-0.575000X0*%
%ADD12RoundRect,0.350000X-0.350000X-0.575000X0.350000X-0.575000X0.350000X0.575000X-0.350000X0.575000X0*%
%ADD13RoundRect,0.350000X0.575000X-0.350000X0.575000X0.350000X-0.575000X0.350000X-0.575000X-0.350000X0*%
%ADD14RoundRect,0.200000X-0.850000X0.850000X-0.850000X-0.850000X0.850000X-0.850000X0.850000X0.850000X0*%
%ADD15O,2.100000X2.100000*%
%ADD16RoundRect,0.343750X0.094223X-0.647070X0.620878X-0.205154X-0.094223X0.647070X-0.620878X0.205154X0*%
%ADD17RoundRect,0.200000X-0.737500X-0.200000X0.737500X-0.200000X0.737500X0.200000X-0.737500X0.200000X0*%
%ADD18RoundRect,0.343750X-0.019571X-0.653602X0.575821X-0.309852X0.019571X0.653602X-0.575821X0.309852X0*%
%ADD19RoundRect,0.343750X-0.581141X-0.299755X0.008161X-0.653844X0.581141X0.299755X-0.008161X0.653844X0*%
%ADD20RoundRect,0.343750X0.556250X-0.343750X0.556250X0.343750X-0.556250X0.343750X-0.556250X-0.343750X0*%
%ADD21RoundRect,0.200000X0.850000X-0.850000X0.850000X0.850000X-0.850000X0.850000X-0.850000X-0.850000X0*%
%ADD22RoundRect,0.200000X-0.704850X-0.177800X0.704850X-0.177800X0.704850X0.177800X-0.704850X0.177800X0*%
%ADD23RoundRect,0.347561X-0.364939X-0.552439X0.364939X-0.552439X0.364939X0.552439X-0.364939X0.552439X0*%
%ADD24RoundRect,0.200000X0.550000X-0.525000X0.550000X0.525000X-0.550000X0.525000X-0.550000X-0.525000X0*%
G04 APERTURE END LIST*
D10*
%TO.C,D2*%
X158438101Y-80781250D03*
X160061899Y-81718750D03*
%TD*%
D11*
%TO.C,C5*%
X131550000Y-92900000D03*
X129650000Y-92900000D03*
%TD*%
D12*
%TO.C,C3*%
X129700000Y-96300000D03*
X131600000Y-96300000D03*
%TD*%
%TO.C,C1*%
X121000000Y-88350000D03*
X122900000Y-88350000D03*
%TD*%
D13*
%TO.C,C2*%
X117500000Y-92647500D03*
X117500000Y-90747500D03*
%TD*%
D14*
%TO.C,J3*%
X139500000Y-83635000D03*
D15*
X136960000Y-83635000D03*
X134420000Y-83635000D03*
%TD*%
D16*
%TO.C,D4*%
X178450000Y-81050000D03*
X179886334Y-79844774D03*
%TD*%
D17*
%TO.C,U2*%
X134375000Y-87500000D03*
X134375000Y-88150000D03*
X134375000Y-88800000D03*
X134375000Y-89450000D03*
X134375000Y-90100000D03*
X134375000Y-90750000D03*
X134375000Y-91400000D03*
X134375000Y-92050000D03*
X134375000Y-92700000D03*
X134375000Y-93350000D03*
X140100000Y-93350000D03*
X140100000Y-92700000D03*
X140100000Y-92050000D03*
X140100000Y-91400000D03*
X140100000Y-90750000D03*
X140100000Y-90100000D03*
X140100000Y-89450000D03*
X140100000Y-88800000D03*
X140100000Y-88150000D03*
X140100000Y-87500000D03*
%TD*%
D18*
%TO.C,D1*%
X155426202Y-93387500D03*
X157050000Y-92450000D03*
%TD*%
D19*
%TO.C,D5*%
X180900000Y-94400000D03*
X182507188Y-95365696D03*
%TD*%
D20*
%TO.C,D3*%
X166150000Y-77950000D03*
X166150000Y-76075000D03*
%TD*%
D11*
%TO.C,C4*%
X131450000Y-86800000D03*
X129550000Y-86800000D03*
%TD*%
D20*
%TO.C,D6*%
X166500000Y-103825000D03*
X166500000Y-101950000D03*
%TD*%
D21*
%TO.C,J4*%
X119725000Y-83650000D03*
D15*
X122265000Y-83650000D03*
X124805000Y-83650000D03*
%TD*%
D22*
%TO.C,U1*%
X119894500Y-90900042D03*
X119894500Y-91550028D03*
X119894500Y-92200014D03*
X119894500Y-92850000D03*
X125800000Y-92850000D03*
X125800000Y-92200014D03*
X125800000Y-91550028D03*
X125800000Y-90900042D03*
%TD*%
D23*
%TO.C,R1*%
X133887500Y-96300000D03*
X135712500Y-96300000D03*
%TD*%
D24*
%TO.C,Y1*%
X131500000Y-90825000D03*
X131500000Y-88975000D03*
%TD*%
M02*
