%TF.GenerationSoftware,KiCad,Pcbnew,8.0.0*%
%TF.CreationDate,2024-03-25T13:51:45-05:00*%
%TF.ProjectId,NFCBuisnessV3,4e464342-7569-4736-9e65-737356332e6b,rev?*%
%TF.SameCoordinates,Original*%
%TF.FileFunction,Legend,Bot*%
%TF.FilePolarity,Positive*%
%FSLAX46Y46*%
G04 Gerber Fmt 4.6, Leading zero omitted, Abs format (unit mm)*
G04 Created by KiCad (PCBNEW 8.0.0) date 2024-03-25 13:51:45*
%MOMM*%
%LPD*%
G01*
G04 APERTURE LIST*
%ADD10C,0.150000*%
%ADD11C,0.300000*%
%ADD12C,0.000000*%
G04 APERTURE END LIST*
D10*
X162400000Y-82000000D02*
X141600000Y-88300000D01*
X141600000Y-94300000D02*
X136200000Y-94300000D01*
X141600000Y-88300000D02*
X141600000Y-94300000D01*
D11*
X186788346Y-79443055D02*
X186859774Y-79514484D01*
X186859774Y-79514484D02*
X187074060Y-79585912D01*
X187074060Y-79585912D02*
X187216917Y-79585912D01*
X187216917Y-79585912D02*
X187431203Y-79514484D01*
X187431203Y-79514484D02*
X187574060Y-79371626D01*
X187574060Y-79371626D02*
X187645489Y-79228769D01*
X187645489Y-79228769D02*
X187716917Y-78943055D01*
X187716917Y-78943055D02*
X187716917Y-78728769D01*
X187716917Y-78728769D02*
X187645489Y-78443055D01*
X187645489Y-78443055D02*
X187574060Y-78300198D01*
X187574060Y-78300198D02*
X187431203Y-78157341D01*
X187431203Y-78157341D02*
X187216917Y-78085912D01*
X187216917Y-78085912D02*
X187074060Y-78085912D01*
X187074060Y-78085912D02*
X186859774Y-78157341D01*
X186859774Y-78157341D02*
X186788346Y-78228769D01*
X186145489Y-79585912D02*
X186145489Y-78085912D01*
X186145489Y-78800198D02*
X185288346Y-78800198D01*
X185288346Y-79585912D02*
X185288346Y-78085912D01*
X184716917Y-78085912D02*
X183788345Y-78085912D01*
X183788345Y-78085912D02*
X184288345Y-78657341D01*
X184288345Y-78657341D02*
X184074060Y-78657341D01*
X184074060Y-78657341D02*
X183931203Y-78728769D01*
X183931203Y-78728769D02*
X183859774Y-78800198D01*
X183859774Y-78800198D02*
X183788345Y-78943055D01*
X183788345Y-78943055D02*
X183788345Y-79300198D01*
X183788345Y-79300198D02*
X183859774Y-79443055D01*
X183859774Y-79443055D02*
X183931203Y-79514484D01*
X183931203Y-79514484D02*
X184074060Y-79585912D01*
X184074060Y-79585912D02*
X184502631Y-79585912D01*
X184502631Y-79585912D02*
X184645488Y-79514484D01*
X184645488Y-79514484D02*
X184716917Y-79443055D01*
X183216917Y-78228769D02*
X183145489Y-78157341D01*
X183145489Y-78157341D02*
X183002632Y-78085912D01*
X183002632Y-78085912D02*
X182645489Y-78085912D01*
X182645489Y-78085912D02*
X182502632Y-78157341D01*
X182502632Y-78157341D02*
X182431203Y-78228769D01*
X182431203Y-78228769D02*
X182359774Y-78371626D01*
X182359774Y-78371626D02*
X182359774Y-78514484D01*
X182359774Y-78514484D02*
X182431203Y-78728769D01*
X182431203Y-78728769D02*
X183288346Y-79585912D01*
X183288346Y-79585912D02*
X182359774Y-79585912D01*
X181931203Y-78085912D02*
X181431203Y-79585912D01*
X181431203Y-79585912D02*
X180931203Y-78085912D01*
X180145489Y-78085912D02*
X180002632Y-78085912D01*
X180002632Y-78085912D02*
X179859775Y-78157341D01*
X179859775Y-78157341D02*
X179788347Y-78228769D01*
X179788347Y-78228769D02*
X179716918Y-78371626D01*
X179716918Y-78371626D02*
X179645489Y-78657341D01*
X179645489Y-78657341D02*
X179645489Y-79014484D01*
X179645489Y-79014484D02*
X179716918Y-79300198D01*
X179716918Y-79300198D02*
X179788347Y-79443055D01*
X179788347Y-79443055D02*
X179859775Y-79514484D01*
X179859775Y-79514484D02*
X180002632Y-79585912D01*
X180002632Y-79585912D02*
X180145489Y-79585912D01*
X180145489Y-79585912D02*
X180288347Y-79514484D01*
X180288347Y-79514484D02*
X180359775Y-79443055D01*
X180359775Y-79443055D02*
X180431204Y-79300198D01*
X180431204Y-79300198D02*
X180502632Y-79014484D01*
X180502632Y-79014484D02*
X180502632Y-78657341D01*
X180502632Y-78657341D02*
X180431204Y-78371626D01*
X180431204Y-78371626D02*
X180359775Y-78228769D01*
X180359775Y-78228769D02*
X180288347Y-78157341D01*
X180288347Y-78157341D02*
X180145489Y-78085912D01*
X178716918Y-78085912D02*
X178574061Y-78085912D01*
X178574061Y-78085912D02*
X178431204Y-78157341D01*
X178431204Y-78157341D02*
X178359776Y-78228769D01*
X178359776Y-78228769D02*
X178288347Y-78371626D01*
X178288347Y-78371626D02*
X178216918Y-78657341D01*
X178216918Y-78657341D02*
X178216918Y-79014484D01*
X178216918Y-79014484D02*
X178288347Y-79300198D01*
X178288347Y-79300198D02*
X178359776Y-79443055D01*
X178359776Y-79443055D02*
X178431204Y-79514484D01*
X178431204Y-79514484D02*
X178574061Y-79585912D01*
X178574061Y-79585912D02*
X178716918Y-79585912D01*
X178716918Y-79585912D02*
X178859776Y-79514484D01*
X178859776Y-79514484D02*
X178931204Y-79443055D01*
X178931204Y-79443055D02*
X179002633Y-79300198D01*
X179002633Y-79300198D02*
X179074061Y-79014484D01*
X179074061Y-79014484D02*
X179074061Y-78657341D01*
X179074061Y-78657341D02*
X179002633Y-78371626D01*
X179002633Y-78371626D02*
X178931204Y-78228769D01*
X178931204Y-78228769D02*
X178859776Y-78157341D01*
X178859776Y-78157341D02*
X178716918Y-78085912D01*
X177716919Y-78085912D02*
X176788347Y-78085912D01*
X176788347Y-78085912D02*
X177288347Y-78657341D01*
X177288347Y-78657341D02*
X177074062Y-78657341D01*
X177074062Y-78657341D02*
X176931205Y-78728769D01*
X176931205Y-78728769D02*
X176859776Y-78800198D01*
X176859776Y-78800198D02*
X176788347Y-78943055D01*
X176788347Y-78943055D02*
X176788347Y-79300198D01*
X176788347Y-79300198D02*
X176859776Y-79443055D01*
X176859776Y-79443055D02*
X176931205Y-79514484D01*
X176931205Y-79514484D02*
X177074062Y-79585912D01*
X177074062Y-79585912D02*
X177502633Y-79585912D01*
X177502633Y-79585912D02*
X177645490Y-79514484D01*
X177645490Y-79514484D02*
X177716919Y-79443055D01*
X175002634Y-79014484D02*
X173859777Y-79014484D01*
X172216919Y-78085912D02*
X171359777Y-78085912D01*
X171788348Y-79585912D02*
X171788348Y-78085912D01*
X170859777Y-79585912D02*
X170859777Y-78085912D01*
X170216920Y-79585912D02*
X170216920Y-78800198D01*
X170216920Y-78800198D02*
X170288348Y-78657341D01*
X170288348Y-78657341D02*
X170431205Y-78585912D01*
X170431205Y-78585912D02*
X170645491Y-78585912D01*
X170645491Y-78585912D02*
X170788348Y-78657341D01*
X170788348Y-78657341D02*
X170859777Y-78728769D01*
X168931205Y-79514484D02*
X169074062Y-79585912D01*
X169074062Y-79585912D02*
X169359777Y-79585912D01*
X169359777Y-79585912D02*
X169502634Y-79514484D01*
X169502634Y-79514484D02*
X169574062Y-79371626D01*
X169574062Y-79371626D02*
X169574062Y-78800198D01*
X169574062Y-78800198D02*
X169502634Y-78657341D01*
X169502634Y-78657341D02*
X169359777Y-78585912D01*
X169359777Y-78585912D02*
X169074062Y-78585912D01*
X169074062Y-78585912D02*
X168931205Y-78657341D01*
X168931205Y-78657341D02*
X168859777Y-78800198D01*
X168859777Y-78800198D02*
X168859777Y-78943055D01*
X168859777Y-78943055D02*
X169574062Y-79085912D01*
X167002634Y-78085912D02*
X167145491Y-78371626D01*
X165574062Y-79585912D02*
X166431205Y-79585912D01*
X166002634Y-79585912D02*
X166002634Y-78085912D01*
X166002634Y-78085912D02*
X166145491Y-78300198D01*
X166145491Y-78300198D02*
X166288348Y-78443055D01*
X166288348Y-78443055D02*
X166431205Y-78514484D01*
X164645491Y-78085912D02*
X164502634Y-78085912D01*
X164502634Y-78085912D02*
X164359777Y-78157341D01*
X164359777Y-78157341D02*
X164288349Y-78228769D01*
X164288349Y-78228769D02*
X164216920Y-78371626D01*
X164216920Y-78371626D02*
X164145491Y-78657341D01*
X164145491Y-78657341D02*
X164145491Y-79014484D01*
X164145491Y-79014484D02*
X164216920Y-79300198D01*
X164216920Y-79300198D02*
X164288349Y-79443055D01*
X164288349Y-79443055D02*
X164359777Y-79514484D01*
X164359777Y-79514484D02*
X164502634Y-79585912D01*
X164502634Y-79585912D02*
X164645491Y-79585912D01*
X164645491Y-79585912D02*
X164788349Y-79514484D01*
X164788349Y-79514484D02*
X164859777Y-79443055D01*
X164859777Y-79443055D02*
X164931206Y-79300198D01*
X164931206Y-79300198D02*
X165002634Y-79014484D01*
X165002634Y-79014484D02*
X165002634Y-78657341D01*
X165002634Y-78657341D02*
X164931206Y-78371626D01*
X164931206Y-78371626D02*
X164859777Y-78228769D01*
X164859777Y-78228769D02*
X164788349Y-78157341D01*
X164788349Y-78157341D02*
X164645491Y-78085912D01*
X161716921Y-79514484D02*
X161859778Y-79585912D01*
X161859778Y-79585912D02*
X162145492Y-79585912D01*
X162145492Y-79585912D02*
X162288349Y-79514484D01*
X162288349Y-79514484D02*
X162359778Y-79443055D01*
X162359778Y-79443055D02*
X162431206Y-79300198D01*
X162431206Y-79300198D02*
X162431206Y-78871626D01*
X162431206Y-78871626D02*
X162359778Y-78728769D01*
X162359778Y-78728769D02*
X162288349Y-78657341D01*
X162288349Y-78657341D02*
X162145492Y-78585912D01*
X162145492Y-78585912D02*
X161859778Y-78585912D01*
X161859778Y-78585912D02*
X161716921Y-78657341D01*
X160502635Y-79514484D02*
X160645492Y-79585912D01*
X160645492Y-79585912D02*
X160931207Y-79585912D01*
X160931207Y-79585912D02*
X161074064Y-79514484D01*
X161074064Y-79514484D02*
X161145492Y-79371626D01*
X161145492Y-79371626D02*
X161145492Y-78800198D01*
X161145492Y-78800198D02*
X161074064Y-78657341D01*
X161074064Y-78657341D02*
X160931207Y-78585912D01*
X160931207Y-78585912D02*
X160645492Y-78585912D01*
X160645492Y-78585912D02*
X160502635Y-78657341D01*
X160502635Y-78657341D02*
X160431207Y-78800198D01*
X160431207Y-78800198D02*
X160431207Y-78943055D01*
X160431207Y-78943055D02*
X161145492Y-79085912D01*
X159788350Y-78585912D02*
X159788350Y-79585912D01*
X159788350Y-78728769D02*
X159716921Y-78657341D01*
X159716921Y-78657341D02*
X159574064Y-78585912D01*
X159574064Y-78585912D02*
X159359778Y-78585912D01*
X159359778Y-78585912D02*
X159216921Y-78657341D01*
X159216921Y-78657341D02*
X159145493Y-78800198D01*
X159145493Y-78800198D02*
X159145493Y-79585912D01*
X158645492Y-78585912D02*
X158074064Y-78585912D01*
X158431207Y-78085912D02*
X158431207Y-79371626D01*
X158431207Y-79371626D02*
X158359778Y-79514484D01*
X158359778Y-79514484D02*
X158216921Y-79585912D01*
X158216921Y-79585912D02*
X158074064Y-79585912D01*
X157502635Y-78085912D02*
X157645492Y-78371626D01*
X155716921Y-79585912D02*
X155716921Y-78085912D01*
X155716921Y-78085912D02*
X155216921Y-79157341D01*
X155216921Y-79157341D02*
X154716921Y-78085912D01*
X154716921Y-78085912D02*
X154716921Y-79585912D01*
X154002635Y-79585912D02*
X154002635Y-78585912D01*
X154002635Y-78085912D02*
X154074063Y-78157341D01*
X154074063Y-78157341D02*
X154002635Y-78228769D01*
X154002635Y-78228769D02*
X153931206Y-78157341D01*
X153931206Y-78157341D02*
X154002635Y-78085912D01*
X154002635Y-78085912D02*
X154002635Y-78228769D01*
X152645492Y-79514484D02*
X152788349Y-79585912D01*
X152788349Y-79585912D02*
X153074063Y-79585912D01*
X153074063Y-79585912D02*
X153216920Y-79514484D01*
X153216920Y-79514484D02*
X153288349Y-79443055D01*
X153288349Y-79443055D02*
X153359777Y-79300198D01*
X153359777Y-79300198D02*
X153359777Y-78871626D01*
X153359777Y-78871626D02*
X153288349Y-78728769D01*
X153288349Y-78728769D02*
X153216920Y-78657341D01*
X153216920Y-78657341D02*
X153074063Y-78585912D01*
X153074063Y-78585912D02*
X152788349Y-78585912D01*
X152788349Y-78585912D02*
X152645492Y-78657341D01*
X152002635Y-79585912D02*
X152002635Y-78585912D01*
X152002635Y-78871626D02*
X151931206Y-78728769D01*
X151931206Y-78728769D02*
X151859778Y-78657341D01*
X151859778Y-78657341D02*
X151716920Y-78585912D01*
X151716920Y-78585912D02*
X151574063Y-78585912D01*
X150859778Y-79585912D02*
X151002635Y-79514484D01*
X151002635Y-79514484D02*
X151074064Y-79443055D01*
X151074064Y-79443055D02*
X151145492Y-79300198D01*
X151145492Y-79300198D02*
X151145492Y-78871626D01*
X151145492Y-78871626D02*
X151074064Y-78728769D01*
X151074064Y-78728769D02*
X151002635Y-78657341D01*
X151002635Y-78657341D02*
X150859778Y-78585912D01*
X150859778Y-78585912D02*
X150645492Y-78585912D01*
X150645492Y-78585912D02*
X150502635Y-78657341D01*
X150502635Y-78657341D02*
X150431207Y-78728769D01*
X150431207Y-78728769D02*
X150359778Y-78871626D01*
X150359778Y-78871626D02*
X150359778Y-79300198D01*
X150359778Y-79300198D02*
X150431207Y-79443055D01*
X150431207Y-79443055D02*
X150502635Y-79514484D01*
X150502635Y-79514484D02*
X150645492Y-79585912D01*
X150645492Y-79585912D02*
X150859778Y-79585912D01*
X149074064Y-79514484D02*
X149216921Y-79585912D01*
X149216921Y-79585912D02*
X149502635Y-79585912D01*
X149502635Y-79585912D02*
X149645492Y-79514484D01*
X149645492Y-79514484D02*
X149716921Y-79443055D01*
X149716921Y-79443055D02*
X149788349Y-79300198D01*
X149788349Y-79300198D02*
X149788349Y-78871626D01*
X149788349Y-78871626D02*
X149716921Y-78728769D01*
X149716921Y-78728769D02*
X149645492Y-78657341D01*
X149645492Y-78657341D02*
X149502635Y-78585912D01*
X149502635Y-78585912D02*
X149216921Y-78585912D01*
X149216921Y-78585912D02*
X149074064Y-78657341D01*
X148216921Y-79585912D02*
X148359778Y-79514484D01*
X148359778Y-79514484D02*
X148431207Y-79443055D01*
X148431207Y-79443055D02*
X148502635Y-79300198D01*
X148502635Y-79300198D02*
X148502635Y-78871626D01*
X148502635Y-78871626D02*
X148431207Y-78728769D01*
X148431207Y-78728769D02*
X148359778Y-78657341D01*
X148359778Y-78657341D02*
X148216921Y-78585912D01*
X148216921Y-78585912D02*
X148002635Y-78585912D01*
X148002635Y-78585912D02*
X147859778Y-78657341D01*
X147859778Y-78657341D02*
X147788350Y-78728769D01*
X147788350Y-78728769D02*
X147716921Y-78871626D01*
X147716921Y-78871626D02*
X147716921Y-79300198D01*
X147716921Y-79300198D02*
X147788350Y-79443055D01*
X147788350Y-79443055D02*
X147859778Y-79514484D01*
X147859778Y-79514484D02*
X148002635Y-79585912D01*
X148002635Y-79585912D02*
X148216921Y-79585912D01*
X147074064Y-78585912D02*
X147074064Y-79585912D01*
X147074064Y-78728769D02*
X147002635Y-78657341D01*
X147002635Y-78657341D02*
X146859778Y-78585912D01*
X146859778Y-78585912D02*
X146645492Y-78585912D01*
X146645492Y-78585912D02*
X146502635Y-78657341D01*
X146502635Y-78657341D02*
X146431207Y-78800198D01*
X146431207Y-78800198D02*
X146431207Y-79585912D01*
X145931206Y-78585912D02*
X145359778Y-78585912D01*
X145716921Y-78085912D02*
X145716921Y-79371626D01*
X145716921Y-79371626D02*
X145645492Y-79514484D01*
X145645492Y-79514484D02*
X145502635Y-79585912D01*
X145502635Y-79585912D02*
X145359778Y-79585912D01*
X144859778Y-79585912D02*
X144859778Y-78585912D01*
X144859778Y-78871626D02*
X144788349Y-78728769D01*
X144788349Y-78728769D02*
X144716921Y-78657341D01*
X144716921Y-78657341D02*
X144574063Y-78585912D01*
X144574063Y-78585912D02*
X144431206Y-78585912D01*
X143716921Y-79585912D02*
X143859778Y-79514484D01*
X143859778Y-79514484D02*
X143931207Y-79443055D01*
X143931207Y-79443055D02*
X144002635Y-79300198D01*
X144002635Y-79300198D02*
X144002635Y-78871626D01*
X144002635Y-78871626D02*
X143931207Y-78728769D01*
X143931207Y-78728769D02*
X143859778Y-78657341D01*
X143859778Y-78657341D02*
X143716921Y-78585912D01*
X143716921Y-78585912D02*
X143502635Y-78585912D01*
X143502635Y-78585912D02*
X143359778Y-78657341D01*
X143359778Y-78657341D02*
X143288350Y-78728769D01*
X143288350Y-78728769D02*
X143216921Y-78871626D01*
X143216921Y-78871626D02*
X143216921Y-79300198D01*
X143216921Y-79300198D02*
X143288350Y-79443055D01*
X143288350Y-79443055D02*
X143359778Y-79514484D01*
X143359778Y-79514484D02*
X143502635Y-79585912D01*
X143502635Y-79585912D02*
X143716921Y-79585912D01*
X142359778Y-79585912D02*
X142502635Y-79514484D01*
X142502635Y-79514484D02*
X142574064Y-79371626D01*
X142574064Y-79371626D02*
X142574064Y-78085912D01*
X141574064Y-79585912D02*
X141716921Y-79514484D01*
X141716921Y-79514484D02*
X141788350Y-79371626D01*
X141788350Y-79371626D02*
X141788350Y-78085912D01*
X140431207Y-79514484D02*
X140574064Y-79585912D01*
X140574064Y-79585912D02*
X140859779Y-79585912D01*
X140859779Y-79585912D02*
X141002636Y-79514484D01*
X141002636Y-79514484D02*
X141074064Y-79371626D01*
X141074064Y-79371626D02*
X141074064Y-78800198D01*
X141074064Y-78800198D02*
X141002636Y-78657341D01*
X141002636Y-78657341D02*
X140859779Y-78585912D01*
X140859779Y-78585912D02*
X140574064Y-78585912D01*
X140574064Y-78585912D02*
X140431207Y-78657341D01*
X140431207Y-78657341D02*
X140359779Y-78800198D01*
X140359779Y-78800198D02*
X140359779Y-78943055D01*
X140359779Y-78943055D02*
X141074064Y-79085912D01*
X139716922Y-79585912D02*
X139716922Y-78585912D01*
X139716922Y-78871626D02*
X139645493Y-78728769D01*
X139645493Y-78728769D02*
X139574065Y-78657341D01*
X139574065Y-78657341D02*
X139431207Y-78585912D01*
X139431207Y-78585912D02*
X139288350Y-78585912D01*
X187359774Y-80500828D02*
X187074060Y-80500828D01*
X187074060Y-80500828D02*
X186931203Y-80572257D01*
X186931203Y-80572257D02*
X186788346Y-80715114D01*
X186788346Y-80715114D02*
X186716917Y-81000828D01*
X186716917Y-81000828D02*
X186716917Y-81500828D01*
X186716917Y-81500828D02*
X186788346Y-81786542D01*
X186788346Y-81786542D02*
X186931203Y-81929400D01*
X186931203Y-81929400D02*
X187074060Y-82000828D01*
X187074060Y-82000828D02*
X187359774Y-82000828D01*
X187359774Y-82000828D02*
X187502632Y-81929400D01*
X187502632Y-81929400D02*
X187645489Y-81786542D01*
X187645489Y-81786542D02*
X187716917Y-81500828D01*
X187716917Y-81500828D02*
X187716917Y-81000828D01*
X187716917Y-81000828D02*
X187645489Y-80715114D01*
X187645489Y-80715114D02*
X187502632Y-80572257D01*
X187502632Y-80572257D02*
X187359774Y-80500828D01*
X186074060Y-81000828D02*
X186074060Y-82500828D01*
X186074060Y-81072257D02*
X185931203Y-81000828D01*
X185931203Y-81000828D02*
X185645488Y-81000828D01*
X185645488Y-81000828D02*
X185502631Y-81072257D01*
X185502631Y-81072257D02*
X185431203Y-81143685D01*
X185431203Y-81143685D02*
X185359774Y-81286542D01*
X185359774Y-81286542D02*
X185359774Y-81715114D01*
X185359774Y-81715114D02*
X185431203Y-81857971D01*
X185431203Y-81857971D02*
X185502631Y-81929400D01*
X185502631Y-81929400D02*
X185645488Y-82000828D01*
X185645488Y-82000828D02*
X185931203Y-82000828D01*
X185931203Y-82000828D02*
X186074060Y-81929400D01*
X184145488Y-81929400D02*
X184288345Y-82000828D01*
X184288345Y-82000828D02*
X184574060Y-82000828D01*
X184574060Y-82000828D02*
X184716917Y-81929400D01*
X184716917Y-81929400D02*
X184788345Y-81786542D01*
X184788345Y-81786542D02*
X184788345Y-81215114D01*
X184788345Y-81215114D02*
X184716917Y-81072257D01*
X184716917Y-81072257D02*
X184574060Y-81000828D01*
X184574060Y-81000828D02*
X184288345Y-81000828D01*
X184288345Y-81000828D02*
X184145488Y-81072257D01*
X184145488Y-81072257D02*
X184074060Y-81215114D01*
X184074060Y-81215114D02*
X184074060Y-81357971D01*
X184074060Y-81357971D02*
X184788345Y-81500828D01*
X183431203Y-81000828D02*
X183431203Y-82000828D01*
X183431203Y-81143685D02*
X183359774Y-81072257D01*
X183359774Y-81072257D02*
X183216917Y-81000828D01*
X183216917Y-81000828D02*
X183002631Y-81000828D01*
X183002631Y-81000828D02*
X182859774Y-81072257D01*
X182859774Y-81072257D02*
X182788346Y-81215114D01*
X182788346Y-81215114D02*
X182788346Y-82000828D01*
X181002631Y-81929400D02*
X180788346Y-82000828D01*
X180788346Y-82000828D02*
X180431203Y-82000828D01*
X180431203Y-82000828D02*
X180288346Y-81929400D01*
X180288346Y-81929400D02*
X180216917Y-81857971D01*
X180216917Y-81857971D02*
X180145488Y-81715114D01*
X180145488Y-81715114D02*
X180145488Y-81572257D01*
X180145488Y-81572257D02*
X180216917Y-81429400D01*
X180216917Y-81429400D02*
X180288346Y-81357971D01*
X180288346Y-81357971D02*
X180431203Y-81286542D01*
X180431203Y-81286542D02*
X180716917Y-81215114D01*
X180716917Y-81215114D02*
X180859774Y-81143685D01*
X180859774Y-81143685D02*
X180931203Y-81072257D01*
X180931203Y-81072257D02*
X181002631Y-80929400D01*
X181002631Y-80929400D02*
X181002631Y-80786542D01*
X181002631Y-80786542D02*
X180931203Y-80643685D01*
X180931203Y-80643685D02*
X180859774Y-80572257D01*
X180859774Y-80572257D02*
X180716917Y-80500828D01*
X180716917Y-80500828D02*
X180359774Y-80500828D01*
X180359774Y-80500828D02*
X180145488Y-80572257D01*
X179288346Y-82000828D02*
X179431203Y-81929400D01*
X179431203Y-81929400D02*
X179502632Y-81857971D01*
X179502632Y-81857971D02*
X179574060Y-81715114D01*
X179574060Y-81715114D02*
X179574060Y-81286542D01*
X179574060Y-81286542D02*
X179502632Y-81143685D01*
X179502632Y-81143685D02*
X179431203Y-81072257D01*
X179431203Y-81072257D02*
X179288346Y-81000828D01*
X179288346Y-81000828D02*
X179074060Y-81000828D01*
X179074060Y-81000828D02*
X178931203Y-81072257D01*
X178931203Y-81072257D02*
X178859775Y-81143685D01*
X178859775Y-81143685D02*
X178788346Y-81286542D01*
X178788346Y-81286542D02*
X178788346Y-81715114D01*
X178788346Y-81715114D02*
X178859775Y-81857971D01*
X178859775Y-81857971D02*
X178931203Y-81929400D01*
X178931203Y-81929400D02*
X179074060Y-82000828D01*
X179074060Y-82000828D02*
X179288346Y-82000828D01*
X177502632Y-81000828D02*
X177502632Y-82000828D01*
X178145489Y-81000828D02*
X178145489Y-81786542D01*
X178145489Y-81786542D02*
X178074060Y-81929400D01*
X178074060Y-81929400D02*
X177931203Y-82000828D01*
X177931203Y-82000828D02*
X177716917Y-82000828D01*
X177716917Y-82000828D02*
X177574060Y-81929400D01*
X177574060Y-81929400D02*
X177502632Y-81857971D01*
X176788346Y-82000828D02*
X176788346Y-81000828D01*
X176788346Y-81286542D02*
X176716917Y-81143685D01*
X176716917Y-81143685D02*
X176645489Y-81072257D01*
X176645489Y-81072257D02*
X176502631Y-81000828D01*
X176502631Y-81000828D02*
X176359774Y-81000828D01*
X175216918Y-81929400D02*
X175359775Y-82000828D01*
X175359775Y-82000828D02*
X175645489Y-82000828D01*
X175645489Y-82000828D02*
X175788346Y-81929400D01*
X175788346Y-81929400D02*
X175859775Y-81857971D01*
X175859775Y-81857971D02*
X175931203Y-81715114D01*
X175931203Y-81715114D02*
X175931203Y-81286542D01*
X175931203Y-81286542D02*
X175859775Y-81143685D01*
X175859775Y-81143685D02*
X175788346Y-81072257D01*
X175788346Y-81072257D02*
X175645489Y-81000828D01*
X175645489Y-81000828D02*
X175359775Y-81000828D01*
X175359775Y-81000828D02*
X175216918Y-81072257D01*
X174002632Y-81929400D02*
X174145489Y-82000828D01*
X174145489Y-82000828D02*
X174431204Y-82000828D01*
X174431204Y-82000828D02*
X174574061Y-81929400D01*
X174574061Y-81929400D02*
X174645489Y-81786542D01*
X174645489Y-81786542D02*
X174645489Y-81215114D01*
X174645489Y-81215114D02*
X174574061Y-81072257D01*
X174574061Y-81072257D02*
X174431204Y-81000828D01*
X174431204Y-81000828D02*
X174145489Y-81000828D01*
X174145489Y-81000828D02*
X174002632Y-81072257D01*
X174002632Y-81072257D02*
X173931204Y-81215114D01*
X173931204Y-81215114D02*
X173931204Y-81357971D01*
X173931204Y-81357971D02*
X174645489Y-81500828D01*
X171288347Y-82000828D02*
X171788347Y-81286542D01*
X172145490Y-82000828D02*
X172145490Y-80500828D01*
X172145490Y-80500828D02*
X171574061Y-80500828D01*
X171574061Y-80500828D02*
X171431204Y-80572257D01*
X171431204Y-80572257D02*
X171359775Y-80643685D01*
X171359775Y-80643685D02*
X171288347Y-80786542D01*
X171288347Y-80786542D02*
X171288347Y-81000828D01*
X171288347Y-81000828D02*
X171359775Y-81143685D01*
X171359775Y-81143685D02*
X171431204Y-81215114D01*
X171431204Y-81215114D02*
X171574061Y-81286542D01*
X171574061Y-81286542D02*
X172145490Y-81286542D01*
X170645490Y-82000828D02*
X170645490Y-80500828D01*
X170002632Y-81929400D02*
X169788347Y-82000828D01*
X169788347Y-82000828D02*
X169431204Y-82000828D01*
X169431204Y-82000828D02*
X169288347Y-81929400D01*
X169288347Y-81929400D02*
X169216918Y-81857971D01*
X169216918Y-81857971D02*
X169145489Y-81715114D01*
X169145489Y-81715114D02*
X169145489Y-81572257D01*
X169145489Y-81572257D02*
X169216918Y-81429400D01*
X169216918Y-81429400D02*
X169288347Y-81357971D01*
X169288347Y-81357971D02*
X169431204Y-81286542D01*
X169431204Y-81286542D02*
X169716918Y-81215114D01*
X169716918Y-81215114D02*
X169859775Y-81143685D01*
X169859775Y-81143685D02*
X169931204Y-81072257D01*
X169931204Y-81072257D02*
X170002632Y-80929400D01*
X170002632Y-80929400D02*
X170002632Y-80786542D01*
X170002632Y-80786542D02*
X169931204Y-80643685D01*
X169931204Y-80643685D02*
X169859775Y-80572257D01*
X169859775Y-80572257D02*
X169716918Y-80500828D01*
X169716918Y-80500828D02*
X169359775Y-80500828D01*
X169359775Y-80500828D02*
X169145489Y-80572257D01*
X167645490Y-81857971D02*
X167716918Y-81929400D01*
X167716918Y-81929400D02*
X167931204Y-82000828D01*
X167931204Y-82000828D02*
X168074061Y-82000828D01*
X168074061Y-82000828D02*
X168288347Y-81929400D01*
X168288347Y-81929400D02*
X168431204Y-81786542D01*
X168431204Y-81786542D02*
X168502633Y-81643685D01*
X168502633Y-81643685D02*
X168574061Y-81357971D01*
X168574061Y-81357971D02*
X168574061Y-81143685D01*
X168574061Y-81143685D02*
X168502633Y-80857971D01*
X168502633Y-80857971D02*
X168431204Y-80715114D01*
X168431204Y-80715114D02*
X168288347Y-80572257D01*
X168288347Y-80572257D02*
X168074061Y-80500828D01*
X168074061Y-80500828D02*
X167931204Y-80500828D01*
X167931204Y-80500828D02*
X167716918Y-80572257D01*
X167716918Y-80572257D02*
X167645490Y-80643685D01*
X167002633Y-81429400D02*
X165859776Y-81429400D01*
X165359775Y-80500828D02*
X164859775Y-82000828D01*
X164859775Y-82000828D02*
X164359775Y-80500828D01*
D12*
%TO.C,kibuzzard-65E89835*%
G36*
X137444481Y-89357849D02*
G01*
X137420397Y-89483484D01*
X137348144Y-89590250D01*
X137241627Y-89663247D01*
X137114750Y-89687580D01*
X136987625Y-89663247D01*
X136880363Y-89590250D01*
X136807366Y-89482988D01*
X136783033Y-89355863D01*
X136783033Y-89196956D01*
X137444481Y-89196956D01*
X137444481Y-89357849D01*
G37*
G36*
X137251807Y-90969011D02*
G01*
X137365028Y-91041264D01*
X137442495Y-91146291D01*
X137468317Y-91268699D01*
X137443240Y-91395079D01*
X137368007Y-91500106D01*
X137255531Y-91570869D01*
X137118723Y-91594457D01*
X136982908Y-91570621D01*
X136869438Y-91499113D01*
X136792716Y-91394334D01*
X136767142Y-91270685D01*
X136792716Y-91145546D01*
X136869438Y-91040271D01*
X136982908Y-90968763D01*
X137118723Y-90944927D01*
X137251807Y-90969011D01*
G37*
G36*
X140769462Y-87981168D02*
G01*
X140769462Y-89216289D01*
X140769462Y-90315260D01*
X140769462Y-91278630D01*
X140769462Y-91957955D01*
X140769462Y-92377981D01*
X133430538Y-92377981D01*
X133430538Y-91957955D01*
X133430538Y-91262740D01*
X136403644Y-91262740D01*
X136416617Y-91402279D01*
X136455537Y-91530894D01*
X136520403Y-91648584D01*
X136611216Y-91755349D01*
X136720774Y-91843989D01*
X136841878Y-91907304D01*
X136974528Y-91945292D01*
X137118723Y-91957955D01*
X137260435Y-91945478D01*
X137391595Y-91908049D01*
X137512202Y-91845665D01*
X137622258Y-91758329D01*
X137713939Y-91653488D01*
X137779426Y-91538591D01*
X137818718Y-91413639D01*
X137831815Y-91278630D01*
X137818904Y-91139835D01*
X137780171Y-91011469D01*
X137715615Y-90893530D01*
X137625237Y-90786020D01*
X137516610Y-90696511D01*
X137397306Y-90632576D01*
X137267325Y-90594215D01*
X137126668Y-90581428D01*
X136981418Y-90593843D01*
X136847589Y-90631087D01*
X136725181Y-90693159D01*
X136614195Y-90780061D01*
X136522079Y-90884716D01*
X136456282Y-91000047D01*
X136416803Y-91126055D01*
X136403644Y-91262740D01*
X133430538Y-91262740D01*
X133430538Y-90317246D01*
X136419535Y-90317246D01*
X136433439Y-90420536D01*
X136479125Y-90476153D01*
X136533749Y-90495023D01*
X136602277Y-90498003D01*
X137629210Y-90498003D01*
X137697738Y-90495023D01*
X137751369Y-90476153D01*
X137796061Y-90420536D01*
X137809966Y-90315260D01*
X137796061Y-90211971D01*
X137750376Y-90156354D01*
X137695752Y-90137484D01*
X137627223Y-90134504D01*
X136600291Y-90134504D01*
X136533749Y-90137484D01*
X136479125Y-90156354D01*
X136433439Y-90211971D01*
X136419535Y-90317246D01*
X133430538Y-90317246D01*
X133430538Y-88908899D01*
X133856613Y-88908899D01*
X133870054Y-89061004D01*
X133910376Y-89189364D01*
X133977580Y-89293979D01*
X134081411Y-89366559D01*
X134205402Y-89318172D01*
X134303184Y-89199221D01*
X134265886Y-89064140D01*
X134246733Y-89040955D01*
X134223547Y-89012729D01*
X134208427Y-88973415D01*
X134201370Y-88906883D01*
X134226572Y-88832286D01*
X134288063Y-88800028D01*
X134353588Y-88835310D01*
X134388870Y-88914947D01*
X134414071Y-89037931D01*
X134445321Y-89166963D01*
X134497740Y-89281126D01*
X134574353Y-89369583D01*
X134683728Y-89426287D01*
X134834433Y-89445188D01*
X134930703Y-89436619D01*
X135017901Y-89410914D01*
X135100242Y-89357849D01*
X136419535Y-89357849D01*
X136432198Y-89494906D01*
X136470186Y-89622031D01*
X136533500Y-89739224D01*
X136622140Y-89846486D01*
X136728409Y-89935995D01*
X136844609Y-89999930D01*
X136970741Y-90038291D01*
X137106805Y-90051078D01*
X137246531Y-90038291D01*
X137375704Y-89999930D01*
X137494325Y-89935995D01*
X137602394Y-89846486D01*
X137692338Y-89738852D01*
X137756583Y-89620541D01*
X137795130Y-89491554D01*
X137807979Y-89351890D01*
X137807979Y-89222162D01*
X138945978Y-89222162D01*
X138958157Y-89338736D01*
X138994695Y-89458790D01*
X139055592Y-89582324D01*
X139092783Y-89635174D01*
X139133888Y-89671385D01*
X139192611Y-89689981D01*
X139302225Y-89646918D01*
X139381500Y-89573515D01*
X139407925Y-89505985D01*
X139362905Y-89400285D01*
X139354096Y-89387562D01*
X139343331Y-89370924D01*
X139332565Y-89352329D01*
X139322778Y-89325904D01*
X139314948Y-89294585D01*
X139308097Y-89255437D01*
X139306140Y-89208460D01*
X139325714Y-89096888D01*
X139383457Y-88986294D01*
X139490136Y-88899190D01*
X139646728Y-88865914D01*
X139753651Y-88880839D01*
X139843447Y-88925615D01*
X139912201Y-88988986D01*
X139955998Y-89059697D01*
X139987316Y-89208460D01*
X139971168Y-89311713D01*
X139922722Y-89410072D01*
X139883574Y-89507942D01*
X139911467Y-89574494D01*
X139995146Y-89644961D01*
X140108675Y-89688023D01*
X140180120Y-89660620D01*
X140239821Y-89580366D01*
X140300718Y-89464227D01*
X140337256Y-89342868D01*
X140349436Y-89216289D01*
X140343563Y-89133344D01*
X140325947Y-89045017D01*
X140294384Y-88952529D01*
X140246672Y-88857106D01*
X140185014Y-88765353D01*
X140111611Y-88683876D01*
X140021326Y-88614143D01*
X139909020Y-88557623D01*
X139779342Y-88520188D01*
X139636941Y-88507709D01*
X139499923Y-88519943D01*
X139374649Y-88556645D01*
X139265768Y-88612431D01*
X139177930Y-88681918D01*
X139106485Y-88763395D01*
X139046784Y-88855148D01*
X139000540Y-88951061D01*
X138979654Y-89014214D01*
X138969467Y-89045017D01*
X138951850Y-89135791D01*
X138945978Y-89222162D01*
X137807979Y-89222162D01*
X137807979Y-89014214D01*
X137794075Y-88913904D01*
X137751369Y-88859280D01*
X137695752Y-88838424D01*
X137625237Y-88833458D01*
X136598304Y-88833458D01*
X136531762Y-88836437D01*
X136477138Y-88855308D01*
X136432446Y-88910925D01*
X136430469Y-88927044D01*
X136419535Y-89016200D01*
X136419535Y-89357849D01*
X135100242Y-89357849D01*
X135153989Y-89323212D01*
X135243707Y-89199221D01*
X135295118Y-89061116D01*
X135310239Y-88927044D01*
X135301166Y-88814141D01*
X135278989Y-88719383D01*
X135245723Y-88641762D01*
X135207416Y-88579262D01*
X135168102Y-88530875D01*
X135132820Y-88495593D01*
X135104594Y-88473416D01*
X135090481Y-88461319D01*
X134959433Y-88410916D01*
X134830401Y-88495593D01*
X134783806Y-88579374D01*
X134797247Y-88666740D01*
X134870724Y-88757689D01*
X134944312Y-88839342D01*
X134963465Y-88918979D01*
X134934232Y-89037931D01*
X134840482Y-89074221D01*
X134777982Y-89021802D01*
X134730603Y-88863536D01*
X134704645Y-88767518D01*
X134677176Y-88691157D01*
X134612660Y-88578254D01*
X134525966Y-88497609D01*
X134417095Y-88449222D01*
X134286047Y-88433093D01*
X134169448Y-88448102D01*
X134066962Y-88493129D01*
X133978588Y-88568174D01*
X133910824Y-88666068D01*
X133870166Y-88779643D01*
X133856613Y-88908899D01*
X133430538Y-88908899D01*
X133430538Y-87816159D01*
X133856613Y-87816159D01*
X133870054Y-87968264D01*
X133910376Y-88096624D01*
X133977580Y-88201239D01*
X134081411Y-88273819D01*
X134205402Y-88225432D01*
X134303184Y-88106481D01*
X134265886Y-87971401D01*
X134246733Y-87948215D01*
X134223547Y-87919989D01*
X134208427Y-87880675D01*
X134201370Y-87814143D01*
X134226572Y-87739546D01*
X134288063Y-87707288D01*
X134353588Y-87742570D01*
X134388870Y-87822207D01*
X134414071Y-87945191D01*
X134445321Y-88074223D01*
X134497740Y-88188386D01*
X134574353Y-88276844D01*
X134683728Y-88333547D01*
X134834433Y-88352448D01*
X134930703Y-88343880D01*
X135017901Y-88318174D01*
X135153989Y-88230473D01*
X135243707Y-88106481D01*
X135295118Y-87968376D01*
X135310239Y-87834304D01*
X135310082Y-87832348D01*
X136419535Y-87832348D01*
X136419703Y-87834304D01*
X136424500Y-87889951D01*
X136441384Y-87933650D01*
X136463234Y-87964439D01*
X136489056Y-87986288D01*
X136513885Y-87999199D01*
X136538714Y-88009131D01*
X136554605Y-88015090D01*
X137150504Y-88177969D01*
X136542687Y-88384547D01*
X136419535Y-88464994D01*
X136427480Y-88614962D01*
X136514879Y-88739107D01*
X136659881Y-88728182D01*
X137684827Y-88372629D01*
X137777191Y-88310557D01*
X137807979Y-88199819D01*
X137790102Y-88115400D01*
X137745410Y-88059782D01*
X137703697Y-88033960D01*
X137674895Y-88023035D01*
X137556954Y-87987040D01*
X138945978Y-87987040D01*
X138958157Y-88103615D01*
X138994695Y-88223669D01*
X139055592Y-88347202D01*
X139092783Y-88400052D01*
X139133888Y-88436264D01*
X139192611Y-88454860D01*
X139302225Y-88411797D01*
X139381500Y-88338394D01*
X139407925Y-88270864D01*
X139362905Y-88165164D01*
X139354096Y-88152441D01*
X139343331Y-88135803D01*
X139332565Y-88117208D01*
X139322778Y-88090783D01*
X139314948Y-88059464D01*
X139308097Y-88020316D01*
X139306140Y-87973338D01*
X139325714Y-87861766D01*
X139383457Y-87751173D01*
X139490136Y-87664069D01*
X139646728Y-87630793D01*
X139753651Y-87645718D01*
X139843447Y-87690494D01*
X139912201Y-87753865D01*
X139955998Y-87824576D01*
X139987316Y-87973338D01*
X139971168Y-88076591D01*
X139922722Y-88174951D01*
X139883574Y-88272821D01*
X139911467Y-88339373D01*
X139995146Y-88409839D01*
X140108675Y-88452902D01*
X140180120Y-88425499D01*
X140239821Y-88345245D01*
X140300718Y-88229106D01*
X140337256Y-88107747D01*
X140349436Y-87981168D01*
X140343563Y-87898223D01*
X140325947Y-87809895D01*
X140294384Y-87717408D01*
X140246672Y-87621985D01*
X140185014Y-87530231D01*
X140111611Y-87448754D01*
X140021326Y-87379022D01*
X139909020Y-87322502D01*
X139779342Y-87285067D01*
X139636941Y-87272588D01*
X139499923Y-87284822D01*
X139374649Y-87321523D01*
X139265768Y-87377309D01*
X139177930Y-87446797D01*
X139155109Y-87472822D01*
X139106485Y-87528274D01*
X139046784Y-87620027D01*
X139000540Y-87715940D01*
X138969467Y-87809895D01*
X138951850Y-87900670D01*
X138945978Y-87987040D01*
X137556954Y-87987040D01*
X137063106Y-87836320D01*
X137672909Y-87649605D01*
X137774212Y-87585546D01*
X137807979Y-87472822D01*
X137779178Y-87373505D01*
X137727533Y-87319874D01*
X137684827Y-87301997D01*
X136659881Y-86944458D01*
X136512892Y-86935520D01*
X136429466Y-87059665D01*
X136420528Y-87207647D01*
X136542687Y-87288093D01*
X137146531Y-87494671D01*
X136552619Y-87657551D01*
X136452806Y-87718134D01*
X136419535Y-87832348D01*
X135310082Y-87832348D01*
X135301166Y-87721401D01*
X135278989Y-87626643D01*
X135245723Y-87549022D01*
X135207416Y-87486523D01*
X135168102Y-87438136D01*
X135132820Y-87402853D01*
X135104594Y-87380676D01*
X135090481Y-87368579D01*
X134959433Y-87318176D01*
X134830401Y-87402853D01*
X134783806Y-87486635D01*
X134797247Y-87574000D01*
X134870724Y-87664950D01*
X134944312Y-87746603D01*
X134963465Y-87826240D01*
X134934232Y-87945191D01*
X134840482Y-87981481D01*
X134777982Y-87929062D01*
X134730603Y-87770796D01*
X134704645Y-87674778D01*
X134677176Y-87598418D01*
X134612660Y-87485515D01*
X134525966Y-87404870D01*
X134417095Y-87356483D01*
X134286047Y-87340354D01*
X134169448Y-87355362D01*
X134066962Y-87400389D01*
X133978588Y-87475434D01*
X133910824Y-87573328D01*
X133870166Y-87686903D01*
X133856613Y-87816159D01*
X133430538Y-87816159D01*
X133430538Y-86142775D01*
X133870726Y-86142775D01*
X133985645Y-86235517D01*
X134769917Y-86554065D01*
X133985645Y-86872613D01*
X133871734Y-86967370D01*
X133900967Y-87116564D01*
X133997741Y-87232491D01*
X134136854Y-87209305D01*
X135187255Y-86731484D01*
X135260844Y-86661927D01*
X135288061Y-86558097D01*
X135262860Y-86445194D01*
X135187255Y-86376646D01*
X135108045Y-86340614D01*
X136397685Y-86340614D01*
X136410927Y-86490471D01*
X136432171Y-86558097D01*
X136450654Y-86616934D01*
X136516865Y-86720003D01*
X136619161Y-86791511D01*
X136741320Y-86743839D01*
X136837657Y-86626645D01*
X136800910Y-86493561D01*
X136782040Y-86470718D01*
X136759197Y-86442910D01*
X136744300Y-86404176D01*
X136737347Y-86338627D01*
X136762177Y-86265133D01*
X136822760Y-86233352D01*
X136887315Y-86268113D01*
X136922076Y-86346573D01*
X136946905Y-86467739D01*
X136977693Y-86594864D01*
X137029338Y-86707340D01*
X137104819Y-86794490D01*
X137212577Y-86850356D01*
X137361055Y-86868978D01*
X137455902Y-86860536D01*
X137541811Y-86835210D01*
X137675888Y-86748805D01*
X137764280Y-86626645D01*
X137814932Y-86490582D01*
X137829829Y-86358491D01*
X137820891Y-86247256D01*
X137799041Y-86153899D01*
X137790247Y-86133380D01*
X138951850Y-86133380D01*
X139063422Y-86223420D01*
X139395969Y-86358491D01*
X139824852Y-86532690D01*
X139063422Y-86841960D01*
X138952829Y-86933958D01*
X138981211Y-87078805D01*
X139075166Y-87191356D01*
X139210227Y-87168846D01*
X140230034Y-86704941D01*
X140301479Y-86637411D01*
X140327904Y-86536605D01*
X140303437Y-86426990D01*
X140230034Y-86360438D01*
X139210227Y-85896534D01*
X139074188Y-85876960D01*
X138981211Y-85986575D01*
X138951850Y-86133380D01*
X137790247Y-86133380D01*
X137766266Y-86077425D01*
X137728526Y-86015849D01*
X137689793Y-85968177D01*
X137655032Y-85933416D01*
X137627223Y-85911566D01*
X137613319Y-85899648D01*
X137484208Y-85849990D01*
X137357082Y-85933416D01*
X137311176Y-86015959D01*
X137324418Y-86102033D01*
X137396809Y-86191639D01*
X137469310Y-86272085D01*
X137488180Y-86350545D01*
X137459378Y-86467739D01*
X137367014Y-86503493D01*
X137305438Y-86451848D01*
X137258759Y-86295921D01*
X137233185Y-86201322D01*
X137206121Y-86126090D01*
X137142559Y-86014856D01*
X137057147Y-85935402D01*
X136949885Y-85887730D01*
X136820773Y-85871840D01*
X136705897Y-85886627D01*
X136604925Y-85930988D01*
X136517858Y-86004924D01*
X136451095Y-86101371D01*
X136411038Y-86213268D01*
X136397685Y-86340614D01*
X135108045Y-86340614D01*
X134136854Y-85898824D01*
X133996733Y-85878663D01*
X133900967Y-85991566D01*
X133870726Y-86142775D01*
X133430538Y-86142775D01*
X133430538Y-85842045D01*
X133430538Y-85422019D01*
X140769462Y-85422019D01*
X140769462Y-85842045D01*
X140769462Y-86536605D01*
X140769462Y-87981168D01*
G37*
%TO.C,kibuzzard-65F9F6C6*%
G36*
X119777264Y-89043980D02*
G01*
X119581700Y-88949222D01*
X119777264Y-88854464D01*
X119777264Y-89043980D01*
G37*
G36*
X124697705Y-87865682D02*
G01*
X124662472Y-87962573D01*
X124554814Y-88008572D01*
X124453029Y-87966488D01*
X124411924Y-87863724D01*
X124411924Y-87654282D01*
X124697705Y-87654282D01*
X124697705Y-87865682D01*
G37*
G36*
X120013150Y-87501644D02*
G01*
X119988705Y-87629164D01*
X119915368Y-87737531D01*
X119807254Y-87811623D01*
X119678474Y-87836321D01*
X119549442Y-87811623D01*
X119440571Y-87737531D01*
X119366478Y-87628660D01*
X119341781Y-87499628D01*
X119341781Y-87338338D01*
X120013150Y-87338338D01*
X120013150Y-87501644D01*
G37*
G36*
X124894301Y-88788230D02*
G01*
X125002570Y-88819426D01*
X125067532Y-88871420D01*
X125089185Y-88944211D01*
X125062760Y-89025443D01*
X125003060Y-89075357D01*
X124914977Y-89100803D01*
X124828851Y-89111569D01*
X124750555Y-89112548D01*
X124740768Y-89112548D01*
X124588335Y-89102149D01*
X124479454Y-89070953D01*
X124414126Y-89018959D01*
X124392350Y-88946168D01*
X124414248Y-88872521D01*
X124479944Y-88819916D01*
X124589436Y-88788353D01*
X124742725Y-88777832D01*
X124894301Y-88788230D01*
G37*
G36*
X125869374Y-87474201D02*
G01*
X125869374Y-88952040D01*
X125869374Y-89670995D01*
X125869374Y-90091021D01*
X118530626Y-90091021D01*
X118530626Y-89670995D01*
X118530626Y-88951238D01*
X118972830Y-88951238D01*
X119000048Y-89049524D01*
X119081701Y-89118576D01*
X120128069Y-89624624D01*
X120271214Y-89651841D01*
X120370004Y-89539946D01*
X120399238Y-89390753D01*
X120283311Y-89291963D01*
X120091779Y-89199221D01*
X120091779Y-88703255D01*
X120285327Y-88610513D01*
X120397222Y-88509707D01*
X120381831Y-88432220D01*
X121513574Y-88432220D01*
X121527479Y-88535509D01*
X121573164Y-88591126D01*
X121627788Y-88609996D01*
X121696317Y-88612976D01*
X122594138Y-88612976D01*
X122594138Y-89097640D01*
X122597117Y-89154251D01*
X122613008Y-89199936D01*
X122659687Y-89238670D01*
X122749072Y-89250588D01*
X122836470Y-89238670D01*
X122884142Y-89199936D01*
X122901026Y-89152264D01*
X122904005Y-89095654D01*
X122904005Y-88948126D01*
X124034145Y-88948126D01*
X124046868Y-89068017D01*
X124085038Y-89173227D01*
X124142047Y-89260331D01*
X124211290Y-89325904D01*
X124293012Y-89375574D01*
X124329405Y-89390753D01*
X124387456Y-89414966D01*
X124484103Y-89443349D01*
X124572431Y-89459987D01*
X124657089Y-89468061D01*
X124742725Y-89470752D01*
X124830564Y-89467816D01*
X124917913Y-89459008D01*
X125007953Y-89441636D01*
X125103866Y-89413009D01*
X125196598Y-89373616D01*
X125277096Y-89323947D01*
X125345116Y-89258863D01*
X125400412Y-89173227D01*
X125437114Y-89069974D01*
X125449348Y-88952040D01*
X125441029Y-88847809D01*
X125416072Y-88754343D01*
X125376190Y-88674334D01*
X125323095Y-88610474D01*
X125193906Y-88514561D01*
X125039272Y-88454860D01*
X124883658Y-88427456D01*
X124740768Y-88419627D01*
X124576346Y-88429414D01*
X124571857Y-88430233D01*
X124489241Y-88445318D01*
X124392350Y-88473455D01*
X124296927Y-88512848D01*
X124214226Y-88562517D01*
X124144004Y-88628580D01*
X124086016Y-88717152D01*
X124047113Y-88824809D01*
X124034145Y-88948126D01*
X122904005Y-88948126D01*
X122904005Y-88430233D01*
X122890101Y-88326944D01*
X122844416Y-88271327D01*
X122789791Y-88252457D01*
X122721263Y-88249477D01*
X121694330Y-88249477D01*
X121627788Y-88252457D01*
X121573164Y-88271327D01*
X121527479Y-88326944D01*
X121513574Y-88432220D01*
X120381831Y-88432220D01*
X120367988Y-88362529D01*
X120270206Y-88249626D01*
X120128069Y-88275836D01*
X119079684Y-88781883D01*
X119002064Y-88852448D01*
X118972830Y-88951238D01*
X118530626Y-88951238D01*
X118530626Y-87501644D01*
X118972830Y-87501644D01*
X118985683Y-87640757D01*
X119024241Y-87769789D01*
X119088505Y-87888740D01*
X119178475Y-87997611D01*
X119286337Y-88088462D01*
X119404281Y-88153356D01*
X119532305Y-88192293D01*
X119670409Y-88205272D01*
X119812231Y-88192293D01*
X119943342Y-88153356D01*
X120063742Y-88088462D01*
X120173432Y-87997611D01*
X120264725Y-87888362D01*
X120329934Y-87768277D01*
X120365398Y-87649606D01*
X121499670Y-87649606D01*
X121512029Y-87767903D01*
X121549108Y-87889731D01*
X121610905Y-88015091D01*
X121648645Y-88068721D01*
X121690358Y-88105469D01*
X121749948Y-88124339D01*
X121861182Y-88080639D01*
X121941629Y-88006152D01*
X121968444Y-87937624D01*
X121922758Y-87830362D01*
X121913820Y-87817451D01*
X121902895Y-87800567D01*
X121891970Y-87781697D01*
X121882039Y-87754881D01*
X121874093Y-87723100D01*
X121867141Y-87683373D01*
X121865155Y-87635701D01*
X121885018Y-87522481D01*
X121943615Y-87410253D01*
X122051870Y-87321861D01*
X122210776Y-87288094D01*
X122319280Y-87303239D01*
X122410402Y-87348677D01*
X122480172Y-87412984D01*
X122524616Y-87484740D01*
X122556398Y-87635701D01*
X122540010Y-87740480D01*
X122490849Y-87840293D01*
X122451122Y-87939610D01*
X122479427Y-88007145D01*
X122564343Y-88078653D01*
X122679550Y-88122352D01*
X122752051Y-88094544D01*
X122812634Y-88013104D01*
X122874431Y-87895249D01*
X122911509Y-87772096D01*
X122923869Y-87643647D01*
X124053719Y-87643647D01*
X124053719Y-87865682D01*
X124061549Y-87945446D01*
X124085038Y-88028146D01*
X124123207Y-88110357D01*
X124175078Y-88188653D01*
X124244321Y-88258386D01*
X124334607Y-88314906D01*
X124440551Y-88352341D01*
X124556772Y-88364820D01*
X124672503Y-88352586D01*
X124776980Y-88315885D01*
X124865797Y-88259854D01*
X124934551Y-88189632D01*
X124986422Y-88110357D01*
X125024591Y-88027168D01*
X125048080Y-87943733D01*
X125055910Y-87863724D01*
X125055910Y-87654282D01*
X125243820Y-87654282D01*
X125311351Y-87651346D01*
X125364201Y-87632751D01*
X125408242Y-87577944D01*
X125421944Y-87474201D01*
X125408242Y-87372416D01*
X125363222Y-87317609D01*
X125309393Y-87299014D01*
X125241863Y-87296078D01*
X124231843Y-87296078D01*
X124166270Y-87299014D01*
X124112441Y-87317609D01*
X124067421Y-87372416D01*
X124053719Y-87476159D01*
X124053719Y-87643647D01*
X122923869Y-87643647D01*
X122917910Y-87559476D01*
X122900033Y-87469843D01*
X122868003Y-87375989D01*
X122819586Y-87279155D01*
X122757017Y-87186046D01*
X122682530Y-87103365D01*
X122590910Y-87032602D01*
X122476944Y-86975247D01*
X122345350Y-86937258D01*
X122200845Y-86924595D01*
X122061801Y-86937010D01*
X121934676Y-86974254D01*
X121824187Y-87030864D01*
X121735050Y-87101379D01*
X121689912Y-87152854D01*
X121662549Y-87184060D01*
X121601966Y-87277169D01*
X121555039Y-87374499D01*
X121523506Y-87469843D01*
X121505629Y-87561959D01*
X121499670Y-87649606D01*
X120365398Y-87649606D01*
X120369059Y-87637354D01*
X120382101Y-87495596D01*
X120382101Y-87152854D01*
X120367988Y-87051040D01*
X120324642Y-86995597D01*
X120268190Y-86974427D01*
X120196618Y-86969387D01*
X119154281Y-86969387D01*
X119086741Y-86972411D01*
X119031297Y-86991564D01*
X118985935Y-87048016D01*
X118972830Y-87154871D01*
X118972830Y-87501644D01*
X118530626Y-87501644D01*
X118530626Y-86348421D01*
X118950652Y-86348421D01*
X118964093Y-86500526D01*
X119004416Y-86628886D01*
X119071620Y-86733500D01*
X119175450Y-86806081D01*
X119299442Y-86757694D01*
X119397224Y-86638743D01*
X119359926Y-86503662D01*
X119340773Y-86480477D01*
X119317587Y-86452251D01*
X119302466Y-86412937D01*
X119295410Y-86346404D01*
X119320611Y-86271808D01*
X119382103Y-86239550D01*
X119447627Y-86274832D01*
X119482909Y-86354469D01*
X119508111Y-86477453D01*
X119539361Y-86606485D01*
X119591780Y-86720648D01*
X119668393Y-86809105D01*
X119777768Y-86865809D01*
X119928473Y-86884710D01*
X120024743Y-86876141D01*
X120111940Y-86850436D01*
X120248029Y-86762734D01*
X120337746Y-86638743D01*
X120389158Y-86500638D01*
X120404279Y-86366566D01*
X120402193Y-86340614D01*
X121491725Y-86340614D01*
X121494018Y-86366566D01*
X121504967Y-86490472D01*
X121544694Y-86616935D01*
X121610905Y-86720003D01*
X121713201Y-86791511D01*
X121835360Y-86743839D01*
X121931697Y-86626646D01*
X121894950Y-86493562D01*
X121876080Y-86470719D01*
X121853237Y-86442910D01*
X121838339Y-86404177D01*
X121831387Y-86338628D01*
X121856216Y-86265134D01*
X121916799Y-86233352D01*
X121981355Y-86268113D01*
X122016116Y-86346573D01*
X122040945Y-86467739D01*
X122071733Y-86594865D01*
X122123378Y-86707340D01*
X122198858Y-86794491D01*
X122306617Y-86850356D01*
X122455095Y-86868978D01*
X122549942Y-86860536D01*
X122635851Y-86835210D01*
X122769928Y-86748805D01*
X122858320Y-86626646D01*
X122871436Y-86591413D01*
X124030230Y-86591413D01*
X124037326Y-86692953D01*
X124058613Y-86801833D01*
X124092623Y-86904842D01*
X124137888Y-86988765D01*
X124177036Y-87043573D01*
X124218141Y-87079785D01*
X124274906Y-87098380D01*
X124384520Y-87053360D01*
X124462327Y-86980936D01*
X124488263Y-86908512D01*
X124443242Y-86802812D01*
X124402137Y-86702495D01*
X124388435Y-86581626D01*
X124412658Y-86452926D01*
X124485327Y-86344780D01*
X124593228Y-86271377D01*
X124723151Y-86246910D01*
X124857233Y-86272356D01*
X124973699Y-86348695D01*
X125054442Y-86458799D01*
X125081356Y-86585540D01*
X125074994Y-86698091D01*
X125055910Y-86781281D01*
X124887573Y-86781281D01*
X124887573Y-86636433D01*
X124884637Y-86583583D01*
X124868978Y-86542477D01*
X124822979Y-86509202D01*
X124734895Y-86499415D01*
X124648770Y-86510180D01*
X124602771Y-86546392D01*
X124587112Y-86589455D01*
X124584175Y-86642305D01*
X124584175Y-86984851D01*
X124597877Y-87060211D01*
X124623324Y-87106210D01*
X124662472Y-87129698D01*
X124705534Y-87138507D01*
X124754470Y-87139485D01*
X125155737Y-87139485D01*
X125268288Y-87092508D01*
X125367137Y-86965277D01*
X125409547Y-86856967D01*
X125434993Y-86727778D01*
X125443475Y-86577711D01*
X125430141Y-86441671D01*
X125390136Y-86315419D01*
X125323462Y-86198953D01*
X125230118Y-86092275D01*
X125118179Y-86003213D01*
X124995719Y-85939597D01*
X124862738Y-85901428D01*
X124719236Y-85888705D01*
X124582402Y-85901612D01*
X124455721Y-85940331D01*
X124339194Y-86004865D01*
X124232822Y-86095211D01*
X124144188Y-86203663D01*
X124080878Y-86322514D01*
X124070305Y-86358491D01*
X124042892Y-86451764D01*
X124030230Y-86591413D01*
X122871436Y-86591413D01*
X122908971Y-86490582D01*
X122923869Y-86358491D01*
X122914930Y-86247257D01*
X122893081Y-86153899D01*
X122860306Y-86077426D01*
X122822566Y-86015849D01*
X122783832Y-85968177D01*
X122749072Y-85933417D01*
X122721263Y-85911567D01*
X122707359Y-85899649D01*
X122578247Y-85849991D01*
X122451122Y-85933417D01*
X122405216Y-86015960D01*
X122418458Y-86102034D01*
X122490849Y-86191640D01*
X122563350Y-86272086D01*
X122582220Y-86350546D01*
X122553418Y-86467739D01*
X122461054Y-86503493D01*
X122399478Y-86451849D01*
X122352799Y-86295922D01*
X122327225Y-86201323D01*
X122300161Y-86126091D01*
X122236599Y-86014856D01*
X122151186Y-85935403D01*
X122043925Y-85887731D01*
X121914813Y-85871840D01*
X121799937Y-85886628D01*
X121698965Y-85930989D01*
X121611898Y-86004925D01*
X121545135Y-86101372D01*
X121505077Y-86213268D01*
X121491725Y-86340614D01*
X120402193Y-86340614D01*
X120395206Y-86253663D01*
X120373029Y-86158905D01*
X120339763Y-86081284D01*
X120301456Y-86018784D01*
X120262142Y-85970397D01*
X120226860Y-85935115D01*
X120198634Y-85912938D01*
X120184521Y-85900841D01*
X120053473Y-85850438D01*
X119924441Y-85935115D01*
X119877846Y-86018896D01*
X119891287Y-86106262D01*
X119964763Y-86197211D01*
X120038352Y-86278864D01*
X120057505Y-86358501D01*
X120028271Y-86477453D01*
X119934521Y-86513743D01*
X119872022Y-86461324D01*
X119824643Y-86303058D01*
X119798685Y-86207040D01*
X119771215Y-86130679D01*
X119706699Y-86017776D01*
X119620006Y-85937131D01*
X119511135Y-85888744D01*
X119380087Y-85872615D01*
X119263488Y-85887624D01*
X119161001Y-85932651D01*
X119072628Y-86007695D01*
X119004864Y-86105590D01*
X118964205Y-86219165D01*
X118950652Y-86348421D01*
X118530626Y-86348421D01*
X118530626Y-85842045D01*
X118530626Y-85422019D01*
X125869374Y-85422019D01*
X125869374Y-85842045D01*
X125869374Y-86577711D01*
X125869374Y-87474201D01*
G37*
%TD*%
M02*
