%TF.GenerationSoftware,KiCad,Pcbnew,8.0.0*%
%TF.CreationDate,2024-03-19T15:36:10-05:00*%
%TF.ProjectId,NFCBuisnessV3,4e464342-7569-4736-9e65-737356332e6b,rev?*%
%TF.SameCoordinates,Original*%
%TF.FileFunction,Copper,L2,Bot*%
%TF.FilePolarity,Positive*%
%FSLAX46Y46*%
G04 Gerber Fmt 4.6, Leading zero omitted, Abs format (unit mm)*
G04 Created by KiCad (PCBNEW 8.0.0) date 2024-03-19 15:36:10*
%MOMM*%
%LPD*%
G01*
G04 APERTURE LIST*
%TA.AperFunction,ComponentPad*%
%ADD10R,1.700000X1.700000*%
%TD*%
%TA.AperFunction,ComponentPad*%
%ADD11O,1.700000X1.700000*%
%TD*%
%TA.AperFunction,ViaPad*%
%ADD12C,0.600000*%
%TD*%
%TA.AperFunction,Conductor*%
%ADD13C,0.250000*%
%TD*%
G04 APERTURE END LIST*
D10*
%TO.P,J4,1,Pin_1*%
%TO.N,Net-(J4-Pin_1)*%
X119725000Y-83650000D03*
D11*
%TO.P,J4,2,Pin_2*%
%TO.N,Net-(J4-Pin_2)*%
X122265000Y-83650000D03*
%TO.P,J4,3,Pin_3*%
%TO.N,Net-(J4-Pin_3)*%
X124805000Y-83650000D03*
%TD*%
%TO.P,J3,3,Pin_3*%
%TO.N,VSS*%
X134420000Y-83635000D03*
%TO.P,J3,2,Pin_2*%
%TO.N,SWIO*%
X136960000Y-83635000D03*
D10*
%TO.P,J3,1,Pin_1*%
%TO.N,+3.3V*%
X139500000Y-83635000D03*
%TD*%
D12*
%TO.N,+3.3V*%
X135800000Y-92700000D03*
%TO.N,VSS*%
X133000000Y-91400000D03*
X128500000Y-92900000D03*
X128300000Y-95900000D03*
X121300000Y-89800000D03*
X121300000Y-92800000D03*
%TO.N,Net-(J4-Pin_1)*%
X122300000Y-91100000D03*
%TO.N,Net-(J4-Pin_2)*%
X123200000Y-91100000D03*
%TO.N,Net-(J4-Pin_3)*%
X124200000Y-91100000D03*
%TO.N,Net-(J1-Pin_1)*%
X108250000Y-88600000D03*
X115850000Y-90600000D03*
%TD*%
D13*
%TO.N,+3.3V*%
X139500000Y-83635000D02*
X139500000Y-89000000D01*
X139500000Y-89000000D02*
X135800000Y-92700000D01*
%TO.N,VSS*%
X128500000Y-92900000D02*
X130000000Y-91400000D01*
X130000000Y-91400000D02*
X133000000Y-91400000D01*
X128300000Y-95900000D02*
X128300000Y-93100000D01*
X128300000Y-93100000D02*
X128500000Y-92900000D01*
X121300000Y-92800000D02*
X121300000Y-92300000D01*
X121300000Y-92300000D02*
X121300000Y-89800000D01*
%TO.N,Net-(J4-Pin_1)*%
X122300000Y-86225000D02*
X119725000Y-83650000D01*
X122300000Y-91100000D02*
X122300000Y-86225000D01*
%TO.N,Net-(J4-Pin_2)*%
X123200000Y-84585000D02*
X122265000Y-83650000D01*
X123200000Y-91100000D02*
X123200000Y-84585000D01*
%TO.N,Net-(J4-Pin_3)*%
X124200000Y-91100000D02*
X124200000Y-84255000D01*
X124200000Y-84255000D02*
X124805000Y-83650000D01*
%TO.N,Net-(J1-Pin_1)*%
X108250000Y-88600000D02*
X113850000Y-88600000D01*
X113850000Y-88600000D02*
X115850000Y-90600000D01*
%TD*%
M02*
