%TF.GenerationSoftware,KiCad,Pcbnew,5.0.1*%
%TF.CreationDate,2019-01-19T14:59:23-06:00*%
%TF.ProjectId,NFCJig-TOP,4E46434A69672D544F502E6B69636164,rev?*%
%TF.SameCoordinates,Original*%
%TF.FileFunction,Legend,Top*%
%TF.FilePolarity,Positive*%
%FSLAX46Y46*%
G04 Gerber Fmt 4.6, Leading zero omitted, Abs format (unit mm)*
G04 Created by KiCad (PCBNEW 5.0.1) date Sat 19 Jan 2019 02:59:23 PM CST*
%MOMM*%
%LPD*%
G01*
G04 APERTURE LIST*
%ADD10C,0.150000*%
%ADD11C,0.300000*%
%ADD12C,0.010000*%
G04 APERTURE END LIST*
D10*
X127000000Y-134000000D02*
X204000000Y-134000000D01*
X107000000Y-127000000D02*
X107000000Y-126000000D01*
X109000000Y-129000000D02*
X110500000Y-129000000D01*
X109000000Y-129000000D02*
G75*
G02X107000000Y-127000000I0J2000000D01*
G01*
X123000000Y-129000000D02*
X110500000Y-129000000D01*
X107000000Y-72000000D02*
X107000000Y-126000000D01*
X125000000Y-132000000D02*
X125000000Y-131000000D01*
X123000000Y-129000000D02*
G75*
G02X125000000Y-131000000I0J-2000000D01*
G01*
X127000000Y-134000000D02*
G75*
G02X125000000Y-132000000I0J2000000D01*
G01*
X207000000Y-65000000D02*
X207000000Y-67000000D01*
X205000000Y-63000000D02*
X203500000Y-63000000D01*
X205000000Y-63000000D02*
G75*
G02X207000000Y-65000000I0J-2000000D01*
G01*
X203000000Y-63000000D02*
X203500000Y-63000000D01*
X138000000Y-63000000D02*
X203000000Y-63000000D01*
X135500000Y-68000000D02*
X135500000Y-65500000D01*
X135500000Y-65500000D02*
G75*
G02X138000000Y-63000000I2500000J0D01*
G01*
X107000000Y-72000000D02*
G75*
G02X109000000Y-70000000I2000000J0D01*
G01*
X109000000Y-70000000D02*
X110500000Y-70000000D01*
X133500000Y-70000000D02*
X110500000Y-70000000D01*
X135500000Y-68000000D02*
G75*
G02X133500000Y-70000000I-2000000J0D01*
G01*
X112000000Y-76000000D02*
G75*
G02X114500000Y-73500000I2500000J0D01*
G01*
X114500000Y-73500000D02*
X198500000Y-73500000D01*
X207000000Y-67000000D02*
X207000000Y-131000000D01*
X207000000Y-131000000D02*
G75*
G02X204000000Y-134000000I-3000000J0D01*
G01*
D11*
X117771428Y-127178571D02*
X118271428Y-128678571D01*
X118771428Y-127178571D01*
X119200000Y-128607142D02*
X119414285Y-128678571D01*
X119771428Y-128678571D01*
X119914285Y-128607142D01*
X119985714Y-128535714D01*
X120057142Y-128392857D01*
X120057142Y-128250000D01*
X119985714Y-128107142D01*
X119914285Y-128035714D01*
X119771428Y-127964285D01*
X119485714Y-127892857D01*
X119342857Y-127821428D01*
X119271428Y-127750000D01*
X119200000Y-127607142D01*
X119200000Y-127464285D01*
X119271428Y-127321428D01*
X119342857Y-127250000D01*
X119485714Y-127178571D01*
X119842857Y-127178571D01*
X120057142Y-127250000D01*
X120628571Y-128607142D02*
X120842857Y-128678571D01*
X121200000Y-128678571D01*
X121342857Y-128607142D01*
X121414285Y-128535714D01*
X121485714Y-128392857D01*
X121485714Y-128250000D01*
X121414285Y-128107142D01*
X121342857Y-128035714D01*
X121200000Y-127964285D01*
X120914285Y-127892857D01*
X120771428Y-127821428D01*
X120700000Y-127750000D01*
X120628571Y-127607142D01*
X120628571Y-127464285D01*
X120700000Y-127321428D01*
X120771428Y-127250000D01*
X120914285Y-127178571D01*
X121271428Y-127178571D01*
X121485714Y-127250000D01*
X113000000Y-127178571D02*
X113500000Y-128678571D01*
X114000000Y-127178571D01*
X114500000Y-128678571D02*
X114500000Y-127178571D01*
X114857142Y-127178571D01*
X115071428Y-127250000D01*
X115214285Y-127392857D01*
X115285714Y-127535714D01*
X115357142Y-127821428D01*
X115357142Y-128035714D01*
X115285714Y-128321428D01*
X115214285Y-128464285D01*
X115071428Y-128607142D01*
X114857142Y-128678571D01*
X114500000Y-128678571D01*
X116000000Y-128678571D02*
X116000000Y-127178571D01*
X116357142Y-127178571D01*
X116571428Y-127250000D01*
X116714285Y-127392857D01*
X116785714Y-127535714D01*
X116857142Y-127821428D01*
X116857142Y-128035714D01*
X116785714Y-128321428D01*
X116714285Y-128464285D01*
X116571428Y-128607142D01*
X116357142Y-128678571D01*
X116000000Y-128678571D01*
X201285714Y-130178571D02*
X201785714Y-131678571D01*
X202285714Y-130178571D01*
X203571428Y-131678571D02*
X202714285Y-131678571D01*
X203142857Y-131678571D02*
X203142857Y-130178571D01*
X203000000Y-130392857D01*
X202857142Y-130535714D01*
X202714285Y-130607142D01*
D10*
X112000000Y-122000000D02*
X112000000Y-76000000D01*
X198500000Y-124500000D02*
X114500000Y-124500000D01*
X201000000Y-76000000D02*
X201000000Y-122000000D01*
X201000000Y-122000000D02*
G75*
G02X198500000Y-124500000I-2500000J0D01*
G01*
X114500000Y-124500000D02*
G75*
G02X112000000Y-122000000I0J2500000D01*
G01*
X198500000Y-73500000D02*
G75*
G02X201000000Y-76000000I0J-2500000D01*
G01*
D12*
G36*
X185521054Y-129778740D02*
X185569216Y-129807255D01*
X185581593Y-129884652D01*
X185582000Y-129944000D01*
X185577927Y-130052387D01*
X185549412Y-130100549D01*
X185472015Y-130112926D01*
X185412667Y-130113333D01*
X185304280Y-130109260D01*
X185256118Y-130080745D01*
X185243741Y-130003348D01*
X185243334Y-129944000D01*
X185247407Y-129835613D01*
X185275922Y-129787451D01*
X185353319Y-129775074D01*
X185412667Y-129774667D01*
X185521054Y-129778740D01*
X185521054Y-129778740D01*
G37*
X185521054Y-129778740D02*
X185569216Y-129807255D01*
X185581593Y-129884652D01*
X185582000Y-129944000D01*
X185577927Y-130052387D01*
X185549412Y-130100549D01*
X185472015Y-130112926D01*
X185412667Y-130113333D01*
X185304280Y-130109260D01*
X185256118Y-130080745D01*
X185243741Y-130003348D01*
X185243334Y-129944000D01*
X185247407Y-129835613D01*
X185275922Y-129787451D01*
X185353319Y-129775074D01*
X185412667Y-129774667D01*
X185521054Y-129778740D01*
G36*
X173456054Y-129778740D02*
X173504216Y-129807255D01*
X173516593Y-129884652D01*
X173517000Y-129944000D01*
X173512355Y-130052450D01*
X173484875Y-130100651D01*
X173414244Y-130112980D01*
X173375889Y-130113333D01*
X173271287Y-130105588D01*
X173208467Y-130086778D01*
X173206556Y-130085111D01*
X173187184Y-130027015D01*
X173178383Y-129924160D01*
X173178334Y-129915778D01*
X173183908Y-129825402D01*
X173216884Y-129785235D01*
X173301641Y-129774960D01*
X173347667Y-129774667D01*
X173456054Y-129778740D01*
X173456054Y-129778740D01*
G37*
X173456054Y-129778740D02*
X173504216Y-129807255D01*
X173516593Y-129884652D01*
X173517000Y-129944000D01*
X173512355Y-130052450D01*
X173484875Y-130100651D01*
X173414244Y-130112980D01*
X173375889Y-130113333D01*
X173271287Y-130105588D01*
X173208467Y-130086778D01*
X173206556Y-130085111D01*
X173187184Y-130027015D01*
X173178383Y-129924160D01*
X173178334Y-129915778D01*
X173183908Y-129825402D01*
X173216884Y-129785235D01*
X173301641Y-129774960D01*
X173347667Y-129774667D01*
X173456054Y-129778740D01*
G36*
X146920699Y-129779793D02*
X146962858Y-129811445D01*
X146973669Y-129894034D01*
X146974000Y-129944000D01*
X146969515Y-130052418D01*
X146941819Y-130100600D01*
X146869554Y-130112955D01*
X146825834Y-130113333D01*
X146730968Y-130108207D01*
X146688809Y-130076554D01*
X146677998Y-129993966D01*
X146677667Y-129944000D01*
X146682152Y-129835582D01*
X146709848Y-129787400D01*
X146782113Y-129775045D01*
X146825834Y-129774667D01*
X146920699Y-129779793D01*
X146920699Y-129779793D01*
G37*
X146920699Y-129779793D02*
X146962858Y-129811445D01*
X146973669Y-129894034D01*
X146974000Y-129944000D01*
X146969515Y-130052418D01*
X146941819Y-130100600D01*
X146869554Y-130112955D01*
X146825834Y-130113333D01*
X146730968Y-130108207D01*
X146688809Y-130076554D01*
X146677998Y-129993966D01*
X146677667Y-129944000D01*
X146682152Y-129835582D01*
X146709848Y-129787400D01*
X146782113Y-129775045D01*
X146825834Y-129774667D01*
X146920699Y-129779793D01*
G36*
X159470760Y-130880145D02*
X159674000Y-131096623D01*
X159674000Y-132366416D01*
X159500725Y-132573375D01*
X159327449Y-132780333D01*
X158203919Y-132780333D01*
X158007626Y-132570480D01*
X157811334Y-132360627D01*
X157811334Y-131737234D01*
X158150000Y-131737234D01*
X158151058Y-131965294D01*
X158155760Y-132124861D01*
X158166399Y-132232099D01*
X158185268Y-132303172D01*
X158214662Y-132354241D01*
X158242046Y-132386021D01*
X158292855Y-132432118D01*
X158353307Y-132461021D01*
X158443279Y-132476669D01*
X158582650Y-132482999D01*
X158736734Y-132484000D01*
X158930307Y-132481830D01*
X159059441Y-132472848D01*
X159144309Y-132453345D01*
X159205080Y-132419613D01*
X159237355Y-132391954D01*
X159277517Y-132349349D01*
X159304900Y-132299877D01*
X159321938Y-132227564D01*
X159331065Y-132116438D01*
X159334717Y-131950525D01*
X159335334Y-131749099D01*
X159334276Y-131521039D01*
X159329574Y-131361472D01*
X159318935Y-131254234D01*
X159300065Y-131183161D01*
X159270672Y-131132092D01*
X159243288Y-131100312D01*
X159192478Y-131054215D01*
X159132027Y-131025312D01*
X159042054Y-131009664D01*
X158902684Y-131003334D01*
X158748599Y-131002333D01*
X158555026Y-131004503D01*
X158425892Y-131013485D01*
X158341025Y-131032988D01*
X158280254Y-131066720D01*
X158247979Y-131094379D01*
X158207816Y-131136984D01*
X158180434Y-131186456D01*
X158163396Y-131258769D01*
X158154269Y-131369895D01*
X158150617Y-131535808D01*
X158150000Y-131737234D01*
X157811334Y-131737234D01*
X157811334Y-131124265D01*
X158246948Y-130663667D01*
X159267519Y-130663667D01*
X159470760Y-130880145D01*
X159470760Y-130880145D01*
G37*
X159470760Y-130880145D02*
X159674000Y-131096623D01*
X159674000Y-132366416D01*
X159500725Y-132573375D01*
X159327449Y-132780333D01*
X158203919Y-132780333D01*
X158007626Y-132570480D01*
X157811334Y-132360627D01*
X157811334Y-131737234D01*
X158150000Y-131737234D01*
X158151058Y-131965294D01*
X158155760Y-132124861D01*
X158166399Y-132232099D01*
X158185268Y-132303172D01*
X158214662Y-132354241D01*
X158242046Y-132386021D01*
X158292855Y-132432118D01*
X158353307Y-132461021D01*
X158443279Y-132476669D01*
X158582650Y-132482999D01*
X158736734Y-132484000D01*
X158930307Y-132481830D01*
X159059441Y-132472848D01*
X159144309Y-132453345D01*
X159205080Y-132419613D01*
X159237355Y-132391954D01*
X159277517Y-132349349D01*
X159304900Y-132299877D01*
X159321938Y-132227564D01*
X159331065Y-132116438D01*
X159334717Y-131950525D01*
X159335334Y-131749099D01*
X159334276Y-131521039D01*
X159329574Y-131361472D01*
X159318935Y-131254234D01*
X159300065Y-131183161D01*
X159270672Y-131132092D01*
X159243288Y-131100312D01*
X159192478Y-131054215D01*
X159132027Y-131025312D01*
X159042054Y-131009664D01*
X158902684Y-131003334D01*
X158748599Y-131002333D01*
X158555026Y-131004503D01*
X158425892Y-131013485D01*
X158341025Y-131032988D01*
X158280254Y-131066720D01*
X158247979Y-131094379D01*
X158207816Y-131136984D01*
X158180434Y-131186456D01*
X158163396Y-131258769D01*
X158154269Y-131369895D01*
X158150617Y-131535808D01*
X158150000Y-131737234D01*
X157811334Y-131737234D01*
X157811334Y-131124265D01*
X158246948Y-130663667D01*
X159267519Y-130663667D01*
X159470760Y-130880145D01*
G36*
X185582000Y-132822667D02*
X185432505Y-132822667D01*
X185327584Y-132808901D01*
X185265776Y-132775140D01*
X185262382Y-132768913D01*
X185257057Y-132712972D01*
X185253185Y-132584778D01*
X185250874Y-132396733D01*
X185250232Y-132161240D01*
X185251366Y-131890701D01*
X185253128Y-131699996D01*
X185264500Y-130684833D01*
X185423250Y-130671694D01*
X185582000Y-130658556D01*
X185582000Y-132822667D01*
X185582000Y-132822667D01*
G37*
X185582000Y-132822667D02*
X185432505Y-132822667D01*
X185327584Y-132808901D01*
X185265776Y-132775140D01*
X185262382Y-132768913D01*
X185257057Y-132712972D01*
X185253185Y-132584778D01*
X185250874Y-132396733D01*
X185250232Y-132161240D01*
X185251366Y-131890701D01*
X185253128Y-131699996D01*
X185264500Y-130684833D01*
X185423250Y-130671694D01*
X185582000Y-130658556D01*
X185582000Y-132822667D01*
G36*
X183804000Y-130240333D02*
X183799927Y-130348720D01*
X183771412Y-130396882D01*
X183694015Y-130409259D01*
X183634667Y-130409667D01*
X183465334Y-130409667D01*
X183465334Y-132430081D01*
X183255480Y-132626374D01*
X183045627Y-132822667D01*
X182732401Y-132822667D01*
X182565198Y-132819649D01*
X182451421Y-132804425D01*
X182359881Y-132767741D01*
X182259391Y-132700341D01*
X182220073Y-132670640D01*
X182072274Y-132540623D01*
X181986507Y-132411033D01*
X181948031Y-132251707D01*
X181941334Y-132100244D01*
X181941334Y-131891333D01*
X182280000Y-131891333D01*
X182280000Y-132095621D01*
X182300545Y-132272900D01*
X182368577Y-132391106D01*
X182493694Y-132458513D01*
X182685493Y-132483396D01*
X182730433Y-132484000D01*
X182885368Y-132478064D01*
X182984613Y-132454890D01*
X183056647Y-132406425D01*
X183076954Y-132386021D01*
X183106897Y-132350798D01*
X183129529Y-132309708D01*
X183145873Y-132251246D01*
X183156949Y-132163908D01*
X183163779Y-132036188D01*
X183167383Y-131856583D01*
X183168782Y-131613588D01*
X183169000Y-131348855D01*
X183169000Y-130409667D01*
X183020834Y-130409667D01*
X182925968Y-130404540D01*
X182883809Y-130372888D01*
X182872998Y-130290299D01*
X182872667Y-130240333D01*
X182872667Y-130071000D01*
X183804000Y-130071000D01*
X183804000Y-130240333D01*
X183804000Y-130240333D01*
G37*
X183804000Y-130240333D02*
X183799927Y-130348720D01*
X183771412Y-130396882D01*
X183694015Y-130409259D01*
X183634667Y-130409667D01*
X183465334Y-130409667D01*
X183465334Y-132430081D01*
X183255480Y-132626374D01*
X183045627Y-132822667D01*
X182732401Y-132822667D01*
X182565198Y-132819649D01*
X182451421Y-132804425D01*
X182359881Y-132767741D01*
X182259391Y-132700341D01*
X182220073Y-132670640D01*
X182072274Y-132540623D01*
X181986507Y-132411033D01*
X181948031Y-132251707D01*
X181941334Y-132100244D01*
X181941334Y-131891333D01*
X182280000Y-131891333D01*
X182280000Y-132095621D01*
X182300545Y-132272900D01*
X182368577Y-132391106D01*
X182493694Y-132458513D01*
X182685493Y-132483396D01*
X182730433Y-132484000D01*
X182885368Y-132478064D01*
X182984613Y-132454890D01*
X183056647Y-132406425D01*
X183076954Y-132386021D01*
X183106897Y-132350798D01*
X183129529Y-132309708D01*
X183145873Y-132251246D01*
X183156949Y-132163908D01*
X183163779Y-132036188D01*
X183167383Y-131856583D01*
X183168782Y-131613588D01*
X183169000Y-131348855D01*
X183169000Y-130409667D01*
X183020834Y-130409667D01*
X182925968Y-130404540D01*
X182883809Y-130372888D01*
X182872998Y-130290299D01*
X182872667Y-130240333D01*
X182872667Y-130071000D01*
X183804000Y-130071000D01*
X183804000Y-130240333D01*
G36*
X175951619Y-130667077D02*
X176065440Y-130683180D01*
X176156745Y-130720787D01*
X176256565Y-130788708D01*
X176275674Y-130803186D01*
X176369667Y-130877624D01*
X176440671Y-130947012D01*
X176491729Y-131024156D01*
X176525882Y-131121863D01*
X176546173Y-131252939D01*
X176555643Y-131430189D01*
X176557335Y-131666419D01*
X176554290Y-131974436D01*
X176554270Y-131976000D01*
X176543834Y-132801500D01*
X176247500Y-132801500D01*
X176235950Y-131998866D01*
X176231373Y-131717863D01*
X176225926Y-131508870D01*
X176218164Y-131359235D01*
X176206645Y-131256302D01*
X176189924Y-131187420D01*
X176166558Y-131139932D01*
X176135103Y-131101186D01*
X176133321Y-131099283D01*
X176066249Y-131043501D01*
X175980857Y-131013927D01*
X175849728Y-131003093D01*
X175777337Y-131002333D01*
X175628247Y-131005785D01*
X175536865Y-131022389D01*
X175476318Y-131061520D01*
X175424883Y-131125285D01*
X175393917Y-131174480D01*
X175371226Y-131231102D01*
X175355537Y-131308382D01*
X175345578Y-131419553D01*
X175340074Y-131577850D01*
X175337754Y-131796503D01*
X175337334Y-132035452D01*
X175337334Y-132822667D01*
X175042684Y-132822667D01*
X175031259Y-131923083D01*
X175019834Y-131023500D01*
X174858689Y-131010218D01*
X174754296Y-130996685D01*
X174711513Y-130962185D01*
X174707445Y-130880551D01*
X174710522Y-130840885D01*
X174725567Y-130738940D01*
X174765667Y-130691901D01*
X174857703Y-130673967D01*
X174887078Y-130671407D01*
X175028905Y-130679098D01*
X175135917Y-130738544D01*
X175149167Y-130750525D01*
X175247677Y-130843070D01*
X175361714Y-130753368D01*
X175442597Y-130703583D01*
X175543235Y-130675881D01*
X175689608Y-130664746D01*
X175784252Y-130663666D01*
X175951619Y-130667077D01*
X175951619Y-130667077D01*
G37*
X175951619Y-130667077D02*
X176065440Y-130683180D01*
X176156745Y-130720787D01*
X176256565Y-130788708D01*
X176275674Y-130803186D01*
X176369667Y-130877624D01*
X176440671Y-130947012D01*
X176491729Y-131024156D01*
X176525882Y-131121863D01*
X176546173Y-131252939D01*
X176555643Y-131430189D01*
X176557335Y-131666419D01*
X176554290Y-131974436D01*
X176554270Y-131976000D01*
X176543834Y-132801500D01*
X176247500Y-132801500D01*
X176235950Y-131998866D01*
X176231373Y-131717863D01*
X176225926Y-131508870D01*
X176218164Y-131359235D01*
X176206645Y-131256302D01*
X176189924Y-131187420D01*
X176166558Y-131139932D01*
X176135103Y-131101186D01*
X176133321Y-131099283D01*
X176066249Y-131043501D01*
X175980857Y-131013927D01*
X175849728Y-131003093D01*
X175777337Y-131002333D01*
X175628247Y-131005785D01*
X175536865Y-131022389D01*
X175476318Y-131061520D01*
X175424883Y-131125285D01*
X175393917Y-131174480D01*
X175371226Y-131231102D01*
X175355537Y-131308382D01*
X175345578Y-131419553D01*
X175340074Y-131577850D01*
X175337754Y-131796503D01*
X175337334Y-132035452D01*
X175337334Y-132822667D01*
X175042684Y-132822667D01*
X175031259Y-131923083D01*
X175019834Y-131023500D01*
X174858689Y-131010218D01*
X174754296Y-130996685D01*
X174711513Y-130962185D01*
X174707445Y-130880551D01*
X174710522Y-130840885D01*
X174725567Y-130738940D01*
X174765667Y-130691901D01*
X174857703Y-130673967D01*
X174887078Y-130671407D01*
X175028905Y-130679098D01*
X175135917Y-130738544D01*
X175149167Y-130750525D01*
X175247677Y-130843070D01*
X175361714Y-130753368D01*
X175442597Y-130703583D01*
X175543235Y-130675881D01*
X175689608Y-130664746D01*
X175784252Y-130663666D01*
X175951619Y-130667077D01*
G36*
X173517000Y-132822667D02*
X173367505Y-132822667D01*
X173262584Y-132808901D01*
X173200776Y-132775140D01*
X173197382Y-132768913D01*
X173192057Y-132712972D01*
X173188185Y-132584778D01*
X173185874Y-132396733D01*
X173185232Y-132161240D01*
X173186366Y-131890701D01*
X173188128Y-131699996D01*
X173199500Y-130684833D01*
X173358250Y-130671694D01*
X173517000Y-130658556D01*
X173517000Y-132822667D01*
X173517000Y-132822667D01*
G37*
X173517000Y-132822667D02*
X173367505Y-132822667D01*
X173262584Y-132808901D01*
X173200776Y-132775140D01*
X173197382Y-132768913D01*
X173192057Y-132712972D01*
X173188185Y-132584778D01*
X173185874Y-132396733D01*
X173185232Y-132161240D01*
X173186366Y-131890701D01*
X173188128Y-131699996D01*
X173199500Y-130684833D01*
X173358250Y-130671694D01*
X173517000Y-130658556D01*
X173517000Y-132822667D01*
G36*
X170604867Y-130676911D02*
X170763416Y-130745686D01*
X170817587Y-130786471D01*
X170957453Y-130909275D01*
X171094894Y-130786471D01*
X171226978Y-130695706D01*
X171370242Y-130664387D01*
X171402815Y-130663667D01*
X171508016Y-130672986D01*
X171599765Y-130710172D01*
X171704879Y-130789066D01*
X171783147Y-130859959D01*
X171993000Y-131056252D01*
X171993000Y-132822667D01*
X171696667Y-132822667D01*
X171696667Y-132004546D01*
X171696329Y-131721985D01*
X171694426Y-131511682D01*
X171689622Y-131361229D01*
X171680581Y-131258217D01*
X171665968Y-131190237D01*
X171644446Y-131144882D01*
X171614680Y-131109743D01*
X171598688Y-131094379D01*
X171464337Y-131015748D01*
X171325203Y-131017065D01*
X171198160Y-131098080D01*
X171196046Y-131100312D01*
X171164157Y-131138218D01*
X171140625Y-131182621D01*
X171124184Y-131246070D01*
X171113568Y-131341116D01*
X171107511Y-131480308D01*
X171104749Y-131676194D01*
X171104015Y-131941325D01*
X171104000Y-132013034D01*
X171104000Y-132827777D01*
X170945250Y-132814639D01*
X170786500Y-132801500D01*
X170774950Y-131998866D01*
X170770373Y-131717863D01*
X170764926Y-131508870D01*
X170757164Y-131359235D01*
X170745645Y-131256302D01*
X170728924Y-131187420D01*
X170705558Y-131139932D01*
X170674103Y-131101186D01*
X170672321Y-131099283D01*
X170551005Y-131016606D01*
X170426014Y-131017889D01*
X170307046Y-131100312D01*
X170275113Y-131138279D01*
X170251561Y-131182759D01*
X170235119Y-131246326D01*
X170224515Y-131341552D01*
X170218477Y-131481012D01*
X170215733Y-131677280D01*
X170215013Y-131942930D01*
X170215000Y-132010478D01*
X170215000Y-132822667D01*
X170065505Y-132822667D01*
X169960584Y-132808901D01*
X169898776Y-132775140D01*
X169895382Y-132768913D01*
X169890057Y-132712972D01*
X169886185Y-132584778D01*
X169883874Y-132396733D01*
X169883232Y-132161240D01*
X169884366Y-131890701D01*
X169886128Y-131699996D01*
X169897500Y-130684833D01*
X170016477Y-130671191D01*
X170121971Y-130675319D01*
X170187230Y-130700519D01*
X170267500Y-130718899D01*
X170301087Y-130704227D01*
X170440381Y-130661439D01*
X170604867Y-130676911D01*
X170604867Y-130676911D01*
G37*
X170604867Y-130676911D02*
X170763416Y-130745686D01*
X170817587Y-130786471D01*
X170957453Y-130909275D01*
X171094894Y-130786471D01*
X171226978Y-130695706D01*
X171370242Y-130664387D01*
X171402815Y-130663667D01*
X171508016Y-130672986D01*
X171599765Y-130710172D01*
X171704879Y-130789066D01*
X171783147Y-130859959D01*
X171993000Y-131056252D01*
X171993000Y-132822667D01*
X171696667Y-132822667D01*
X171696667Y-132004546D01*
X171696329Y-131721985D01*
X171694426Y-131511682D01*
X171689622Y-131361229D01*
X171680581Y-131258217D01*
X171665968Y-131190237D01*
X171644446Y-131144882D01*
X171614680Y-131109743D01*
X171598688Y-131094379D01*
X171464337Y-131015748D01*
X171325203Y-131017065D01*
X171198160Y-131098080D01*
X171196046Y-131100312D01*
X171164157Y-131138218D01*
X171140625Y-131182621D01*
X171124184Y-131246070D01*
X171113568Y-131341116D01*
X171107511Y-131480308D01*
X171104749Y-131676194D01*
X171104015Y-131941325D01*
X171104000Y-132013034D01*
X171104000Y-132827777D01*
X170945250Y-132814639D01*
X170786500Y-132801500D01*
X170774950Y-131998866D01*
X170770373Y-131717863D01*
X170764926Y-131508870D01*
X170757164Y-131359235D01*
X170745645Y-131256302D01*
X170728924Y-131187420D01*
X170705558Y-131139932D01*
X170674103Y-131101186D01*
X170672321Y-131099283D01*
X170551005Y-131016606D01*
X170426014Y-131017889D01*
X170307046Y-131100312D01*
X170275113Y-131138279D01*
X170251561Y-131182759D01*
X170235119Y-131246326D01*
X170224515Y-131341552D01*
X170218477Y-131481012D01*
X170215733Y-131677280D01*
X170215013Y-131942930D01*
X170215000Y-132010478D01*
X170215000Y-132822667D01*
X170065505Y-132822667D01*
X169960584Y-132808901D01*
X169898776Y-132775140D01*
X169895382Y-132768913D01*
X169890057Y-132712972D01*
X169886185Y-132584778D01*
X169883874Y-132396733D01*
X169883232Y-132161240D01*
X169884366Y-131890701D01*
X169886128Y-131699996D01*
X169897500Y-130684833D01*
X170016477Y-130671191D01*
X170121971Y-130675319D01*
X170187230Y-130700519D01*
X170267500Y-130718899D01*
X170301087Y-130704227D01*
X170440381Y-130661439D01*
X170604867Y-130676911D01*
G36*
X168191867Y-130676911D02*
X168350416Y-130745686D01*
X168404587Y-130786471D01*
X168544453Y-130909275D01*
X168681894Y-130786471D01*
X168813978Y-130695706D01*
X168957242Y-130664387D01*
X168989815Y-130663667D01*
X169095016Y-130672986D01*
X169186765Y-130710172D01*
X169291879Y-130789066D01*
X169370147Y-130859959D01*
X169580000Y-131056252D01*
X169580000Y-132822667D01*
X169283667Y-132822667D01*
X169283667Y-132004546D01*
X169283329Y-131721985D01*
X169281426Y-131511682D01*
X169276622Y-131361229D01*
X169267581Y-131258217D01*
X169252968Y-131190237D01*
X169231446Y-131144882D01*
X169201680Y-131109743D01*
X169185688Y-131094379D01*
X169052142Y-131014769D01*
X168916934Y-131014661D01*
X168796227Y-131093282D01*
X168778739Y-131113876D01*
X168747999Y-131158230D01*
X168725395Y-131210341D01*
X168709685Y-131283105D01*
X168699631Y-131389422D01*
X168693992Y-131542189D01*
X168691528Y-131754305D01*
X168691000Y-132026598D01*
X168691000Y-132827777D01*
X168532250Y-132814639D01*
X168373500Y-132801500D01*
X168361950Y-131998866D01*
X168357373Y-131717863D01*
X168351926Y-131508870D01*
X168344164Y-131359235D01*
X168332645Y-131256302D01*
X168315924Y-131187420D01*
X168292558Y-131139932D01*
X168261103Y-131101186D01*
X168259321Y-131099283D01*
X168151916Y-131018538D01*
X168042929Y-131015214D01*
X167915099Y-131088851D01*
X167913543Y-131090072D01*
X167802000Y-131177812D01*
X167802000Y-132822667D01*
X167652505Y-132822667D01*
X167547584Y-132808901D01*
X167485776Y-132775140D01*
X167482382Y-132768913D01*
X167477057Y-132712972D01*
X167473185Y-132584778D01*
X167470874Y-132396733D01*
X167470232Y-132161240D01*
X167471366Y-131890701D01*
X167473128Y-131699996D01*
X167484500Y-130684833D01*
X167603477Y-130671191D01*
X167708971Y-130675319D01*
X167774230Y-130700519D01*
X167854500Y-130718899D01*
X167888087Y-130704227D01*
X168027381Y-130661439D01*
X168191867Y-130676911D01*
X168191867Y-130676911D01*
G37*
X168191867Y-130676911D02*
X168350416Y-130745686D01*
X168404587Y-130786471D01*
X168544453Y-130909275D01*
X168681894Y-130786471D01*
X168813978Y-130695706D01*
X168957242Y-130664387D01*
X168989815Y-130663667D01*
X169095016Y-130672986D01*
X169186765Y-130710172D01*
X169291879Y-130789066D01*
X169370147Y-130859959D01*
X169580000Y-131056252D01*
X169580000Y-132822667D01*
X169283667Y-132822667D01*
X169283667Y-132004546D01*
X169283329Y-131721985D01*
X169281426Y-131511682D01*
X169276622Y-131361229D01*
X169267581Y-131258217D01*
X169252968Y-131190237D01*
X169231446Y-131144882D01*
X169201680Y-131109743D01*
X169185688Y-131094379D01*
X169052142Y-131014769D01*
X168916934Y-131014661D01*
X168796227Y-131093282D01*
X168778739Y-131113876D01*
X168747999Y-131158230D01*
X168725395Y-131210341D01*
X168709685Y-131283105D01*
X168699631Y-131389422D01*
X168693992Y-131542189D01*
X168691528Y-131754305D01*
X168691000Y-132026598D01*
X168691000Y-132827777D01*
X168532250Y-132814639D01*
X168373500Y-132801500D01*
X168361950Y-131998866D01*
X168357373Y-131717863D01*
X168351926Y-131508870D01*
X168344164Y-131359235D01*
X168332645Y-131256302D01*
X168315924Y-131187420D01*
X168292558Y-131139932D01*
X168261103Y-131101186D01*
X168259321Y-131099283D01*
X168151916Y-131018538D01*
X168042929Y-131015214D01*
X167915099Y-131088851D01*
X167913543Y-131090072D01*
X167802000Y-131177812D01*
X167802000Y-132822667D01*
X167652505Y-132822667D01*
X167547584Y-132808901D01*
X167485776Y-132775140D01*
X167482382Y-132768913D01*
X167477057Y-132712972D01*
X167473185Y-132584778D01*
X167470874Y-132396733D01*
X167470232Y-132161240D01*
X167471366Y-131890701D01*
X167473128Y-131699996D01*
X167484500Y-130684833D01*
X167603477Y-130671191D01*
X167708971Y-130675319D01*
X167774230Y-130700519D01*
X167854500Y-130718899D01*
X167888087Y-130704227D01*
X168027381Y-130661439D01*
X168191867Y-130676911D01*
G36*
X166870667Y-131056252D02*
X166870667Y-132478889D01*
X167029417Y-132492028D01*
X167133448Y-132506771D01*
X167177961Y-132544479D01*
X167188065Y-132630665D01*
X167188167Y-132653333D01*
X167188167Y-132801500D01*
X166341500Y-132811924D01*
X166080424Y-132813592D01*
X165847264Y-132812150D01*
X165655644Y-132807922D01*
X165519186Y-132801229D01*
X165451512Y-132792394D01*
X165447907Y-132790757D01*
X165396962Y-132743616D01*
X165311550Y-132652701D01*
X165225657Y-132555508D01*
X165125021Y-132429231D01*
X165071886Y-132328954D01*
X165057043Y-132249106D01*
X165401719Y-132249106D01*
X165478880Y-132383697D01*
X165481046Y-132386021D01*
X165525933Y-132427893D01*
X165578385Y-132455786D01*
X165655441Y-132472517D01*
X165774142Y-132480904D01*
X165951526Y-132483763D01*
X166073713Y-132484000D01*
X166574334Y-132484000D01*
X166574334Y-131891333D01*
X166079645Y-131891333D01*
X165864356Y-131892680D01*
X165716313Y-131898523D01*
X165618116Y-131911563D01*
X165552363Y-131934504D01*
X165501653Y-131970049D01*
X165486979Y-131983379D01*
X165404502Y-132110042D01*
X165401719Y-132249106D01*
X165057043Y-132249106D01*
X165052120Y-132222625D01*
X165050334Y-132157878D01*
X165056381Y-132046957D01*
X165083890Y-131960998D01*
X165146913Y-131872694D01*
X165255953Y-131758286D01*
X165461572Y-131552666D01*
X166017953Y-131552667D01*
X166574334Y-131552667D01*
X166574334Y-131369546D01*
X166557531Y-131221103D01*
X166498882Y-131117306D01*
X166476355Y-131094379D01*
X166428056Y-131055415D01*
X166370303Y-131029266D01*
X166286251Y-131013415D01*
X166159053Y-131005346D01*
X165971863Y-131002546D01*
X165859966Y-131002333D01*
X165341556Y-131002333D01*
X165367834Y-130684833D01*
X165908041Y-130672982D01*
X166448249Y-130661130D01*
X166870667Y-131056252D01*
X166870667Y-131056252D01*
G37*
X166870667Y-131056252D02*
X166870667Y-132478889D01*
X167029417Y-132492028D01*
X167133448Y-132506771D01*
X167177961Y-132544479D01*
X167188065Y-132630665D01*
X167188167Y-132653333D01*
X167188167Y-132801500D01*
X166341500Y-132811924D01*
X166080424Y-132813592D01*
X165847264Y-132812150D01*
X165655644Y-132807922D01*
X165519186Y-132801229D01*
X165451512Y-132792394D01*
X165447907Y-132790757D01*
X165396962Y-132743616D01*
X165311550Y-132652701D01*
X165225657Y-132555508D01*
X165125021Y-132429231D01*
X165071886Y-132328954D01*
X165057043Y-132249106D01*
X165401719Y-132249106D01*
X165478880Y-132383697D01*
X165481046Y-132386021D01*
X165525933Y-132427893D01*
X165578385Y-132455786D01*
X165655441Y-132472517D01*
X165774142Y-132480904D01*
X165951526Y-132483763D01*
X166073713Y-132484000D01*
X166574334Y-132484000D01*
X166574334Y-131891333D01*
X166079645Y-131891333D01*
X165864356Y-131892680D01*
X165716313Y-131898523D01*
X165618116Y-131911563D01*
X165552363Y-131934504D01*
X165501653Y-131970049D01*
X165486979Y-131983379D01*
X165404502Y-132110042D01*
X165401719Y-132249106D01*
X165057043Y-132249106D01*
X165052120Y-132222625D01*
X165050334Y-132157878D01*
X165056381Y-132046957D01*
X165083890Y-131960998D01*
X165146913Y-131872694D01*
X165255953Y-131758286D01*
X165461572Y-131552666D01*
X166017953Y-131552667D01*
X166574334Y-131552667D01*
X166574334Y-131369546D01*
X166557531Y-131221103D01*
X166498882Y-131117306D01*
X166476355Y-131094379D01*
X166428056Y-131055415D01*
X166370303Y-131029266D01*
X166286251Y-131013415D01*
X166159053Y-131005346D01*
X165971863Y-131002546D01*
X165859966Y-131002333D01*
X165341556Y-131002333D01*
X165367834Y-130684833D01*
X165908041Y-130672982D01*
X166448249Y-130661130D01*
X166870667Y-131056252D01*
G36*
X163968829Y-130670267D02*
X164051129Y-130698917D01*
X164139946Y-130762894D01*
X164258985Y-130875470D01*
X164273609Y-130890058D01*
X164394202Y-131022942D01*
X164473816Y-131136037D01*
X164500000Y-131207558D01*
X164487741Y-131266763D01*
X164435676Y-131293014D01*
X164330667Y-131298667D01*
X164210638Y-131287221D01*
X164163029Y-131250641D01*
X164161334Y-131238049D01*
X164125679Y-131167448D01*
X164037945Y-131091573D01*
X163926976Y-131030045D01*
X163821617Y-131002484D01*
X163814807Y-131002333D01*
X163717378Y-131038294D01*
X163578730Y-131144996D01*
X163473251Y-131245806D01*
X163232319Y-131489278D01*
X163220576Y-132145389D01*
X163208834Y-132801500D01*
X163050084Y-132814639D01*
X162891334Y-132827777D01*
X162891334Y-131046280D01*
X162785132Y-131019625D01*
X162689539Y-130964292D01*
X162642305Y-130875599D01*
X162642733Y-130779141D01*
X162690129Y-130700517D01*
X162783798Y-130665325D01*
X162794755Y-130665167D01*
X162977760Y-130706978D01*
X163124748Y-130822348D01*
X163187581Y-130917500D01*
X163258906Y-131055427D01*
X163353624Y-130922408D01*
X163513347Y-130764067D01*
X163714780Y-130679354D01*
X163869340Y-130663667D01*
X163968829Y-130670267D01*
X163968829Y-130670267D01*
G37*
X163968829Y-130670267D02*
X164051129Y-130698917D01*
X164139946Y-130762894D01*
X164258985Y-130875470D01*
X164273609Y-130890058D01*
X164394202Y-131022942D01*
X164473816Y-131136037D01*
X164500000Y-131207558D01*
X164487741Y-131266763D01*
X164435676Y-131293014D01*
X164330667Y-131298667D01*
X164210638Y-131287221D01*
X164163029Y-131250641D01*
X164161334Y-131238049D01*
X164125679Y-131167448D01*
X164037945Y-131091573D01*
X163926976Y-131030045D01*
X163821617Y-131002484D01*
X163814807Y-131002333D01*
X163717378Y-131038294D01*
X163578730Y-131144996D01*
X163473251Y-131245806D01*
X163232319Y-131489278D01*
X163220576Y-132145389D01*
X163208834Y-132801500D01*
X163050084Y-132814639D01*
X162891334Y-132827777D01*
X162891334Y-131046280D01*
X162785132Y-131019625D01*
X162689539Y-130964292D01*
X162642305Y-130875599D01*
X162642733Y-130779141D01*
X162690129Y-130700517D01*
X162783798Y-130665325D01*
X162794755Y-130665167D01*
X162977760Y-130706978D01*
X163124748Y-130822348D01*
X163187581Y-130917500D01*
X163258906Y-131055427D01*
X163353624Y-130922408D01*
X163513347Y-130764067D01*
X163714780Y-130679354D01*
X163869340Y-130663667D01*
X163968829Y-130670267D01*
G36*
X156713409Y-130669394D02*
X156799383Y-130695256D01*
X156888886Y-130754270D01*
X157007331Y-130859457D01*
X157030701Y-130881474D01*
X157176957Y-131035804D01*
X157251322Y-131153652D01*
X157261000Y-131198974D01*
X157250679Y-131263381D01*
X157204031Y-131291992D01*
X157097526Y-131298660D01*
X157091667Y-131298667D01*
X156971464Y-131287149D01*
X156923940Y-131250432D01*
X156922334Y-131238239D01*
X156886284Y-131161317D01*
X156797457Y-131082806D01*
X156684838Y-131023110D01*
X156587216Y-131002333D01*
X156498695Y-131026551D01*
X156385418Y-131104520D01*
X156235831Y-131244210D01*
X156234251Y-131245806D01*
X155993319Y-131489278D01*
X155981576Y-132145389D01*
X155969834Y-132801500D01*
X155811084Y-132814639D01*
X155652334Y-132827777D01*
X155652334Y-131046280D01*
X155550789Y-131020794D01*
X155467928Y-130970891D01*
X155429001Y-130862351D01*
X155428830Y-130861237D01*
X155419358Y-130741507D01*
X155447654Y-130682637D01*
X155527113Y-130664404D01*
X155559582Y-130663825D01*
X155699684Y-130693347D01*
X155836216Y-130768149D01*
X155938907Y-130868130D01*
X155973592Y-130938735D01*
X156000789Y-131047097D01*
X156205747Y-130855382D01*
X156326287Y-130749214D01*
X156418862Y-130691289D01*
X156512824Y-130667532D01*
X156605554Y-130663666D01*
X156713409Y-130669394D01*
X156713409Y-130669394D01*
G37*
X156713409Y-130669394D02*
X156799383Y-130695256D01*
X156888886Y-130754270D01*
X157007331Y-130859457D01*
X157030701Y-130881474D01*
X157176957Y-131035804D01*
X157251322Y-131153652D01*
X157261000Y-131198974D01*
X157250679Y-131263381D01*
X157204031Y-131291992D01*
X157097526Y-131298660D01*
X157091667Y-131298667D01*
X156971464Y-131287149D01*
X156923940Y-131250432D01*
X156922334Y-131238239D01*
X156886284Y-131161317D01*
X156797457Y-131082806D01*
X156684838Y-131023110D01*
X156587216Y-131002333D01*
X156498695Y-131026551D01*
X156385418Y-131104520D01*
X156235831Y-131244210D01*
X156234251Y-131245806D01*
X155993319Y-131489278D01*
X155981576Y-132145389D01*
X155969834Y-132801500D01*
X155811084Y-132814639D01*
X155652334Y-132827777D01*
X155652334Y-131046280D01*
X155550789Y-131020794D01*
X155467928Y-130970891D01*
X155429001Y-130862351D01*
X155428830Y-130861237D01*
X155419358Y-130741507D01*
X155447654Y-130682637D01*
X155527113Y-130664404D01*
X155559582Y-130663825D01*
X155699684Y-130693347D01*
X155836216Y-130768149D01*
X155938907Y-130868130D01*
X155973592Y-130938735D01*
X156000789Y-131047097D01*
X156205747Y-130855382D01*
X156326287Y-130749214D01*
X156418862Y-130691289D01*
X156512824Y-130667532D01*
X156605554Y-130663666D01*
X156713409Y-130669394D01*
G36*
X154746550Y-130393702D02*
X155102000Y-130716405D01*
X155102000Y-131237153D01*
X154443960Y-131891333D01*
X154016272Y-131891333D01*
X153818644Y-131893941D01*
X153639072Y-131900944D01*
X153503532Y-131911118D01*
X153456292Y-131917792D01*
X153324000Y-131944250D01*
X153324000Y-132822667D01*
X152985334Y-132822667D01*
X152985334Y-130409667D01*
X153324000Y-130409667D01*
X153324000Y-131595000D01*
X154274222Y-131595000D01*
X154539945Y-131331639D01*
X154663645Y-131199720D01*
X154755619Y-131083463D01*
X154802424Y-131000474D01*
X154805667Y-130983617D01*
X154777181Y-130915108D01*
X154701603Y-130809005D01*
X154593754Y-130685467D01*
X154563575Y-130654311D01*
X154321484Y-130409667D01*
X153324000Y-130409667D01*
X152985334Y-130409667D01*
X152985334Y-130071000D01*
X154391099Y-130071000D01*
X154746550Y-130393702D01*
X154746550Y-130393702D01*
G37*
X154746550Y-130393702D02*
X155102000Y-130716405D01*
X155102000Y-131237153D01*
X154443960Y-131891333D01*
X154016272Y-131891333D01*
X153818644Y-131893941D01*
X153639072Y-131900944D01*
X153503532Y-131911118D01*
X153456292Y-131917792D01*
X153324000Y-131944250D01*
X153324000Y-132822667D01*
X152985334Y-132822667D01*
X152985334Y-130409667D01*
X153324000Y-130409667D01*
X153324000Y-131595000D01*
X154274222Y-131595000D01*
X154539945Y-131331639D01*
X154663645Y-131199720D01*
X154755619Y-131083463D01*
X154802424Y-131000474D01*
X154805667Y-130983617D01*
X154777181Y-130915108D01*
X154701603Y-130809005D01*
X154593754Y-130685467D01*
X154563575Y-130654311D01*
X154321484Y-130409667D01*
X153324000Y-130409667D01*
X152985334Y-130409667D01*
X152985334Y-130071000D01*
X154391099Y-130071000D01*
X154746550Y-130393702D01*
G36*
X148525523Y-130689850D02*
X148630894Y-130744938D01*
X148706022Y-130797898D01*
X148757714Y-130795948D01*
X148809361Y-130755521D01*
X148870795Y-130719119D01*
X148968151Y-130697099D01*
X149119365Y-130686692D01*
X149267283Y-130684833D01*
X149646677Y-130684833D01*
X150023763Y-131083937D01*
X150012298Y-131942719D01*
X150000834Y-132801500D01*
X149704500Y-132801500D01*
X149692987Y-131982032D01*
X149688600Y-131698853D01*
X149683570Y-131488118D01*
X149676457Y-131337608D01*
X149665820Y-131235104D01*
X149650221Y-131168389D01*
X149628219Y-131125243D01*
X149598375Y-131093447D01*
X149587153Y-131083858D01*
X149462186Y-131022938D01*
X149299148Y-130998521D01*
X149130303Y-131009850D01*
X148987915Y-131056168D01*
X148929680Y-131099283D01*
X148897789Y-131137925D01*
X148874059Y-131184686D01*
X148857045Y-131252220D01*
X148845303Y-131353181D01*
X148837390Y-131500223D01*
X148831863Y-131705999D01*
X148827277Y-131983163D01*
X148827050Y-131998866D01*
X148815500Y-132801500D01*
X148657599Y-132814588D01*
X148499699Y-132827676D01*
X148488266Y-131925588D01*
X148476834Y-131023500D01*
X148339250Y-131010234D01*
X148250388Y-130994803D01*
X148211355Y-130954033D01*
X148201824Y-130861338D01*
X148201667Y-130830318D01*
X148206038Y-130723061D01*
X148235378Y-130675835D01*
X148314023Y-130664005D01*
X148366310Y-130663667D01*
X148525523Y-130689850D01*
X148525523Y-130689850D01*
G37*
X148525523Y-130689850D02*
X148630894Y-130744938D01*
X148706022Y-130797898D01*
X148757714Y-130795948D01*
X148809361Y-130755521D01*
X148870795Y-130719119D01*
X148968151Y-130697099D01*
X149119365Y-130686692D01*
X149267283Y-130684833D01*
X149646677Y-130684833D01*
X150023763Y-131083937D01*
X150012298Y-131942719D01*
X150000834Y-132801500D01*
X149704500Y-132801500D01*
X149692987Y-131982032D01*
X149688600Y-131698853D01*
X149683570Y-131488118D01*
X149676457Y-131337608D01*
X149665820Y-131235104D01*
X149650221Y-131168389D01*
X149628219Y-131125243D01*
X149598375Y-131093447D01*
X149587153Y-131083858D01*
X149462186Y-131022938D01*
X149299148Y-130998521D01*
X149130303Y-131009850D01*
X148987915Y-131056168D01*
X148929680Y-131099283D01*
X148897789Y-131137925D01*
X148874059Y-131184686D01*
X148857045Y-131252220D01*
X148845303Y-131353181D01*
X148837390Y-131500223D01*
X148831863Y-131705999D01*
X148827277Y-131983163D01*
X148827050Y-131998866D01*
X148815500Y-132801500D01*
X148657599Y-132814588D01*
X148499699Y-132827676D01*
X148488266Y-131925588D01*
X148476834Y-131023500D01*
X148339250Y-131010234D01*
X148250388Y-130994803D01*
X148211355Y-130954033D01*
X148201824Y-130861338D01*
X148201667Y-130830318D01*
X148206038Y-130723061D01*
X148235378Y-130675835D01*
X148314023Y-130664005D01*
X148366310Y-130663667D01*
X148525523Y-130689850D01*
G36*
X146974000Y-132822667D02*
X146677667Y-132822667D01*
X146677667Y-130663667D01*
X146974000Y-130663667D01*
X146974000Y-132822667D01*
X146974000Y-132822667D01*
G37*
X146974000Y-132822667D02*
X146677667Y-132822667D01*
X146677667Y-130663667D01*
X146974000Y-130663667D01*
X146974000Y-132822667D01*
G36*
X145108410Y-130399083D02*
X145456087Y-130727167D01*
X145471167Y-131211719D01*
X145133493Y-131551526D01*
X144795820Y-131891333D01*
X144366202Y-131891333D01*
X144168208Y-131893928D01*
X143988301Y-131900902D01*
X143852357Y-131911035D01*
X143804292Y-131917792D01*
X143672000Y-131944250D01*
X143672000Y-132822667D01*
X143333334Y-132822667D01*
X143333334Y-130409667D01*
X143672000Y-130409667D01*
X143672000Y-131595000D01*
X144622222Y-131595000D01*
X144887945Y-131331639D01*
X145011645Y-131199720D01*
X145103619Y-131083463D01*
X145150424Y-131000474D01*
X145153667Y-130983617D01*
X145125181Y-130915108D01*
X145049603Y-130809005D01*
X144941754Y-130685467D01*
X144911575Y-130654311D01*
X144669484Y-130409667D01*
X143672000Y-130409667D01*
X143333334Y-130409667D01*
X143333334Y-130071000D01*
X144760733Y-130071000D01*
X145108410Y-130399083D01*
X145108410Y-130399083D01*
G37*
X145108410Y-130399083D02*
X145456087Y-130727167D01*
X145471167Y-131211719D01*
X145133493Y-131551526D01*
X144795820Y-131891333D01*
X144366202Y-131891333D01*
X144168208Y-131893928D01*
X143988301Y-131900902D01*
X143852357Y-131911035D01*
X143804292Y-131917792D01*
X143672000Y-131944250D01*
X143672000Y-132822667D01*
X143333334Y-132822667D01*
X143333334Y-130409667D01*
X143672000Y-130409667D01*
X143672000Y-131595000D01*
X144622222Y-131595000D01*
X144887945Y-131331639D01*
X145011645Y-131199720D01*
X145103619Y-131083463D01*
X145150424Y-131000474D01*
X145153667Y-130983617D01*
X145125181Y-130915108D01*
X145049603Y-130809005D01*
X144941754Y-130685467D01*
X144911575Y-130654311D01*
X144669484Y-130409667D01*
X143672000Y-130409667D01*
X143333334Y-130409667D01*
X143333334Y-130071000D01*
X144760733Y-130071000D01*
X145108410Y-130399083D01*
G36*
X139939923Y-130077625D02*
X140103358Y-130081030D01*
X140207164Y-130087168D01*
X140228719Y-130090494D01*
X140301902Y-130134285D01*
X140401448Y-130225892D01*
X140493302Y-130330408D01*
X140666334Y-130547726D01*
X140666334Y-132369884D01*
X140439942Y-132596275D01*
X140213551Y-132822667D01*
X138918572Y-132822667D01*
X138712953Y-132617047D01*
X138507334Y-132411428D01*
X138507334Y-131119937D01*
X138845706Y-131119937D01*
X138846000Y-131440901D01*
X138845731Y-131764548D01*
X138849530Y-132013381D01*
X138864304Y-132197205D01*
X138896962Y-132325823D01*
X138954410Y-132409041D01*
X139043556Y-132456664D01*
X139171309Y-132478495D01*
X139344576Y-132484340D01*
X139570265Y-132484003D01*
X139580901Y-132484000D01*
X139808961Y-132482942D01*
X139968528Y-132478240D01*
X140075766Y-132467601D01*
X140146839Y-132448732D01*
X140197908Y-132419338D01*
X140229688Y-132391954D01*
X140262978Y-132358001D01*
X140287721Y-132319415D01*
X140305184Y-132264049D01*
X140316636Y-132179756D01*
X140323342Y-132054387D01*
X140326571Y-131875797D01*
X140327590Y-131631839D01*
X140327667Y-131452766D01*
X140327936Y-131129118D01*
X140324137Y-130880285D01*
X140309363Y-130696462D01*
X140276705Y-130567843D01*
X140219257Y-130484625D01*
X140130111Y-130437003D01*
X140002358Y-130415171D01*
X139829091Y-130409326D01*
X139603402Y-130409663D01*
X139592766Y-130409667D01*
X139359890Y-130409262D01*
X139181148Y-130414622D01*
X139049400Y-130435606D01*
X138957508Y-130482071D01*
X138898332Y-130563878D01*
X138864733Y-130690885D01*
X138849571Y-130872952D01*
X138845706Y-131119937D01*
X138507334Y-131119937D01*
X138507334Y-130539838D01*
X138689722Y-130316002D01*
X138872110Y-130092167D01*
X139504638Y-130080032D01*
X139734478Y-130077207D01*
X139939923Y-130077625D01*
X139939923Y-130077625D01*
G37*
X139939923Y-130077625D02*
X140103358Y-130081030D01*
X140207164Y-130087168D01*
X140228719Y-130090494D01*
X140301902Y-130134285D01*
X140401448Y-130225892D01*
X140493302Y-130330408D01*
X140666334Y-130547726D01*
X140666334Y-132369884D01*
X140439942Y-132596275D01*
X140213551Y-132822667D01*
X138918572Y-132822667D01*
X138712953Y-132617047D01*
X138507334Y-132411428D01*
X138507334Y-131119937D01*
X138845706Y-131119937D01*
X138846000Y-131440901D01*
X138845731Y-131764548D01*
X138849530Y-132013381D01*
X138864304Y-132197205D01*
X138896962Y-132325823D01*
X138954410Y-132409041D01*
X139043556Y-132456664D01*
X139171309Y-132478495D01*
X139344576Y-132484340D01*
X139570265Y-132484003D01*
X139580901Y-132484000D01*
X139808961Y-132482942D01*
X139968528Y-132478240D01*
X140075766Y-132467601D01*
X140146839Y-132448732D01*
X140197908Y-132419338D01*
X140229688Y-132391954D01*
X140262978Y-132358001D01*
X140287721Y-132319415D01*
X140305184Y-132264049D01*
X140316636Y-132179756D01*
X140323342Y-132054387D01*
X140326571Y-131875797D01*
X140327590Y-131631839D01*
X140327667Y-131452766D01*
X140327936Y-131129118D01*
X140324137Y-130880285D01*
X140309363Y-130696462D01*
X140276705Y-130567843D01*
X140219257Y-130484625D01*
X140130111Y-130437003D01*
X140002358Y-130415171D01*
X139829091Y-130409326D01*
X139603402Y-130409663D01*
X139592766Y-130409667D01*
X139359890Y-130409262D01*
X139181148Y-130414622D01*
X139049400Y-130435606D01*
X138957508Y-130482071D01*
X138898332Y-130563878D01*
X138864733Y-130690885D01*
X138849571Y-130872952D01*
X138845706Y-131119937D01*
X138507334Y-131119937D01*
X138507334Y-130539838D01*
X138689722Y-130316002D01*
X138872110Y-130092167D01*
X139504638Y-130080032D01*
X139734478Y-130077207D01*
X139939923Y-130077625D01*
G36*
X137349368Y-130072493D02*
X137466308Y-130081764D01*
X137548352Y-130105996D01*
X137620387Y-130152375D01*
X137702878Y-130224093D01*
X137815015Y-130334771D01*
X137862118Y-130416060D01*
X137848215Y-130487545D01*
X137777337Y-130568810D01*
X137774389Y-130571588D01*
X137676445Y-130663602D01*
X137554803Y-130536634D01*
X137475870Y-130464236D01*
X137396358Y-130426058D01*
X137284767Y-130411494D01*
X137177724Y-130409667D01*
X137049510Y-130411847D01*
X136958969Y-130426463D01*
X136881086Y-130465624D01*
X136790845Y-130541440D01*
X136677644Y-130651758D01*
X136433000Y-130893849D01*
X136433000Y-132011570D01*
X136697584Y-132247595D01*
X136962167Y-132483619D01*
X137290250Y-132483810D01*
X137618334Y-132484000D01*
X137618334Y-131879175D01*
X137322000Y-131906716D01*
X137025667Y-131934258D01*
X137025667Y-131595000D01*
X138253334Y-131595000D01*
X138253334Y-131743167D01*
X138248207Y-131838032D01*
X138216555Y-131880191D01*
X138133966Y-131891002D01*
X138084000Y-131891333D01*
X137914667Y-131891333D01*
X137914667Y-132315714D01*
X137913800Y-132508622D01*
X137908561Y-132633842D01*
X137894990Y-132708354D01*
X137869127Y-132749136D01*
X137827014Y-132773167D01*
X137806078Y-132781381D01*
X137717080Y-132798440D01*
X137569319Y-132810548D01*
X137388338Y-132817383D01*
X137199682Y-132818624D01*
X137028894Y-132813953D01*
X136901520Y-132803047D01*
X136856334Y-132793298D01*
X136801332Y-132755538D01*
X136702084Y-132671096D01*
X136573903Y-132553461D01*
X136464750Y-132448383D01*
X136136667Y-132126153D01*
X136137863Y-131447826D01*
X136139059Y-130769500D01*
X136811877Y-130071000D01*
X137172650Y-130071000D01*
X137349368Y-130072493D01*
X137349368Y-130072493D01*
G37*
X137349368Y-130072493D02*
X137466308Y-130081764D01*
X137548352Y-130105996D01*
X137620387Y-130152375D01*
X137702878Y-130224093D01*
X137815015Y-130334771D01*
X137862118Y-130416060D01*
X137848215Y-130487545D01*
X137777337Y-130568810D01*
X137774389Y-130571588D01*
X137676445Y-130663602D01*
X137554803Y-130536634D01*
X137475870Y-130464236D01*
X137396358Y-130426058D01*
X137284767Y-130411494D01*
X137177724Y-130409667D01*
X137049510Y-130411847D01*
X136958969Y-130426463D01*
X136881086Y-130465624D01*
X136790845Y-130541440D01*
X136677644Y-130651758D01*
X136433000Y-130893849D01*
X136433000Y-132011570D01*
X136697584Y-132247595D01*
X136962167Y-132483619D01*
X137290250Y-132483810D01*
X137618334Y-132484000D01*
X137618334Y-131879175D01*
X137322000Y-131906716D01*
X137025667Y-131934258D01*
X137025667Y-131595000D01*
X138253334Y-131595000D01*
X138253334Y-131743167D01*
X138248207Y-131838032D01*
X138216555Y-131880191D01*
X138133966Y-131891002D01*
X138084000Y-131891333D01*
X137914667Y-131891333D01*
X137914667Y-132315714D01*
X137913800Y-132508622D01*
X137908561Y-132633842D01*
X137894990Y-132708354D01*
X137869127Y-132749136D01*
X137827014Y-132773167D01*
X137806078Y-132781381D01*
X137717080Y-132798440D01*
X137569319Y-132810548D01*
X137388338Y-132817383D01*
X137199682Y-132818624D01*
X137028894Y-132813953D01*
X136901520Y-132803047D01*
X136856334Y-132793298D01*
X136801332Y-132755538D01*
X136702084Y-132671096D01*
X136573903Y-132553461D01*
X136464750Y-132448383D01*
X136136667Y-132126153D01*
X136137863Y-131447826D01*
X136139059Y-130769500D01*
X136811877Y-130071000D01*
X137172650Y-130071000D01*
X137349368Y-130072493D01*
G36*
X135116383Y-130077835D02*
X135280298Y-130081486D01*
X135384613Y-130087936D01*
X135405984Y-130091313D01*
X135481186Y-130135782D01*
X135581696Y-130227977D01*
X135670567Y-130329499D01*
X135840334Y-130544269D01*
X135840334Y-132387052D01*
X135610034Y-132604859D01*
X135379735Y-132822667D01*
X134092572Y-132822667D01*
X133676775Y-132406870D01*
X133689638Y-131454811D01*
X133694162Y-131119937D01*
X134019706Y-131119937D01*
X134020000Y-131440901D01*
X134019731Y-131764548D01*
X134023530Y-132013381D01*
X134038304Y-132197205D01*
X134070962Y-132325823D01*
X134128410Y-132409041D01*
X134217556Y-132456664D01*
X134345309Y-132478495D01*
X134518576Y-132484340D01*
X134744265Y-132484003D01*
X134754901Y-132484000D01*
X134982961Y-132482942D01*
X135142528Y-132478240D01*
X135249766Y-132467601D01*
X135320839Y-132448732D01*
X135371908Y-132419338D01*
X135403688Y-132391954D01*
X135436978Y-132358001D01*
X135461721Y-132319415D01*
X135479184Y-132264049D01*
X135490636Y-132179756D01*
X135497342Y-132054387D01*
X135500571Y-131875797D01*
X135501590Y-131631839D01*
X135501667Y-131452766D01*
X135501936Y-131129118D01*
X135498137Y-130880285D01*
X135483363Y-130696462D01*
X135450705Y-130567843D01*
X135393257Y-130484625D01*
X135304111Y-130437003D01*
X135176358Y-130415171D01*
X135003091Y-130409326D01*
X134777402Y-130409663D01*
X134766766Y-130409667D01*
X134533890Y-130409262D01*
X134355148Y-130414622D01*
X134223400Y-130435606D01*
X134131508Y-130482071D01*
X134072332Y-130563878D01*
X134038733Y-130690885D01*
X134023571Y-130872952D01*
X134019706Y-131119937D01*
X133694162Y-131119937D01*
X133702500Y-130502751D01*
X134050518Y-130092167D01*
X134680843Y-130080032D01*
X134910642Y-130077258D01*
X135116383Y-130077835D01*
X135116383Y-130077835D01*
G37*
X135116383Y-130077835D02*
X135280298Y-130081486D01*
X135384613Y-130087936D01*
X135405984Y-130091313D01*
X135481186Y-130135782D01*
X135581696Y-130227977D01*
X135670567Y-130329499D01*
X135840334Y-130544269D01*
X135840334Y-132387052D01*
X135610034Y-132604859D01*
X135379735Y-132822667D01*
X134092572Y-132822667D01*
X133676775Y-132406870D01*
X133689638Y-131454811D01*
X133694162Y-131119937D01*
X134019706Y-131119937D01*
X134020000Y-131440901D01*
X134019731Y-131764548D01*
X134023530Y-132013381D01*
X134038304Y-132197205D01*
X134070962Y-132325823D01*
X134128410Y-132409041D01*
X134217556Y-132456664D01*
X134345309Y-132478495D01*
X134518576Y-132484340D01*
X134744265Y-132484003D01*
X134754901Y-132484000D01*
X134982961Y-132482942D01*
X135142528Y-132478240D01*
X135249766Y-132467601D01*
X135320839Y-132448732D01*
X135371908Y-132419338D01*
X135403688Y-132391954D01*
X135436978Y-132358001D01*
X135461721Y-132319415D01*
X135479184Y-132264049D01*
X135490636Y-132179756D01*
X135497342Y-132054387D01*
X135500571Y-131875797D01*
X135501590Y-131631839D01*
X135501667Y-131452766D01*
X135501936Y-131129118D01*
X135498137Y-130880285D01*
X135483363Y-130696462D01*
X135450705Y-130567843D01*
X135393257Y-130484625D01*
X135304111Y-130437003D01*
X135176358Y-130415171D01*
X135003091Y-130409326D01*
X134777402Y-130409663D01*
X134766766Y-130409667D01*
X134533890Y-130409262D01*
X134355148Y-130414622D01*
X134223400Y-130435606D01*
X134131508Y-130482071D01*
X134072332Y-130563878D01*
X134038733Y-130690885D01*
X134023571Y-130872952D01*
X134019706Y-131119937D01*
X133694162Y-131119937D01*
X133702500Y-130502751D01*
X134050518Y-130092167D01*
X134680843Y-130080032D01*
X134910642Y-130077258D01*
X135116383Y-130077835D01*
G36*
X133057523Y-130402852D02*
X133205925Y-130550345D01*
X133304222Y-130656989D01*
X133363776Y-130740163D01*
X133395946Y-130817244D01*
X133412094Y-130905611D01*
X133417082Y-130952871D01*
X133438045Y-131171037D01*
X133086513Y-131531185D01*
X132734982Y-131891333D01*
X132303283Y-131891333D01*
X132104895Y-131893916D01*
X131924627Y-131900857D01*
X131788248Y-131910948D01*
X131739292Y-131917792D01*
X131607000Y-131944250D01*
X131607000Y-132822667D01*
X131268334Y-132822667D01*
X131268334Y-130409667D01*
X131607000Y-130409667D01*
X131607000Y-131595000D01*
X132557222Y-131595000D01*
X132822945Y-131331639D01*
X132946645Y-131199720D01*
X133038619Y-131083463D01*
X133085424Y-131000474D01*
X133088667Y-130983617D01*
X133060181Y-130915108D01*
X132984603Y-130809005D01*
X132876754Y-130685467D01*
X132846575Y-130654311D01*
X132604484Y-130409667D01*
X131607000Y-130409667D01*
X131268334Y-130409667D01*
X131268334Y-130071000D01*
X132718926Y-130071000D01*
X133057523Y-130402852D01*
X133057523Y-130402852D01*
G37*
X133057523Y-130402852D02*
X133205925Y-130550345D01*
X133304222Y-130656989D01*
X133363776Y-130740163D01*
X133395946Y-130817244D01*
X133412094Y-130905611D01*
X133417082Y-130952871D01*
X133438045Y-131171037D01*
X133086513Y-131531185D01*
X132734982Y-131891333D01*
X132303283Y-131891333D01*
X132104895Y-131893916D01*
X131924627Y-131900857D01*
X131788248Y-131910948D01*
X131739292Y-131917792D01*
X131607000Y-131944250D01*
X131607000Y-132822667D01*
X131268334Y-132822667D01*
X131268334Y-130409667D01*
X131607000Y-130409667D01*
X131607000Y-131595000D01*
X132557222Y-131595000D01*
X132822945Y-131331639D01*
X132946645Y-131199720D01*
X133038619Y-131083463D01*
X133085424Y-131000474D01*
X133088667Y-130983617D01*
X133060181Y-130915108D01*
X132984603Y-130809005D01*
X132876754Y-130685467D01*
X132846575Y-130654311D01*
X132604484Y-130409667D01*
X131607000Y-130409667D01*
X131268334Y-130409667D01*
X131268334Y-130071000D01*
X132718926Y-130071000D01*
X133057523Y-130402852D01*
G36*
X188551381Y-130869286D02*
X188757000Y-131074905D01*
X188757000Y-133004095D01*
X188345762Y-133415333D01*
X187485108Y-133415333D01*
X187103520Y-133063597D01*
X187196806Y-132964298D01*
X187290091Y-132884439D01*
X187369083Y-132876752D01*
X187458735Y-132941799D01*
X187487000Y-132970833D01*
X187547048Y-133025473D01*
X187615331Y-133057323D01*
X187715786Y-133072368D01*
X187872351Y-133076593D01*
X187910334Y-133076667D01*
X188081653Y-133073542D01*
X188191858Y-133060486D01*
X188264387Y-133031980D01*
X188322677Y-132982501D01*
X188326288Y-132978688D01*
X188371420Y-132920223D01*
X188399017Y-132848356D01*
X188413195Y-132741879D01*
X188418066Y-132579585D01*
X188418334Y-132504207D01*
X188418334Y-132127705D01*
X188236814Y-132305852D01*
X188140529Y-132397090D01*
X188064355Y-132450232D01*
X187979716Y-132475576D01*
X187858032Y-132483415D01*
X187742284Y-132484000D01*
X187429273Y-132484000D01*
X187098303Y-132153030D01*
X186954097Y-132007628D01*
X186859370Y-131904551D01*
X186803725Y-131826267D01*
X186776764Y-131755239D01*
X186768091Y-131673934D01*
X186767643Y-131627062D01*
X187115533Y-131627062D01*
X187169799Y-131742111D01*
X187290263Y-131883591D01*
X187348092Y-131943022D01*
X187475313Y-132066965D01*
X187567768Y-132140488D01*
X187647052Y-132176353D01*
X187734763Y-132187319D01*
X187762167Y-132187667D01*
X187855734Y-132181162D01*
X187935149Y-132153142D01*
X188022008Y-132090846D01*
X188137907Y-131981514D01*
X188176242Y-131943022D01*
X188295792Y-131819799D01*
X188367621Y-131731603D01*
X188403886Y-131653599D01*
X188416738Y-131560952D01*
X188418334Y-131448334D01*
X188405706Y-131257132D01*
X188359492Y-131128003D01*
X188267198Y-131049881D01*
X188116327Y-131011699D01*
X187914765Y-131002333D01*
X187595289Y-131002333D01*
X187350644Y-131244425D01*
X187205884Y-131397826D01*
X187127538Y-131518836D01*
X187115533Y-131627062D01*
X186767643Y-131627062D01*
X186767334Y-131594835D01*
X186767334Y-131367609D01*
X187119305Y-131015638D01*
X187471276Y-130663666D01*
X188345762Y-130663666D01*
X188551381Y-130869286D01*
X188551381Y-130869286D01*
G37*
X188551381Y-130869286D02*
X188757000Y-131074905D01*
X188757000Y-133004095D01*
X188345762Y-133415333D01*
X187485108Y-133415333D01*
X187103520Y-133063597D01*
X187196806Y-132964298D01*
X187290091Y-132884439D01*
X187369083Y-132876752D01*
X187458735Y-132941799D01*
X187487000Y-132970833D01*
X187547048Y-133025473D01*
X187615331Y-133057323D01*
X187715786Y-133072368D01*
X187872351Y-133076593D01*
X187910334Y-133076667D01*
X188081653Y-133073542D01*
X188191858Y-133060486D01*
X188264387Y-133031980D01*
X188322677Y-132982501D01*
X188326288Y-132978688D01*
X188371420Y-132920223D01*
X188399017Y-132848356D01*
X188413195Y-132741879D01*
X188418066Y-132579585D01*
X188418334Y-132504207D01*
X188418334Y-132127705D01*
X188236814Y-132305852D01*
X188140529Y-132397090D01*
X188064355Y-132450232D01*
X187979716Y-132475576D01*
X187858032Y-132483415D01*
X187742284Y-132484000D01*
X187429273Y-132484000D01*
X187098303Y-132153030D01*
X186954097Y-132007628D01*
X186859370Y-131904551D01*
X186803725Y-131826267D01*
X186776764Y-131755239D01*
X186768091Y-131673934D01*
X186767643Y-131627062D01*
X187115533Y-131627062D01*
X187169799Y-131742111D01*
X187290263Y-131883591D01*
X187348092Y-131943022D01*
X187475313Y-132066965D01*
X187567768Y-132140488D01*
X187647052Y-132176353D01*
X187734763Y-132187319D01*
X187762167Y-132187667D01*
X187855734Y-132181162D01*
X187935149Y-132153142D01*
X188022008Y-132090846D01*
X188137907Y-131981514D01*
X188176242Y-131943022D01*
X188295792Y-131819799D01*
X188367621Y-131731603D01*
X188403886Y-131653599D01*
X188416738Y-131560952D01*
X188418334Y-131448334D01*
X188405706Y-131257132D01*
X188359492Y-131128003D01*
X188267198Y-131049881D01*
X188116327Y-131011699D01*
X187914765Y-131002333D01*
X187595289Y-131002333D01*
X187350644Y-131244425D01*
X187205884Y-131397826D01*
X187127538Y-131518836D01*
X187115533Y-131627062D01*
X186767643Y-131627062D01*
X186767334Y-131594835D01*
X186767334Y-131367609D01*
X187119305Y-131015638D01*
X187471276Y-130663666D01*
X188345762Y-130663666D01*
X188551381Y-130869286D01*
G36*
X178899381Y-130869286D02*
X179105000Y-131074905D01*
X179105000Y-133022747D01*
X178685294Y-133415333D01*
X177833108Y-133415333D01*
X177451074Y-133063187D01*
X177566603Y-132942601D01*
X177682131Y-132822015D01*
X177813498Y-132949341D01*
X177887808Y-133015020D01*
X177959160Y-133053159D01*
X178053737Y-133071167D01*
X178197726Y-133076452D01*
X178263553Y-133076667D01*
X178433566Y-133073410D01*
X178542778Y-133059864D01*
X178614928Y-133030367D01*
X178673754Y-132979256D01*
X178674288Y-132978688D01*
X178719420Y-132920223D01*
X178747017Y-132848356D01*
X178761195Y-132741879D01*
X178766066Y-132579585D01*
X178766334Y-132504207D01*
X178766334Y-132127705D01*
X178584814Y-132305852D01*
X178485568Y-132399448D01*
X178407157Y-132452624D01*
X178319186Y-132476681D01*
X178191259Y-132482920D01*
X178108564Y-132482911D01*
X177813834Y-132481823D01*
X177115334Y-131822837D01*
X177115334Y-131627062D01*
X177463533Y-131627062D01*
X177517799Y-131742111D01*
X177638263Y-131883591D01*
X177696092Y-131943022D01*
X177823313Y-132066965D01*
X177915768Y-132140488D01*
X177995052Y-132176353D01*
X178082763Y-132187319D01*
X178110167Y-132187667D01*
X178203734Y-132181162D01*
X178283149Y-132153142D01*
X178370008Y-132090846D01*
X178485907Y-131981514D01*
X178524242Y-131943022D01*
X178643792Y-131819799D01*
X178715621Y-131731603D01*
X178751886Y-131653599D01*
X178764738Y-131560952D01*
X178766334Y-131448334D01*
X178753706Y-131257132D01*
X178707492Y-131128003D01*
X178615198Y-131049881D01*
X178464327Y-131011699D01*
X178262765Y-131002333D01*
X177943289Y-131002333D01*
X177698644Y-131244425D01*
X177553884Y-131397826D01*
X177475538Y-131518836D01*
X177463533Y-131627062D01*
X177115334Y-131627062D01*
X177115334Y-131367609D01*
X177467305Y-131015638D01*
X177819276Y-130663666D01*
X178693762Y-130663666D01*
X178899381Y-130869286D01*
X178899381Y-130869286D01*
G37*
X178899381Y-130869286D02*
X179105000Y-131074905D01*
X179105000Y-133022747D01*
X178685294Y-133415333D01*
X177833108Y-133415333D01*
X177451074Y-133063187D01*
X177566603Y-132942601D01*
X177682131Y-132822015D01*
X177813498Y-132949341D01*
X177887808Y-133015020D01*
X177959160Y-133053159D01*
X178053737Y-133071167D01*
X178197726Y-133076452D01*
X178263553Y-133076667D01*
X178433566Y-133073410D01*
X178542778Y-133059864D01*
X178614928Y-133030367D01*
X178673754Y-132979256D01*
X178674288Y-132978688D01*
X178719420Y-132920223D01*
X178747017Y-132848356D01*
X178761195Y-132741879D01*
X178766066Y-132579585D01*
X178766334Y-132504207D01*
X178766334Y-132127705D01*
X178584814Y-132305852D01*
X178485568Y-132399448D01*
X178407157Y-132452624D01*
X178319186Y-132476681D01*
X178191259Y-132482920D01*
X178108564Y-132482911D01*
X177813834Y-132481823D01*
X177115334Y-131822837D01*
X177115334Y-131627062D01*
X177463533Y-131627062D01*
X177517799Y-131742111D01*
X177638263Y-131883591D01*
X177696092Y-131943022D01*
X177823313Y-132066965D01*
X177915768Y-132140488D01*
X177995052Y-132176353D01*
X178082763Y-132187319D01*
X178110167Y-132187667D01*
X178203734Y-132181162D01*
X178283149Y-132153142D01*
X178370008Y-132090846D01*
X178485907Y-131981514D01*
X178524242Y-131943022D01*
X178643792Y-131819799D01*
X178715621Y-131731603D01*
X178751886Y-131653599D01*
X178764738Y-131560952D01*
X178766334Y-131448334D01*
X178753706Y-131257132D01*
X178707492Y-131128003D01*
X178615198Y-131049881D01*
X178464327Y-131011699D01*
X178262765Y-131002333D01*
X177943289Y-131002333D01*
X177698644Y-131244425D01*
X177553884Y-131397826D01*
X177475538Y-131518836D01*
X177463533Y-131627062D01*
X177115334Y-131627062D01*
X177115334Y-131367609D01*
X177467305Y-131015638D01*
X177819276Y-130663666D01*
X178693762Y-130663666D01*
X178899381Y-130869286D01*
G36*
X162004147Y-130859959D02*
X162214000Y-131056252D01*
X162214000Y-133022747D01*
X161794294Y-133415333D01*
X160942108Y-133415333D01*
X160560074Y-133063187D01*
X160675603Y-132942601D01*
X160791131Y-132822015D01*
X160922498Y-132949341D01*
X160993991Y-133013078D01*
X161062195Y-133051025D01*
X161151737Y-133069826D01*
X161287247Y-133076125D01*
X161394538Y-133076667D01*
X161590466Y-133072151D01*
X161724442Y-133049632D01*
X161808191Y-132995650D01*
X161853437Y-132896745D01*
X161871908Y-132739458D01*
X161875334Y-132524769D01*
X161875334Y-132127705D01*
X161693814Y-132305852D01*
X161594971Y-132399087D01*
X161516704Y-132452339D01*
X161428899Y-132476802D01*
X161301441Y-132483668D01*
X161214490Y-132484000D01*
X160916685Y-132484000D01*
X160570509Y-132129339D01*
X160419626Y-131971927D01*
X160319744Y-131858061D01*
X160260692Y-131772754D01*
X160232297Y-131701015D01*
X160224389Y-131627858D01*
X160224384Y-131627062D01*
X160572533Y-131627062D01*
X160626799Y-131742111D01*
X160747263Y-131883591D01*
X160805092Y-131943022D01*
X160932313Y-132066965D01*
X161024768Y-132140488D01*
X161104052Y-132176353D01*
X161191763Y-132187319D01*
X161219167Y-132187667D01*
X161312734Y-132181162D01*
X161392149Y-132153142D01*
X161479008Y-132090846D01*
X161594907Y-131981514D01*
X161633242Y-131943022D01*
X161752792Y-131819799D01*
X161824621Y-131731603D01*
X161860886Y-131653599D01*
X161873738Y-131560952D01*
X161875334Y-131448334D01*
X161862706Y-131257132D01*
X161816492Y-131128003D01*
X161724198Y-131049881D01*
X161573327Y-131011699D01*
X161371765Y-131002333D01*
X161052289Y-131002333D01*
X160807644Y-131244425D01*
X160662884Y-131397826D01*
X160584538Y-131518836D01*
X160572533Y-131627062D01*
X160224384Y-131627062D01*
X160224334Y-131619237D01*
X160236848Y-131487923D01*
X160281008Y-131366629D01*
X160366741Y-131240088D01*
X160503972Y-131093032D01*
X160661610Y-130946681D01*
X160977829Y-130663667D01*
X161794294Y-130663667D01*
X162004147Y-130859959D01*
X162004147Y-130859959D01*
G37*
X162004147Y-130859959D02*
X162214000Y-131056252D01*
X162214000Y-133022747D01*
X161794294Y-133415333D01*
X160942108Y-133415333D01*
X160560074Y-133063187D01*
X160675603Y-132942601D01*
X160791131Y-132822015D01*
X160922498Y-132949341D01*
X160993991Y-133013078D01*
X161062195Y-133051025D01*
X161151737Y-133069826D01*
X161287247Y-133076125D01*
X161394538Y-133076667D01*
X161590466Y-133072151D01*
X161724442Y-133049632D01*
X161808191Y-132995650D01*
X161853437Y-132896745D01*
X161871908Y-132739458D01*
X161875334Y-132524769D01*
X161875334Y-132127705D01*
X161693814Y-132305852D01*
X161594971Y-132399087D01*
X161516704Y-132452339D01*
X161428899Y-132476802D01*
X161301441Y-132483668D01*
X161214490Y-132484000D01*
X160916685Y-132484000D01*
X160570509Y-132129339D01*
X160419626Y-131971927D01*
X160319744Y-131858061D01*
X160260692Y-131772754D01*
X160232297Y-131701015D01*
X160224389Y-131627858D01*
X160224384Y-131627062D01*
X160572533Y-131627062D01*
X160626799Y-131742111D01*
X160747263Y-131883591D01*
X160805092Y-131943022D01*
X160932313Y-132066965D01*
X161024768Y-132140488D01*
X161104052Y-132176353D01*
X161191763Y-132187319D01*
X161219167Y-132187667D01*
X161312734Y-132181162D01*
X161392149Y-132153142D01*
X161479008Y-132090846D01*
X161594907Y-131981514D01*
X161633242Y-131943022D01*
X161752792Y-131819799D01*
X161824621Y-131731603D01*
X161860886Y-131653599D01*
X161873738Y-131560952D01*
X161875334Y-131448334D01*
X161862706Y-131257132D01*
X161816492Y-131128003D01*
X161724198Y-131049881D01*
X161573327Y-131011699D01*
X161371765Y-131002333D01*
X161052289Y-131002333D01*
X160807644Y-131244425D01*
X160662884Y-131397826D01*
X160584538Y-131518836D01*
X160572533Y-131627062D01*
X160224384Y-131627062D01*
X160224334Y-131619237D01*
X160236848Y-131487923D01*
X160281008Y-131366629D01*
X160366741Y-131240088D01*
X160503972Y-131093032D01*
X160661610Y-130946681D01*
X160977829Y-130663667D01*
X161794294Y-130663667D01*
X162004147Y-130859959D01*
D10*
M02*
