%TF.GenerationSoftware,KiCad,Pcbnew,5.0.1*%
%TF.CreationDate,2019-01-19T14:59:23-06:00*%
%TF.ProjectId,NFCJig-TOP,4E46434A69672D544F502E6B69636164,rev?*%
%TF.SameCoordinates,Original*%
%TF.FileFunction,Legend,Bot*%
%TF.FilePolarity,Positive*%
%FSLAX46Y46*%
G04 Gerber Fmt 4.6, Leading zero omitted, Abs format (unit mm)*
G04 Created by KiCad (PCBNEW 5.0.1) date Sat 19 Jan 2019 02:59:23 PM CST*
%MOMM*%
%LPD*%
G01*
G04 APERTURE LIST*
%ADD10C,0.150000*%
%ADD11C,0.212500*%
G04 APERTURE END LIST*
D10*
X127000000Y-134000000D02*
X204000000Y-134000000D01*
X107000000Y-127000000D02*
X107000000Y-126000000D01*
X109000000Y-129000000D02*
X110500000Y-129000000D01*
X109000000Y-129000000D02*
G75*
G02X107000000Y-127000000I0J2000000D01*
G01*
X123000000Y-129000000D02*
X110500000Y-129000000D01*
X107000000Y-72000000D02*
X107000000Y-126000000D01*
X125000000Y-132000000D02*
X125000000Y-131000000D01*
X123000000Y-129000000D02*
G75*
G02X125000000Y-131000000I0J-2000000D01*
G01*
X127000000Y-134000000D02*
G75*
G02X125000000Y-132000000I0J2000000D01*
G01*
X207000000Y-65000000D02*
X207000000Y-67000000D01*
X205000000Y-63000000D02*
X203500000Y-63000000D01*
X205000000Y-63000000D02*
G75*
G02X207000000Y-65000000I0J-2000000D01*
G01*
X203000000Y-63000000D02*
X203500000Y-63000000D01*
X138000000Y-63000000D02*
X203000000Y-63000000D01*
X135500000Y-68000000D02*
X135500000Y-65500000D01*
X135500000Y-65500000D02*
G75*
G02X138000000Y-63000000I2500000J0D01*
G01*
X107000000Y-72000000D02*
G75*
G02X109000000Y-70000000I2000000J0D01*
G01*
X109000000Y-70000000D02*
X110500000Y-70000000D01*
X133500000Y-70000000D02*
X110500000Y-70000000D01*
X135500000Y-68000000D02*
G75*
G02X133500000Y-70000000I-2000000J0D01*
G01*
X112000000Y-76000000D02*
G75*
G02X114500000Y-73500000I2500000J0D01*
G01*
X114500000Y-73500000D02*
X198500000Y-73500000D01*
X207000000Y-67000000D02*
X207000000Y-131000000D01*
X207000000Y-131000000D02*
G75*
G02X204000000Y-134000000I-3000000J0D01*
G01*
D11*
X152428571Y-132034523D02*
X152428571Y-132641666D01*
X152500000Y-132763095D01*
X152642857Y-132844047D01*
X152857142Y-132884523D01*
X153000000Y-132884523D01*
X151000000Y-132884523D02*
X151714285Y-132884523D01*
X151714285Y-132034523D01*
X149642857Y-132803571D02*
X149714285Y-132844047D01*
X149928571Y-132884523D01*
X150071428Y-132884523D01*
X150285714Y-132844047D01*
X150428571Y-132763095D01*
X150500000Y-132682142D01*
X150571428Y-132520238D01*
X150571428Y-132398809D01*
X150500000Y-132236904D01*
X150428571Y-132155952D01*
X150285714Y-132075000D01*
X150071428Y-132034523D01*
X149928571Y-132034523D01*
X149714285Y-132075000D01*
X149642857Y-132115476D01*
X148571428Y-132034523D02*
X148571428Y-132641666D01*
X148642857Y-132763095D01*
X148785714Y-132844047D01*
X149000000Y-132884523D01*
X149142857Y-132884523D01*
X147142857Y-132884523D02*
X147857142Y-132884523D01*
X147857142Y-132034523D01*
X145785714Y-132803571D02*
X145857142Y-132844047D01*
X146071428Y-132884523D01*
X146214285Y-132884523D01*
X146428571Y-132844047D01*
X146571428Y-132763095D01*
X146642857Y-132682142D01*
X146714285Y-132520238D01*
X146714285Y-132398809D01*
X146642857Y-132236904D01*
X146571428Y-132155952D01*
X146428571Y-132075000D01*
X146214285Y-132034523D01*
X146071428Y-132034523D01*
X145857142Y-132075000D01*
X145785714Y-132115476D01*
X144714285Y-132034523D02*
X144714285Y-132641666D01*
X144785714Y-132763095D01*
X144928571Y-132844047D01*
X145142857Y-132884523D01*
X145285714Y-132884523D01*
X143285714Y-132884523D02*
X144000000Y-132884523D01*
X144000000Y-132034523D01*
X141928571Y-132803571D02*
X142000000Y-132844047D01*
X142214285Y-132884523D01*
X142357142Y-132884523D01*
X142571428Y-132844047D01*
X142714285Y-132763095D01*
X142785714Y-132682142D01*
X142857142Y-132520238D01*
X142857142Y-132398809D01*
X142785714Y-132236904D01*
X142714285Y-132155952D01*
X142571428Y-132075000D01*
X142357142Y-132034523D01*
X142214285Y-132034523D01*
X142000000Y-132075000D01*
X141928571Y-132115476D01*
X140857142Y-132034523D02*
X140857142Y-132641666D01*
X140928571Y-132763095D01*
X141071428Y-132844047D01*
X141285714Y-132884523D01*
X141428571Y-132884523D01*
X139428571Y-132884523D02*
X140142857Y-132884523D01*
X140142857Y-132034523D01*
X138071428Y-132803571D02*
X138142857Y-132844047D01*
X138357142Y-132884523D01*
X138500000Y-132884523D01*
X138714285Y-132844047D01*
X138857142Y-132763095D01*
X138928571Y-132682142D01*
X139000000Y-132520238D01*
X139000000Y-132398809D01*
X138928571Y-132236904D01*
X138857142Y-132155952D01*
X138714285Y-132075000D01*
X138500000Y-132034523D01*
X138357142Y-132034523D01*
X138142857Y-132075000D01*
X138071428Y-132115476D01*
D10*
X112000000Y-122000000D02*
X112000000Y-76000000D01*
X198500000Y-124500000D02*
X114500000Y-124500000D01*
X201000000Y-76000000D02*
X201000000Y-122000000D01*
X201000000Y-122000000D02*
G75*
G02X198500000Y-124500000I-2500000J0D01*
G01*
X114500000Y-124500000D02*
G75*
G02X112000000Y-122000000I0J2500000D01*
G01*
X198500000Y-73500000D02*
G75*
G02X201000000Y-76000000I0J-2500000D01*
G01*
M02*
