%TF.GenerationSoftware,KiCad,Pcbnew,5.1.0*%
%TF.CreationDate,2019-04-11T23:23:28-05:00*%
%TF.ProjectId,Layout,4c61796f-7574-42e6-9b69-6361645f7063,rev?*%
%TF.SameCoordinates,Original*%
%TF.FileFunction,Copper,L2,Bot*%
%TF.FilePolarity,Positive*%
%FSLAX46Y46*%
G04 Gerber Fmt 4.6, Leading zero omitted, Abs format (unit mm)*
G04 Created by KiCad (PCBNEW 5.1.0) date 2019-04-11 23:23:28*
%MOMM*%
%LPD*%
G04 APERTURE LIST*
%ADD10C,0.150000*%
%ADD11C,1.524000*%
%ADD12C,0.600000*%
%ADD13C,0.250000*%
%ADD14C,0.630000*%
%ADD15C,0.254000*%
G04 APERTURE END LIST*
D10*
X112000000Y-122000000D02*
X112000000Y-76000000D01*
X198500000Y-124500000D02*
X114500000Y-124500000D01*
X201000000Y-76000000D02*
X201000000Y-122000000D01*
X114500000Y-73500000D02*
X198500000Y-73500000D01*
X201000000Y-122000000D02*
G75*
G02X198500000Y-124500000I-2500000J0D01*
G01*
X114500000Y-124500000D02*
G75*
G02X112000000Y-122000000I0J2500000D01*
G01*
X112000000Y-76000000D02*
G75*
G02X114500000Y-73500000I2500000J0D01*
G01*
X198500000Y-73500000D02*
G75*
G02X201000000Y-76000000I0J-2500000D01*
G01*
D11*
X131500000Y-90000000D03*
X135500000Y-90000000D03*
X131500000Y-87000000D03*
X135500000Y-87000000D03*
X131500000Y-84000000D03*
X135500000Y-84000000D03*
X135500000Y-116000000D03*
X131500000Y-116000000D03*
D12*
X130510000Y-100660000D03*
X134000000Y-93000000D03*
X130500000Y-93000000D03*
X131500000Y-110500000D03*
X124500000Y-110500000D03*
X124500000Y-105500000D03*
X164500000Y-89500000D03*
X161177818Y-92222183D03*
X137000000Y-110000000D03*
X138850000Y-99730000D03*
X134220000Y-100740000D03*
X134230000Y-101980000D03*
X138800000Y-90500000D03*
X126200000Y-108700000D03*
X126200000Y-111600000D03*
X129700000Y-112000000D03*
X133800000Y-112000000D03*
X137200000Y-112500000D03*
X140800000Y-112500000D03*
X140800000Y-110000000D03*
X140400000Y-101800000D03*
X140400000Y-97900000D03*
X140300000Y-94400000D03*
X140500000Y-90500000D03*
X132300000Y-91700000D03*
X134900000Y-103700000D03*
X134200000Y-103000000D03*
X133300000Y-98000000D03*
X133500000Y-90500000D03*
X128000000Y-90500000D03*
X123000000Y-90500000D03*
X123000000Y-95500000D03*
X127500000Y-96000000D03*
X125500000Y-93000000D03*
X137000000Y-107500000D03*
X154000000Y-104000000D03*
X147500000Y-91500000D03*
X145622184Y-108777817D03*
X138280000Y-105000000D03*
X156500000Y-103847469D03*
X147177818Y-107222183D03*
X142500000Y-102000000D03*
X154177818Y-99722183D03*
X131500000Y-106500000D03*
X172122184Y-108777817D03*
X186222183Y-93777817D03*
X173677818Y-107222183D03*
X130500000Y-106000000D03*
X180677818Y-99722183D03*
X133000000Y-96500000D03*
X133800000Y-99000000D03*
X137000000Y-87500000D03*
X137000000Y-84000000D03*
X124000000Y-103000000D03*
X114320000Y-97050000D03*
X120010000Y-97340000D03*
D13*
X164500000Y-89500000D02*
X163900001Y-89500000D01*
X163900001Y-89500000D02*
X161177818Y-92222183D01*
X163900001Y-89500000D02*
X141500000Y-89500000D01*
X141500000Y-89500000D02*
X140500000Y-90500000D01*
X135500000Y-116000000D02*
X135500000Y-112500000D01*
X131500000Y-85391238D02*
X133500000Y-87391238D01*
X131500000Y-84000000D02*
X131500000Y-85391238D01*
X133500000Y-87391238D02*
X133500000Y-90000000D01*
X130500000Y-92250000D02*
X130500000Y-93000000D01*
X129962990Y-91712990D02*
X130500000Y-92250000D01*
X129962990Y-85537010D02*
X129962990Y-91712990D01*
X131500000Y-84000000D02*
X129962990Y-85537010D01*
X133500000Y-90000000D02*
X133500000Y-90500000D01*
X133500000Y-90500000D02*
X134000000Y-91000000D01*
X140500000Y-90500000D02*
X140500000Y-90500000D01*
X133500000Y-90500000D02*
X133500000Y-90500000D01*
X131625001Y-102125001D02*
X137000000Y-107500000D01*
X131625001Y-92699999D02*
X131625001Y-102125001D01*
X130412999Y-91487997D02*
X131625001Y-92699999D01*
X131500000Y-87000000D02*
X130412999Y-88087001D01*
X130412999Y-88087001D02*
X130412999Y-91487997D01*
X154000000Y-104000000D02*
X155500000Y-102500000D01*
X155500000Y-102500000D02*
X155500000Y-100119363D01*
X155500000Y-100119363D02*
X155500000Y-99500000D01*
X155500000Y-99500000D02*
X150000000Y-94000000D01*
X150000000Y-94000000D02*
X148000000Y-92000000D01*
X148000000Y-92000000D02*
X147500000Y-91500000D01*
X141844367Y-105000000D02*
X145622184Y-108777817D01*
X138280000Y-105000000D02*
X141844367Y-105000000D01*
X156500000Y-103847469D02*
X153125286Y-107222183D01*
X153125286Y-107222183D02*
X147177818Y-107222183D01*
X142500000Y-102000000D02*
X144777817Y-99722183D01*
X144777817Y-99722183D02*
X154177818Y-99722183D01*
X131924264Y-106500000D02*
X136424264Y-111000000D01*
X131500000Y-106500000D02*
X131924264Y-106500000D01*
X136424264Y-111000000D02*
X169900001Y-111000000D01*
X169900001Y-111000000D02*
X172122184Y-108777817D01*
X173677818Y-105373654D02*
X173677818Y-107222183D01*
X185273655Y-93777817D02*
X173677818Y-105373654D01*
X186222183Y-93777817D02*
X185273655Y-93777817D01*
X130500000Y-106925002D02*
X135074998Y-111500000D01*
X130500000Y-106000000D02*
X130500000Y-106925002D01*
X135074998Y-111500000D02*
X174000000Y-111500000D01*
X174000000Y-111500000D02*
X180677818Y-104822182D01*
X180677818Y-104822182D02*
X180677818Y-99722183D01*
X133000000Y-91500000D02*
X131500000Y-90000000D01*
X133000000Y-96500000D02*
X133000000Y-91500000D01*
X135500000Y-97724264D02*
X135500000Y-95300000D01*
X134224264Y-99000000D02*
X135500000Y-97724264D01*
X133800000Y-99000000D02*
X134224264Y-99000000D01*
X135500000Y-95500000D02*
X135500000Y-95300000D01*
X135500000Y-95300000D02*
X135500000Y-90000000D01*
X136000000Y-87500000D02*
X135500000Y-87000000D01*
X137000000Y-87500000D02*
X136000000Y-87500000D01*
X137000000Y-84000000D02*
X135500000Y-84000000D01*
X123000000Y-104000000D02*
X123000000Y-110500000D01*
X124000000Y-103000000D02*
X123000000Y-104000000D01*
X123000000Y-110500000D02*
X125000000Y-112500000D01*
X128000000Y-112500000D02*
X131500000Y-116000000D01*
X125000000Y-112500000D02*
X128000000Y-112500000D01*
D14*
X114619999Y-97349999D02*
X115429999Y-97349999D01*
X114320000Y-97050000D02*
X114619999Y-97349999D01*
X115429999Y-97349999D02*
X115439998Y-97340000D01*
X115439998Y-97340000D02*
X120010000Y-97340000D01*
D15*
G36*
X129653000Y-91450665D02*
G01*
X129649323Y-91487997D01*
X129663997Y-91636982D01*
X129707453Y-91780243D01*
X129778025Y-91912273D01*
X129797762Y-91936322D01*
X129872999Y-92027998D01*
X129901997Y-92051796D01*
X130865001Y-93014801D01*
X130865002Y-102087669D01*
X130861325Y-102125001D01*
X130865002Y-102162334D01*
X130875999Y-102273987D01*
X130889181Y-102317443D01*
X130919455Y-102417247D01*
X130990027Y-102549277D01*
X131011732Y-102575724D01*
X131085001Y-102665002D01*
X131113999Y-102688800D01*
X136076848Y-107651651D01*
X136100932Y-107772729D01*
X136171414Y-107942889D01*
X136273738Y-108096028D01*
X136403972Y-108226262D01*
X136557111Y-108328586D01*
X136727271Y-108399068D01*
X136907911Y-108435000D01*
X137092089Y-108435000D01*
X137272729Y-108399068D01*
X137442889Y-108328586D01*
X137596028Y-108226262D01*
X137726262Y-108096028D01*
X137828586Y-107942889D01*
X137899068Y-107772729D01*
X137935000Y-107592089D01*
X137935000Y-107407911D01*
X137899068Y-107227271D01*
X137828586Y-107057111D01*
X137726262Y-106903972D01*
X137596028Y-106773738D01*
X137442889Y-106671414D01*
X137272729Y-106600932D01*
X137151651Y-106576848D01*
X132385001Y-101810200D01*
X132385001Y-97207291D01*
X132403972Y-97226262D01*
X132557111Y-97328586D01*
X132727271Y-97399068D01*
X132907911Y-97435000D01*
X133092089Y-97435000D01*
X133272729Y-97399068D01*
X133442889Y-97328586D01*
X133596028Y-97226262D01*
X133726262Y-97096028D01*
X133828586Y-96942889D01*
X133899068Y-96772729D01*
X133935000Y-96592089D01*
X133935000Y-96407911D01*
X133899068Y-96227271D01*
X133828586Y-96057111D01*
X133760000Y-95954465D01*
X133760000Y-91537322D01*
X133763676Y-91499999D01*
X133760000Y-91462676D01*
X133760000Y-91462667D01*
X133749003Y-91351014D01*
X133705546Y-91207753D01*
X133634974Y-91075724D01*
X133540001Y-90959999D01*
X133511003Y-90936201D01*
X132866372Y-90291570D01*
X132897000Y-90137592D01*
X132897000Y-90127000D01*
X134103000Y-90127000D01*
X134103000Y-90137592D01*
X134156686Y-90407490D01*
X134261995Y-90661727D01*
X134414880Y-90890535D01*
X134609465Y-91085120D01*
X134740001Y-91172341D01*
X134740000Y-95262667D01*
X134740000Y-95537332D01*
X134740001Y-95537341D01*
X134740000Y-97409462D01*
X134052546Y-98096917D01*
X133892089Y-98065000D01*
X133707911Y-98065000D01*
X133527271Y-98100932D01*
X133357111Y-98171414D01*
X133203972Y-98273738D01*
X133073738Y-98403972D01*
X132971414Y-98557111D01*
X132900932Y-98727271D01*
X132865000Y-98907911D01*
X132865000Y-99092089D01*
X132900932Y-99272729D01*
X132971414Y-99442889D01*
X133073738Y-99596028D01*
X133203972Y-99726262D01*
X133357111Y-99828586D01*
X133527271Y-99899068D01*
X133707911Y-99935000D01*
X133892089Y-99935000D01*
X134072729Y-99899068D01*
X134242889Y-99828586D01*
X134360048Y-99750303D01*
X134373250Y-99749003D01*
X134516511Y-99705546D01*
X134648540Y-99634974D01*
X134764265Y-99540001D01*
X134788068Y-99510997D01*
X136011004Y-98288062D01*
X136040001Y-98264265D01*
X136116202Y-98171414D01*
X136134974Y-98148541D01*
X136205546Y-98016511D01*
X136205546Y-98016510D01*
X136249003Y-97873250D01*
X136260000Y-97761597D01*
X136260000Y-97761588D01*
X136263676Y-97724265D01*
X136260000Y-97686942D01*
X136260000Y-91172341D01*
X136390535Y-91085120D01*
X136585120Y-90890535D01*
X136738005Y-90661727D01*
X136843314Y-90407490D01*
X136897000Y-90137592D01*
X136897000Y-90127000D01*
X141373000Y-90127000D01*
X141373000Y-104240000D01*
X138825535Y-104240000D01*
X138722889Y-104171414D01*
X138552729Y-104100932D01*
X138372089Y-104065000D01*
X138187911Y-104065000D01*
X138007271Y-104100932D01*
X137837111Y-104171414D01*
X137683972Y-104273738D01*
X137553738Y-104403972D01*
X137451414Y-104557111D01*
X137380932Y-104727271D01*
X137345000Y-104907911D01*
X137345000Y-105092089D01*
X137380932Y-105272729D01*
X137451414Y-105442889D01*
X137553738Y-105596028D01*
X137683972Y-105726262D01*
X137837111Y-105828586D01*
X138007271Y-105899068D01*
X138187911Y-105935000D01*
X138372089Y-105935000D01*
X138552729Y-105899068D01*
X138722889Y-105828586D01*
X138825535Y-105760000D01*
X141373000Y-105760000D01*
X141373000Y-110240000D01*
X136739066Y-110240000D01*
X132488068Y-105989003D01*
X132464265Y-105959999D01*
X132348540Y-105865026D01*
X132216511Y-105794454D01*
X132073250Y-105750997D01*
X132060048Y-105749697D01*
X131942889Y-105671414D01*
X131772729Y-105600932D01*
X131592089Y-105565000D01*
X131407911Y-105565000D01*
X131337643Y-105578977D01*
X131328586Y-105557111D01*
X131226262Y-105403972D01*
X131096028Y-105273738D01*
X130942889Y-105171414D01*
X130772729Y-105100932D01*
X130592089Y-105065000D01*
X130407911Y-105065000D01*
X130227271Y-105100932D01*
X130057111Y-105171414D01*
X129903972Y-105273738D01*
X129773738Y-105403972D01*
X129671414Y-105557111D01*
X129600932Y-105727271D01*
X129565000Y-105907911D01*
X129565000Y-106092089D01*
X129600932Y-106272729D01*
X129671414Y-106442889D01*
X129740001Y-106545536D01*
X129740001Y-106887670D01*
X129736324Y-106925002D01*
X129740001Y-106962335D01*
X129750998Y-107073988D01*
X129757684Y-107096028D01*
X129794454Y-107217248D01*
X129865026Y-107349278D01*
X129935377Y-107435000D01*
X129960000Y-107465003D01*
X129988998Y-107488801D01*
X134511199Y-112011003D01*
X134534997Y-112040001D01*
X134650722Y-112134974D01*
X134782751Y-112205546D01*
X134926012Y-112249003D01*
X135037665Y-112260000D01*
X135037674Y-112260000D01*
X135074997Y-112263676D01*
X135112320Y-112260000D01*
X141373000Y-112260000D01*
X141373000Y-112873000D01*
X129447802Y-112873000D01*
X128563804Y-111989003D01*
X128540001Y-111959999D01*
X128424276Y-111865026D01*
X128292247Y-111794454D01*
X128148986Y-111750997D01*
X128037333Y-111740000D01*
X128037322Y-111740000D01*
X128000000Y-111736324D01*
X127962678Y-111740000D01*
X125314802Y-111740000D01*
X123760000Y-110185199D01*
X123760000Y-104314801D01*
X124151649Y-103923153D01*
X124272729Y-103899068D01*
X124442889Y-103828586D01*
X124596028Y-103726262D01*
X124726262Y-103596028D01*
X124828586Y-103442889D01*
X124899068Y-103272729D01*
X124935000Y-103092089D01*
X124935000Y-102907911D01*
X124899068Y-102727271D01*
X124828586Y-102557111D01*
X124726262Y-102403972D01*
X124596028Y-102273738D01*
X124442889Y-102171414D01*
X124272729Y-102100932D01*
X124092089Y-102065000D01*
X123907911Y-102065000D01*
X123727271Y-102100932D01*
X123557111Y-102171414D01*
X123403972Y-102273738D01*
X123273738Y-102403972D01*
X123171414Y-102557111D01*
X123100932Y-102727271D01*
X123076847Y-102848351D01*
X122627000Y-103298198D01*
X122627000Y-90127000D01*
X129653000Y-90127000D01*
X129653000Y-91450665D01*
X129653000Y-91450665D01*
G37*
X129653000Y-91450665D02*
X129649323Y-91487997D01*
X129663997Y-91636982D01*
X129707453Y-91780243D01*
X129778025Y-91912273D01*
X129797762Y-91936322D01*
X129872999Y-92027998D01*
X129901997Y-92051796D01*
X130865001Y-93014801D01*
X130865002Y-102087669D01*
X130861325Y-102125001D01*
X130865002Y-102162334D01*
X130875999Y-102273987D01*
X130889181Y-102317443D01*
X130919455Y-102417247D01*
X130990027Y-102549277D01*
X131011732Y-102575724D01*
X131085001Y-102665002D01*
X131113999Y-102688800D01*
X136076848Y-107651651D01*
X136100932Y-107772729D01*
X136171414Y-107942889D01*
X136273738Y-108096028D01*
X136403972Y-108226262D01*
X136557111Y-108328586D01*
X136727271Y-108399068D01*
X136907911Y-108435000D01*
X137092089Y-108435000D01*
X137272729Y-108399068D01*
X137442889Y-108328586D01*
X137596028Y-108226262D01*
X137726262Y-108096028D01*
X137828586Y-107942889D01*
X137899068Y-107772729D01*
X137935000Y-107592089D01*
X137935000Y-107407911D01*
X137899068Y-107227271D01*
X137828586Y-107057111D01*
X137726262Y-106903972D01*
X137596028Y-106773738D01*
X137442889Y-106671414D01*
X137272729Y-106600932D01*
X137151651Y-106576848D01*
X132385001Y-101810200D01*
X132385001Y-97207291D01*
X132403972Y-97226262D01*
X132557111Y-97328586D01*
X132727271Y-97399068D01*
X132907911Y-97435000D01*
X133092089Y-97435000D01*
X133272729Y-97399068D01*
X133442889Y-97328586D01*
X133596028Y-97226262D01*
X133726262Y-97096028D01*
X133828586Y-96942889D01*
X133899068Y-96772729D01*
X133935000Y-96592089D01*
X133935000Y-96407911D01*
X133899068Y-96227271D01*
X133828586Y-96057111D01*
X133760000Y-95954465D01*
X133760000Y-91537322D01*
X133763676Y-91499999D01*
X133760000Y-91462676D01*
X133760000Y-91462667D01*
X133749003Y-91351014D01*
X133705546Y-91207753D01*
X133634974Y-91075724D01*
X133540001Y-90959999D01*
X133511003Y-90936201D01*
X132866372Y-90291570D01*
X132897000Y-90137592D01*
X132897000Y-90127000D01*
X134103000Y-90127000D01*
X134103000Y-90137592D01*
X134156686Y-90407490D01*
X134261995Y-90661727D01*
X134414880Y-90890535D01*
X134609465Y-91085120D01*
X134740001Y-91172341D01*
X134740000Y-95262667D01*
X134740000Y-95537332D01*
X134740001Y-95537341D01*
X134740000Y-97409462D01*
X134052546Y-98096917D01*
X133892089Y-98065000D01*
X133707911Y-98065000D01*
X133527271Y-98100932D01*
X133357111Y-98171414D01*
X133203972Y-98273738D01*
X133073738Y-98403972D01*
X132971414Y-98557111D01*
X132900932Y-98727271D01*
X132865000Y-98907911D01*
X132865000Y-99092089D01*
X132900932Y-99272729D01*
X132971414Y-99442889D01*
X133073738Y-99596028D01*
X133203972Y-99726262D01*
X133357111Y-99828586D01*
X133527271Y-99899068D01*
X133707911Y-99935000D01*
X133892089Y-99935000D01*
X134072729Y-99899068D01*
X134242889Y-99828586D01*
X134360048Y-99750303D01*
X134373250Y-99749003D01*
X134516511Y-99705546D01*
X134648540Y-99634974D01*
X134764265Y-99540001D01*
X134788068Y-99510997D01*
X136011004Y-98288062D01*
X136040001Y-98264265D01*
X136116202Y-98171414D01*
X136134974Y-98148541D01*
X136205546Y-98016511D01*
X136205546Y-98016510D01*
X136249003Y-97873250D01*
X136260000Y-97761597D01*
X136260000Y-97761588D01*
X136263676Y-97724265D01*
X136260000Y-97686942D01*
X136260000Y-91172341D01*
X136390535Y-91085120D01*
X136585120Y-90890535D01*
X136738005Y-90661727D01*
X136843314Y-90407490D01*
X136897000Y-90137592D01*
X136897000Y-90127000D01*
X141373000Y-90127000D01*
X141373000Y-104240000D01*
X138825535Y-104240000D01*
X138722889Y-104171414D01*
X138552729Y-104100932D01*
X138372089Y-104065000D01*
X138187911Y-104065000D01*
X138007271Y-104100932D01*
X137837111Y-104171414D01*
X137683972Y-104273738D01*
X137553738Y-104403972D01*
X137451414Y-104557111D01*
X137380932Y-104727271D01*
X137345000Y-104907911D01*
X137345000Y-105092089D01*
X137380932Y-105272729D01*
X137451414Y-105442889D01*
X137553738Y-105596028D01*
X137683972Y-105726262D01*
X137837111Y-105828586D01*
X138007271Y-105899068D01*
X138187911Y-105935000D01*
X138372089Y-105935000D01*
X138552729Y-105899068D01*
X138722889Y-105828586D01*
X138825535Y-105760000D01*
X141373000Y-105760000D01*
X141373000Y-110240000D01*
X136739066Y-110240000D01*
X132488068Y-105989003D01*
X132464265Y-105959999D01*
X132348540Y-105865026D01*
X132216511Y-105794454D01*
X132073250Y-105750997D01*
X132060048Y-105749697D01*
X131942889Y-105671414D01*
X131772729Y-105600932D01*
X131592089Y-105565000D01*
X131407911Y-105565000D01*
X131337643Y-105578977D01*
X131328586Y-105557111D01*
X131226262Y-105403972D01*
X131096028Y-105273738D01*
X130942889Y-105171414D01*
X130772729Y-105100932D01*
X130592089Y-105065000D01*
X130407911Y-105065000D01*
X130227271Y-105100932D01*
X130057111Y-105171414D01*
X129903972Y-105273738D01*
X129773738Y-105403972D01*
X129671414Y-105557111D01*
X129600932Y-105727271D01*
X129565000Y-105907911D01*
X129565000Y-106092089D01*
X129600932Y-106272729D01*
X129671414Y-106442889D01*
X129740001Y-106545536D01*
X129740001Y-106887670D01*
X129736324Y-106925002D01*
X129740001Y-106962335D01*
X129750998Y-107073988D01*
X129757684Y-107096028D01*
X129794454Y-107217248D01*
X129865026Y-107349278D01*
X129935377Y-107435000D01*
X129960000Y-107465003D01*
X129988998Y-107488801D01*
X134511199Y-112011003D01*
X134534997Y-112040001D01*
X134650722Y-112134974D01*
X134782751Y-112205546D01*
X134926012Y-112249003D01*
X135037665Y-112260000D01*
X135037674Y-112260000D01*
X135074997Y-112263676D01*
X135112320Y-112260000D01*
X141373000Y-112260000D01*
X141373000Y-112873000D01*
X129447802Y-112873000D01*
X128563804Y-111989003D01*
X128540001Y-111959999D01*
X128424276Y-111865026D01*
X128292247Y-111794454D01*
X128148986Y-111750997D01*
X128037333Y-111740000D01*
X128037322Y-111740000D01*
X128000000Y-111736324D01*
X127962678Y-111740000D01*
X125314802Y-111740000D01*
X123760000Y-110185199D01*
X123760000Y-104314801D01*
X124151649Y-103923153D01*
X124272729Y-103899068D01*
X124442889Y-103828586D01*
X124596028Y-103726262D01*
X124726262Y-103596028D01*
X124828586Y-103442889D01*
X124899068Y-103272729D01*
X124935000Y-103092089D01*
X124935000Y-102907911D01*
X124899068Y-102727271D01*
X124828586Y-102557111D01*
X124726262Y-102403972D01*
X124596028Y-102273738D01*
X124442889Y-102171414D01*
X124272729Y-102100932D01*
X124092089Y-102065000D01*
X123907911Y-102065000D01*
X123727271Y-102100932D01*
X123557111Y-102171414D01*
X123403972Y-102273738D01*
X123273738Y-102403972D01*
X123171414Y-102557111D01*
X123100932Y-102727271D01*
X123076847Y-102848351D01*
X122627000Y-103298198D01*
X122627000Y-90127000D01*
X129653000Y-90127000D01*
X129653000Y-91450665D01*
G36*
X132240001Y-91814803D02*
G01*
X132240001Y-92251384D01*
X132165002Y-92159998D01*
X132136005Y-92136201D01*
X131396803Y-91397000D01*
X131637592Y-91397000D01*
X131791570Y-91366372D01*
X132240001Y-91814803D01*
X132240001Y-91814803D01*
G37*
X132240001Y-91814803D02*
X132240001Y-92251384D01*
X132165002Y-92159998D01*
X132136005Y-92136201D01*
X131396803Y-91397000D01*
X131637592Y-91397000D01*
X131791570Y-91366372D01*
X132240001Y-91814803D01*
M02*
