M48
; DRILL file {KiCad 5.1.0} date Thu 11 Apr 2019 11:23:25 PM CDT
; FORMAT={-:-/ absolute / inch / decimal}
; #@! TF.CreationDate,2019-04-11T23:23:25-05:00
; #@! TF.GenerationSoftware,Kicad,Pcbnew,5.1.0
; #@! TF.FileFunction,Plated,1,2,PTH
FMAT,2
INCH
T1C0.0157
%
G90
G05
T1
X4.5008Y-3.8209
X4.7248Y-3.8323
X4.8425Y-3.563
X4.8425Y-3.7598
X4.8819Y-4.0551
X4.9016Y-4.1535
X4.9016Y-4.3504
X4.9409Y-3.6614
X4.9685Y-4.2795
X4.9685Y-4.3937
X5.0197Y-3.7795
X5.0394Y-3.563
X5.1063Y-4.4094
X5.1378Y-3.6614
X5.1378Y-4.1732
X5.1382Y-3.963
X5.1772Y-4.1929
X5.1772Y-4.3504
X5.2087Y-3.6102
X5.2362Y-3.7992
X5.248Y-3.8583
X5.2559Y-3.563
X5.2677Y-3.8976
X5.2677Y-4.4094
X5.2756Y-3.6614
X5.2835Y-4.0551
X5.2843Y-3.9661
X5.2846Y-4.015
X5.311Y-4.0827
X5.3937Y-3.3071
X5.3937Y-3.4449
X5.3937Y-4.2323
X5.3937Y-4.3307
X5.4016Y-4.4291
X5.4441Y-4.1339
X5.4646Y-3.563
X5.4665Y-3.9264
X5.5236Y-3.7165
X5.5276Y-3.8543
X5.5276Y-4.0079
X5.5315Y-3.563
X5.5433Y-4.3307
X5.5433Y-4.4291
X5.6102Y-4.0157
X5.7332Y-4.2826
X5.7944Y-4.2213
X5.8071Y-3.6024
X6.063Y-4.0945
X6.07Y-3.9261
X6.1614Y-4.0885
X6.3456Y-3.6308
X6.4764Y-3.5236
X6.7765Y-4.2826
X6.8377Y-4.2213
X7.1133Y-3.9261
X7.3316Y-3.692
T0
M30
