M48
;DRILL file {KiCad 5.0.1} date Wed 20 Feb 2019 12:34:24 AM CST
;FORMAT={-:-/ absolute / inch / decimal}
FMAT,2
INCH,TZ
T1C0.0157
%
G90
G05
M72
T1
X4.5008Y-3.8209
X4.7248Y-3.8323
X4.8819Y-4.0551
X4.9016Y-4.1535
X4.9016Y-4.3504
X5.1378Y-3.6614
X5.1378Y-4.1732
X5.1382Y-3.963
X5.1772Y-4.1929
X5.1772Y-4.3504
X5.2362Y-3.7992
X5.2756Y-3.6614
X5.2843Y-3.9661
X5.2846Y-4.015
X5.3744Y-3.7996
X5.3937Y-3.3071
X5.3937Y-3.4449
X5.3937Y-4.2323
X5.3937Y-4.3307
X5.4441Y-4.1339
X5.4665Y-3.9264
X5.6102Y-4.0157
X5.7332Y-4.2826
X5.7944Y-4.2213
X5.8071Y-3.6024
X6.063Y-4.0945
X6.07Y-3.9261
X6.1614Y-4.0885
X6.3456Y-3.6308
X6.4764Y-3.5236
X6.7765Y-4.2826
X6.8377Y-4.2213
X7.1133Y-3.9261
X7.3316Y-3.692
T0
M30
