%TF.GenerationSoftware,KiCad,Pcbnew,5.0.1*%
%TF.CreationDate,2019-01-19T09:31:19-06:00*%
%TF.ProjectId,Layout,4C61796F75742E6B696361645F706362,rev?*%
%TF.SameCoordinates,Original*%
%TF.FileFunction,Paste,Top*%
%TF.FilePolarity,Positive*%
%FSLAX46Y46*%
G04 Gerber Fmt 4.6, Leading zero omitted, Abs format (unit mm)*
G04 Created by KiCad (PCBNEW 5.0.1) date Sat 19 Jan 2019 09:31:19 AM CST*
%MOMM*%
%LPD*%
G01*
G04 APERTURE LIST*
%ADD10C,0.150000*%
%ADD11R,1.250000X1.000000*%
%ADD12C,1.200000*%
%ADD13C,0.100000*%
%ADD14R,0.850000X0.300000*%
%ADD15R,0.300000X0.850000*%
%ADD16R,0.780000X0.780000*%
%ADD17C,0.630000*%
%ADD18R,0.630000X1.524000*%
G04 APERTURE END LIST*
D10*
X112000000Y-122000000D02*
X112000000Y-76000000D01*
X198500000Y-124500000D02*
X114500000Y-124500000D01*
X201000000Y-76000000D02*
X201000000Y-122000000D01*
X114500000Y-73500000D02*
X198500000Y-73500000D01*
X201000000Y-122000000D02*
G75*
G02X198500000Y-124500000I-2500000J0D01*
G01*
X114500000Y-124500000D02*
G75*
G02X112000000Y-122000000I0J2500000D01*
G01*
X112000000Y-76000000D02*
G75*
G02X114500000Y-73500000I2500000J0D01*
G01*
X198500000Y-73500000D02*
G75*
G02X201000000Y-76000000I0J-2500000D01*
G01*
D11*
X124500000Y-105000000D03*
X124500000Y-103000000D03*
X121500000Y-97500000D03*
X121500000Y-99500000D03*
X135000000Y-110000000D03*
X135000000Y-108000000D03*
X131500000Y-108000000D03*
X131500000Y-110000000D03*
X124500000Y-108000000D03*
X124500000Y-110000000D03*
X124500000Y-97500000D03*
X124500000Y-99500000D03*
X128000000Y-108000000D03*
X128000000Y-110000000D03*
X130500000Y-95000000D03*
X130500000Y-93000000D03*
X134000000Y-93000000D03*
X134000000Y-95000000D03*
D12*
X145622184Y-93777817D03*
D13*
G36*
X145622184Y-94626345D02*
X144773656Y-93777817D01*
X145622184Y-92929289D01*
X146470712Y-93777817D01*
X145622184Y-94626345D01*
X145622184Y-94626345D01*
G37*
D12*
X147177818Y-92222183D03*
D13*
G36*
X147177818Y-93070711D02*
X146329290Y-92222183D01*
X147177818Y-91373655D01*
X148026346Y-92222183D01*
X147177818Y-93070711D01*
X147177818Y-93070711D01*
G37*
D12*
X161177818Y-107222183D03*
D13*
G36*
X161177818Y-108070711D02*
X160329290Y-107222183D01*
X161177818Y-106373655D01*
X162026346Y-107222183D01*
X161177818Y-108070711D01*
X161177818Y-108070711D01*
G37*
D12*
X159622184Y-108777817D03*
D13*
G36*
X159622184Y-109626345D02*
X158773656Y-108777817D01*
X159622184Y-107929289D01*
X160470712Y-108777817D01*
X159622184Y-109626345D01*
X159622184Y-109626345D01*
G37*
D12*
X147177818Y-107222183D03*
D13*
G36*
X147177818Y-108070711D02*
X146329290Y-107222183D01*
X147177818Y-106373655D01*
X148026346Y-107222183D01*
X147177818Y-108070711D01*
X147177818Y-108070711D01*
G37*
D12*
X145622184Y-108777817D03*
D13*
G36*
X145622184Y-109626345D02*
X144773656Y-108777817D01*
X145622184Y-107929289D01*
X146470712Y-108777817D01*
X145622184Y-109626345D01*
X145622184Y-109626345D01*
G37*
D12*
X159622184Y-93777817D03*
D13*
G36*
X159622184Y-94626345D02*
X158773656Y-93777817D01*
X159622184Y-92929289D01*
X160470712Y-93777817D01*
X159622184Y-94626345D01*
X159622184Y-94626345D01*
G37*
D12*
X161177818Y-92222183D03*
D13*
G36*
X161177818Y-93070711D02*
X160329290Y-92222183D01*
X161177818Y-91373655D01*
X162026346Y-92222183D01*
X161177818Y-93070711D01*
X161177818Y-93070711D01*
G37*
D12*
X152622184Y-101277817D03*
D13*
G36*
X152622184Y-102126345D02*
X151773656Y-101277817D01*
X152622184Y-100429289D01*
X153470712Y-101277817D01*
X152622184Y-102126345D01*
X152622184Y-102126345D01*
G37*
D12*
X154177818Y-99722183D03*
D13*
G36*
X154177818Y-100570711D02*
X153329290Y-99722183D01*
X154177818Y-98873655D01*
X155026346Y-99722183D01*
X154177818Y-100570711D01*
X154177818Y-100570711D01*
G37*
D12*
X145622184Y-101277817D03*
D13*
G36*
X145622184Y-102126345D02*
X144773656Y-101277817D01*
X145622184Y-100429289D01*
X146470712Y-101277817D01*
X145622184Y-102126345D01*
X145622184Y-102126345D01*
G37*
D12*
X147177818Y-99722183D03*
D13*
G36*
X147177818Y-100570711D02*
X146329290Y-99722183D01*
X147177818Y-98873655D01*
X148026346Y-99722183D01*
X147177818Y-100570711D01*
X147177818Y-100570711D01*
G37*
D12*
X161177818Y-99722183D03*
D13*
G36*
X161177818Y-100570711D02*
X160329290Y-99722183D01*
X161177818Y-98873655D01*
X162026346Y-99722183D01*
X161177818Y-100570711D01*
X161177818Y-100570711D01*
G37*
D12*
X159622184Y-101277817D03*
D13*
G36*
X159622184Y-102126345D02*
X158773656Y-101277817D01*
X159622184Y-100429289D01*
X160470712Y-101277817D01*
X159622184Y-102126345D01*
X159622184Y-102126345D01*
G37*
D12*
X173677818Y-92222183D03*
D13*
G36*
X173677818Y-93070711D02*
X172829290Y-92222183D01*
X173677818Y-91373655D01*
X174526346Y-92222183D01*
X173677818Y-93070711D01*
X173677818Y-93070711D01*
G37*
D12*
X172122184Y-93777817D03*
D13*
G36*
X172122184Y-94626345D02*
X171273656Y-93777817D01*
X172122184Y-92929289D01*
X172970712Y-93777817D01*
X172122184Y-94626345D01*
X172122184Y-94626345D01*
G37*
D12*
X186222183Y-108777817D03*
D13*
G36*
X186222183Y-109626345D02*
X185373655Y-108777817D01*
X186222183Y-107929289D01*
X187070711Y-108777817D01*
X186222183Y-109626345D01*
X186222183Y-109626345D01*
G37*
D12*
X187777817Y-107222183D03*
D13*
G36*
X187777817Y-108070711D02*
X186929289Y-107222183D01*
X187777817Y-106373655D01*
X188626345Y-107222183D01*
X187777817Y-108070711D01*
X187777817Y-108070711D01*
G37*
D12*
X172122184Y-108777817D03*
D13*
G36*
X172122184Y-109626345D02*
X171273656Y-108777817D01*
X172122184Y-107929289D01*
X172970712Y-108777817D01*
X172122184Y-109626345D01*
X172122184Y-109626345D01*
G37*
D12*
X173677818Y-107222183D03*
D13*
G36*
X173677818Y-108070711D02*
X172829290Y-107222183D01*
X173677818Y-106373655D01*
X174526346Y-107222183D01*
X173677818Y-108070711D01*
X173677818Y-108070711D01*
G37*
D12*
X187777817Y-92222183D03*
D13*
G36*
X187777817Y-93070711D02*
X186929289Y-92222183D01*
X187777817Y-91373655D01*
X188626345Y-92222183D01*
X187777817Y-93070711D01*
X187777817Y-93070711D01*
G37*
D12*
X186222183Y-93777817D03*
D13*
G36*
X186222183Y-94626345D02*
X185373655Y-93777817D01*
X186222183Y-92929289D01*
X187070711Y-93777817D01*
X186222183Y-94626345D01*
X186222183Y-94626345D01*
G37*
D12*
X180677818Y-99722183D03*
D13*
G36*
X180677818Y-100570711D02*
X179829290Y-99722183D01*
X180677818Y-98873655D01*
X181526346Y-99722183D01*
X180677818Y-100570711D01*
X180677818Y-100570711D01*
G37*
D12*
X179122184Y-101277817D03*
D13*
G36*
X179122184Y-102126345D02*
X178273656Y-101277817D01*
X179122184Y-100429289D01*
X179970712Y-101277817D01*
X179122184Y-102126345D01*
X179122184Y-102126345D01*
G37*
D12*
X173677818Y-99722183D03*
D13*
G36*
X173677818Y-100570711D02*
X172829290Y-99722183D01*
X173677818Y-98873655D01*
X174526346Y-99722183D01*
X173677818Y-100570711D01*
X173677818Y-100570711D01*
G37*
D12*
X172122184Y-101277817D03*
D13*
G36*
X172122184Y-102126345D02*
X171273656Y-101277817D01*
X172122184Y-100429289D01*
X172970712Y-101277817D01*
X172122184Y-102126345D01*
X172122184Y-102126345D01*
G37*
D12*
X186222183Y-101277817D03*
D13*
G36*
X186222183Y-102126345D02*
X185373655Y-101277817D01*
X186222183Y-100429289D01*
X187070711Y-101277817D01*
X186222183Y-102126345D01*
X186222183Y-102126345D01*
G37*
D12*
X187777817Y-99722183D03*
D13*
G36*
X187777817Y-100570711D02*
X186929289Y-99722183D01*
X187777817Y-98873655D01*
X188626345Y-99722183D01*
X187777817Y-100570711D01*
X187777817Y-100570711D01*
G37*
D14*
X129050000Y-99760000D03*
X129050000Y-100260000D03*
X129050000Y-100760000D03*
X129050000Y-101260000D03*
X129050000Y-101760000D03*
X129050000Y-102260000D03*
D15*
X129750000Y-102960000D03*
X130250000Y-102960000D03*
X130750000Y-102960000D03*
X131250000Y-102960000D03*
X131750000Y-102960000D03*
X132250000Y-102960000D03*
D14*
X132950000Y-102260000D03*
X132950000Y-101760000D03*
X132950000Y-101260000D03*
X132950000Y-100760000D03*
X132950000Y-100260000D03*
X132950000Y-99760000D03*
D15*
X132250000Y-99060000D03*
X131750000Y-99060000D03*
X131250000Y-99060000D03*
X130750000Y-99060000D03*
X130250000Y-99060000D03*
X129750000Y-99060000D03*
D16*
X131650000Y-101660000D03*
X131650000Y-100360000D03*
X130350000Y-101660000D03*
X130350000Y-100360000D03*
D17*
X118520000Y-101480000D03*
D13*
G36*
X118697895Y-102285123D02*
X118077466Y-102175724D01*
X118342105Y-100674877D01*
X118962534Y-100784276D01*
X118697895Y-102285123D01*
X118697895Y-102285123D01*
G37*
D18*
X114170000Y-95880000D03*
M02*
