%TF.GenerationSoftware,KiCad,Pcbnew,5.0.1*%
%TF.CreationDate,2019-02-20T00:34:26-06:00*%
%TF.ProjectId,Layout,4C61796F75742E6B696361645F706362,rev?*%
%TF.SameCoordinates,Original*%
%TF.FileFunction,Legend,Top*%
%TF.FilePolarity,Positive*%
%FSLAX46Y46*%
G04 Gerber Fmt 4.6, Leading zero omitted, Abs format (unit mm)*
G04 Created by KiCad (PCBNEW 5.0.1) date Wed 20 Feb 2019 12:34:26 AM CST*
%MOMM*%
%LPD*%
G01*
G04 APERTURE LIST*
%ADD10C,0.200000*%
%ADD11C,0.150000*%
%ADD12C,0.120000*%
%ADD13C,0.010000*%
G04 APERTURE END LIST*
D10*
X143500000Y-110500000D02*
X163500000Y-110500000D01*
X163500000Y-90500000D02*
X143500000Y-90500000D01*
X163500000Y-110500000D02*
X163500000Y-90500000D01*
X143500000Y-90500000D02*
X143500000Y-110500000D01*
X190000000Y-110500000D02*
X170000000Y-110500000D01*
X170000000Y-90500000D02*
X190000000Y-90500000D01*
X170000000Y-90500000D02*
X170000000Y-110500000D01*
X190000000Y-110500000D02*
X190000000Y-90500000D01*
D11*
X112000000Y-122000000D02*
X112000000Y-76000000D01*
X198500000Y-124500000D02*
X114500000Y-124500000D01*
X201000000Y-76000000D02*
X201000000Y-122000000D01*
X114500000Y-73500000D02*
X198500000Y-73500000D01*
X201000000Y-122000000D02*
G75*
G02X198500000Y-124500000I-2500000J0D01*
G01*
X114500000Y-124500000D02*
G75*
G02X112000000Y-122000000I0J2500000D01*
G01*
X112000000Y-76000000D02*
G75*
G02X114500000Y-73500000I2500000J0D01*
G01*
X198500000Y-73500000D02*
G75*
G02X201000000Y-76000000I0J-2500000D01*
G01*
D12*
X123650000Y-103500000D02*
X123650000Y-104500000D01*
X125350000Y-104500000D02*
X125350000Y-103500000D01*
X122350000Y-99000000D02*
X122350000Y-98000000D01*
X120650000Y-98000000D02*
X120650000Y-99000000D01*
X134150000Y-108500000D02*
X134150000Y-109500000D01*
X135850000Y-109500000D02*
X135850000Y-108500000D01*
X132350000Y-109500000D02*
X132350000Y-108500000D01*
X130650000Y-108500000D02*
X130650000Y-109500000D01*
X125350000Y-109500000D02*
X125350000Y-108500000D01*
X123650000Y-108500000D02*
X123650000Y-109500000D01*
X125350000Y-99000000D02*
X125350000Y-98000000D01*
X123650000Y-98000000D02*
X123650000Y-99000000D01*
X128850000Y-109500000D02*
X128850000Y-108500000D01*
X127150000Y-108500000D02*
X127150000Y-109500000D01*
X129650000Y-93500000D02*
X129650000Y-94500000D01*
X131350000Y-94500000D02*
X131350000Y-93500000D01*
X134850000Y-94500000D02*
X134850000Y-93500000D01*
X133150000Y-93500000D02*
X133150000Y-94500000D01*
X148167768Y-92222183D02*
X147177818Y-91232233D01*
X147177818Y-91232233D02*
X145197919Y-93212132D01*
X148167768Y-92222183D02*
X146187869Y-94202082D01*
X162167768Y-107222183D02*
X160187869Y-109202082D01*
X161177818Y-106232233D02*
X159197919Y-108212132D01*
X162167768Y-107222183D02*
X161177818Y-106232233D01*
X148167768Y-107222183D02*
X146187869Y-109202082D01*
X147177818Y-106232233D02*
X145197919Y-108212132D01*
X148167768Y-107222183D02*
X147177818Y-106232233D01*
X162167768Y-92222183D02*
X161177818Y-91232233D01*
X161177818Y-91232233D02*
X159197919Y-93212132D01*
X162167768Y-92222183D02*
X160187869Y-94202082D01*
X155167768Y-99722183D02*
X154177818Y-98732233D01*
X154177818Y-98732233D02*
X152197919Y-100712132D01*
X155167768Y-99722183D02*
X153187869Y-101702082D01*
X148167768Y-99722183D02*
X147177818Y-98732233D01*
X147177818Y-98732233D02*
X145197919Y-100712132D01*
X148167768Y-99722183D02*
X146187869Y-101702082D01*
X162167768Y-99722183D02*
X160187869Y-101702082D01*
X161177818Y-98732233D02*
X159197919Y-100712132D01*
X162167768Y-99722183D02*
X161177818Y-98732233D01*
X174667768Y-92222183D02*
X172687869Y-94202082D01*
X173677818Y-91232233D02*
X171697919Y-93212132D01*
X174667768Y-92222183D02*
X173677818Y-91232233D01*
X188767767Y-107222183D02*
X187777817Y-106232233D01*
X187777817Y-106232233D02*
X185797918Y-108212132D01*
X188767767Y-107222183D02*
X186787868Y-109202082D01*
X174667768Y-107222183D02*
X173677818Y-106232233D01*
X173677818Y-106232233D02*
X171697919Y-108212132D01*
X174667768Y-107222183D02*
X172687869Y-109202082D01*
X188767767Y-92222183D02*
X186787868Y-94202082D01*
X187777817Y-91232233D02*
X185797918Y-93212132D01*
X188767767Y-92222183D02*
X187777817Y-91232233D01*
X181667768Y-99722183D02*
X179687869Y-101702082D01*
X180677818Y-98732233D02*
X178697919Y-100712132D01*
X181667768Y-99722183D02*
X180677818Y-98732233D01*
X174667768Y-99722183D02*
X172687869Y-101702082D01*
X173677818Y-98732233D02*
X171697919Y-100712132D01*
X174667768Y-99722183D02*
X173677818Y-98732233D01*
X188767767Y-99722183D02*
X187777817Y-98732233D01*
X187777817Y-98732233D02*
X185797918Y-100712132D01*
X188767767Y-99722183D02*
X186787868Y-101702082D01*
D11*
X133150000Y-98860000D02*
X133150000Y-99385000D01*
X128850000Y-103160000D02*
X128850000Y-102635000D01*
X133150000Y-103160000D02*
X133150000Y-102635000D01*
X128850000Y-98860000D02*
X129375000Y-98860000D01*
X128850000Y-103160000D02*
X129375000Y-103160000D01*
X133150000Y-103160000D02*
X132625000Y-103160000D01*
X133150000Y-98860000D02*
X132625000Y-98860000D01*
D13*
G36*
X179324184Y-75913250D02*
X179311882Y-76026255D01*
X179279926Y-76080139D01*
X179202963Y-76100255D01*
X179131250Y-76106184D01*
X178951334Y-76119201D01*
X178951334Y-75733333D01*
X179337202Y-75733333D01*
X179324184Y-75913250D01*
X179324184Y-75913250D01*
G37*
X179324184Y-75913250D02*
X179311882Y-76026255D01*
X179279926Y-76080139D01*
X179202963Y-76100255D01*
X179131250Y-76106184D01*
X178951334Y-76119201D01*
X178951334Y-75733333D01*
X179337202Y-75733333D01*
X179324184Y-75913250D01*
G36*
X159393334Y-76114333D02*
X159222672Y-76114333D01*
X159092637Y-76099179D01*
X159029895Y-76056531D01*
X159029015Y-76054409D01*
X159016472Y-75969332D01*
X159019760Y-75874492D01*
X159037548Y-75797838D01*
X159084482Y-75760016D01*
X159185915Y-75743613D01*
X159213417Y-75741482D01*
X159393334Y-75728465D01*
X159393334Y-76114333D01*
X159393334Y-76114333D01*
G37*
X159393334Y-76114333D02*
X159222672Y-76114333D01*
X159092637Y-76099179D01*
X159029895Y-76056531D01*
X159029015Y-76054409D01*
X159016472Y-75969332D01*
X159019760Y-75874492D01*
X159037548Y-75797838D01*
X159084482Y-75760016D01*
X159185915Y-75743613D01*
X159213417Y-75741482D01*
X159393334Y-75728465D01*
X159393334Y-76114333D01*
G36*
X151350000Y-76114333D02*
X151187722Y-76114333D01*
X151075852Y-76107570D01*
X151004241Y-76090837D01*
X150997222Y-76086111D01*
X150978943Y-76028944D01*
X150969399Y-75923186D01*
X150969000Y-75895611D01*
X150969000Y-75733333D01*
X151350000Y-75733333D01*
X151350000Y-76114333D01*
X151350000Y-76114333D01*
G37*
X151350000Y-76114333D02*
X151187722Y-76114333D01*
X151075852Y-76107570D01*
X151004241Y-76090837D01*
X150997222Y-76086111D01*
X150978943Y-76028944D01*
X150969399Y-75923186D01*
X150969000Y-75895611D01*
X150969000Y-75733333D01*
X151350000Y-75733333D01*
X151350000Y-76114333D01*
G36*
X192709667Y-76745909D02*
X193058917Y-76758204D01*
X193408167Y-76770500D01*
X193421184Y-76950416D01*
X193434202Y-77130333D01*
X192707877Y-77130333D01*
X192719355Y-77966416D01*
X192730834Y-78802500D01*
X192900167Y-78823666D01*
X193008388Y-78842148D01*
X193056620Y-78879192D01*
X193069095Y-78962058D01*
X193069500Y-79014166D01*
X193069500Y-79183500D01*
X192872349Y-79196242D01*
X192736489Y-79195617D01*
X192636296Y-79161700D01*
X192527276Y-79079098D01*
X192523099Y-79075440D01*
X192371000Y-78941895D01*
X192371000Y-77130333D01*
X191651334Y-77130333D01*
X191651334Y-76749333D01*
X192371000Y-76749333D01*
X192371000Y-75733333D01*
X192709667Y-75733333D01*
X192709667Y-76745909D01*
X192709667Y-76745909D01*
G37*
X192709667Y-76745909D02*
X193058917Y-76758204D01*
X193408167Y-76770500D01*
X193421184Y-76950416D01*
X193434202Y-77130333D01*
X192707877Y-77130333D01*
X192719355Y-77966416D01*
X192730834Y-78802500D01*
X192900167Y-78823666D01*
X193008388Y-78842148D01*
X193056620Y-78879192D01*
X193069095Y-78962058D01*
X193069500Y-79014166D01*
X193069500Y-79183500D01*
X192872349Y-79196242D01*
X192736489Y-79195617D01*
X192636296Y-79161700D01*
X192527276Y-79079098D01*
X192523099Y-79075440D01*
X192371000Y-78941895D01*
X192371000Y-77130333D01*
X191651334Y-77130333D01*
X191651334Y-76749333D01*
X192371000Y-76749333D01*
X192371000Y-75733333D01*
X192709667Y-75733333D01*
X192709667Y-76745909D01*
G36*
X190515107Y-76996560D02*
X190656035Y-77148292D01*
X190735758Y-77262853D01*
X190762261Y-77351865D01*
X190762334Y-77356393D01*
X190755345Y-77425766D01*
X190719166Y-77458632D01*
X190630972Y-77468481D01*
X190571834Y-77469000D01*
X190438289Y-77457983D01*
X190383242Y-77424284D01*
X190381334Y-77413420D01*
X190344622Y-77323837D01*
X190252242Y-77233866D01*
X190130829Y-77162990D01*
X190007014Y-77130693D01*
X189994379Y-77130333D01*
X189915570Y-77138131D01*
X189840927Y-77169275D01*
X189753280Y-77235391D01*
X189635459Y-77348104D01*
X189562779Y-77422550D01*
X189280667Y-77714767D01*
X189280667Y-79204666D01*
X188942000Y-79204666D01*
X188942000Y-78215016D01*
X188941559Y-77889282D01*
X188939059Y-77638094D01*
X188932733Y-77451333D01*
X188920815Y-77318879D01*
X188901538Y-77230613D01*
X188873136Y-77176416D01*
X188833842Y-77146167D01*
X188781889Y-77129747D01*
X188751500Y-77123725D01*
X188694840Y-77095442D01*
X188670492Y-77023162D01*
X188666834Y-76939253D01*
X188671925Y-76830534D01*
X188701542Y-76780250D01*
X188777198Y-76762223D01*
X188815000Y-76758964D01*
X188981905Y-76778401D01*
X189129918Y-76852358D01*
X189234279Y-76965041D01*
X189266046Y-77046646D01*
X189291632Y-77174577D01*
X189516449Y-76961955D01*
X189635879Y-76852190D01*
X189723571Y-76788695D01*
X189808583Y-76758815D01*
X189919972Y-76749893D01*
X190004573Y-76749333D01*
X190267880Y-76749333D01*
X190515107Y-76996560D01*
X190515107Y-76996560D01*
G37*
X190515107Y-76996560D02*
X190656035Y-77148292D01*
X190735758Y-77262853D01*
X190762261Y-77351865D01*
X190762334Y-77356393D01*
X190755345Y-77425766D01*
X190719166Y-77458632D01*
X190630972Y-77468481D01*
X190571834Y-77469000D01*
X190438289Y-77457983D01*
X190383242Y-77424284D01*
X190381334Y-77413420D01*
X190344622Y-77323837D01*
X190252242Y-77233866D01*
X190130829Y-77162990D01*
X190007014Y-77130693D01*
X189994379Y-77130333D01*
X189915570Y-77138131D01*
X189840927Y-77169275D01*
X189753280Y-77235391D01*
X189635459Y-77348104D01*
X189562779Y-77422550D01*
X189280667Y-77714767D01*
X189280667Y-79204666D01*
X188942000Y-79204666D01*
X188942000Y-78215016D01*
X188941559Y-77889282D01*
X188939059Y-77638094D01*
X188932733Y-77451333D01*
X188920815Y-77318879D01*
X188901538Y-77230613D01*
X188873136Y-77176416D01*
X188833842Y-77146167D01*
X188781889Y-77129747D01*
X188751500Y-77123725D01*
X188694840Y-77095442D01*
X188670492Y-77023162D01*
X188666834Y-76939253D01*
X188671925Y-76830534D01*
X188701542Y-76780250D01*
X188777198Y-76762223D01*
X188815000Y-76758964D01*
X188981905Y-76778401D01*
X189129918Y-76852358D01*
X189234279Y-76965041D01*
X189266046Y-77046646D01*
X189291632Y-77174577D01*
X189516449Y-76961955D01*
X189635879Y-76852190D01*
X189723571Y-76788695D01*
X189808583Y-76758815D01*
X189919972Y-76749893D01*
X190004573Y-76749333D01*
X190267880Y-76749333D01*
X190515107Y-76996560D01*
G36*
X187808356Y-76991424D02*
X188053000Y-77233516D01*
X188053000Y-78146333D01*
X186317334Y-78146333D01*
X186317334Y-78371246D01*
X186324722Y-78516239D01*
X186355112Y-78612436D01*
X186420845Y-78695033D01*
X186436067Y-78709913D01*
X186554800Y-78823666D01*
X188053000Y-78823666D01*
X188053000Y-79204666D01*
X186494270Y-79204666D01*
X186280470Y-79035667D01*
X186160944Y-78933992D01*
X186066121Y-78840341D01*
X186022669Y-78784450D01*
X186006995Y-78712877D01*
X185994101Y-78569806D01*
X185984696Y-78368379D01*
X185979487Y-78121739D01*
X185978667Y-77967874D01*
X185978667Y-77566566D01*
X186359667Y-77566566D01*
X186359667Y-77765333D01*
X187714334Y-77765333D01*
X187714334Y-77589412D01*
X187681013Y-77400653D01*
X187606346Y-77271912D01*
X187498358Y-77130333D01*
X187042766Y-77130333D01*
X186840528Y-77131286D01*
X186704165Y-77136759D01*
X186614885Y-77150670D01*
X186553899Y-77176937D01*
X186502416Y-77219480D01*
X186473420Y-77249066D01*
X186396485Y-77351690D01*
X186364000Y-77469860D01*
X186359667Y-77566566D01*
X185978667Y-77566566D01*
X185978667Y-77233516D01*
X186223311Y-76991424D01*
X186467955Y-76749333D01*
X187563712Y-76749333D01*
X187808356Y-76991424D01*
X187808356Y-76991424D01*
G37*
X187808356Y-76991424D02*
X188053000Y-77233516D01*
X188053000Y-78146333D01*
X186317334Y-78146333D01*
X186317334Y-78371246D01*
X186324722Y-78516239D01*
X186355112Y-78612436D01*
X186420845Y-78695033D01*
X186436067Y-78709913D01*
X186554800Y-78823666D01*
X188053000Y-78823666D01*
X188053000Y-79204666D01*
X186494270Y-79204666D01*
X186280470Y-79035667D01*
X186160944Y-78933992D01*
X186066121Y-78840341D01*
X186022669Y-78784450D01*
X186006995Y-78712877D01*
X185994101Y-78569806D01*
X185984696Y-78368379D01*
X185979487Y-78121739D01*
X185978667Y-77967874D01*
X185978667Y-77566566D01*
X186359667Y-77566566D01*
X186359667Y-77765333D01*
X187714334Y-77765333D01*
X187714334Y-77589412D01*
X187681013Y-77400653D01*
X187606346Y-77271912D01*
X187498358Y-77130333D01*
X187042766Y-77130333D01*
X186840528Y-77131286D01*
X186704165Y-77136759D01*
X186614885Y-77150670D01*
X186553899Y-77176937D01*
X186502416Y-77219480D01*
X186473420Y-77249066D01*
X186396485Y-77351690D01*
X186364000Y-77469860D01*
X186359667Y-77566566D01*
X185978667Y-77566566D01*
X185978667Y-77233516D01*
X186223311Y-76991424D01*
X186467955Y-76749333D01*
X187563712Y-76749333D01*
X187808356Y-76991424D01*
G36*
X183660164Y-76759916D02*
X183671500Y-77786500D01*
X183879930Y-77799702D01*
X184088359Y-77812905D01*
X184609143Y-77293372D01*
X185129926Y-76773839D01*
X185258984Y-76897484D01*
X185388041Y-77021128D01*
X184914849Y-77495667D01*
X184441656Y-77970205D01*
X184882078Y-78442307D01*
X185035609Y-78608047D01*
X185167350Y-78752477D01*
X185266988Y-78864116D01*
X185324211Y-78931483D01*
X185333756Y-78945140D01*
X185313339Y-78991055D01*
X185248624Y-79067361D01*
X185224558Y-79091273D01*
X185104103Y-79206676D01*
X184606290Y-78676504D01*
X184108476Y-78146333D01*
X183650334Y-78146333D01*
X183650334Y-79204666D01*
X183311667Y-79204666D01*
X183311667Y-75733333D01*
X183648828Y-75733333D01*
X183660164Y-76759916D01*
X183660164Y-76759916D01*
G37*
X183660164Y-76759916D02*
X183671500Y-77786500D01*
X183879930Y-77799702D01*
X184088359Y-77812905D01*
X184609143Y-77293372D01*
X185129926Y-76773839D01*
X185258984Y-76897484D01*
X185388041Y-77021128D01*
X184914849Y-77495667D01*
X184441656Y-77970205D01*
X184882078Y-78442307D01*
X185035609Y-78608047D01*
X185167350Y-78752477D01*
X185266988Y-78864116D01*
X185324211Y-78931483D01*
X185333756Y-78945140D01*
X185313339Y-78991055D01*
X185248624Y-79067361D01*
X185224558Y-79091273D01*
X185104103Y-79206676D01*
X184606290Y-78676504D01*
X184108476Y-78146333D01*
X183650334Y-78146333D01*
X183650334Y-79204666D01*
X183311667Y-79204666D01*
X183311667Y-75733333D01*
X183648828Y-75733333D01*
X183660164Y-76759916D01*
G36*
X182068666Y-76758757D02*
X182697834Y-76770500D01*
X182697834Y-77109166D01*
X182126334Y-77120969D01*
X181554834Y-77132771D01*
X181269084Y-77416167D01*
X180983334Y-77699562D01*
X180983334Y-78254437D01*
X181269084Y-78537832D01*
X181554834Y-78821228D01*
X182126334Y-78833030D01*
X182697834Y-78844833D01*
X182697834Y-79183500D01*
X182105167Y-79191318D01*
X181885417Y-79192564D01*
X181693026Y-79190567D01*
X181545376Y-79185735D01*
X181459847Y-79178476D01*
X181449000Y-79175922D01*
X181396111Y-79138620D01*
X181297132Y-79053342D01*
X181165580Y-78932240D01*
X181014972Y-78787469D01*
X180993917Y-78766773D01*
X180602334Y-78380838D01*
X180602334Y-77569514D01*
X181020916Y-77158265D01*
X181439499Y-76747015D01*
X182068666Y-76758757D01*
X182068666Y-76758757D01*
G37*
X182068666Y-76758757D02*
X182697834Y-76770500D01*
X182697834Y-77109166D01*
X182126334Y-77120969D01*
X181554834Y-77132771D01*
X181269084Y-77416167D01*
X180983334Y-77699562D01*
X180983334Y-78254437D01*
X181269084Y-78537832D01*
X181554834Y-78821228D01*
X182126334Y-78833030D01*
X182697834Y-78844833D01*
X182697834Y-79183500D01*
X182105167Y-79191318D01*
X181885417Y-79192564D01*
X181693026Y-79190567D01*
X181545376Y-79185735D01*
X181459847Y-79178476D01*
X181449000Y-79175922D01*
X181396111Y-79138620D01*
X181297132Y-79053342D01*
X181165580Y-78932240D01*
X181014972Y-78787469D01*
X180993917Y-78766773D01*
X180602334Y-78380838D01*
X180602334Y-77569514D01*
X181020916Y-77158265D01*
X181439499Y-76747015D01*
X182068666Y-76758757D01*
G36*
X179131250Y-76757482D02*
X179311167Y-76770500D01*
X179311167Y-79183500D01*
X179131250Y-79196517D01*
X178951334Y-79209534D01*
X178951334Y-76744465D01*
X179131250Y-76757482D01*
X179131250Y-76757482D01*
G37*
X179131250Y-76757482D02*
X179311167Y-76770500D01*
X179311167Y-79183500D01*
X179131250Y-79196517D01*
X178951334Y-79209534D01*
X178951334Y-76744465D01*
X179131250Y-76757482D01*
G36*
X177446105Y-76327102D02*
X177689431Y-76582204D01*
X177674799Y-76985982D01*
X177660167Y-77389761D01*
X177441064Y-77598714D01*
X177221962Y-77807666D01*
X176518343Y-77807666D01*
X177078672Y-78369150D01*
X177278594Y-78571111D01*
X177425316Y-78724301D01*
X177526734Y-78838564D01*
X177590744Y-78923744D01*
X177625244Y-78989685D01*
X177638128Y-79046229D01*
X177639000Y-79067650D01*
X177633136Y-79155424D01*
X177599307Y-79194438D01*
X177513159Y-79204397D01*
X177469667Y-79204666D01*
X177349186Y-79192162D01*
X177300854Y-79156569D01*
X177300334Y-79151237D01*
X177271559Y-79106770D01*
X177191072Y-79012508D01*
X177067630Y-78877916D01*
X176909989Y-78712462D01*
X176726904Y-78525613D01*
X176654254Y-78452737D01*
X176008174Y-77807666D01*
X175607000Y-77807666D01*
X175607000Y-79204666D01*
X175226000Y-79204666D01*
X175226000Y-76453000D01*
X175607000Y-76453000D01*
X175607000Y-77426666D01*
X176355688Y-77426666D01*
X176625518Y-77426128D01*
X176823913Y-77423555D01*
X176964104Y-77417508D01*
X177059321Y-77406549D01*
X177122795Y-77389240D01*
X177167755Y-77364143D01*
X177202355Y-77334620D01*
X177256950Y-77270362D01*
X177286806Y-77190219D01*
X177298821Y-77067936D01*
X177300334Y-76961540D01*
X177296541Y-76804083D01*
X177279525Y-76703028D01*
X177240825Y-76630245D01*
X177181600Y-76566753D01*
X177062867Y-76453000D01*
X175607000Y-76453000D01*
X175226000Y-76453000D01*
X175226000Y-76072000D01*
X176214390Y-76072000D01*
X177202779Y-76071999D01*
X177446105Y-76327102D01*
X177446105Y-76327102D01*
G37*
X177446105Y-76327102D02*
X177689431Y-76582204D01*
X177674799Y-76985982D01*
X177660167Y-77389761D01*
X177441064Y-77598714D01*
X177221962Y-77807666D01*
X176518343Y-77807666D01*
X177078672Y-78369150D01*
X177278594Y-78571111D01*
X177425316Y-78724301D01*
X177526734Y-78838564D01*
X177590744Y-78923744D01*
X177625244Y-78989685D01*
X177638128Y-79046229D01*
X177639000Y-79067650D01*
X177633136Y-79155424D01*
X177599307Y-79194438D01*
X177513159Y-79204397D01*
X177469667Y-79204666D01*
X177349186Y-79192162D01*
X177300854Y-79156569D01*
X177300334Y-79151237D01*
X177271559Y-79106770D01*
X177191072Y-79012508D01*
X177067630Y-78877916D01*
X176909989Y-78712462D01*
X176726904Y-78525613D01*
X176654254Y-78452737D01*
X176008174Y-77807666D01*
X175607000Y-77807666D01*
X175607000Y-79204666D01*
X175226000Y-79204666D01*
X175226000Y-76453000D01*
X175607000Y-76453000D01*
X175607000Y-77426666D01*
X176355688Y-77426666D01*
X176625518Y-77426128D01*
X176823913Y-77423555D01*
X176964104Y-77417508D01*
X177059321Y-77406549D01*
X177122795Y-77389240D01*
X177167755Y-77364143D01*
X177202355Y-77334620D01*
X177256950Y-77270362D01*
X177286806Y-77190219D01*
X177298821Y-77067936D01*
X177300334Y-76961540D01*
X177296541Y-76804083D01*
X177279525Y-76703028D01*
X177240825Y-76630245D01*
X177181600Y-76566753D01*
X177062867Y-76453000D01*
X175607000Y-76453000D01*
X175226000Y-76453000D01*
X175226000Y-76072000D01*
X176214390Y-76072000D01*
X177202779Y-76071999D01*
X177446105Y-76327102D01*
G36*
X172813000Y-79204666D02*
X172093334Y-79204666D01*
X172093334Y-78485000D01*
X172813000Y-78485000D01*
X172813000Y-79204666D01*
X172813000Y-79204666D01*
G37*
X172813000Y-79204666D02*
X172093334Y-79204666D01*
X172093334Y-78485000D01*
X172813000Y-78485000D01*
X172813000Y-79204666D01*
G36*
X171162000Y-76860051D02*
X171162000Y-77353404D01*
X170773202Y-77749869D01*
X170384403Y-78146333D01*
X169868327Y-78146333D01*
X169654366Y-78148483D01*
X169459609Y-78154326D01*
X169306322Y-78162956D01*
X169219959Y-78172791D01*
X169087667Y-78199250D01*
X169087667Y-79204666D01*
X168917005Y-79204666D01*
X168800095Y-79192344D01*
X168731774Y-79160730D01*
X168725952Y-79151528D01*
X168721527Y-79098142D01*
X168718051Y-78970060D01*
X168715584Y-78777248D01*
X168714184Y-78529671D01*
X168713911Y-78237296D01*
X168714825Y-77910089D01*
X168716697Y-77595778D01*
X168725166Y-76453000D01*
X169087667Y-76453000D01*
X169087667Y-77807666D01*
X170207375Y-77807666D01*
X170494188Y-77523052D01*
X170655032Y-77354912D01*
X170750919Y-77222647D01*
X170782370Y-77108453D01*
X170749904Y-76994526D01*
X170654038Y-76863062D01*
X170517640Y-76718722D01*
X170254279Y-76453000D01*
X169087667Y-76453000D01*
X168725166Y-76453000D01*
X168727834Y-76093166D01*
X169549952Y-76081644D01*
X170372070Y-76070121D01*
X171162000Y-76860051D01*
X171162000Y-76860051D01*
G37*
X171162000Y-76860051D02*
X171162000Y-77353404D01*
X170773202Y-77749869D01*
X170384403Y-78146333D01*
X169868327Y-78146333D01*
X169654366Y-78148483D01*
X169459609Y-78154326D01*
X169306322Y-78162956D01*
X169219959Y-78172791D01*
X169087667Y-78199250D01*
X169087667Y-79204666D01*
X168917005Y-79204666D01*
X168800095Y-79192344D01*
X168731774Y-79160730D01*
X168725952Y-79151528D01*
X168721527Y-79098142D01*
X168718051Y-78970060D01*
X168715584Y-78777248D01*
X168714184Y-78529671D01*
X168713911Y-78237296D01*
X168714825Y-77910089D01*
X168716697Y-77595778D01*
X168725166Y-76453000D01*
X169087667Y-76453000D01*
X169087667Y-77807666D01*
X170207375Y-77807666D01*
X170494188Y-77523052D01*
X170655032Y-77354912D01*
X170750919Y-77222647D01*
X170782370Y-77108453D01*
X170749904Y-76994526D01*
X170654038Y-76863062D01*
X170517640Y-76718722D01*
X170254279Y-76453000D01*
X169087667Y-76453000D01*
X168725166Y-76453000D01*
X168727834Y-76093166D01*
X169549952Y-76081644D01*
X170372070Y-76070121D01*
X171162000Y-76860051D01*
G36*
X165227432Y-76753912D02*
X165314805Y-76776247D01*
X165400695Y-76829237D01*
X165511337Y-76925781D01*
X165555368Y-76967140D01*
X165785667Y-77184948D01*
X165785667Y-79204666D01*
X165447000Y-79204666D01*
X165447000Y-77357840D01*
X165328267Y-77244086D01*
X165189999Y-77151114D01*
X165054395Y-77142511D01*
X164917029Y-77218277D01*
X164888400Y-77244086D01*
X164769667Y-77357840D01*
X164769667Y-79209534D01*
X164589750Y-79196517D01*
X164409834Y-79183500D01*
X164398393Y-78278664D01*
X164394030Y-77976598D01*
X164388831Y-77747124D01*
X164381641Y-77578167D01*
X164371305Y-77457652D01*
X164356671Y-77373504D01*
X164336582Y-77313649D01*
X164309886Y-77266013D01*
X164300260Y-77252081D01*
X164190001Y-77153189D01*
X164062565Y-77135550D01*
X163925015Y-77199297D01*
X163872400Y-77244086D01*
X163753667Y-77357840D01*
X163753667Y-79204666D01*
X163371368Y-79204666D01*
X163393834Y-76770500D01*
X163573750Y-76757482D01*
X163700446Y-76758746D01*
X163751913Y-76787360D01*
X163753667Y-76797699D01*
X163766038Y-76829178D01*
X163804467Y-76800133D01*
X163873531Y-76771156D01*
X163994423Y-76752763D01*
X164078160Y-76749333D01*
X164227380Y-76758114D01*
X164334503Y-76794242D01*
X164441146Y-76872395D01*
X164450694Y-76880718D01*
X164600334Y-77012104D01*
X164749973Y-76880718D01*
X164863042Y-76796172D01*
X164974490Y-76757761D01*
X165112341Y-76749333D01*
X165227432Y-76753912D01*
X165227432Y-76753912D01*
G37*
X165227432Y-76753912D02*
X165314805Y-76776247D01*
X165400695Y-76829237D01*
X165511337Y-76925781D01*
X165555368Y-76967140D01*
X165785667Y-77184948D01*
X165785667Y-79204666D01*
X165447000Y-79204666D01*
X165447000Y-77357840D01*
X165328267Y-77244086D01*
X165189999Y-77151114D01*
X165054395Y-77142511D01*
X164917029Y-77218277D01*
X164888400Y-77244086D01*
X164769667Y-77357840D01*
X164769667Y-79209534D01*
X164589750Y-79196517D01*
X164409834Y-79183500D01*
X164398393Y-78278664D01*
X164394030Y-77976598D01*
X164388831Y-77747124D01*
X164381641Y-77578167D01*
X164371305Y-77457652D01*
X164356671Y-77373504D01*
X164336582Y-77313649D01*
X164309886Y-77266013D01*
X164300260Y-77252081D01*
X164190001Y-77153189D01*
X164062565Y-77135550D01*
X163925015Y-77199297D01*
X163872400Y-77244086D01*
X163753667Y-77357840D01*
X163753667Y-79204666D01*
X163371368Y-79204666D01*
X163393834Y-76770500D01*
X163573750Y-76757482D01*
X163700446Y-76758746D01*
X163751913Y-76787360D01*
X163753667Y-76797699D01*
X163766038Y-76829178D01*
X163804467Y-76800133D01*
X163873531Y-76771156D01*
X163994423Y-76752763D01*
X164078160Y-76749333D01*
X164227380Y-76758114D01*
X164334503Y-76794242D01*
X164441146Y-76872395D01*
X164450694Y-76880718D01*
X164600334Y-77012104D01*
X164749973Y-76880718D01*
X164863042Y-76796172D01*
X164974490Y-76757761D01*
X165112341Y-76749333D01*
X165227432Y-76753912D01*
G36*
X162780000Y-77213201D02*
X162780000Y-78823666D01*
X163118667Y-78823666D01*
X163118667Y-79204666D01*
X161154959Y-79204666D01*
X160930313Y-78972732D01*
X160816631Y-78852652D01*
X160749717Y-78765618D01*
X160717177Y-78684108D01*
X160706617Y-78580601D01*
X160706010Y-78512324D01*
X161050582Y-78512324D01*
X161108307Y-78646000D01*
X161158087Y-78704933D01*
X161206339Y-78752858D01*
X161253813Y-78785761D01*
X161316620Y-78806468D01*
X161410874Y-78817802D01*
X161552689Y-78822588D01*
X161758176Y-78823651D01*
X161835420Y-78823666D01*
X162399000Y-78823666D01*
X162399000Y-78104000D01*
X161323531Y-78104000D01*
X161183932Y-78239304D01*
X161075661Y-78379086D01*
X161050582Y-78512324D01*
X160706010Y-78512324D01*
X160705667Y-78473869D01*
X160707893Y-78335299D01*
X160723104Y-78240674D01*
X160764101Y-78162072D01*
X160843684Y-78071567D01*
X160929248Y-77986137D01*
X161152829Y-77765333D01*
X162399000Y-77765333D01*
X162399000Y-77539879D01*
X162390548Y-77390138D01*
X162358736Y-77292567D01*
X162301022Y-77222379D01*
X162255603Y-77185299D01*
X162201646Y-77159745D01*
X162123530Y-77143596D01*
X162005630Y-77134728D01*
X161832323Y-77131018D01*
X161623688Y-77130333D01*
X161044334Y-77130333D01*
X161044334Y-76749333D01*
X162330708Y-76749333D01*
X162780000Y-77213201D01*
X162780000Y-77213201D01*
G37*
X162780000Y-77213201D02*
X162780000Y-78823666D01*
X163118667Y-78823666D01*
X163118667Y-79204666D01*
X161154959Y-79204666D01*
X160930313Y-78972732D01*
X160816631Y-78852652D01*
X160749717Y-78765618D01*
X160717177Y-78684108D01*
X160706617Y-78580601D01*
X160706010Y-78512324D01*
X161050582Y-78512324D01*
X161108307Y-78646000D01*
X161158087Y-78704933D01*
X161206339Y-78752858D01*
X161253813Y-78785761D01*
X161316620Y-78806468D01*
X161410874Y-78817802D01*
X161552689Y-78822588D01*
X161758176Y-78823651D01*
X161835420Y-78823666D01*
X162399000Y-78823666D01*
X162399000Y-78104000D01*
X161323531Y-78104000D01*
X161183932Y-78239304D01*
X161075661Y-78379086D01*
X161050582Y-78512324D01*
X160706010Y-78512324D01*
X160705667Y-78473869D01*
X160707893Y-78335299D01*
X160723104Y-78240674D01*
X160764101Y-78162072D01*
X160843684Y-78071567D01*
X160929248Y-77986137D01*
X161152829Y-77765333D01*
X162399000Y-77765333D01*
X162399000Y-77539879D01*
X162390548Y-77390138D01*
X162358736Y-77292567D01*
X162301022Y-77222379D01*
X162255603Y-77185299D01*
X162201646Y-77159745D01*
X162123530Y-77143596D01*
X162005630Y-77134728D01*
X161832323Y-77131018D01*
X161623688Y-77130333D01*
X161044334Y-77130333D01*
X161044334Y-76749333D01*
X162330708Y-76749333D01*
X162780000Y-77213201D01*
G36*
X159393334Y-79204666D02*
X159222672Y-79204666D01*
X159104961Y-79192195D01*
X159036951Y-79160041D01*
X159031473Y-79151149D01*
X159026479Y-79096163D01*
X159022737Y-78968000D01*
X159020334Y-78778142D01*
X159019358Y-78538070D01*
X159019896Y-78259267D01*
X159022035Y-77953213D01*
X159022218Y-77934065D01*
X159033500Y-76770500D01*
X159213417Y-76757482D01*
X159393334Y-76744465D01*
X159393334Y-79204666D01*
X159393334Y-79204666D01*
G37*
X159393334Y-79204666D02*
X159222672Y-79204666D01*
X159104961Y-79192195D01*
X159036951Y-79160041D01*
X159031473Y-79151149D01*
X159026479Y-79096163D01*
X159022737Y-78968000D01*
X159020334Y-78778142D01*
X159019358Y-78538070D01*
X159019896Y-78259267D01*
X159022035Y-77953213D01*
X159022218Y-77934065D01*
X159033500Y-76770500D01*
X159213417Y-76757482D01*
X159393334Y-76744465D01*
X159393334Y-79204666D01*
G36*
X156736389Y-77267916D02*
X156747500Y-78802500D01*
X156906250Y-78815638D01*
X157004275Y-78827923D01*
X157050360Y-78859727D01*
X157064111Y-78935888D01*
X157065000Y-79016722D01*
X157065000Y-79204666D01*
X156861925Y-79204666D01*
X156731064Y-79196737D01*
X156636522Y-79161633D01*
X156540248Y-79082377D01*
X156502092Y-79044131D01*
X156345334Y-78883596D01*
X156345334Y-75733333D01*
X156725277Y-75733333D01*
X156736389Y-77267916D01*
X156736389Y-77267916D01*
G37*
X156736389Y-77267916D02*
X156747500Y-78802500D01*
X156906250Y-78815638D01*
X157004275Y-78827923D01*
X157050360Y-78859727D01*
X157064111Y-78935888D01*
X157065000Y-79016722D01*
X157065000Y-79204666D01*
X156861925Y-79204666D01*
X156731064Y-79196737D01*
X156636522Y-79161633D01*
X156540248Y-79082377D01*
X156502092Y-79044131D01*
X156345334Y-78883596D01*
X156345334Y-75733333D01*
X156725277Y-75733333D01*
X156736389Y-77267916D01*
G36*
X154027055Y-77267916D02*
X154038167Y-78802500D01*
X154402619Y-78828760D01*
X154389726Y-79006130D01*
X154376834Y-79183500D01*
X154179682Y-79196242D01*
X154043822Y-79195617D01*
X153943629Y-79161700D01*
X153834609Y-79079098D01*
X153830432Y-79075440D01*
X153678334Y-78941895D01*
X153678334Y-75733333D01*
X154015944Y-75733333D01*
X154027055Y-77267916D01*
X154027055Y-77267916D01*
G37*
X154027055Y-77267916D02*
X154038167Y-78802500D01*
X154402619Y-78828760D01*
X154389726Y-79006130D01*
X154376834Y-79183500D01*
X154179682Y-79196242D01*
X154043822Y-79195617D01*
X153943629Y-79161700D01*
X153834609Y-79079098D01*
X153830432Y-79075440D01*
X153678334Y-78941895D01*
X153678334Y-75733333D01*
X154015944Y-75733333D01*
X154027055Y-77267916D01*
G36*
X151350000Y-79204666D02*
X151179338Y-79204666D01*
X151061628Y-79192195D01*
X150993617Y-79160041D01*
X150988140Y-79151149D01*
X150983145Y-79096163D01*
X150979403Y-78968000D01*
X150977001Y-78778142D01*
X150976025Y-78538070D01*
X150976563Y-78259267D01*
X150978702Y-77953213D01*
X150978885Y-77934065D01*
X150990167Y-76770500D01*
X151170084Y-76757482D01*
X151350000Y-76744465D01*
X151350000Y-79204666D01*
X151350000Y-79204666D01*
G37*
X151350000Y-79204666D02*
X151179338Y-79204666D01*
X151061628Y-79192195D01*
X150993617Y-79160041D01*
X150988140Y-79151149D01*
X150983145Y-79096163D01*
X150979403Y-78968000D01*
X150977001Y-78778142D01*
X150976025Y-78538070D01*
X150976563Y-78259267D01*
X150978702Y-77953213D01*
X150978885Y-77934065D01*
X150990167Y-76770500D01*
X151170084Y-76757482D01*
X151350000Y-76744465D01*
X151350000Y-79204666D01*
G36*
X149699000Y-78769051D02*
X149468701Y-78986859D01*
X149349518Y-79092475D01*
X149247866Y-79169871D01*
X149183560Y-79204153D01*
X149178929Y-79204666D01*
X149108779Y-79175504D01*
X149038811Y-79115256D01*
X148967348Y-79043725D01*
X148854584Y-78938983D01*
X148723783Y-78822592D01*
X148711881Y-78812248D01*
X148465596Y-78598651D01*
X148160552Y-78901659D01*
X148026044Y-79029320D01*
X147908118Y-79130426D01*
X147822582Y-79191995D01*
X147791559Y-79204666D01*
X147732258Y-79176161D01*
X147635268Y-79100995D01*
X147520359Y-78994691D01*
X147506804Y-78981085D01*
X147286000Y-78757504D01*
X147286000Y-76072000D01*
X147624667Y-76072000D01*
X147624667Y-77335438D01*
X147624884Y-77696052D01*
X147625944Y-77981513D01*
X147628455Y-78201331D01*
X147633030Y-78365021D01*
X147640278Y-78482094D01*
X147650810Y-78562064D01*
X147665237Y-78614441D01*
X147684169Y-78648740D01*
X147708216Y-78674472D01*
X147710757Y-78676788D01*
X147755175Y-78712224D01*
X147796184Y-78719903D01*
X147849865Y-78691658D01*
X147932298Y-78619320D01*
X148049424Y-78504757D01*
X148302000Y-78254817D01*
X148302000Y-77469000D01*
X148683000Y-77469000D01*
X148685709Y-77881750D01*
X148688417Y-78294500D01*
X148940180Y-78521542D01*
X149039505Y-78610633D01*
X149119584Y-78675833D01*
X149182574Y-78710729D01*
X149230633Y-78708911D01*
X149265918Y-78663967D01*
X149290586Y-78569486D01*
X149306795Y-78419056D01*
X149316701Y-78206266D01*
X149322464Y-77924705D01*
X149326238Y-77567960D01*
X149327970Y-77369075D01*
X149339167Y-76093166D01*
X149519084Y-76080149D01*
X149699000Y-76067131D01*
X149699000Y-78769051D01*
X149699000Y-78769051D01*
G37*
X149699000Y-78769051D02*
X149468701Y-78986859D01*
X149349518Y-79092475D01*
X149247866Y-79169871D01*
X149183560Y-79204153D01*
X149178929Y-79204666D01*
X149108779Y-79175504D01*
X149038811Y-79115256D01*
X148967348Y-79043725D01*
X148854584Y-78938983D01*
X148723783Y-78822592D01*
X148711881Y-78812248D01*
X148465596Y-78598651D01*
X148160552Y-78901659D01*
X148026044Y-79029320D01*
X147908118Y-79130426D01*
X147822582Y-79191995D01*
X147791559Y-79204666D01*
X147732258Y-79176161D01*
X147635268Y-79100995D01*
X147520359Y-78994691D01*
X147506804Y-78981085D01*
X147286000Y-78757504D01*
X147286000Y-76072000D01*
X147624667Y-76072000D01*
X147624667Y-77335438D01*
X147624884Y-77696052D01*
X147625944Y-77981513D01*
X147628455Y-78201331D01*
X147633030Y-78365021D01*
X147640278Y-78482094D01*
X147650810Y-78562064D01*
X147665237Y-78614441D01*
X147684169Y-78648740D01*
X147708216Y-78674472D01*
X147710757Y-78676788D01*
X147755175Y-78712224D01*
X147796184Y-78719903D01*
X147849865Y-78691658D01*
X147932298Y-78619320D01*
X148049424Y-78504757D01*
X148302000Y-78254817D01*
X148302000Y-77469000D01*
X148683000Y-77469000D01*
X148685709Y-77881750D01*
X148688417Y-78294500D01*
X148940180Y-78521542D01*
X149039505Y-78610633D01*
X149119584Y-78675833D01*
X149182574Y-78710729D01*
X149230633Y-78708911D01*
X149265918Y-78663967D01*
X149290586Y-78569486D01*
X149306795Y-78419056D01*
X149316701Y-78206266D01*
X149322464Y-77924705D01*
X149326238Y-77567960D01*
X149327970Y-77369075D01*
X149339167Y-76093166D01*
X149519084Y-76080149D01*
X149699000Y-76067131D01*
X149699000Y-78769051D01*
D12*
X137100000Y-100660000D02*
X138100000Y-100660000D01*
X138100000Y-98960000D02*
X137100000Y-98960000D01*
X137000000Y-102090000D02*
X138200000Y-102090000D01*
X138200000Y-103850000D02*
X137000000Y-103850000D01*
D11*
X124333333Y-106857142D02*
X124285714Y-106904761D01*
X124142857Y-106952380D01*
X124047619Y-106952380D01*
X123904761Y-106904761D01*
X123809523Y-106809523D01*
X123761904Y-106714285D01*
X123714285Y-106523809D01*
X123714285Y-106380952D01*
X123761904Y-106190476D01*
X123809523Y-106095238D01*
X123904761Y-106000000D01*
X124047619Y-105952380D01*
X124142857Y-105952380D01*
X124285714Y-106000000D01*
X124333333Y-106047619D01*
X124666666Y-105952380D02*
X125285714Y-105952380D01*
X124952380Y-106333333D01*
X125095238Y-106333333D01*
X125190476Y-106380952D01*
X125238095Y-106428571D01*
X125285714Y-106523809D01*
X125285714Y-106761904D01*
X125238095Y-106857142D01*
X125190476Y-106904761D01*
X125095238Y-106952380D01*
X124809523Y-106952380D01*
X124714285Y-106904761D01*
X124666666Y-106857142D01*
X121333333Y-101357142D02*
X121285714Y-101404761D01*
X121142857Y-101452380D01*
X121047619Y-101452380D01*
X120904761Y-101404761D01*
X120809523Y-101309523D01*
X120761904Y-101214285D01*
X120714285Y-101023809D01*
X120714285Y-100880952D01*
X120761904Y-100690476D01*
X120809523Y-100595238D01*
X120904761Y-100500000D01*
X121047619Y-100452380D01*
X121142857Y-100452380D01*
X121285714Y-100500000D01*
X121333333Y-100547619D01*
X122285714Y-101452380D02*
X121714285Y-101452380D01*
X122000000Y-101452380D02*
X122000000Y-100452380D01*
X121904761Y-100595238D01*
X121809523Y-100690476D01*
X121714285Y-100738095D01*
X134833333Y-111857142D02*
X134785714Y-111904761D01*
X134642857Y-111952380D01*
X134547619Y-111952380D01*
X134404761Y-111904761D01*
X134309523Y-111809523D01*
X134261904Y-111714285D01*
X134214285Y-111523809D01*
X134214285Y-111380952D01*
X134261904Y-111190476D01*
X134309523Y-111095238D01*
X134404761Y-111000000D01*
X134547619Y-110952380D01*
X134642857Y-110952380D01*
X134785714Y-111000000D01*
X134833333Y-111047619D01*
X135166666Y-110952380D02*
X135833333Y-110952380D01*
X135404761Y-111952380D01*
X131333333Y-111857142D02*
X131285714Y-111904761D01*
X131142857Y-111952380D01*
X131047619Y-111952380D01*
X130904761Y-111904761D01*
X130809523Y-111809523D01*
X130761904Y-111714285D01*
X130714285Y-111523809D01*
X130714285Y-111380952D01*
X130761904Y-111190476D01*
X130809523Y-111095238D01*
X130904761Y-111000000D01*
X131047619Y-110952380D01*
X131142857Y-110952380D01*
X131285714Y-111000000D01*
X131333333Y-111047619D01*
X132190476Y-110952380D02*
X132000000Y-110952380D01*
X131904761Y-111000000D01*
X131857142Y-111047619D01*
X131761904Y-111190476D01*
X131714285Y-111380952D01*
X131714285Y-111761904D01*
X131761904Y-111857142D01*
X131809523Y-111904761D01*
X131904761Y-111952380D01*
X132095238Y-111952380D01*
X132190476Y-111904761D01*
X132238095Y-111857142D01*
X132285714Y-111761904D01*
X132285714Y-111523809D01*
X132238095Y-111428571D01*
X132190476Y-111380952D01*
X132095238Y-111333333D01*
X131904761Y-111333333D01*
X131809523Y-111380952D01*
X131761904Y-111428571D01*
X131714285Y-111523809D01*
X124333333Y-111857142D02*
X124285714Y-111904761D01*
X124142857Y-111952380D01*
X124047619Y-111952380D01*
X123904761Y-111904761D01*
X123809523Y-111809523D01*
X123761904Y-111714285D01*
X123714285Y-111523809D01*
X123714285Y-111380952D01*
X123761904Y-111190476D01*
X123809523Y-111095238D01*
X123904761Y-111000000D01*
X124047619Y-110952380D01*
X124142857Y-110952380D01*
X124285714Y-111000000D01*
X124333333Y-111047619D01*
X125190476Y-111285714D02*
X125190476Y-111952380D01*
X124952380Y-110904761D02*
X124714285Y-111619047D01*
X125333333Y-111619047D01*
X124333333Y-101357142D02*
X124285714Y-101404761D01*
X124142857Y-101452380D01*
X124047619Y-101452380D01*
X123904761Y-101404761D01*
X123809523Y-101309523D01*
X123761904Y-101214285D01*
X123714285Y-101023809D01*
X123714285Y-100880952D01*
X123761904Y-100690476D01*
X123809523Y-100595238D01*
X123904761Y-100500000D01*
X124047619Y-100452380D01*
X124142857Y-100452380D01*
X124285714Y-100500000D01*
X124333333Y-100547619D01*
X124714285Y-100547619D02*
X124761904Y-100500000D01*
X124857142Y-100452380D01*
X125095238Y-100452380D01*
X125190476Y-100500000D01*
X125238095Y-100547619D01*
X125285714Y-100642857D01*
X125285714Y-100738095D01*
X125238095Y-100880952D01*
X124666666Y-101452380D01*
X125285714Y-101452380D01*
X127833333Y-111857142D02*
X127785714Y-111904761D01*
X127642857Y-111952380D01*
X127547619Y-111952380D01*
X127404761Y-111904761D01*
X127309523Y-111809523D01*
X127261904Y-111714285D01*
X127214285Y-111523809D01*
X127214285Y-111380952D01*
X127261904Y-111190476D01*
X127309523Y-111095238D01*
X127404761Y-111000000D01*
X127547619Y-110952380D01*
X127642857Y-110952380D01*
X127785714Y-111000000D01*
X127833333Y-111047619D01*
X128738095Y-110952380D02*
X128261904Y-110952380D01*
X128214285Y-111428571D01*
X128261904Y-111380952D01*
X128357142Y-111333333D01*
X128595238Y-111333333D01*
X128690476Y-111380952D01*
X128738095Y-111428571D01*
X128785714Y-111523809D01*
X128785714Y-111761904D01*
X128738095Y-111857142D01*
X128690476Y-111904761D01*
X128595238Y-111952380D01*
X128357142Y-111952380D01*
X128261904Y-111904761D01*
X128214285Y-111857142D01*
X130333333Y-96857142D02*
X130285714Y-96904761D01*
X130142857Y-96952380D01*
X130047619Y-96952380D01*
X129904761Y-96904761D01*
X129809523Y-96809523D01*
X129761904Y-96714285D01*
X129714285Y-96523809D01*
X129714285Y-96380952D01*
X129761904Y-96190476D01*
X129809523Y-96095238D01*
X129904761Y-96000000D01*
X130047619Y-95952380D01*
X130142857Y-95952380D01*
X130285714Y-96000000D01*
X130333333Y-96047619D01*
X130904761Y-96380952D02*
X130809523Y-96333333D01*
X130761904Y-96285714D01*
X130714285Y-96190476D01*
X130714285Y-96142857D01*
X130761904Y-96047619D01*
X130809523Y-96000000D01*
X130904761Y-95952380D01*
X131095238Y-95952380D01*
X131190476Y-96000000D01*
X131238095Y-96047619D01*
X131285714Y-96142857D01*
X131285714Y-96190476D01*
X131238095Y-96285714D01*
X131190476Y-96333333D01*
X131095238Y-96380952D01*
X130904761Y-96380952D01*
X130809523Y-96428571D01*
X130761904Y-96476190D01*
X130714285Y-96571428D01*
X130714285Y-96761904D01*
X130761904Y-96857142D01*
X130809523Y-96904761D01*
X130904761Y-96952380D01*
X131095238Y-96952380D01*
X131190476Y-96904761D01*
X131238095Y-96857142D01*
X131285714Y-96761904D01*
X131285714Y-96571428D01*
X131238095Y-96476190D01*
X131190476Y-96428571D01*
X131095238Y-96380952D01*
X133833333Y-96857142D02*
X133785714Y-96904761D01*
X133642857Y-96952380D01*
X133547619Y-96952380D01*
X133404761Y-96904761D01*
X133309523Y-96809523D01*
X133261904Y-96714285D01*
X133214285Y-96523809D01*
X133214285Y-96380952D01*
X133261904Y-96190476D01*
X133309523Y-96095238D01*
X133404761Y-96000000D01*
X133547619Y-95952380D01*
X133642857Y-95952380D01*
X133785714Y-96000000D01*
X133833333Y-96047619D01*
X134309523Y-96952380D02*
X134500000Y-96952380D01*
X134595238Y-96904761D01*
X134642857Y-96857142D01*
X134738095Y-96714285D01*
X134785714Y-96523809D01*
X134785714Y-96142857D01*
X134738095Y-96047619D01*
X134690476Y-96000000D01*
X134595238Y-95952380D01*
X134404761Y-95952380D01*
X134309523Y-96000000D01*
X134261904Y-96047619D01*
X134214285Y-96142857D01*
X134214285Y-96380952D01*
X134261904Y-96476190D01*
X134309523Y-96523809D01*
X134404761Y-96571428D01*
X134595238Y-96571428D01*
X134690476Y-96523809D01*
X134738095Y-96476190D01*
X134785714Y-96380952D01*
X147223275Y-94867098D02*
X146516168Y-94159992D01*
X146684527Y-93991633D01*
X146819214Y-93924289D01*
X146953901Y-93924289D01*
X147054916Y-93957961D01*
X147223275Y-94058976D01*
X147324290Y-94159992D01*
X147425306Y-94328350D01*
X147458977Y-94429366D01*
X147458977Y-94564053D01*
X147391634Y-94698740D01*
X147223275Y-94867098D01*
X148300771Y-93789602D02*
X147896710Y-94193663D01*
X148098741Y-93991633D02*
X147391634Y-93284526D01*
X147425306Y-93452885D01*
X147425306Y-93587572D01*
X147391634Y-93688587D01*
X161223275Y-109867098D02*
X160516168Y-109159992D01*
X160684527Y-108991633D01*
X160819214Y-108924289D01*
X160953901Y-108924289D01*
X161054916Y-108957961D01*
X161223275Y-109058976D01*
X161324290Y-109159992D01*
X161425306Y-109328350D01*
X161458977Y-109429366D01*
X161458977Y-109564053D01*
X161391634Y-109698740D01*
X161223275Y-109867098D01*
X161256947Y-108553900D02*
X161256947Y-108486556D01*
X161290618Y-108385541D01*
X161458977Y-108217182D01*
X161559993Y-108183511D01*
X161627336Y-108183511D01*
X161728351Y-108217182D01*
X161795695Y-108284526D01*
X161863038Y-108419213D01*
X161863038Y-109227335D01*
X162300771Y-108789602D01*
X147223275Y-109867098D02*
X146516168Y-109159992D01*
X146684527Y-108991633D01*
X146819214Y-108924289D01*
X146953901Y-108924289D01*
X147054916Y-108957961D01*
X147223275Y-109058976D01*
X147324290Y-109159992D01*
X147425306Y-109328350D01*
X147458977Y-109429366D01*
X147458977Y-109564053D01*
X147391634Y-109698740D01*
X147223275Y-109867098D01*
X147155931Y-108520228D02*
X147593664Y-108082495D01*
X147627336Y-108587572D01*
X147728351Y-108486556D01*
X147829367Y-108452885D01*
X147896710Y-108452885D01*
X147997725Y-108486556D01*
X148166084Y-108654915D01*
X148199756Y-108755930D01*
X148199756Y-108823274D01*
X148166084Y-108924289D01*
X147964054Y-109126320D01*
X147863038Y-109159992D01*
X147795695Y-109159992D01*
X161223275Y-94867098D02*
X160516168Y-94159992D01*
X160684527Y-93991633D01*
X160819214Y-93924289D01*
X160953901Y-93924289D01*
X161054916Y-93957961D01*
X161223275Y-94058976D01*
X161324290Y-94159992D01*
X161425306Y-94328350D01*
X161458977Y-94429366D01*
X161458977Y-94564053D01*
X161391634Y-94698740D01*
X161223275Y-94867098D01*
X161762023Y-93385541D02*
X162233428Y-93856946D01*
X161324290Y-93284526D02*
X161661008Y-93957961D01*
X162098741Y-93520228D01*
X154223275Y-102367098D02*
X153516168Y-101659992D01*
X153684527Y-101491633D01*
X153819214Y-101424289D01*
X153953901Y-101424289D01*
X154054916Y-101457961D01*
X154223275Y-101558976D01*
X154324290Y-101659992D01*
X154425306Y-101828350D01*
X154458977Y-101929366D01*
X154458977Y-102064053D01*
X154391634Y-102198740D01*
X154223275Y-102367098D01*
X154559993Y-100616167D02*
X154223275Y-100952885D01*
X154526321Y-101323274D01*
X154526321Y-101255930D01*
X154559993Y-101154915D01*
X154728351Y-100986556D01*
X154829367Y-100952885D01*
X154896710Y-100952885D01*
X154997725Y-100986556D01*
X155166084Y-101154915D01*
X155199756Y-101255930D01*
X155199756Y-101323274D01*
X155166084Y-101424289D01*
X154997725Y-101592648D01*
X154896710Y-101626320D01*
X154829367Y-101626320D01*
X147223275Y-102367098D02*
X146516168Y-101659992D01*
X146684527Y-101491633D01*
X146819214Y-101424289D01*
X146953901Y-101424289D01*
X147054916Y-101457961D01*
X147223275Y-101558976D01*
X147324290Y-101659992D01*
X147425306Y-101828350D01*
X147458977Y-101929366D01*
X147458977Y-102064053D01*
X147391634Y-102198740D01*
X147223275Y-102367098D01*
X147526321Y-100649839D02*
X147391634Y-100784526D01*
X147357962Y-100885541D01*
X147357962Y-100952885D01*
X147391634Y-101121243D01*
X147492649Y-101289602D01*
X147762023Y-101558976D01*
X147863038Y-101592648D01*
X147930382Y-101592648D01*
X148031397Y-101558976D01*
X148166084Y-101424289D01*
X148199756Y-101323274D01*
X148199756Y-101255930D01*
X148166084Y-101154915D01*
X147997725Y-100986556D01*
X147896710Y-100952885D01*
X147829367Y-100952885D01*
X147728351Y-100986556D01*
X147593664Y-101121243D01*
X147559993Y-101222259D01*
X147559993Y-101289602D01*
X147593664Y-101390617D01*
X161223275Y-102367098D02*
X160516168Y-101659992D01*
X160684527Y-101491633D01*
X160819214Y-101424289D01*
X160953901Y-101424289D01*
X161054916Y-101457961D01*
X161223275Y-101558976D01*
X161324290Y-101659992D01*
X161425306Y-101828350D01*
X161458977Y-101929366D01*
X161458977Y-102064053D01*
X161391634Y-102198740D01*
X161223275Y-102367098D01*
X161155931Y-101020228D02*
X161627336Y-100548824D01*
X162031397Y-101558976D01*
X173723275Y-94867098D02*
X173016168Y-94159992D01*
X173184527Y-93991633D01*
X173319214Y-93924289D01*
X173453901Y-93924289D01*
X173554916Y-93957961D01*
X173723275Y-94058976D01*
X173824290Y-94159992D01*
X173925306Y-94328350D01*
X173958977Y-94429366D01*
X173958977Y-94564053D01*
X173891634Y-94698740D01*
X173723275Y-94867098D01*
X174127336Y-93654915D02*
X174026321Y-93688587D01*
X173958977Y-93688587D01*
X173857962Y-93654915D01*
X173824290Y-93621243D01*
X173790618Y-93520228D01*
X173790618Y-93452885D01*
X173824290Y-93351869D01*
X173958977Y-93217182D01*
X174059993Y-93183511D01*
X174127336Y-93183511D01*
X174228351Y-93217182D01*
X174262023Y-93250854D01*
X174295695Y-93351869D01*
X174295695Y-93419213D01*
X174262023Y-93520228D01*
X174127336Y-93654915D01*
X174093664Y-93755930D01*
X174093664Y-93823274D01*
X174127336Y-93924289D01*
X174262023Y-94058976D01*
X174363038Y-94092648D01*
X174430382Y-94092648D01*
X174531397Y-94058976D01*
X174666084Y-93924289D01*
X174699756Y-93823274D01*
X174699756Y-93755930D01*
X174666084Y-93654915D01*
X174531397Y-93520228D01*
X174430382Y-93486556D01*
X174363038Y-93486556D01*
X174262023Y-93520228D01*
X187823274Y-109867098D02*
X187116167Y-109159992D01*
X187284526Y-108991633D01*
X187419213Y-108924289D01*
X187553900Y-108924289D01*
X187654915Y-108957961D01*
X187823274Y-109058976D01*
X187924289Y-109159992D01*
X188025305Y-109328350D01*
X188058976Y-109429366D01*
X188058976Y-109564053D01*
X187991633Y-109698740D01*
X187823274Y-109867098D01*
X188564053Y-109126320D02*
X188698740Y-108991633D01*
X188732411Y-108890617D01*
X188732411Y-108823274D01*
X188698740Y-108654915D01*
X188597724Y-108486556D01*
X188328350Y-108217182D01*
X188227335Y-108183511D01*
X188159992Y-108183511D01*
X188058976Y-108217182D01*
X187924289Y-108351869D01*
X187890617Y-108452885D01*
X187890617Y-108520228D01*
X187924289Y-108621243D01*
X188092648Y-108789602D01*
X188193663Y-108823274D01*
X188261007Y-108823274D01*
X188362022Y-108789602D01*
X188496709Y-108654915D01*
X188530381Y-108553900D01*
X188530381Y-108486556D01*
X188496709Y-108385541D01*
X173386557Y-110203816D02*
X172679451Y-109496709D01*
X172847809Y-109328350D01*
X172982496Y-109261007D01*
X173117183Y-109261007D01*
X173218199Y-109294679D01*
X173386557Y-109395694D01*
X173487573Y-109496709D01*
X173588588Y-109665068D01*
X173622260Y-109766083D01*
X173622260Y-109900770D01*
X173554916Y-110035457D01*
X173386557Y-110203816D01*
X174464054Y-109126320D02*
X174059993Y-109530381D01*
X174262023Y-109328350D02*
X173554916Y-108621243D01*
X173588588Y-108789602D01*
X173588588Y-108924289D01*
X173554916Y-109025305D01*
X174194680Y-107981480D02*
X174262023Y-107914137D01*
X174363038Y-107880465D01*
X174430382Y-107880465D01*
X174531397Y-107914137D01*
X174699756Y-108015152D01*
X174868115Y-108183511D01*
X174969130Y-108351869D01*
X175002802Y-108452885D01*
X175002802Y-108520228D01*
X174969130Y-108621243D01*
X174901786Y-108688587D01*
X174800771Y-108722259D01*
X174733428Y-108722259D01*
X174632412Y-108688587D01*
X174464054Y-108587572D01*
X174295695Y-108419213D01*
X174194680Y-108250854D01*
X174161008Y-108149839D01*
X174161008Y-108082495D01*
X174194680Y-107981480D01*
X187486556Y-95203816D02*
X186779450Y-94496709D01*
X186947808Y-94328350D01*
X187082495Y-94261007D01*
X187217182Y-94261007D01*
X187318198Y-94294679D01*
X187486556Y-94395694D01*
X187587572Y-94496709D01*
X187688587Y-94665068D01*
X187722259Y-94766083D01*
X187722259Y-94900770D01*
X187654915Y-95035457D01*
X187486556Y-95203816D01*
X188564053Y-94126320D02*
X188159992Y-94530381D01*
X188362022Y-94328350D02*
X187654915Y-93621243D01*
X187688587Y-93789602D01*
X187688587Y-93924289D01*
X187654915Y-94025305D01*
X189237488Y-93452885D02*
X188833427Y-93856946D01*
X189035457Y-93654915D02*
X188328350Y-92947808D01*
X188362022Y-93116167D01*
X188362022Y-93250854D01*
X188328350Y-93351869D01*
X180386557Y-102703816D02*
X179679451Y-101996709D01*
X179847809Y-101828350D01*
X179982496Y-101761007D01*
X180117183Y-101761007D01*
X180218199Y-101794679D01*
X180386557Y-101895694D01*
X180487573Y-101996709D01*
X180588588Y-102165068D01*
X180622260Y-102266083D01*
X180622260Y-102400770D01*
X180554916Y-102535457D01*
X180386557Y-102703816D01*
X181464054Y-101626320D02*
X181059993Y-102030381D01*
X181262023Y-101828350D02*
X180554916Y-101121243D01*
X180588588Y-101289602D01*
X180588588Y-101424289D01*
X180554916Y-101525305D01*
X181093664Y-100717182D02*
X181093664Y-100649839D01*
X181127336Y-100548824D01*
X181295695Y-100380465D01*
X181396710Y-100346793D01*
X181464054Y-100346793D01*
X181565069Y-100380465D01*
X181632412Y-100447808D01*
X181699756Y-100582495D01*
X181699756Y-101390617D01*
X182137489Y-100952885D01*
X173386557Y-102703816D02*
X172679451Y-101996709D01*
X172847809Y-101828350D01*
X172982496Y-101761007D01*
X173117183Y-101761007D01*
X173218199Y-101794679D01*
X173386557Y-101895694D01*
X173487573Y-101996709D01*
X173588588Y-102165068D01*
X173622260Y-102266083D01*
X173622260Y-102400770D01*
X173554916Y-102535457D01*
X173386557Y-102703816D01*
X174464054Y-101626320D02*
X174059993Y-102030381D01*
X174262023Y-101828350D02*
X173554916Y-101121243D01*
X173588588Y-101289602D01*
X173588588Y-101424289D01*
X173554916Y-101525305D01*
X173992649Y-100683511D02*
X174430382Y-100245778D01*
X174464054Y-100750854D01*
X174565069Y-100649839D01*
X174666084Y-100616167D01*
X174733428Y-100616167D01*
X174834443Y-100649839D01*
X175002802Y-100818198D01*
X175036473Y-100919213D01*
X175036473Y-100986556D01*
X175002802Y-101087572D01*
X174800771Y-101289602D01*
X174699756Y-101323274D01*
X174632412Y-101323274D01*
X187486556Y-102703816D02*
X186779450Y-101996709D01*
X186947808Y-101828350D01*
X187082495Y-101761007D01*
X187217182Y-101761007D01*
X187318198Y-101794679D01*
X187486556Y-101895694D01*
X187587572Y-101996709D01*
X187688587Y-102165068D01*
X187722259Y-102266083D01*
X187722259Y-102400770D01*
X187654915Y-102535457D01*
X187486556Y-102703816D01*
X188564053Y-101626320D02*
X188159992Y-102030381D01*
X188362022Y-101828350D02*
X187654915Y-101121243D01*
X187688587Y-101289602D01*
X187688587Y-101424289D01*
X187654915Y-101525305D01*
X188698740Y-100548824D02*
X189170144Y-101020228D01*
X188261007Y-100447808D02*
X188597724Y-101121243D01*
X189035457Y-100683511D01*
X130238095Y-97087380D02*
X130238095Y-97896904D01*
X130285714Y-97992142D01*
X130333333Y-98039761D01*
X130428571Y-98087380D01*
X130619047Y-98087380D01*
X130714285Y-98039761D01*
X130761904Y-97992142D01*
X130809523Y-97896904D01*
X130809523Y-97087380D01*
X131809523Y-98087380D02*
X131238095Y-98087380D01*
X131523809Y-98087380D02*
X131523809Y-97087380D01*
X131428571Y-97230238D01*
X131333333Y-97325476D01*
X131238095Y-97373095D01*
X115638333Y-126804523D02*
X115215000Y-126199761D01*
X114912619Y-126804523D02*
X114912619Y-125534523D01*
X115396428Y-125534523D01*
X115517380Y-125595000D01*
X115577857Y-125655476D01*
X115638333Y-125776428D01*
X115638333Y-125957857D01*
X115577857Y-126078809D01*
X115517380Y-126139285D01*
X115396428Y-126199761D01*
X114912619Y-126199761D01*
X116666428Y-126744047D02*
X116545476Y-126804523D01*
X116303571Y-126804523D01*
X116182619Y-126744047D01*
X116122142Y-126623095D01*
X116122142Y-126139285D01*
X116182619Y-126018333D01*
X116303571Y-125957857D01*
X116545476Y-125957857D01*
X116666428Y-126018333D01*
X116726904Y-126139285D01*
X116726904Y-126260238D01*
X116122142Y-126381190D01*
X117089761Y-125957857D02*
X117573571Y-125957857D01*
X117271190Y-126804523D02*
X117271190Y-125715952D01*
X117331666Y-125595000D01*
X117452619Y-125534523D01*
X117573571Y-125534523D01*
X118178333Y-125534523D02*
X118178333Y-125836904D01*
X117875952Y-125715952D02*
X118178333Y-125836904D01*
X118480714Y-125715952D01*
X117996904Y-126078809D02*
X118178333Y-125836904D01*
X118359761Y-126078809D01*
X119145952Y-125534523D02*
X119145952Y-125836904D01*
X118843571Y-125715952D02*
X119145952Y-125836904D01*
X119448333Y-125715952D01*
X118964523Y-126078809D02*
X119145952Y-125836904D01*
X119327380Y-126078809D01*
X193431904Y-125254523D02*
X193855238Y-126524523D01*
X194278571Y-125254523D01*
X195246190Y-126524523D02*
X195246190Y-125859285D01*
X195185714Y-125738333D01*
X195064761Y-125677857D01*
X194822857Y-125677857D01*
X194701904Y-125738333D01*
X195246190Y-126464047D02*
X195125238Y-126524523D01*
X194822857Y-126524523D01*
X194701904Y-126464047D01*
X194641428Y-126343095D01*
X194641428Y-126222142D01*
X194701904Y-126101190D01*
X194822857Y-126040714D01*
X195125238Y-126040714D01*
X195246190Y-125980238D01*
X196032380Y-126524523D02*
X195911428Y-126464047D01*
X195850952Y-126343095D01*
X195850952Y-125254523D01*
X196697619Y-125254523D02*
X196697619Y-125556904D01*
X196395238Y-125435952D02*
X196697619Y-125556904D01*
X197000000Y-125435952D01*
X196516190Y-125798809D02*
X196697619Y-125556904D01*
X196879047Y-125798809D01*
X197665238Y-125254523D02*
X197665238Y-125556904D01*
X197362857Y-125435952D02*
X197665238Y-125556904D01*
X197967619Y-125435952D01*
X197483809Y-125798809D02*
X197665238Y-125556904D01*
X197846666Y-125798809D01*
X136957142Y-101667142D02*
X136909523Y-101714761D01*
X136766666Y-101762380D01*
X136671428Y-101762380D01*
X136528571Y-101714761D01*
X136433333Y-101619523D01*
X136385714Y-101524285D01*
X136338095Y-101333809D01*
X136338095Y-101190952D01*
X136385714Y-101000476D01*
X136433333Y-100905238D01*
X136528571Y-100810000D01*
X136671428Y-100762380D01*
X136766666Y-100762380D01*
X136909523Y-100810000D01*
X136957142Y-100857619D01*
X137909523Y-101762380D02*
X137338095Y-101762380D01*
X137623809Y-101762380D02*
X137623809Y-100762380D01*
X137528571Y-100905238D01*
X137433333Y-101000476D01*
X137338095Y-101048095D01*
X138528571Y-100762380D02*
X138623809Y-100762380D01*
X138719047Y-100810000D01*
X138766666Y-100857619D01*
X138814285Y-100952857D01*
X138861904Y-101143333D01*
X138861904Y-101381428D01*
X138814285Y-101571904D01*
X138766666Y-101667142D01*
X138719047Y-101714761D01*
X138623809Y-101762380D01*
X138528571Y-101762380D01*
X138433333Y-101714761D01*
X138385714Y-101667142D01*
X138338095Y-101571904D01*
X138290476Y-101381428D01*
X138290476Y-101143333D01*
X138338095Y-100952857D01*
X138385714Y-100857619D01*
X138433333Y-100810000D01*
X138528571Y-100762380D01*
X137433333Y-105072380D02*
X137100000Y-104596190D01*
X136861904Y-105072380D02*
X136861904Y-104072380D01*
X137242857Y-104072380D01*
X137338095Y-104120000D01*
X137385714Y-104167619D01*
X137433333Y-104262857D01*
X137433333Y-104405714D01*
X137385714Y-104500952D01*
X137338095Y-104548571D01*
X137242857Y-104596190D01*
X136861904Y-104596190D01*
X138385714Y-105072380D02*
X137814285Y-105072380D01*
X138100000Y-105072380D02*
X138100000Y-104072380D01*
X138004761Y-104215238D01*
X137909523Y-104310476D01*
X137814285Y-104358095D01*
M02*
