%TF.GenerationSoftware,KiCad,Pcbnew,5.0.1*%
%TF.CreationDate,2019-01-19T14:59:23-06:00*%
%TF.ProjectId,NFCJig-TOP,4E46434A69672D544F502E6B69636164,rev?*%
%TF.SameCoordinates,Original*%
%TF.FileFunction,Soldermask,Top*%
%TF.FilePolarity,Negative*%
%FSLAX46Y46*%
G04 Gerber Fmt 4.6, Leading zero omitted, Abs format (unit mm)*
G04 Created by KiCad (PCBNEW 5.0.1) date Sat 19 Jan 2019 02:59:23 PM CST*
%MOMM*%
%LPD*%
G01*
G04 APERTURE LIST*
%ADD10C,0.150000*%
%ADD11C,0.100000*%
G04 APERTURE END LIST*
D10*
X127000000Y-134000000D02*
X204000000Y-134000000D01*
X107000000Y-127000000D02*
X107000000Y-126000000D01*
X109000000Y-129000000D02*
X110500000Y-129000000D01*
X109000000Y-129000000D02*
G75*
G02X107000000Y-127000000I0J2000000D01*
G01*
X123000000Y-129000000D02*
X110500000Y-129000000D01*
X107000000Y-72000000D02*
X107000000Y-126000000D01*
X125000000Y-132000000D02*
X125000000Y-131000000D01*
X123000000Y-129000000D02*
G75*
G02X125000000Y-131000000I0J-2000000D01*
G01*
X127000000Y-134000000D02*
G75*
G02X125000000Y-132000000I0J2000000D01*
G01*
X207000000Y-65000000D02*
X207000000Y-67000000D01*
X205000000Y-63000000D02*
X203500000Y-63000000D01*
X205000000Y-63000000D02*
G75*
G02X207000000Y-65000000I0J-2000000D01*
G01*
X203000000Y-63000000D02*
X203500000Y-63000000D01*
X138000000Y-63000000D02*
X203000000Y-63000000D01*
X135500000Y-68000000D02*
X135500000Y-65500000D01*
X135500000Y-65500000D02*
G75*
G02X138000000Y-63000000I2500000J0D01*
G01*
X107000000Y-72000000D02*
G75*
G02X109000000Y-70000000I2000000J0D01*
G01*
X109000000Y-70000000D02*
X110500000Y-70000000D01*
X133500000Y-70000000D02*
X110500000Y-70000000D01*
X135500000Y-68000000D02*
G75*
G02X133500000Y-70000000I-2000000J0D01*
G01*
X112000000Y-76000000D02*
G75*
G02X114500000Y-73500000I2500000J0D01*
G01*
X114500000Y-73500000D02*
X198500000Y-73500000D01*
X207000000Y-67000000D02*
X207000000Y-131000000D01*
X207000000Y-131000000D02*
G75*
G02X204000000Y-134000000I-3000000J0D01*
G01*
X112000000Y-122000000D02*
X112000000Y-76000000D01*
X198500000Y-124500000D02*
X114500000Y-124500000D01*
X201000000Y-76000000D02*
X201000000Y-122000000D01*
X201000000Y-122000000D02*
G75*
G02X198500000Y-124500000I-2500000J0D01*
G01*
X114500000Y-124500000D02*
G75*
G02X112000000Y-122000000I0J2500000D01*
G01*
X198500000Y-73500000D02*
G75*
G02X201000000Y-76000000I0J-2500000D01*
G01*
D11*
G36*
X195700000Y-129300000D02*
X185300000Y-129300000D01*
X185300000Y-126800000D01*
X195700000Y-126800000D01*
X195700000Y-129300000D01*
X195700000Y-129300000D01*
G37*
G36*
X163650000Y-129300000D02*
X153250000Y-129300000D01*
X153250000Y-126800000D01*
X163650000Y-126800000D01*
X163650000Y-129300000D01*
X163650000Y-129300000D01*
G37*
G36*
X206750000Y-122000000D02*
X204250000Y-122000000D01*
X204250000Y-111600000D01*
X206750000Y-111600000D01*
X206750000Y-122000000D01*
X206750000Y-122000000D01*
G37*
G36*
X109800000Y-122000000D02*
X107300000Y-122000000D01*
X107300000Y-111600000D01*
X109800000Y-111600000D01*
X109800000Y-122000000D01*
X109800000Y-122000000D01*
G37*
G36*
X206750000Y-85350000D02*
X204250000Y-85350000D01*
X204250000Y-74950000D01*
X206750000Y-74950000D01*
X206750000Y-85350000D01*
X206750000Y-85350000D01*
G37*
G36*
X109800000Y-85300000D02*
X107300000Y-85300000D01*
X107300000Y-74900000D01*
X109800000Y-74900000D01*
X109800000Y-85300000D01*
X109800000Y-85300000D01*
G37*
G36*
X195550000Y-68900000D02*
X185150000Y-68900000D01*
X185150000Y-66400000D01*
X195550000Y-66400000D01*
X195550000Y-68900000D01*
X195550000Y-68900000D01*
G37*
G36*
X163650000Y-68750000D02*
X153250000Y-68750000D01*
X153250000Y-66250000D01*
X163650000Y-66250000D01*
X163650000Y-68750000D01*
X163650000Y-68750000D01*
G37*
M02*
